<svg width="520" height="103" viewBox="0 0 520 103" fill="none" xmlns="http://www.w3.org/2000/svg">
<g filter="url(#filter0_b_738_733)">
<rect y="2" width="520" height="101" rx="6" fill="url(#paint0_linear_738_733)"/>
</g>
<g filter="url(#filter1_b_738_733)">
<rect width="520" height="30" rx="6" fill="url(#paint1_linear_738_733)"/>
</g>
<g opacity="0.8">
<path d="M19.216 62V50.2399H21.1316V53.2715L21.0483 54.854C21.4037 54.5319 21.7923 54.2488 22.2143 54.0045C22.6363 53.749 23.1249 53.6213 23.6802 53.6213C24.5575 53.6213 25.196 53.9045 25.5958 54.4709C25.9955 55.0372 26.1954 55.8368 26.1954 56.8695V62H24.2798V57.1194C24.2798 56.442 24.1743 55.9645 23.9633 55.6869C23.7635 55.3981 23.4414 55.2538 22.9972 55.2538C22.6419 55.2538 22.3254 55.3426 22.0477 55.5203C21.7812 55.698 21.4758 55.9534 21.1316 56.2865V62H19.216ZM31.3862 62.1666C30.4422 62.1666 29.7704 61.8945 29.3706 61.3504C28.9819 60.8062 28.7876 60.0955 28.7876 59.2182V55.337H27.6216V53.9045L28.8875 53.8212L29.1208 51.256H30.7199V53.8212H32.802V55.337H30.7199V59.2182C30.7199 59.6957 30.8143 60.0566 31.003 60.3009C31.1918 60.5342 31.4805 60.6508 31.8692 60.6508C32.0136 60.6508 32.1579 60.6396 32.3023 60.6174C32.4467 60.5841 32.5855 60.5397 32.7187 60.4842L33.0685 61.8168C32.8576 61.9167 32.6077 62 32.319 62.0666C32.0302 62.1333 31.7193 62.1666 31.3862 62.1666ZM37.0796 62.1666C36.1357 62.1666 35.4638 61.8945 35.0641 61.3504C34.6754 60.8062 34.481 60.0955 34.481 59.2182V55.337H33.315V53.9045L34.581 53.8212L34.8142 51.256H36.4133V53.8212H38.4955V55.337H36.4133V59.2182C36.4133 59.6957 36.5077 60.0566 36.6965 60.3009C36.8853 60.5342 37.174 60.6508 37.5627 60.6508C37.707 60.6508 37.8514 60.6396 37.9957 60.6174C38.1401 60.5841 38.2789 60.5397 38.4122 60.4842L38.762 61.8168C38.551 61.9167 38.3011 62 38.0124 62.0666C37.7237 62.1333 37.4127 62.1666 37.0796 62.1666ZM40.2166 65.2315V53.8212H41.7991L41.9324 54.6874H41.999C42.3432 54.3876 42.7264 54.1377 43.1483 53.9378C43.5703 53.7268 44.009 53.6213 44.4643 53.6213C45.1417 53.6213 45.7191 53.7935 46.1966 54.1377C46.6742 54.482 47.0406 54.965 47.296 55.5869C47.5514 56.2088 47.6791 56.9417 47.6791 57.7857C47.6791 58.7185 47.5126 59.5181 47.1794 60.1843C46.8463 60.8395 46.4132 61.3393 45.8802 61.6835C45.3582 62.0278 44.7919 62.1999 44.1811 62.1999C43.8146 62.1999 43.4537 62.1222 43.0984 61.9667C42.7541 61.8001 42.4154 61.578 42.0823 61.3004L42.1322 62.6663V65.2315H40.2166ZM43.7813 60.6174C44.1478 60.6174 44.4754 60.5119 44.7641 60.3009C45.0528 60.09 45.2805 59.7735 45.4471 59.3515C45.6136 58.9295 45.6969 58.4131 45.6969 57.8023C45.6969 57.2582 45.6358 56.7918 45.5137 56.4031C45.3915 56.0144 45.1972 55.7202 44.9307 55.5203C44.6753 55.3093 44.3366 55.2038 43.9146 55.2038C43.6259 55.2038 43.3371 55.2815 43.0484 55.437C42.7597 55.5814 42.4543 55.809 42.1322 56.1199V59.9345C42.4321 60.1788 42.7208 60.3565 42.9984 60.4675C43.2872 60.5675 43.5481 60.6174 43.7813 60.6174ZM51.8359 62.1999C51.2696 62.1999 50.7088 62.0944 50.1535 61.8834C49.6094 61.6724 49.1374 61.3781 48.7377 61.0006L49.5872 59.9012C49.9537 60.201 50.3257 60.4175 50.7032 60.5508C51.0808 60.6841 51.475 60.7507 51.8859 60.7507C52.3412 60.7507 52.6744 60.6563 52.8854 60.4675C53.1075 60.2787 53.2185 60.0455 53.2185 59.7679C53.2185 59.5458 53.1352 59.357 52.9686 59.2016C52.8132 59.0461 52.6022 58.9128 52.3357 58.8018C52.0803 58.6907 51.7971 58.5797 51.4861 58.4686C51.0975 58.3243 50.7255 58.1521 50.3701 57.9523C50.0147 57.7413 49.7316 57.4859 49.5206 57.186C49.3096 56.8751 49.2041 56.5031 49.2041 56.07C49.2041 55.3482 49.4706 54.7596 50.0036 54.3043C50.5367 53.849 51.264 53.6213 52.1857 53.6213C52.7299 53.6213 53.2352 53.7157 53.7016 53.9045C54.168 54.0822 54.5678 54.3154 54.9009 54.6041L54.0514 55.6869C53.7626 55.4759 53.4684 55.3204 53.1685 55.2204C52.8687 55.1205 52.5522 55.0705 52.2191 55.0705C51.8082 55.0705 51.5028 55.1594 51.3029 55.337C51.103 55.5036 51.0031 55.7146 51.0031 55.97C51.0031 56.1699 51.0642 56.3365 51.1863 56.4698C51.3196 56.603 51.5083 56.7252 51.7527 56.8362C51.997 56.9362 52.2912 57.0472 52.6355 57.1694C53.0575 57.3026 53.4517 57.4747 53.8182 57.6857C54.1846 57.8967 54.4734 58.1633 54.6844 58.4853C54.9065 58.7962 55.0175 59.1849 55.0175 59.6513C55.0175 60.1177 54.8953 60.5453 54.651 60.9339C54.4067 61.3226 54.0514 61.6335 53.585 61.8667C53.1186 62.0888 52.5356 62.1999 51.8359 62.1999ZM57.8103 56.5031C57.455 56.5031 57.1552 56.3809 56.9108 56.1366C56.6776 55.8812 56.561 55.5758 56.561 55.2204C56.561 54.8318 56.6776 54.5153 56.9108 54.271C57.1552 54.0267 57.455 53.9045 57.8103 53.9045C58.1546 53.9045 58.4433 54.0267 58.6765 54.271C58.9208 54.5153 59.043 54.8318 59.043 55.2204C59.043 55.5758 58.9208 55.8812 58.6765 56.1366C58.4433 56.3809 58.1546 56.5031 57.8103 56.5031ZM57.8103 62.1999C57.455 62.1999 57.1552 62.0777 56.9108 61.8334C56.6776 61.578 56.561 61.2726 56.561 60.9173C56.561 60.5286 56.6776 60.2121 56.9108 59.9678C57.1552 59.7235 57.455 59.6013 57.8103 59.6013C58.1546 59.6013 58.4433 59.7235 58.6765 59.9678C58.9208 60.2121 59.043 60.5286 59.043 60.9173C59.043 61.2726 58.9208 61.578 58.6765 61.8334C58.4433 62.0777 58.1546 62.1999 57.8103 62.1999ZM60.2821 64.6652L64.18 50.1733H65.4792L61.5981 64.6652H60.2821ZM66.0081 64.6652L69.9059 50.1733H71.2052L67.3241 64.6652H66.0081ZM74.7491 62.1999C74.2716 62.1999 73.8496 62.0999 73.4831 61.9001C73.1167 61.6891 72.8335 61.4059 72.6336 61.0505C72.4337 60.6841 72.3338 60.2676 72.3338 59.8012C72.3338 58.9239 72.7113 58.2465 73.4665 57.769C74.2327 57.2804 75.4542 56.9473 77.1311 56.7696C77.1311 56.4809 77.0811 56.2143 76.9812 55.97C76.8923 55.7257 76.7424 55.5314 76.5314 55.387C76.3204 55.2427 76.0261 55.1705 75.6486 55.1705C75.2488 55.1705 74.8546 55.2482 74.4659 55.4037C74.0883 55.548 73.7163 55.7257 73.3499 55.9367L72.6502 54.6874C72.9501 54.4986 73.2777 54.3209 73.633 54.1544C73.9884 53.9878 74.366 53.8601 74.7657 53.7713C75.1655 53.6713 75.5819 53.6213 76.015 53.6213C76.7035 53.6213 77.2699 53.7602 77.7141 54.0378C78.1583 54.3043 78.4914 54.7041 78.7135 55.2371C78.9467 55.759 79.0633 56.3976 79.0633 57.1527V62H77.4975L77.3476 61.1005H77.281C76.9256 61.4003 76.537 61.6613 76.115 61.8834C75.693 62.0944 75.2377 62.1999 74.7491 62.1999ZM75.3654 60.7007C75.6985 60.7007 75.9984 60.623 76.2649 60.4675C76.5425 60.3009 76.8312 60.0788 77.1311 59.8012V57.9689C76.3982 58.0578 75.8151 58.1855 75.3821 58.352C74.9601 58.5075 74.6547 58.6963 74.4659 58.9184C74.2771 59.1294 74.1827 59.3737 74.1827 59.6513C74.1827 60.0067 74.2938 60.2732 74.5159 60.4509C74.738 60.6174 75.0211 60.7007 75.3654 60.7007ZM81.3558 65.2315V53.8212H82.9383L83.0715 54.6874H83.1381C83.4824 54.3876 83.8655 54.1377 84.2875 53.9378C84.7095 53.7268 85.1481 53.6213 85.6034 53.6213C86.2808 53.6213 86.8583 53.7935 87.3358 54.1377C87.8133 54.482 88.1798 54.965 88.4352 55.5869C88.6906 56.2088 88.8183 56.9417 88.8183 57.7857C88.8183 58.7185 88.6517 59.5181 88.3186 60.1843C87.9854 60.8395 87.5523 61.3393 87.0193 61.6835C86.4974 62.0278 85.931 62.1999 85.3203 62.1999C84.9538 62.1999 84.5929 62.1222 84.2375 61.9667C83.8933 61.8001 83.5546 61.578 83.2214 61.3004L83.2714 62.6663V65.2315H81.3558ZM84.9205 60.6174C85.2869 60.6174 85.6145 60.5119 85.9033 60.3009C86.192 60.09 86.4196 59.7735 86.5862 59.3515C86.7528 58.9295 86.8361 58.4131 86.8361 57.8023C86.8361 57.2582 86.775 56.7918 86.6529 56.4031C86.5307 56.0144 86.3364 55.7202 86.0698 55.5203C85.8144 55.3093 85.4757 55.2038 85.0537 55.2038C84.765 55.2038 84.4763 55.2815 84.1876 55.437C83.8988 55.5814 83.5934 55.809 83.2714 56.1199V59.9345C83.5712 60.1788 83.86 60.3565 84.1376 60.4675C84.4263 60.5675 84.6873 60.6174 84.9205 60.6174ZM90.7581 62V53.8212H92.6737V62H90.7581ZM91.7242 52.3887C91.38 52.3887 91.1024 52.2887 90.8914 52.0889C90.6804 51.889 90.5749 51.6225 90.5749 51.2893C90.5749 50.9673 90.6804 50.7063 90.8914 50.5064C91.1024 50.2954 91.38 50.1899 91.7242 50.1899C92.0685 50.1899 92.3461 50.2954 92.5571 50.5064C92.7681 50.7063 92.8736 50.9673 92.8736 51.2893C92.8736 51.6225 92.7681 51.889 92.5571 52.0889C92.3461 52.2887 92.0685 52.3887 91.7242 52.3887ZM96.1841 62.1999C95.8288 62.1999 95.5289 62.0777 95.2846 61.8334C95.0514 61.578 94.9348 61.2726 94.9348 60.9173C94.9348 60.5286 95.0514 60.2121 95.2846 59.9678C95.5289 59.7235 95.8288 59.6013 96.1841 59.6013C96.5284 59.6013 96.8171 59.7235 97.0503 59.9678C97.2946 60.2121 97.4168 60.5286 97.4168 60.9173C97.4168 61.2726 97.2946 61.578 97.0503 61.8334C96.8171 62.0777 96.5284 62.1999 96.1841 62.1999ZM103.008 62.1999C102.253 62.1999 101.57 62.0333 100.959 61.7002C100.348 61.3559 99.8651 60.8673 99.5097 60.2343C99.1544 59.5902 98.9767 58.8184 98.9767 57.9189C98.9767 57.0305 99.1544 56.2699 99.5097 55.6369C99.8762 54.9928 100.348 54.4986 100.926 54.1544C101.503 53.799 102.108 53.6213 102.741 53.6213C103.474 53.6213 104.091 53.7879 104.59 54.1211C105.101 54.4431 105.484 54.8984 105.74 55.487C105.995 56.0644 106.123 56.7363 106.123 57.5025C106.123 57.6802 106.112 57.8579 106.089 58.0355C106.078 58.2021 106.062 58.3354 106.039 58.4353H100.443L100.409 57.136H104.474C104.474 56.492 104.329 55.9922 104.041 55.6369C103.763 55.2815 103.346 55.1038 102.791 55.1038C102.458 55.1038 102.136 55.1982 101.825 55.387C101.514 55.5647 101.253 55.859 101.042 56.2699C100.842 56.6807 100.748 57.2249 100.759 57.9023C100.781 58.5686 100.909 59.1127 101.142 59.5347C101.375 59.9456 101.675 60.2454 102.042 60.4342C102.419 60.623 102.825 60.7174 103.258 60.7174C103.613 60.7174 103.946 60.6674 104.257 60.5675C104.579 60.4675 104.885 60.3287 105.173 60.151L105.806 61.317C105.429 61.5836 104.996 61.8001 104.507 61.9667C104.029 62.1222 103.53 62.1999 103.008 62.1999ZM109.768 62L106.92 53.8212H108.869L110.168 58.0689C110.279 58.4686 110.39 58.874 110.501 59.2848C110.623 59.6957 110.746 60.1066 110.868 60.5175H110.934C111.045 60.1066 111.156 59.6957 111.268 59.2848C111.39 58.874 111.506 58.4686 111.617 58.0689L112.917 53.8212H114.766L111.984 62H109.768ZM119.584 62.1999C118.829 62.1999 118.146 62.0333 117.535 61.7002C116.924 61.3559 116.441 60.8673 116.086 60.2343C115.73 59.5902 115.553 58.8184 115.553 57.9189C115.553 57.0305 115.73 56.2699 116.086 55.6369C116.452 54.9928 116.924 54.4986 117.502 54.1544C118.079 53.799 118.684 53.6213 119.317 53.6213C120.05 53.6213 120.667 53.7879 121.166 54.1211C121.677 54.4431 122.06 54.8984 122.316 55.487C122.571 56.0644 122.699 56.7363 122.699 57.5025C122.699 57.6802 122.688 57.8579 122.665 58.0355C122.654 58.2021 122.638 58.3354 122.615 58.4353H117.019L116.985 57.136H121.05C121.05 56.492 120.905 55.9922 120.617 55.6369C120.339 55.2815 119.923 55.1038 119.367 55.1038C119.034 55.1038 118.712 55.1982 118.401 55.387C118.09 55.5647 117.829 55.859 117.618 56.2699C117.418 56.6807 117.324 57.2249 117.335 57.9023C117.357 58.5686 117.485 59.1127 117.718 59.5347C117.951 59.9456 118.251 60.2454 118.618 60.4342C118.995 60.623 119.401 60.7174 119.834 60.7174C120.189 60.7174 120.522 60.6674 120.833 60.5675C121.155 60.4675 121.461 60.3287 121.749 60.151L122.382 61.317C122.005 61.5836 121.572 61.8001 121.083 61.9667C120.605 62.1222 120.106 62.1999 119.584 62.1999ZM124.528 62V53.8212H126.111L126.244 55.2704H126.311C126.588 54.7374 126.933 54.3321 127.343 54.0544C127.754 53.7657 128.182 53.6213 128.626 53.6213C128.837 53.6213 129.015 53.638 129.159 53.6713C129.303 53.6935 129.437 53.7324 129.559 53.7879L129.176 55.4203C129.042 55.387 128.92 55.3648 128.809 55.3537C128.698 55.3315 128.554 55.3204 128.376 55.3204C128.054 55.3204 127.715 55.4481 127.36 55.7035C127.005 55.9478 126.699 56.3809 126.444 57.0028V62H124.528ZM132.927 62.1999C132.36 62.1999 131.8 62.0944 131.244 61.8834C130.7 61.6724 130.228 61.3781 129.829 61.0006L130.678 59.9012C131.044 60.201 131.417 60.4175 131.794 60.5508C132.172 60.6841 132.566 60.7507 132.977 60.7507C133.432 60.7507 133.765 60.6563 133.976 60.4675C134.198 60.2787 134.309 60.0455 134.309 59.7679C134.309 59.5458 134.226 59.357 134.059 59.2016C133.904 59.0461 133.693 58.9128 133.427 58.8018C133.171 58.6907 132.888 58.5797 132.577 58.4686C132.188 58.3243 131.816 58.1521 131.461 57.9523C131.106 57.7413 130.822 57.4859 130.611 57.186C130.4 56.8751 130.295 56.5031 130.295 56.07C130.295 55.3482 130.561 54.7596 131.094 54.3043C131.628 53.849 132.355 53.6213 133.277 53.6213C133.821 53.6213 134.326 53.7157 134.792 53.9045C135.259 54.0822 135.659 54.3154 135.992 54.6041L135.142 55.6869C134.853 55.4759 134.559 55.3204 134.259 55.2204C133.96 55.1205 133.643 55.0705 133.31 55.0705C132.899 55.0705 132.594 55.1594 132.394 55.337C132.194 55.5036 132.094 55.7146 132.094 55.97C132.094 56.1699 132.155 56.3365 132.277 56.4698C132.41 56.603 132.599 56.7252 132.843 56.8362C133.088 56.9362 133.382 57.0472 133.726 57.1694C134.148 57.3026 134.543 57.4747 134.909 57.6857C135.275 57.8967 135.564 58.1633 135.775 58.4853C135.997 58.7962 136.108 59.1849 136.108 59.6513C136.108 60.1177 135.986 60.5453 135.742 60.9339C135.498 61.3226 135.142 61.6335 134.676 61.8667C134.209 62.0888 133.626 62.1999 132.927 62.1999ZM137.818 62V53.8212H139.734V62H137.818ZM138.785 52.3887C138.44 52.3887 138.163 52.2887 137.952 52.0889C137.741 51.889 137.635 51.6225 137.635 51.2893C137.635 50.9673 137.741 50.7063 137.952 50.5064C138.163 50.2954 138.44 50.1899 138.785 50.1899C139.129 50.1899 139.406 50.2954 139.617 50.5064C139.828 50.7063 139.934 50.9673 139.934 51.2893C139.934 51.6225 139.828 51.889 139.617 52.0889C139.406 52.2887 139.129 52.3887 138.785 52.3887ZM145.01 65.6147C144.366 65.6147 143.783 65.5369 143.261 65.3814C142.75 65.226 142.345 64.9872 142.045 64.6652C141.745 64.3542 141.595 63.96 141.595 63.4825C141.595 63.1383 141.701 62.8162 141.912 62.5164C142.123 62.2277 142.412 61.9667 142.778 61.7335V61.6669C142.578 61.5336 142.406 61.3559 142.262 61.1338C142.117 60.9117 142.045 60.6396 142.045 60.3176C142.045 59.9845 142.134 59.6902 142.312 59.4348C142.5 59.1682 142.711 58.9517 142.945 58.7851V58.7185C142.667 58.5075 142.417 58.2132 142.195 57.8357C141.973 57.4581 141.862 57.0305 141.862 56.553C141.862 55.9312 142.012 55.4037 142.312 54.9706C142.611 54.5264 143.006 54.1932 143.494 53.9711C143.994 53.7379 144.533 53.6213 145.11 53.6213C145.332 53.6213 145.549 53.638 145.76 53.6713C145.971 53.7046 146.159 53.7546 146.326 53.8212H149.241V55.2371H147.709V55.3037C147.853 55.4703 147.97 55.6646 148.058 55.8867C148.158 56.0977 148.208 56.3476 148.208 56.6363C148.208 57.236 148.07 57.7413 147.792 58.1521C147.514 58.563 147.142 58.8795 146.676 59.1016C146.209 59.3126 145.688 59.4181 145.11 59.4181C144.932 59.4181 144.749 59.4014 144.56 59.3681C144.372 59.3237 144.183 59.2626 143.994 59.1849C143.872 59.296 143.772 59.4126 143.694 59.5347C143.628 59.6458 143.594 59.7957 143.594 59.9845C143.594 60.2066 143.689 60.3842 143.877 60.5175C144.077 60.6508 144.427 60.7174 144.927 60.7174H146.376C147.353 60.7174 148.097 60.8784 148.608 61.2004C149.119 61.5114 149.374 62.0222 149.374 62.7329C149.374 63.2771 149.197 63.7657 148.841 64.1988C148.486 64.6319 147.981 64.9761 147.326 65.2315C146.681 65.4869 145.91 65.6147 145.01 65.6147ZM145.11 58.2021C145.365 58.2021 145.599 58.141 145.81 58.0189C146.032 57.8856 146.204 57.6968 146.326 57.4525C146.459 57.1971 146.526 56.8973 146.526 56.553C146.526 56.0422 146.387 55.648 146.11 55.3704C145.843 55.0927 145.51 54.9539 145.11 54.9539C144.71 54.9539 144.372 55.0927 144.094 55.3704C143.827 55.648 143.694 56.0422 143.694 56.553C143.694 56.8973 143.755 57.1971 143.877 57.4525C144.011 57.6968 144.183 57.8856 144.394 58.0189C144.605 58.141 144.844 58.2021 145.11 58.2021ZM145.31 64.3653C145.754 64.3653 146.143 64.3043 146.476 64.1821C146.809 64.0711 147.065 63.91 147.242 63.6991C147.431 63.4992 147.525 63.2826 147.525 63.0494C147.525 62.7274 147.398 62.5108 147.142 62.3998C146.898 62.2887 146.543 62.2332 146.076 62.2332H144.96C144.738 62.2332 144.538 62.2221 144.361 62.1999C144.183 62.1777 144.016 62.1499 143.861 62.1166C143.639 62.2832 143.472 62.4553 143.361 62.633C143.261 62.8107 143.211 62.9994 143.211 63.1993C143.211 63.5658 143.4 63.849 143.777 64.0489C144.155 64.2599 144.666 64.3653 145.31 64.3653ZM150.799 62V53.8212H152.382L152.515 54.9206H152.582C152.948 54.5542 153.348 54.2488 153.781 54.0045C154.214 53.749 154.708 53.6213 155.264 53.6213C156.141 53.6213 156.779 53.9045 157.179 54.4709C157.579 55.0372 157.779 55.8368 157.779 56.8695V62H155.863V57.1194C155.863 56.442 155.758 55.9645 155.547 55.6869C155.347 55.3981 155.025 55.2538 154.581 55.2538C154.225 55.2538 153.909 55.3426 153.631 55.5203C153.365 55.698 153.059 55.9534 152.715 56.2865V62H150.799ZM161.203 62.1999C160.848 62.1999 160.548 62.0777 160.304 61.8334C160.07 61.578 159.954 61.2726 159.954 60.9173C159.954 60.5286 160.07 60.2121 160.304 59.9678C160.548 59.7235 160.848 59.6013 161.203 59.6013C161.547 59.6013 161.836 59.7235 162.069 59.9678C162.314 60.2121 162.436 60.5286 162.436 60.9173C162.436 61.2726 162.314 61.578 162.069 61.8334C161.836 62.0777 161.547 62.1999 161.203 62.1999ZM167.977 62.1999C167.222 62.1999 166.539 62.0333 165.928 61.7002C165.328 61.3559 164.856 60.8673 164.512 60.2343C164.168 59.5902 163.996 58.8184 163.996 57.9189C163.996 57.0083 164.185 56.2365 164.562 55.6036C164.951 54.9595 165.456 54.4709 166.078 54.1377C166.7 53.7935 167.372 53.6213 168.093 53.6213C168.615 53.6213 169.071 53.7046 169.459 53.8712C169.859 54.0378 170.203 54.2599 170.492 54.5375L169.559 55.7202C169.382 55.5647 169.182 55.437 168.96 55.337C168.749 55.2371 168.493 55.1871 168.193 55.1871C167.76 55.1871 167.377 55.2982 167.044 55.5203C166.711 55.7424 166.444 56.0644 166.245 56.4864C166.056 56.8973 165.961 57.3748 165.961 57.9189C165.961 58.4631 166.056 58.9406 166.245 59.3515C166.433 59.7624 166.689 60.0788 167.011 60.3009C167.344 60.523 167.727 60.6341 168.16 60.6341C168.471 60.6341 168.765 60.573 169.043 60.4509C169.332 60.3287 169.593 60.1732 169.826 59.9845L170.609 61.1505C170.276 61.4725 169.881 61.7279 169.426 61.9167C168.971 62.1055 168.488 62.1999 167.977 62.1999ZM175.165 62.1999C174.487 62.1999 173.854 62.0333 173.266 61.7002C172.677 61.3559 172.2 60.8673 171.833 60.2343C171.467 59.5902 171.283 58.8184 171.283 57.9189C171.283 57.0083 171.467 56.2365 171.833 55.6036C172.2 54.9595 172.677 54.4709 173.266 54.1377C173.854 53.7935 174.487 53.6213 175.165 53.6213C175.853 53.6213 176.492 53.7935 177.08 54.1377C177.669 54.4709 178.146 54.9595 178.513 55.6036C178.879 56.2365 179.062 57.0083 179.062 57.9189C179.062 58.8184 178.879 59.5902 178.513 60.2343C178.146 60.8673 177.669 61.3559 177.08 61.7002C176.492 62.0333 175.853 62.1999 175.165 62.1999ZM175.165 60.6341C175.564 60.6341 175.909 60.523 176.197 60.3009C176.486 60.0788 176.703 59.7624 176.847 59.3515C177.002 58.9406 177.08 58.4631 177.08 57.9189C177.08 57.3748 177.002 56.8973 176.847 56.4864C176.703 56.0644 176.486 55.7424 176.197 55.5203C175.909 55.2982 175.564 55.1871 175.165 55.1871C174.776 55.1871 174.437 55.2982 174.148 55.5203C173.86 55.7424 173.638 56.0644 173.482 56.4864C173.327 56.8973 173.249 57.3748 173.249 57.9189C173.249 58.4631 173.327 58.9406 173.482 59.3515C173.638 59.7624 173.86 60.0788 174.148 60.3009C174.437 60.523 174.776 60.6341 175.165 60.6341ZM180.958 62V53.8212H182.541L182.674 54.9373H182.741C183.085 54.5708 183.463 54.2599 183.873 54.0045C184.284 53.749 184.74 53.6213 185.239 53.6213C185.85 53.6213 186.333 53.749 186.689 54.0045C187.044 54.2599 187.316 54.6208 187.505 55.0872C187.893 54.6652 188.299 54.3154 188.721 54.0378C189.143 53.7602 189.615 53.6213 190.137 53.6213C191.003 53.6213 191.636 53.9045 192.036 54.4709C192.446 55.0372 192.652 55.8368 192.652 56.8695V62H190.736V57.1194C190.736 56.442 190.636 55.9645 190.436 55.6869C190.237 55.3981 189.92 55.2538 189.487 55.2538C189.232 55.2538 188.96 55.337 188.671 55.5036C188.393 55.6702 188.093 55.9312 187.771 56.2865V62H185.856V57.1194C185.856 56.442 185.75 55.9645 185.539 55.6869C185.339 55.3981 185.023 55.2538 184.59 55.2538C184.079 55.2538 183.507 55.598 182.874 56.2865V62H180.958ZM193.964 64.6652L197.862 50.1733H199.161L195.28 64.6652H193.964ZM203.588 62.1999C202.566 62.1999 201.75 61.8223 201.139 61.0672C200.528 60.3121 200.223 59.2626 200.223 57.9189C200.223 57.0305 200.384 56.2643 200.706 55.6202C201.039 54.9761 201.472 54.482 202.005 54.1377C202.538 53.7935 203.099 53.6213 203.688 53.6213C204.154 53.6213 204.548 53.7046 204.871 53.8712C205.204 54.0267 205.526 54.2432 205.837 54.5208L205.753 53.2049V50.2399H207.686V62H206.12L205.97 61.1172H205.903C205.603 61.417 205.248 61.6724 204.837 61.8834C204.437 62.0944 204.021 62.1999 203.588 62.1999ZM204.054 60.6174C204.376 60.6174 204.676 60.5453 204.954 60.4009C205.231 60.2565 205.498 60.0178 205.753 59.6846V55.8867C205.476 55.6313 205.198 55.4537 204.92 55.3537C204.654 55.2538 204.382 55.2038 204.104 55.2038C203.749 55.2038 203.427 55.3093 203.138 55.5203C202.861 55.7313 202.633 56.0367 202.455 56.4364C202.278 56.8362 202.189 57.3248 202.189 57.9023C202.189 58.7796 202.35 59.4514 202.672 59.9178C203.005 60.3842 203.466 60.6174 204.054 60.6174ZM213.473 62.1999C212.796 62.1999 212.163 62.0333 211.574 61.7002C210.986 61.3559 210.508 60.8673 210.142 60.2343C209.775 59.5902 209.592 58.8184 209.592 57.9189C209.592 57.0083 209.775 56.2365 210.142 55.6036C210.508 54.9595 210.986 54.4709 211.574 54.1377C212.163 53.7935 212.796 53.6213 213.473 53.6213C214.162 53.6213 214.8 53.7935 215.389 54.1377C215.977 54.4709 216.455 54.9595 216.821 55.6036C217.188 56.2365 217.371 57.0083 217.371 57.9189C217.371 58.8184 217.188 59.5902 216.821 60.2343C216.455 60.8673 215.977 61.3559 215.389 61.7002C214.8 62.0333 214.162 62.1999 213.473 62.1999ZM213.473 60.6341C213.873 60.6341 214.217 60.523 214.506 60.3009C214.795 60.0788 215.011 59.7624 215.156 59.3515C215.311 58.9406 215.389 58.4631 215.389 57.9189C215.389 57.3748 215.311 56.8973 215.156 56.4864C215.011 56.0644 214.795 55.7424 214.506 55.5203C214.217 55.2982 213.873 55.1871 213.473 55.1871C213.085 55.1871 212.746 55.2982 212.457 55.5203C212.168 55.7424 211.946 56.0644 211.791 56.4864C211.635 56.8973 211.558 57.3748 211.558 57.9189C211.558 58.4631 211.635 58.9406 211.791 59.3515C211.946 59.7624 212.168 60.0788 212.457 60.3009C212.746 60.523 213.085 60.6341 213.473 60.6341ZM222.715 62.1999C221.96 62.1999 221.277 62.0333 220.666 61.7002C220.067 61.3559 219.595 60.8673 219.251 60.2343C218.906 59.5902 218.734 58.8184 218.734 57.9189C218.734 57.0083 218.923 56.2365 219.3 55.6036C219.689 54.9595 220.194 54.4709 220.816 54.1377C221.438 53.7935 222.11 53.6213 222.832 53.6213C223.354 53.6213 223.809 53.7046 224.198 53.8712C224.598 54.0378 224.942 54.2599 225.231 54.5375L224.298 55.7202C224.12 55.5647 223.92 55.437 223.698 55.337C223.487 55.2371 223.232 55.1871 222.932 55.1871C222.499 55.1871 222.116 55.2982 221.782 55.5203C221.449 55.7424 221.183 56.0644 220.983 56.4864C220.794 56.8973 220.7 57.3748 220.7 57.9189C220.7 58.4631 220.794 58.9406 220.983 59.3515C221.172 59.7624 221.427 60.0788 221.749 60.3009C222.082 60.523 222.465 60.6341 222.898 60.6341C223.209 60.6341 223.504 60.573 223.781 60.4509C224.07 60.3287 224.331 60.1732 224.564 59.9845L225.347 61.1505C225.014 61.4725 224.62 61.7279 224.164 61.9167C223.709 62.1055 223.226 62.1999 222.715 62.1999ZM229.393 62.1999C228.516 62.1999 227.872 61.9167 227.461 61.3504C227.061 60.784 226.861 59.9845 226.861 58.9517V53.8212H228.794V58.7018C228.794 59.3681 228.894 59.8456 229.094 60.1344C229.293 60.412 229.616 60.5508 230.06 60.5508C230.426 60.5508 230.743 60.462 231.009 60.2843C231.287 60.1066 231.576 59.8179 231.875 59.4181V53.8212H233.791V62H232.225L232.075 60.8007H232.025C231.659 61.2227 231.265 61.5614 230.843 61.8168C230.432 62.0722 229.949 62.1999 229.393 62.1999ZM236.217 62V53.8212H237.8L237.933 54.9373H238C238.344 54.5708 238.722 54.2599 239.132 54.0045C239.543 53.749 239.999 53.6213 240.498 53.6213C241.109 53.6213 241.592 53.749 241.947 54.0045C242.303 54.2599 242.575 54.6208 242.764 55.0872C243.152 54.6652 243.558 54.3154 243.98 54.0378C244.402 53.7602 244.874 53.6213 245.396 53.6213C246.262 53.6213 246.895 53.9045 247.295 54.4709C247.705 55.0372 247.911 55.8368 247.911 56.8695V62H245.995V57.1194C245.995 56.442 245.895 55.9645 245.695 55.6869C245.496 55.3981 245.179 55.2538 244.746 55.2538C244.491 55.2538 244.218 55.337 243.93 55.5036C243.652 55.6702 243.352 55.9312 243.03 56.2865V62H241.115V57.1194C241.115 56.442 241.009 55.9645 240.798 55.6869C240.598 55.3981 240.282 55.2538 239.849 55.2538C239.338 55.2538 238.766 55.598 238.133 56.2865V62H236.217ZM253.754 62.1999C252.999 62.1999 252.316 62.0333 251.705 61.7002C251.094 61.3559 250.611 60.8673 250.256 60.2343C249.9 59.5902 249.723 58.8184 249.723 57.9189C249.723 57.0305 249.9 56.2699 250.256 55.6369C250.622 54.9928 251.094 54.4986 251.672 54.1544C252.249 53.799 252.854 53.6213 253.487 53.6213C254.22 53.6213 254.837 53.7879 255.336 54.1211C255.847 54.4431 256.23 54.8984 256.486 55.487C256.741 56.0644 256.869 56.7363 256.869 57.5025C256.869 57.6802 256.858 57.8579 256.835 58.0355C256.824 58.2021 256.808 58.3354 256.785 58.4353H251.189L251.155 57.136H255.22C255.22 56.492 255.075 55.9922 254.787 55.6369C254.509 55.2815 254.092 55.1038 253.537 55.1038C253.204 55.1038 252.882 55.1982 252.571 55.387C252.26 55.5647 251.999 55.859 251.788 56.2699C251.588 56.6807 251.494 57.2249 251.505 57.9023C251.527 58.5686 251.655 59.1127 251.888 59.5347C252.121 59.9456 252.421 60.2454 252.788 60.4342C253.165 60.623 253.571 60.7174 254.004 60.7174C254.359 60.7174 254.692 60.6674 255.003 60.5675C255.325 60.4675 255.631 60.3287 255.919 60.151L256.552 61.317C256.175 61.5836 255.742 61.8001 255.253 61.9667C254.775 62.1222 254.276 62.1999 253.754 62.1999ZM258.698 62V53.8212H260.281L260.414 54.9206H260.481C260.847 54.5542 261.247 54.2488 261.68 54.0045C262.113 53.749 262.607 53.6213 263.162 53.6213C264.04 53.6213 264.678 53.9045 265.078 54.4709C265.478 55.0372 265.678 55.8368 265.678 56.8695V62H263.762V57.1194C263.762 56.442 263.657 55.9645 263.446 55.6869C263.246 55.3981 262.924 55.2538 262.48 55.2538C262.124 55.2538 261.808 55.3426 261.53 55.5203C261.264 55.698 260.958 55.9534 260.614 56.2865V62H258.698ZM270.901 62.1666C269.957 62.1666 269.285 61.8945 268.885 61.3504C268.497 60.8062 268.302 60.0955 268.302 59.2182V55.337H267.136V53.9045L268.402 53.8212L268.636 51.256H270.235V53.8212H272.317V55.337H270.235V59.2182C270.235 59.6957 270.329 60.0566 270.518 60.3009C270.707 60.5342 270.995 60.6508 271.384 60.6508C271.528 60.6508 271.673 60.6396 271.817 60.6174C271.962 60.5841 272.1 60.5397 272.234 60.4842L272.583 61.8168C272.372 61.9167 272.123 62 271.834 62.0666C271.545 62.1333 271.234 62.1666 270.901 62.1666ZM51.9428 84.1999C51.4653 84.1999 51.0433 84.0999 50.6768 83.9001C50.3104 83.6891 50.0272 83.4059 49.8273 83.0505C49.6274 82.6841 49.5275 82.2676 49.5275 81.8012C49.5275 80.9239 49.905 80.2465 50.6602 79.769C51.4264 79.2804 52.6479 78.9473 54.3248 78.7696C54.3248 78.4809 54.2748 78.2143 54.1749 77.97C54.086 77.7257 53.9361 77.5314 53.7251 77.387C53.5141 77.2427 53.2199 77.1705 52.8423 77.1705C52.4425 77.1705 52.0483 77.2482 51.6596 77.4037C51.282 77.548 50.91 77.7257 50.5436 77.9367L49.844 76.6874C50.1438 76.4986 50.4714 76.3209 50.8267 76.1544C51.1821 75.9878 51.5597 75.8601 51.9594 75.7713C52.3592 75.6713 52.7757 75.6213 53.2087 75.6213C53.8973 75.6213 54.4636 75.7602 54.9078 76.0378C55.352 76.3043 55.6851 76.7041 55.9072 77.2371C56.1404 77.759 56.257 78.3976 56.257 79.1527V84H54.6913L54.5413 83.1005H54.4747C54.1193 83.4003 53.7307 83.6613 53.3087 83.8834C52.8867 84.0944 52.4314 84.1999 51.9428 84.1999ZM52.5591 82.7007C52.8923 82.7007 53.1921 82.623 53.4586 82.4675C53.7362 82.3009 54.025 82.0788 54.3248 81.8012V79.9689C53.5919 80.0578 53.0089 80.1855 52.5758 80.352C52.1538 80.5075 51.8484 80.6963 51.6596 80.9184C51.4708 81.1294 51.3764 81.3737 51.3764 81.6513C51.3764 82.0067 51.4875 82.2732 51.7096 82.4509C51.9317 82.6174 52.2149 82.7007 52.5591 82.7007ZM61.9976 84.1999C61.2425 84.1999 60.5595 84.0333 59.9487 83.7002C59.3491 83.3559 58.8771 82.8673 58.5329 82.2343C58.1886 81.5902 58.0165 80.8184 58.0165 79.9189C58.0165 79.0083 58.2053 78.2365 58.5828 77.6036C58.9715 76.9595 59.4768 76.4709 60.0987 76.1377C60.7205 75.7935 61.3924 75.6213 62.1142 75.6213C62.6361 75.6213 63.0914 75.7046 63.4801 75.8712C63.8799 76.0378 64.2241 76.2599 64.5129 76.5375L63.58 77.7202C63.4024 77.5647 63.2025 77.437 62.9804 77.337C62.7694 77.2371 62.514 77.1871 62.2141 77.1871C61.781 77.1871 61.3979 77.2982 61.0648 77.5203C60.7316 77.7424 60.4651 78.0644 60.2652 78.4864C60.0764 78.8973 59.9821 79.3748 59.9821 79.9189C59.9821 80.4631 60.0764 80.9406 60.2652 81.3515C60.454 81.7624 60.7094 82.0788 61.0315 82.3009C61.3646 82.523 61.7477 82.6341 62.1808 82.6341C62.4918 82.6341 62.786 82.573 63.0637 82.4509C63.3524 82.3287 63.6134 82.1732 63.8466 81.9845L64.6295 83.1505C64.2963 83.4725 63.9021 83.7279 63.4468 83.9167C62.9915 84.1055 62.5084 84.1999 61.9976 84.1999ZM69.2852 84.1999C68.5301 84.1999 67.8471 84.0333 67.2363 83.7002C66.6367 83.3559 66.1647 82.8673 65.8205 82.2343C65.4762 81.5902 65.3041 80.8184 65.3041 79.9189C65.3041 79.0083 65.4929 78.2365 65.8704 77.6036C66.2591 76.9595 66.7644 76.4709 67.3863 76.1377C68.0081 75.7935 68.68 75.6213 69.4018 75.6213C69.9237 75.6213 70.379 75.7046 70.7677 75.8712C71.1675 76.0378 71.5117 76.2599 71.8005 76.5375L70.8676 77.7202C70.69 77.5647 70.4901 77.437 70.268 77.337C70.057 77.2371 69.8016 77.1871 69.5017 77.1871C69.0687 77.1871 68.6855 77.2982 68.3524 77.5203C68.0192 77.7424 67.7527 78.0644 67.5528 78.4864C67.364 78.8973 67.2697 79.3748 67.2697 79.9189C67.2697 80.4631 67.364 80.9406 67.5528 81.3515C67.7416 81.7624 67.997 82.0788 68.3191 82.3009C68.6522 82.523 69.0353 82.6341 69.4684 82.6341C69.7794 82.6341 70.0736 82.573 70.3513 82.4509C70.64 82.3287 70.901 82.1732 71.1342 81.9845L71.9171 83.1505C71.5839 83.4725 71.1897 83.7279 70.7344 83.9167C70.2791 84.1055 69.796 84.1999 69.2852 84.1999ZM76.6228 84.1999C75.8676 84.1999 75.1847 84.0333 74.5739 83.7002C73.9631 83.3559 73.4801 82.8673 73.1247 82.2343C72.7694 81.5902 72.5917 80.8184 72.5917 79.9189C72.5917 79.0305 72.7694 78.2699 73.1247 77.6369C73.4912 76.9928 73.9631 76.4986 74.5406 76.1544C75.1181 75.799 75.7233 75.6213 76.3563 75.6213C77.0892 75.6213 77.7055 75.7879 78.2052 76.1211C78.716 76.4431 79.0992 76.8984 79.3546 77.487C79.61 78.0644 79.7377 78.7363 79.7377 79.5025C79.7377 79.6802 79.7266 79.8579 79.7044 80.0355C79.6933 80.2021 79.6766 80.3354 79.6544 80.4353H74.0575L74.0242 79.136H78.0886C78.0886 78.492 77.9443 77.9922 77.6555 77.6369C77.3779 77.2815 76.9615 77.1038 76.4062 77.1038C76.0731 77.1038 75.751 77.1982 75.4401 77.387C75.1292 77.5647 74.8682 77.859 74.6572 78.2699C74.4573 78.6807 74.3629 79.2249 74.374 79.9023C74.3962 80.5686 74.5239 81.1127 74.7571 81.5347C74.9903 81.9456 75.2902 82.2454 75.6566 82.4342C76.0342 82.623 76.4395 82.7174 76.8726 82.7174C77.228 82.7174 77.5611 82.6674 77.8721 82.5675C78.1941 82.4675 78.4995 82.3287 78.7882 82.151L79.4212 83.317C79.0436 83.5836 78.6106 83.8001 78.1219 83.9667C77.6444 84.1222 77.1447 84.1999 76.6228 84.1999ZM83.8493 84.1999C83.283 84.1999 82.7222 84.0944 82.1669 83.8834C81.6228 83.6724 81.1508 83.3781 80.7511 83.0006L81.6006 81.9012C81.9671 82.201 82.3391 82.4175 82.7166 82.5508C83.0942 82.6841 83.4884 82.7507 83.8993 82.7507C84.3546 82.7507 84.6878 82.6563 84.8988 82.4675C85.1208 82.2787 85.2319 82.0455 85.2319 81.7679C85.2319 81.5458 85.1486 81.357 84.982 81.2016C84.8266 81.0461 84.6156 80.9128 84.3491 80.8018C84.0936 80.6907 83.8105 80.5797 83.4995 80.4686C83.1109 80.3243 82.7388 80.1521 82.3835 79.9523C82.0281 79.7413 81.745 79.4859 81.534 79.186C81.323 78.8751 81.2175 78.5031 81.2175 78.07C81.2175 77.3482 81.484 76.7596 82.017 76.3043C82.5501 75.849 83.2774 75.6213 84.1991 75.6213C84.7433 75.6213 85.2486 75.7157 85.715 75.9045C86.1814 76.0822 86.5811 76.3154 86.9143 76.6041L86.0648 77.6869C85.776 77.4759 85.4818 77.3204 85.1819 77.2204C84.8821 77.1205 84.5656 77.0705 84.2325 77.0705C83.8216 77.0705 83.5162 77.1594 83.3163 77.337C83.1164 77.5036 83.0165 77.7146 83.0165 77.97C83.0165 78.1699 83.0775 78.3365 83.1997 78.4698C83.333 78.603 83.5217 78.7252 83.7661 78.8362C84.0104 78.9362 84.3046 79.0472 84.6489 79.1694C85.0709 79.3026 85.4651 79.4747 85.8316 79.6857C86.198 79.8967 86.4868 80.1633 86.6977 80.4853C86.9198 80.7962 87.0309 81.1849 87.0309 81.6513C87.0309 82.1177 86.9087 82.5453 86.6644 82.9339C86.4201 83.3226 86.0648 83.6335 85.5984 83.8667C85.132 84.0888 84.5489 84.1999 83.8493 84.1999ZM91.0231 84.1999C90.4567 84.1999 89.8959 84.0944 89.3407 83.8834C88.7965 83.6724 88.3246 83.3781 87.9248 83.0006L88.7743 81.9012C89.1408 82.201 89.5128 82.4175 89.8904 82.5508C90.2679 82.6841 90.6622 82.7507 91.073 82.7507C91.5283 82.7507 91.8615 82.6563 92.0725 82.4675C92.2946 82.2787 92.4056 82.0455 92.4056 81.7679C92.4056 81.5458 92.3223 81.357 92.1558 81.2016C92.0003 81.0461 91.7893 80.9128 91.5228 80.8018C91.2674 80.6907 90.9842 80.5797 90.6733 80.4686C90.2846 80.3243 89.9126 80.1521 89.5572 79.9523C89.2019 79.7413 88.9187 79.4859 88.7077 79.186C88.4967 78.8751 88.3912 78.5031 88.3912 78.07C88.3912 77.3482 88.6577 76.7596 89.1908 76.3043C89.7238 75.849 90.4512 75.6213 91.3729 75.6213C91.917 75.6213 92.4223 75.7157 92.8887 75.9045C93.3551 76.0822 93.7549 76.3154 94.088 76.6041L93.2385 77.6869C92.9498 77.4759 92.6555 77.3204 92.3557 77.2204C92.0558 77.1205 91.7393 77.0705 91.4062 77.0705C90.9953 77.0705 90.6899 77.1594 90.49 77.337C90.2901 77.5036 90.1902 77.7146 90.1902 77.97C90.1902 78.1699 90.2513 78.3365 90.3734 78.4698C90.5067 78.603 90.6955 78.7252 90.9398 78.8362C91.1841 78.9362 91.4784 79.0472 91.8226 79.1694C92.2446 79.3026 92.6388 79.4747 93.0053 79.6857C93.3718 79.8967 93.6605 80.1633 93.8715 80.4853C94.0936 80.7962 94.2046 81.1849 94.2046 81.6513C94.2046 82.1177 94.0825 82.5453 93.8382 82.9339C93.5939 83.3226 93.2385 83.6335 92.7721 83.8667C92.3057 84.0888 91.7227 84.1999 91.0231 84.1999ZM94.8986 86.2154V85.0661H102.828V86.2154H94.8986ZM104.243 84V72.2399H106.142V79.5525H106.192L109.191 75.8212H111.306L108.524 79.1694L111.606 84H109.507L107.408 80.452L106.142 81.9012V84H104.243ZM116.07 84.1999C115.315 84.1999 114.632 84.0333 114.021 83.7002C113.411 83.3559 112.927 82.8673 112.572 82.2343C112.217 81.5902 112.039 80.8184 112.039 79.9189C112.039 79.0305 112.217 78.2699 112.572 77.6369C112.939 76.9928 113.411 76.4986 113.988 76.1544C114.565 75.799 115.171 75.6213 115.804 75.6213C116.537 75.6213 117.153 75.7879 117.653 76.1211C118.163 76.4431 118.547 76.8984 118.802 77.487C119.057 78.0644 119.185 78.7363 119.185 79.5025C119.185 79.6802 119.174 79.8579 119.152 80.0355C119.141 80.2021 119.124 80.3354 119.102 80.4353H113.505L113.472 79.136H117.536C117.536 78.492 117.392 77.9922 117.103 77.6369C116.825 77.2815 116.409 77.1038 115.854 77.1038C115.52 77.1038 115.198 77.1982 114.887 77.387C114.577 77.5647 114.316 77.859 114.105 78.2699C113.905 78.6807 113.81 79.2249 113.821 79.9023C113.844 80.5686 113.971 81.1127 114.205 81.5347C114.438 81.9456 114.738 82.2454 115.104 82.4342C115.482 82.623 115.887 82.7174 116.32 82.7174C116.675 82.7174 117.009 82.6674 117.319 82.5675C117.642 82.4675 117.947 82.3287 118.236 82.151L118.869 83.317C118.491 83.5836 118.058 83.8001 117.569 83.9667C117.092 84.1222 116.592 84.1999 116.07 84.1999ZM121.531 87.3481C121.32 87.3481 121.126 87.3315 120.948 87.2982C120.782 87.2648 120.621 87.226 120.465 87.1816L120.848 85.7324C120.96 85.7657 121.059 85.7879 121.148 85.799C121.237 85.8101 121.326 85.8157 121.415 85.8157C121.848 85.8157 122.192 85.6824 122.448 85.4159C122.714 85.1494 122.914 84.8162 123.047 84.4164L123.197 83.9001L119.982 75.8212H121.931L123.347 79.8357C123.469 80.191 123.586 80.5686 123.697 80.9684C123.819 81.357 123.941 81.7457 124.063 82.1344H124.13C124.23 81.7568 124.33 81.3737 124.43 80.985C124.541 80.5852 124.646 80.2021 124.746 79.8357L125.979 75.8212H127.828L124.863 84.3665C124.641 84.9772 124.385 85.5047 124.097 85.9489C123.808 86.3931 123.458 86.7374 123.047 86.9817C122.636 87.226 122.131 87.3481 121.531 87.3481ZM146.438 84V79.9523L143.173 73.1061H145.238L146.421 75.8879C146.588 76.2987 146.749 76.6985 146.904 77.0872C147.059 77.4759 147.221 77.8756 147.387 78.2865H147.454C147.62 77.8756 147.787 77.4759 147.953 77.0872C148.131 76.6985 148.298 76.2987 148.453 75.8879L149.636 73.1061H151.651L148.387 79.9523V84H146.438ZM156.938 84.1999C155.994 84.1999 155.161 83.9722 154.439 83.5169C153.717 83.0505 153.151 82.3953 152.74 81.5514C152.34 80.6963 152.14 79.6802 152.14 78.5031C152.14 77.3259 152.34 76.3209 152.74 75.4881C153.151 74.6552 153.717 74.0167 154.439 73.5725C155.161 73.1283 155.994 72.9062 156.938 72.9062C157.893 72.9062 158.725 73.1283 159.436 73.5725C160.158 74.0167 160.724 74.6552 161.135 75.4881C161.546 76.3209 161.752 77.3259 161.752 78.5031C161.752 79.6802 161.546 80.6963 161.135 81.5514C160.724 82.3953 160.158 83.0505 159.436 83.5169C158.725 83.9722 157.893 84.1999 156.938 84.1999ZM156.938 82.5175C157.515 82.5175 158.015 82.3565 158.437 82.0344C158.859 81.7013 159.181 81.2349 159.403 80.6352C159.636 80.0355 159.753 79.3248 159.753 78.5031C159.753 77.6924 159.636 76.9928 159.403 76.4042C159.181 75.8157 158.859 75.3659 158.437 75.055C158.015 74.7441 157.515 74.5886 156.938 74.5886C156.371 74.5886 155.872 74.7441 155.438 75.055C155.016 75.3659 154.689 75.8157 154.456 76.4042C154.234 76.9928 154.123 77.6924 154.123 78.5031C154.123 79.3248 154.234 80.0355 154.456 80.6352C154.689 81.2349 155.016 81.7013 155.438 82.0344C155.872 82.3565 156.371 82.5175 156.938 82.5175ZM168.029 84.1999C167.396 84.1999 166.824 84.111 166.313 83.9334C165.802 83.7557 165.363 83.4725 164.997 83.0838C164.642 82.6952 164.364 82.1955 164.164 81.5847C163.975 80.9628 163.881 80.2077 163.881 79.3193V73.1061H165.813V79.4692C165.813 80.2354 165.902 80.8407 166.08 81.2848C166.268 81.729 166.529 82.0455 166.863 82.2343C167.196 82.4231 167.584 82.5175 168.029 82.5175C168.473 82.5175 168.861 82.4231 169.195 82.2343C169.528 82.0455 169.789 81.729 169.977 81.2848C170.166 80.8407 170.261 80.2354 170.261 79.4692V73.1061H172.126V79.3193C172.126 80.2077 172.032 80.9628 171.843 81.5847C171.654 82.1955 171.382 82.6952 171.027 83.0838C170.672 83.4725 170.238 83.7557 169.728 83.9334C169.217 84.111 168.65 84.1999 168.029 84.1999ZM174.846 84V73.1061H178.511C179.277 73.1061 179.96 73.206 180.559 73.4059C181.17 73.6058 181.648 73.9445 181.992 74.422C182.347 74.8884 182.525 75.5269 182.525 76.3376C182.525 77.115 182.347 77.759 181.992 78.2699C181.648 78.7696 181.17 79.1416 180.559 79.3859C179.96 79.6302 179.277 79.7524 178.511 79.7524H176.778V84H174.846ZM176.778 78.2032H178.311C179.066 78.2032 179.638 78.0478 180.026 77.7368C180.426 77.4259 180.626 76.9595 180.626 76.3376C180.626 75.7046 180.426 75.266 180.026 75.0217C179.638 74.7774 179.066 74.6552 178.311 74.6552H176.778V78.2032ZM180.793 84L178.161 79.236L179.56 78.07L182.958 84H180.793ZM183.505 86.2154V85.0661H191.434V86.2154H183.505ZM191.6 84L195.148 73.1061H197.414L200.962 84H198.913L197.264 78.2032C197.086 77.6258 196.914 77.0317 196.747 76.4209C196.592 75.8101 196.436 75.2049 196.281 74.6052H196.214C196.059 75.2049 195.898 75.8101 195.731 76.4209C195.576 77.0317 195.415 77.6258 195.248 78.2032L193.583 84H191.6ZM193.699 81.0516V79.5358H198.83V81.0516H193.699ZM206.539 84.1999C205.617 84.1999 204.779 83.9833 204.024 83.5503C203.28 83.1172 202.686 82.4842 202.241 81.6513C201.808 80.8073 201.592 79.7857 201.592 78.5864C201.592 77.698 201.72 76.904 201.975 76.2043C202.241 75.4936 202.602 74.894 203.058 74.4054C203.513 73.9167 204.04 73.5447 204.64 73.2893C205.24 73.0339 205.889 72.9062 206.589 72.9062C207.266 72.9062 207.872 73.0394 208.405 73.306C208.938 73.5725 209.376 73.9001 209.721 74.2888L208.688 75.4548C208.41 75.1771 208.099 74.9661 207.755 74.8218C207.422 74.6663 207.044 74.5886 206.622 74.5886C206.034 74.5886 205.512 74.7496 205.057 75.0716C204.601 75.3937 204.24 75.849 203.974 76.4376C203.707 77.015 203.574 77.7091 203.574 78.5197C203.574 79.3526 203.702 80.0689 203.957 80.6685C204.213 81.2682 204.574 81.729 205.04 82.0511C205.506 82.362 206.05 82.5175 206.672 82.5175C207.139 82.5175 207.555 82.4287 207.922 82.251C208.299 82.0733 208.632 81.8234 208.921 81.5014L209.904 82.6341C209.449 83.1449 208.949 83.5336 208.405 83.8001C207.861 84.0666 207.239 84.1999 206.539 84.1999ZM215.6 84.1999C214.678 84.1999 213.84 83.9833 213.085 83.5503C212.341 83.1172 211.746 82.4842 211.302 81.6513C210.869 80.8073 210.653 79.7857 210.653 78.5864C210.653 77.698 210.78 76.904 211.036 76.2043C211.302 75.4936 211.663 74.894 212.118 74.4054C212.574 73.9167 213.101 73.5447 213.701 73.2893C214.301 73.0339 214.95 72.9062 215.65 72.9062C216.327 72.9062 216.932 73.0394 217.465 73.306C217.998 73.5725 218.437 73.9001 218.781 74.2888L217.749 75.4548C217.471 75.1771 217.16 74.9661 216.816 74.8218C216.483 74.6663 216.105 74.5886 215.683 74.5886C215.095 74.5886 214.573 74.7496 214.117 75.0716C213.662 75.3937 213.301 75.849 213.035 76.4376C212.768 77.015 212.635 77.7091 212.635 78.5197C212.635 79.3526 212.762 80.0689 213.018 80.6685C213.273 81.2682 213.634 81.729 214.101 82.0511C214.567 82.362 215.111 82.5175 215.733 82.5175C216.199 82.5175 216.616 82.4287 216.982 82.251C217.36 82.0733 217.693 81.8234 217.982 81.5014L218.965 82.6341C218.509 83.1449 218.01 83.5336 217.465 83.8001C216.921 84.0666 216.299 84.1999 215.6 84.1999ZM220.833 84V73.1061H227.396V74.7218H222.765V77.5203H226.679V79.1527H222.765V82.3676H227.562V84H220.833ZM232.977 84.1999C232.222 84.1999 231.506 84.0666 230.829 83.8001C230.162 83.5225 229.568 83.1172 229.046 82.5841L230.096 81.3348C230.484 81.7124 230.934 82.0067 231.445 82.2177C231.967 82.4175 232.489 82.5175 233.011 82.5175C233.633 82.5175 234.105 82.3898 234.427 82.1344C234.749 81.879 234.91 81.5403 234.91 81.1183C234.91 80.8073 234.837 80.563 234.693 80.3853C234.549 80.2077 234.349 80.0522 234.093 79.9189C233.849 79.7857 233.56 79.6469 233.227 79.5025L231.745 78.8695C231.378 78.7141 231.023 78.5142 230.679 78.2699C230.345 78.0144 230.068 77.698 229.846 77.3204C229.635 76.9428 229.529 76.4931 229.529 75.9711C229.529 75.3937 229.685 74.8773 229.996 74.422C230.318 73.9556 230.751 73.5891 231.295 73.3226C231.85 73.045 232.483 72.9062 233.194 72.9062C233.849 72.9062 234.465 73.0283 235.043 73.2726C235.631 73.5059 236.137 73.8279 236.559 74.2388L235.526 75.5047C235.171 75.216 234.799 74.9939 234.41 74.8384C234.021 74.6719 233.616 74.5886 233.194 74.5886C232.672 74.5886 232.256 74.7052 231.945 74.9384C231.634 75.1605 231.478 75.4714 231.478 75.8712C231.478 76.1488 231.561 76.382 231.728 76.5708C231.895 76.7485 232.111 76.904 232.378 77.0372C232.644 77.1594 232.927 77.2815 233.227 77.4037L234.693 78.02C235.126 78.1977 235.504 78.4198 235.826 78.6863C236.159 78.9417 236.42 79.2526 236.609 79.6191C236.797 79.9856 236.892 80.4298 236.892 80.9517C236.892 81.5403 236.736 82.0844 236.425 82.5841C236.114 83.0727 235.665 83.467 235.076 83.7668C234.499 84.0555 233.799 84.1999 232.977 84.1999ZM241.794 84.1999C241.039 84.1999 240.323 84.0666 239.645 83.8001C238.979 83.5225 238.385 83.1172 237.863 82.5841L238.912 81.3348C239.301 81.7124 239.751 82.0067 240.262 82.2177C240.784 82.4175 241.305 82.5175 241.827 82.5175C242.449 82.5175 242.921 82.3898 243.243 82.1344C243.565 81.879 243.726 81.5403 243.726 81.1183C243.726 80.8073 243.654 80.563 243.51 80.3853C243.365 80.2077 243.166 80.0522 242.91 79.9189C242.666 79.7857 242.377 79.6469 242.044 79.5025L240.561 78.8695C240.195 78.7141 239.84 78.5142 239.495 78.2699C239.162 78.0144 238.885 77.698 238.662 77.3204C238.451 76.9428 238.346 76.4931 238.346 75.9711C238.346 75.3937 238.501 74.8773 238.812 74.422C239.134 73.9556 239.568 73.5891 240.112 73.3226C240.667 73.045 241.3 72.9062 242.011 72.9062C242.666 72.9062 243.282 73.0283 243.86 73.2726C244.448 73.5059 244.953 73.8279 245.375 74.2388L244.343 75.5047C243.987 75.216 243.615 74.9939 243.227 74.8384C242.838 74.6719 242.433 74.5886 242.011 74.5886C241.489 74.5886 241.072 74.7052 240.761 74.9384C240.45 75.1605 240.295 75.4714 240.295 75.8712C240.295 76.1488 240.378 76.382 240.545 76.5708C240.711 76.7485 240.928 76.904 241.194 77.0372C241.461 77.1594 241.744 77.2815 242.044 77.4037L243.51 78.02C243.943 78.1977 244.32 78.4198 244.642 78.6863C244.976 78.9417 245.237 79.2526 245.425 79.6191C245.614 79.9856 245.709 80.4298 245.709 80.9517C245.709 81.5403 245.553 82.0844 245.242 82.5841C244.931 83.0727 244.481 83.467 243.893 83.7668C243.315 84.0555 242.616 84.1999 241.794 84.1999ZM246.507 86.2154V85.0661H254.436V86.2154H246.507ZM256.018 84V73.1061H257.95V78.0533H258L261.882 73.1061H264.03L260.682 77.3537L264.597 84H262.465L259.516 78.8695L257.95 80.8184V84H256.018ZM265.957 84V73.1061H272.52V74.7218H267.89V77.5203H271.804V79.1527H267.89V82.3676H272.687V84H265.957ZM276.736 84V79.9523L273.471 73.1061H275.537L276.719 75.8879C276.886 76.2987 277.047 76.6985 277.202 77.0872C277.358 77.4759 277.519 77.8756 277.685 78.2865H277.752C277.919 77.8756 278.085 77.4759 278.252 77.0872C278.43 76.6985 278.596 76.2987 278.752 75.8879L279.934 73.1061H281.95L278.685 79.9523V84H276.736Z" fill="white"/>
<path d="M40.6236 80.4187C40.5458 79.93 40.5681 79.497 40.6902 79.1194C40.8235 78.7418 41.0011 78.3976 41.2232 78.0866C41.4564 77.7646 41.6952 77.4703 41.9395 77.2038C42.1838 76.9262 42.3893 76.6541 42.5558 76.3876C42.7335 76.1211 42.8224 75.8323 42.8224 75.5214C42.8224 75.266 42.7668 75.0383 42.6558 74.8384C42.5447 74.6386 42.3837 74.4831 42.1727 74.372C41.9728 74.261 41.7341 74.2055 41.4564 74.2055C41.1233 74.2055 40.8124 74.2832 40.5236 74.4387C40.246 74.5941 39.985 74.8051 39.7407 75.0716L38.658 74.0889C39.0356 73.6669 39.4742 73.3226 39.9739 73.0561C40.4848 72.7785 41.0567 72.6397 41.6897 72.6397C42.2671 72.6397 42.7779 72.7452 43.2221 72.9562C43.6774 73.1672 44.0272 73.4781 44.2715 73.889C44.527 74.2887 44.6547 74.794 44.6547 75.4048C44.6547 75.8268 44.5658 76.2043 44.3881 76.5375C44.2216 76.8595 44.0106 77.1649 43.7552 77.4537C43.5109 77.7424 43.2665 78.0367 43.0222 78.3365C42.789 78.6252 42.5947 78.9362 42.4392 79.2693C42.2949 79.6025 42.2504 79.9856 42.306 80.4187H40.6236ZM41.4731 84.1999C41.1289 84.1999 40.8346 84.0777 40.5903 83.8334C40.3571 83.578 40.2405 83.2726 40.2405 82.9173C40.2405 82.5286 40.3571 82.2121 40.5903 81.9678C40.8346 81.7235 41.1289 81.6013 41.4731 81.6013C41.8285 81.6013 42.1227 81.7235 42.3559 81.9678C42.6003 82.2121 42.7224 82.5286 42.7224 82.9173C42.7224 83.2726 42.6003 83.578 42.3559 83.8334C42.1227 84.0777 41.8285 84.1999 41.4731 84.1999ZM131.931 77.337V75.9378H139.343V77.337H131.931ZM131.931 81.0683V79.6691H139.343V81.0683H131.931Z" fill="#FFC727"/>
</g>
<path opacity="0.8" d="M185.967 20L189.515 9.10608H191.78L195.328 20H193.279L191.63 14.2032C191.453 13.6258 191.28 13.0317 191.114 12.4209C190.958 11.8101 190.803 11.2049 190.647 10.6052H190.581C190.425 11.2049 190.264 11.8101 190.098 12.4209C189.942 13.0317 189.781 13.6258 189.615 14.2032L187.949 20H185.967ZM188.066 17.0516V15.5358H193.196V17.0516H188.066ZM196.687 20V9.10608H200.119C200.929 9.10608 201.651 9.21157 202.284 9.42257C202.917 9.63356 203.417 9.98336 203.783 10.472C204.15 10.9606 204.333 11.6269 204.333 12.4709C204.333 13.2704 204.15 13.9312 203.783 14.4531C203.417 14.975 202.923 15.3637 202.301 15.6191C201.679 15.8745 200.974 16.0022 200.185 16.0022H198.62V20H196.687ZM198.62 14.4531H200.035C200.846 14.4531 201.446 14.2921 201.834 13.97C202.234 13.6369 202.434 13.1372 202.434 12.4709C202.434 11.7935 202.223 11.3215 201.801 11.055C201.39 10.7885 200.779 10.6552 199.969 10.6552H198.62V14.4531ZM206.366 20V9.10608H208.298V20H206.366ZM214.402 20V9.10608H218.067C218.833 9.10608 219.516 9.20602 220.115 9.40591C220.726 9.6058 221.204 9.9445 221.548 10.422C221.903 10.8884 222.081 11.5269 222.081 12.3376C222.081 13.115 221.903 13.759 221.548 14.2699C221.204 14.7696 220.726 15.1416 220.115 15.3859C219.516 15.6302 218.833 15.7524 218.067 15.7524H216.334V20H214.402ZM216.334 14.2032H217.867C218.622 14.2032 219.194 14.0478 219.582 13.7368C219.982 13.4259 220.182 12.9595 220.182 12.3376C220.182 11.7046 219.982 11.266 219.582 11.0217C219.194 10.7774 218.622 10.6552 217.867 10.6552H216.334V14.2032ZM220.349 20L217.717 15.236L219.116 14.07L222.514 20H220.349ZM224.244 20V9.10608H230.807V10.7218H226.176V13.5203H230.09V15.1527H226.176V18.3676H230.973V20H224.244ZM237.438 20.1999C236.494 20.1999 235.661 19.9722 234.939 19.5169C234.217 19.0505 233.651 18.3953 233.24 17.5514C232.84 16.6963 232.64 15.6802 232.64 14.5031C232.64 13.3259 232.84 12.3209 233.24 11.4881C233.651 10.6552 234.217 10.0167 234.939 9.57248C235.661 9.12829 236.494 8.90619 237.438 8.90619C238.393 8.90619 239.225 9.12829 239.936 9.57248C240.658 10.0167 241.224 10.6552 241.635 11.4881C242.046 12.3209 242.252 13.3259 242.252 14.5031C242.252 15.6802 242.046 16.6963 241.635 17.5514C241.224 18.3953 240.658 19.0505 239.936 19.5169C239.225 19.9722 238.393 20.1999 237.438 20.1999ZM237.438 18.6174C238.015 18.6174 238.515 18.4509 238.937 18.1177C239.359 17.7846 239.681 17.3126 239.903 16.7018C240.136 16.0911 240.253 15.3581 240.253 14.5031C240.253 13.6924 240.136 12.9928 239.903 12.4042C239.681 11.8157 239.359 11.3659 238.937 11.055C238.515 10.7441 238.015 10.5886 237.438 10.5886C236.871 10.5886 236.372 10.7441 235.938 11.055C235.516 11.3659 235.189 11.8157 234.956 12.4042C234.734 12.9928 234.622 13.6924 234.622 14.5031C234.622 15.3581 234.734 16.0911 234.956 16.7018C235.189 17.3126 235.516 17.7846 235.938 18.1177C236.372 18.4509 236.871 18.6174 237.438 18.6174ZM240.902 22.8817C239.792 22.8817 238.853 22.5986 238.087 22.0322C237.332 21.477 236.794 20.7829 236.471 19.95L238.437 19.7501C238.581 20.1166 238.787 20.4164 239.053 20.6496C239.331 20.8828 239.647 21.0494 240.003 21.1494C240.358 21.2604 240.73 21.3159 241.119 21.3159C241.363 21.3159 241.58 21.2993 241.769 21.266C241.968 21.2438 242.146 21.2104 242.302 21.166L242.651 22.5819C242.474 22.6707 242.229 22.7429 241.918 22.7984C241.619 22.854 241.28 22.8817 240.902 22.8817ZM248.529 20.1999C247.896 20.1999 247.324 20.111 246.813 19.9334C246.302 19.7557 245.863 19.4725 245.497 19.0838C245.142 18.6952 244.864 18.1955 244.664 17.5847C244.475 16.9628 244.381 16.2077 244.381 15.3193V9.10608H246.313V15.4692C246.313 16.2354 246.402 16.8407 246.58 17.2848C246.768 17.729 247.029 18.0455 247.363 18.2343C247.696 18.4231 248.084 18.5175 248.529 18.5175C248.973 18.5175 249.361 18.4231 249.695 18.2343C250.028 18.0455 250.289 17.729 250.477 17.2848C250.666 16.8407 250.761 16.2354 250.761 15.4692V9.10608H252.626V15.3193C252.626 16.2077 252.532 16.9628 252.343 17.5847C252.154 18.1955 251.882 18.6952 251.527 19.0838C251.172 19.4725 250.738 19.7557 250.228 19.9334C249.717 20.111 249.15 20.1999 248.529 20.1999ZM255.346 20V9.10608H261.909V10.7218H257.278V13.5203H261.193V15.1527H257.278V18.3676H262.076V20H255.346ZM267.491 20.1999C266.735 20.1999 266.019 20.0666 265.342 19.8001C264.676 19.5225 264.081 19.1172 263.559 18.5841L264.609 17.3348C264.998 17.7124 265.447 18.0067 265.958 18.2177C266.48 18.4175 267.002 18.5175 267.524 18.5175C268.146 18.5175 268.618 18.3898 268.94 18.1344C269.262 17.879 269.423 17.5403 269.423 17.1183C269.423 16.8073 269.351 16.563 269.206 16.3853C269.062 16.2077 268.862 16.0522 268.607 15.9189C268.362 15.7857 268.074 15.6469 267.74 15.5025L266.258 14.8695C265.892 14.7141 265.536 14.5142 265.192 14.2699C264.859 14.0144 264.581 13.698 264.359 13.3204C264.148 12.9428 264.043 12.4931 264.043 11.9711C264.043 11.3937 264.198 10.8773 264.509 10.422C264.831 9.9556 265.264 9.58914 265.808 9.32262C266.363 9.045 266.996 8.90619 267.707 8.90619C268.362 8.90619 268.979 9.02834 269.556 9.27265C270.145 9.50585 270.65 9.8279 271.072 10.2388L270.039 11.5047C269.684 11.216 269.312 10.9939 268.923 10.8384C268.534 10.6719 268.129 10.5886 267.707 10.5886C267.185 10.5886 266.769 10.7052 266.458 10.9384C266.147 11.1605 265.991 11.4714 265.991 11.8712C265.991 12.1488 266.075 12.382 266.241 12.5708C266.408 12.7485 266.624 12.904 266.891 13.0372C267.157 13.1594 267.441 13.2815 267.74 13.4037L269.206 14.02C269.639 14.1977 270.017 14.4198 270.339 14.6863C270.672 14.9417 270.933 15.2526 271.122 15.6191C271.311 15.9856 271.405 16.4298 271.405 16.9517C271.405 17.5403 271.25 18.0844 270.939 18.5841C270.628 19.0727 270.178 19.467 269.589 19.7668C269.012 20.0555 268.312 20.1999 267.491 20.1999ZM275.259 20V10.7218H272.128V9.10608H280.34V10.7218H277.192V20H275.259ZM289.586 20.1999C288.953 20.1999 288.381 20.111 287.871 19.9334C287.36 19.7557 286.921 19.4725 286.555 19.0838C286.199 18.6952 285.922 18.1955 285.722 17.5847C285.533 16.9628 285.439 16.2077 285.439 15.3193V9.10608H287.371V15.4692C287.371 16.2354 287.46 16.8407 287.637 17.2848C287.826 17.729 288.087 18.0455 288.42 18.2343C288.753 18.4231 289.142 18.5175 289.586 18.5175C290.031 18.5175 290.419 18.4231 290.752 18.2343C291.086 18.0455 291.346 17.729 291.535 17.2848C291.724 16.8407 291.818 16.2354 291.818 15.4692V9.10608H293.684V15.3193C293.684 16.2077 293.59 16.9628 293.401 17.5847C293.212 18.1955 292.94 18.6952 292.585 19.0838C292.229 19.4725 291.796 19.7557 291.285 19.9334C290.775 20.111 290.208 20.1999 289.586 20.1999ZM296.404 20V9.10608H300.068C300.835 9.10608 301.518 9.20602 302.117 9.40591C302.728 9.6058 303.206 9.9445 303.55 10.422C303.905 10.8884 304.083 11.5269 304.083 12.3376C304.083 13.115 303.905 13.759 303.55 14.2699C303.206 14.7696 302.728 15.1416 302.117 15.3859C301.518 15.6302 300.835 15.7524 300.068 15.7524H298.336V20H296.404ZM298.336 14.2032H299.869C300.624 14.2032 301.196 14.0478 301.584 13.7368C301.984 13.4259 302.184 12.9595 302.184 12.3376C302.184 11.7046 301.984 11.266 301.584 11.0217C301.196 10.7774 300.624 10.6552 299.869 10.6552H298.336V14.2032ZM302.35 20L299.719 15.236L301.118 14.07L304.516 20H302.35ZM306.245 20V9.10608H308.178V18.3676H312.708V20H306.245Z" fill="#00412F"/>
<defs>
<filter id="filter0_b_738_733" x="-28.2" y="-26.2" width="576.4" height="157.4" filterUnits="userSpaceOnUse" color-interpolation-filters="sRGB">
<feFlood flood-opacity="0" result="BackgroundImageFix"/>
<feGaussianBlur in="BackgroundImageFix" stdDeviation="14.1"/>
<feComposite in2="SourceAlpha" operator="in" result="effect1_backgroundBlur_738_733"/>
<feBlend mode="normal" in="SourceGraphic" in2="effect1_backgroundBlur_738_733" result="shape"/>
</filter>
<filter id="filter1_b_738_733" x="-28.2" y="-28.2" width="576.4" height="86.4" filterUnits="userSpaceOnUse" color-interpolation-filters="sRGB">
<feFlood flood-opacity="0" result="BackgroundImageFix"/>
<feGaussianBlur in="BackgroundImageFix" stdDeviation="14.1"/>
<feComposite in2="SourceAlpha" operator="in" result="effect1_backgroundBlur_738_733"/>
<feBlend mode="normal" in="SourceGraphic" in2="effect1_backgroundBlur_738_733" result="shape"/>
</filter>
<linearGradient id="paint0_linear_738_733" x1="0" y1="52.5" x2="520" y2="52.5" gradientUnits="userSpaceOnUse">
<stop stop-color="white" stop-opacity="0.5"/>
<stop offset="1" stop-color="#7A9994"/>
</linearGradient>
<linearGradient id="paint1_linear_738_733" x1="0" y1="15" x2="520" y2="15" gradientUnits="userSpaceOnUse">
<stop stop-color="white" stop-opacity="0.5"/>
<stop offset="1" stop-color="#7A9994"/>
</linearGradient>
</defs>
</svg>
