<svg width="538" height="525" viewBox="0 0 538 525" fill="none" xmlns="http://www.w3.org/2000/svg">
<path opacity="0.5" d="M78.7866 482.115C183.835 539.295 354.165 539.295 459.213 482.115C564.262 424.935 564.262 332.354 459.213 275.224C354.165 218.095 183.835 218.044 78.7866 275.224C-26.2622 332.405 -26.2622 424.986 78.7866 482.115Z" fill="#F5F5F5"/>
<path d="M363.636 468.502C391.202 468.502 413.548 455.07 413.548 438.501C413.548 421.932 391.202 408.5 363.636 408.5C336.07 408.5 313.724 421.932 313.724 438.501C313.724 455.07 336.07 468.502 363.636 468.502Z" fill="#E0E0E0"/>
<path d="M454.843 416.722C479.227 416.722 498.994 404.843 498.994 390.19C498.994 375.537 479.227 363.659 454.843 363.659C430.459 363.659 410.692 375.537 410.692 390.19C410.692 404.843 430.459 416.722 454.843 416.722Z" fill="#E0E0E0"/>
<path d="M415.624 49.6762L423.436 54.365C423.388 54.0072 423.363 53.6463 423.363 53.2849V50.9342C423.363 46.741 426.195 45.051 429.673 47.1222C431.182 48.0882 432.466 49.39 433.433 50.9342C434.007 45.6609 437.974 43.7041 442.795 46.6012C445.542 48.4657 447.828 50.9779 449.467 53.9341C451.107 56.8902 452.054 60.2071 452.231 63.6155V67.1352C452.268 68.544 451.996 69.9431 451.438 71.2268L457.919 75.115C458.943 75.812 459.793 76.7507 460.402 77.8548C461.011 78.9588 461.361 80.197 461.423 81.4684C461.423 83.7937 459.848 84.734 457.919 83.565L415.624 58.1516C414.602 57.454 413.753 56.5148 413.146 55.4107C412.54 54.3065 412.192 53.0687 412.133 51.7982C412.133 49.4475 413.695 48.5072 415.624 49.6762Z" fill="#EBEBEB"/>
<path d="M382.227 73.3487L388.123 76.8812C388.084 76.6119 388.064 76.3402 388.062 76.0679V74.3017C388.062 71.1378 390.198 69.8544 392.834 71.43C393.961 72.1601 394.926 73.1301 395.666 74.2763C396.094 70.2991 399.096 68.8251 402.734 71.0107C404.807 72.4183 406.532 74.3153 407.769 76.5475C409.005 78.7797 409.718 81.2841 409.85 83.8572V86.5129C409.879 87.572 409.674 88.6239 409.252 89.5879L414.135 92.5231C414.902 93.047 415.54 93.7511 415.998 94.5788C416.456 95.4064 416.721 96.3344 416.771 97.2881C416.771 99.0417 415.551 99.7532 414.135 98.8765L382.215 79.6894C381.446 79.1705 380.806 78.4693 380.348 77.6432C379.889 76.8171 379.626 75.8897 379.578 74.9371C379.59 73.1835 380.762 72.472 382.227 73.3487Z" fill="#EBEBEB"/>
<path d="M57.2414 452.402C56.4724 452.834 42.0932 457.091 36.7711 449.759C31.4491 442.427 40.2866 431.029 35.2819 426.824C30.2773 422.618 16.3009 426.824 12.9319 417.992C9.56292 409.161 19.5478 405.286 13.9328 396.391C10.393 390.775 0.505719 387.674 0.957358 382.414C1.61651 374.79 15.1291 372.706 26.9449 380.902C38.7608 389.097 44.2537 382.376 48.0133 381.829C51.7729 381.283 59.8414 382.49 59.5728 396.188C59.3043 409.886 57.2414 452.402 57.2414 452.402Z" fill="#455A64"/>
<path d="M58.1934 432.923C58.0079 432.922 57.8286 432.853 57.6876 432.727C57.5467 432.601 57.4534 432.428 57.4244 432.237C53.3109 406.239 24.2839 385.082 9.18448 380.546C8.98637 380.481 8.81991 380.339 8.71984 380.15C8.61978 379.961 8.59382 379.738 8.6474 379.529C8.67674 379.427 8.72533 379.331 8.79038 379.248C8.85543 379.164 8.93565 379.095 9.02642 379.045C9.11718 378.994 9.2167 378.962 9.31925 378.952C9.42179 378.941 9.52534 378.952 9.62392 378.983C25.0529 383.621 54.7878 405.299 58.9747 431.97C59.0065 432.184 58.9566 432.402 58.8357 432.578C58.7147 432.753 58.5323 432.873 58.3277 432.91L58.1934 432.923Z" fill="white"/>
<path d="M23.9661 411.156C23.8311 411.156 23.6982 411.12 23.5805 411.051C23.4629 410.982 23.3644 410.883 23.2948 410.762C23.1907 410.576 23.1605 410.355 23.2107 410.146C23.2609 409.937 23.3874 409.757 23.5633 409.644C24.0394 409.352 35.2083 402.554 46.2063 405.73C46.306 405.758 46.3993 405.806 46.4809 405.872C46.5626 405.938 46.6309 406.02 46.6819 406.113C46.733 406.206 46.7658 406.309 46.7785 406.416C46.7911 406.522 46.7833 406.631 46.7556 406.734C46.7303 406.839 46.6849 406.937 46.6221 407.023C46.5594 407.109 46.4806 407.181 46.3906 407.234C46.3005 407.287 46.201 407.321 46.098 407.334C45.995 407.346 45.8907 407.337 45.7913 407.306C35.4402 404.32 24.4788 410.978 24.3689 411.042C24.2474 411.118 24.108 411.157 23.9661 411.156Z" fill="white"/>
<path d="M477.901 383.38L474.117 381.524C474.117 381.524 472.896 367.306 474.117 357.814C476.558 340.139 488.41 324.903 498.969 323.112C512.567 320.812 510.15 333.836 502.375 339.465C489.985 348.487 480.342 362.121 477.901 383.38Z" fill="#67EFDC"/>
<g opacity="0.1">
<path d="M477.901 383.38L474.117 381.524C474.117 381.524 472.896 367.306 474.117 357.814C476.558 340.139 488.41 324.903 498.969 323.112C512.567 320.812 510.15 333.836 502.375 339.465C489.985 348.487 480.342 362.121 477.901 383.38Z" fill="black"/>
</g>
<path d="M476.461 377.712H476.559C476.73 377.678 476.882 377.575 476.98 377.425C477.078 377.275 477.116 377.09 477.084 376.912C474.447 362.388 485.933 335.462 501.301 327.813C501.463 327.734 501.588 327.591 501.649 327.416C501.709 327.241 501.701 327.047 501.625 326.879C501.549 326.71 501.411 326.58 501.243 326.517C501.075 326.454 500.889 326.463 500.727 326.542C484.859 334.42 473.068 362.121 475.777 377.14C475.804 377.306 475.889 377.456 476.015 377.562C476.141 377.667 476.3 377.721 476.461 377.712Z" fill="white"/>
<path d="M474.117 381.525C473.836 379.415 473.714 376.34 473.678 375.578C473.52 372.9 473.898 370.217 474.788 367.7C475.958 364.373 478.185 361.562 481.099 359.733C482.686 358.78 484.541 358.093 485.567 356.518C486.311 355.066 486.708 353.449 486.726 351.804C487.044 349.148 487.837 346.34 489.888 344.713C491.938 343.087 494.77 343.049 497.212 343.328C500.874 343.735 504.304 344.243 507.721 342.502C510.452 340.993 513.274 339.669 516.168 338.538C519.83 337.267 528.021 335.361 529.742 340.711C529.937 341.449 529.972 342.223 529.843 342.977C529.714 343.731 529.425 344.446 528.997 345.069C528.132 346.309 527.095 347.409 525.921 348.335L520.196 353.29C519.514 353.812 518.923 354.452 518.451 355.184C517.34 357.166 518.133 359.669 517.889 361.944C517.734 363.101 517.34 364.209 516.733 365.192C516.126 366.175 515.321 367.009 514.374 367.636C512.466 368.88 510.221 369.446 507.978 369.25C504.987 369.034 500.105 366.645 498.274 370.317C497.767 371.568 497.469 372.901 497.395 374.256C497.323 375.618 496.901 376.934 496.174 378.068C494.953 379.619 492.915 380.063 491.011 380.267C488.343 380.316 485.694 380.744 483.138 381.537C482.112 381.957 481.465 383.316 480.867 384.218C479 383.57 476.949 382.795 474.117 381.525Z" fill="#67EFDC"/>
<path d="M475.79 380.457C475.697 380.481 475.601 380.481 475.509 380.457C475.357 380.392 475.236 380.267 475.173 380.11C475.109 379.953 475.107 379.776 475.167 379.618C482.857 359.732 507.392 345.488 522.015 340.761C522.093 340.736 522.175 340.727 522.256 340.735C522.337 340.743 522.416 340.768 522.487 340.808C522.559 340.848 522.622 340.903 522.673 340.969C522.724 341.035 522.762 341.111 522.784 341.193C522.831 341.355 522.814 341.529 522.739 341.678C522.664 341.828 522.536 341.941 522.382 341.993C507.99 346.644 483.846 360.621 476.314 380.114C476.262 380.213 476.187 380.296 476.095 380.356C476.003 380.416 475.898 380.451 475.79 380.457Z" fill="white"/>
<path d="M301.811 344.929C301.939 347.402 302.626 349.808 303.816 351.952C305.006 354.096 306.665 355.917 308.659 357.268C309.818 358.061 311.222 358.369 312.59 358.132C312.37 358.37 312.119 358.575 311.845 358.742L313.493 357.763L313.578 357.7L313.822 357.534C313.932 357.451 314.034 357.358 314.128 357.255L314.311 357.064C314.311 357.001 314.42 356.937 314.469 356.861C314.697 356.53 314.885 356.171 315.031 355.794L315.153 355.45C315.158 355.391 315.158 355.332 315.153 355.273C315.183 355.172 315.207 355.071 315.226 354.968C315.353 354.384 315.415 353.787 315.409 353.189C315.281 350.72 314.595 348.317 313.407 346.175C312.219 344.034 310.563 342.214 308.574 340.863C307.654 340.259 306.597 339.921 305.51 339.885H305.083L304.692 339.961L304.46 340.025H304.314C304.216 340.051 304.122 340.09 304.033 340.139L303.776 340.279L302.348 341.13C302.58 341.007 302.826 340.917 303.081 340.863C302.164 341.994 301.708 343.453 301.811 344.929Z" fill="#67EFDC"/>
<path d="M159.715 426.913L169.37 444.372L171.006 443.381L311.844 358.742C312.118 358.575 312.369 358.37 312.589 358.132C313.473 357.009 313.91 355.577 313.809 354.129C313.677 351.658 312.989 349.253 311.799 347.11C310.61 344.966 308.952 343.144 306.961 341.791C306.039 341.195 304.983 340.862 303.898 340.825C303.606 340.82 303.315 340.855 303.031 340.927C302.776 340.981 302.53 341.071 302.299 341.194L302.177 341.257L159.715 426.913Z" fill="#EBEBEB"/>
<path d="M164.562 427.408C160.778 425.134 157.714 426.976 157.714 431.513C157.842 433.985 158.529 436.391 159.719 438.535C160.909 440.679 162.568 442.5 164.562 443.851C168.333 446.125 171.397 444.283 171.397 439.734C171.269 437.265 170.583 434.862 169.395 432.72C168.207 430.579 166.551 428.759 164.562 427.408Z" fill="#67EFDC"/>
<path d="M149.852 437.993C149.899 437.917 149.957 437.849 150.023 437.79L158.751 427.79L158.824 427.713L158.983 427.536L159.068 427.434C160.289 426.163 162.29 426.087 164.536 427.434C166.526 428.785 168.182 430.604 169.37 432.746C170.558 434.887 171.243 437.29 171.372 439.759C171.372 442.402 170.335 444.118 168.736 444.664H168.638C168.474 444.714 168.307 444.753 168.137 444.779H168.028L155.382 447.65C154.611 447.784 153.821 447.607 153.172 447.155C152.033 446.385 151.085 445.346 150.404 444.123C149.723 442.9 149.329 441.527 149.254 440.115C149.213 439.357 149.424 438.608 149.852 437.993Z" fill="#E0E0E0"/>
<path d="M261.725 373.138L261.957 372.998C262.222 372.906 262.503 372.879 262.779 372.921C263.054 372.963 263.317 373.072 263.544 373.24C264.254 373.719 264.845 374.365 265.269 375.127C265.694 375.889 265.939 376.744 265.986 377.624C266.007 377.906 265.967 378.191 265.868 378.455C265.768 378.719 265.612 378.956 265.412 379.148L265.107 379.326L161.144 441.805L154.309 437.688L261.725 373.138Z" fill="#455A64"/>
<path d="M170.787 435.985L161.132 441.792L154.296 437.676L167.369 429.81C168.909 431.598 170.073 433.702 170.787 435.985Z" fill="#37474F"/>
<path d="M146.41 442.733L154.308 433.622L154.515 433.381C155.394 432.466 156.81 432.389 158.422 433.381C159.839 434.329 161.02 435.613 161.869 437.128C162.717 438.643 163.209 440.346 163.304 442.097C163.304 443.953 162.584 445.16 161.461 445.554H161.388L161.07 445.63L149.425 448.298C149 448.354 148.569 448.255 148.205 448.019C147.565 447.581 147.032 446.994 146.651 446.303C146.269 445.612 146.049 444.837 146.008 444.042C145.971 443.567 146.116 443.097 146.41 442.733Z" fill="#67EFDC"/>
<path opacity="0.1" d="M146.41 442.733L154.308 433.622L154.515 433.381C155.394 432.466 156.81 432.389 158.422 433.381C159.839 434.329 161.02 435.613 161.869 437.128C162.717 438.643 163.209 440.346 163.304 442.097C163.304 443.953 162.584 445.16 161.461 445.554H161.388L161.07 445.63L149.425 448.298C149 448.354 148.569 448.255 148.205 448.019C147.565 447.581 147.032 446.994 146.651 446.303C146.269 445.612 146.049 444.837 146.008 444.042C145.971 443.567 146.116 443.097 146.41 442.733Z" fill="black"/>
<path d="M145.971 444.041C146.012 444.837 146.233 445.612 146.614 446.303C146.996 446.994 147.528 447.581 148.169 448.018C148.531 448.259 148.965 448.354 149.389 448.285L155.248 446.951C156.176 446.748 156.786 445.846 156.786 444.41C156.722 443.137 156.37 441.899 155.759 440.795C155.148 439.691 154.296 438.753 153.271 438.056C152.871 437.723 152.373 437.542 151.861 437.542C151.349 437.542 150.851 437.723 150.451 438.056L150.292 438.234L146.362 442.733C146.216 442.912 146.106 443.121 146.039 443.346C145.972 443.57 145.949 443.807 145.971 444.041Z" fill="#67EFDC"/>
<path opacity="0.1" d="M148.205 442.72C146.984 441.996 146.008 442.58 146.008 443.991C146.049 444.786 146.269 445.561 146.651 446.252C147.032 446.943 147.565 447.531 148.205 447.968C149.426 448.692 150.402 448.095 150.402 446.634C150.352 445.849 150.127 445.087 149.746 444.408C149.365 443.729 148.837 443.151 148.205 442.72Z" fill="black"/>
<path d="M287.566 357.572C287.842 357.439 288.147 357.385 288.45 357.416C288.753 357.447 289.042 357.563 289.287 357.75C289.995 358.226 290.584 358.868 291.008 359.626C291.432 360.383 291.679 361.234 291.729 362.109C291.763 362.421 291.715 362.737 291.59 363.024C291.466 363.31 291.269 363.556 291.021 363.735L265.387 379.11C265.588 378.918 265.744 378.681 265.843 378.417C265.942 378.153 265.983 377.868 265.961 377.585C265.914 376.706 265.669 375.851 265.245 375.089C264.82 374.327 264.229 373.681 263.519 373.202C263.292 373.034 263.03 372.925 262.754 372.883C262.478 372.841 262.197 372.868 261.933 372.96L287.566 357.572Z" fill="#FAFAFA"/>
<path d="M286.858 359.199C286.907 360.076 287.154 360.928 287.578 361.688C288.002 362.447 288.592 363.092 289.299 363.57C289.53 363.791 289.823 363.929 290.135 363.965C290.447 364.001 290.762 363.933 291.034 363.77C291.306 363.607 291.521 363.358 291.648 363.06C291.775 362.761 291.808 362.428 291.741 362.109C291.691 361.234 291.444 360.383 291.02 359.626C290.596 358.869 290.007 358.226 289.299 357.75C289.069 357.532 288.777 357.394 288.467 357.359C288.157 357.323 287.844 357.39 287.573 357.551C287.302 357.712 287.086 357.958 286.958 358.254C286.83 358.55 286.795 358.881 286.858 359.199Z" fill="#F5F5F5"/>
<path d="M292.241 348.487H292.326L292.424 348.424L302.519 342.363L302.763 342.223C303.447 341.946 304.188 341.85 304.916 341.946C305.645 342.041 306.34 342.324 306.937 342.769C308.721 343.989 310.202 345.629 311.263 347.556C312.323 349.483 312.932 351.644 313.041 353.862C313.122 354.663 312.997 355.471 312.677 356.204C312.357 356.937 311.855 357.567 311.222 358.03L301.005 364.167H300.944C300.25 364.47 299.494 364.584 298.746 364.497C297.998 364.41 297.284 364.126 296.672 363.672C294.89 362.448 293.409 360.805 292.348 358.876C291.288 356.947 290.679 354.786 290.568 352.566C290.493 351.794 290.607 351.016 290.9 350.302C291.192 349.589 291.653 348.965 292.241 348.487Z" fill="#67EFDC"/>
<path opacity="0.05" d="M292.241 348.487H292.326L292.424 348.424L302.519 342.363L302.763 342.223C303.447 341.946 304.188 341.85 304.916 341.946C305.645 342.041 306.34 342.324 306.937 342.769C308.721 343.989 310.202 345.629 311.263 347.556C312.323 349.483 312.932 351.644 313.041 353.862C313.122 354.663 312.997 355.471 312.677 356.204C312.357 356.937 311.855 357.567 311.222 358.03L301.005 364.167H300.944C300.25 364.47 299.494 364.584 298.746 364.497C297.998 364.41 297.284 364.126 296.672 363.672C294.89 362.448 293.409 360.805 292.348 358.876C291.288 356.947 290.679 354.786 290.568 352.566C290.493 351.794 290.607 351.016 290.9 350.302C291.192 349.589 291.653 348.965 292.241 348.487Z" fill="black"/>
<path opacity="0.1" d="M296.745 348.78C293.351 346.734 290.642 348.398 290.642 352.477C290.752 354.697 291.361 356.858 292.422 358.787C293.482 360.716 294.963 362.359 296.745 363.583C300.15 365.629 302.909 363.964 302.909 359.885C302.793 357.66 302.174 355.494 301.103 353.565C300.032 351.635 298.539 349.996 296.745 348.78Z" fill="black"/>
<path d="M143.175 446.558L147.35 443.94C147.478 443.868 147.623 443.835 147.768 443.846C147.913 443.858 148.052 443.912 148.168 444.004C148.5 444.222 148.777 444.521 148.975 444.875C149.172 445.229 149.285 445.628 149.303 446.037C149.314 446.182 149.29 446.329 149.233 446.462C149.175 446.595 149.086 446.711 148.973 446.799L144.811 449.417C144.57 449.549 144.302 449.619 144.03 449.62C143.606 449.62 143.199 449.444 142.899 449.132C142.599 448.82 142.431 448.397 142.431 447.955C142.431 447.676 142.5 447.401 142.63 447.156C142.76 446.912 142.948 446.706 143.175 446.558Z" fill="#455A64"/>
<path d="M142.931 446.748L143.151 446.557C143.274 446.519 143.404 446.51 143.531 446.532C143.658 446.554 143.779 446.606 143.883 446.685C144.214 446.905 144.488 447.204 144.683 447.558C144.879 447.912 144.99 448.31 145.006 448.718C145.021 448.861 144.999 449.005 144.943 449.136C144.887 449.268 144.8 449.382 144.689 449.467H144.603H144.518C144.355 449.535 144.18 449.565 144.005 449.556C143.581 449.556 143.174 449.381 142.875 449.069C142.575 448.757 142.406 448.333 142.406 447.892C142.432 447.454 142.62 447.044 142.931 446.748Z" fill="#263238"/>
<path d="M62.3566 458.158L58.0966 455.617C57.3874 455.137 56.7969 454.49 56.3727 453.729C55.9486 452.967 55.7028 452.112 55.6553 451.233V122.676C55.7018 121.797 55.9472 120.941 56.3714 120.18C56.7957 119.418 57.3868 118.771 58.0966 118.292L253.888 0.615449C254.644 0.212865 255.481 0.00292969 256.33 0.00292969C257.178 0.00292969 258.015 0.212865 258.771 0.615449L263.031 3.15679C263.74 3.6365 264.331 4.28339 264.755 5.04503C265.179 5.80667 265.425 6.66163 265.472 7.5406V336.098C265.427 336.977 265.182 337.833 264.757 338.595C264.333 339.357 263.741 340.003 263.031 340.481L67.2148 458.158C66.4628 458.559 65.6303 458.767 64.7857 458.767C63.9411 458.767 63.1086 458.559 62.3566 458.158Z" fill="#67EFDC"/>
<path opacity="0.4" d="M265.387 7.14692C265.228 5.87625 264.166 5.35527 262.946 6.09226L67.2148 123.769C66.5008 124.238 65.9095 124.884 65.4937 125.65L56.3633 120.173C56.779 119.408 57.3703 118.762 58.0844 118.292L253.888 0.615675C254.643 0.211077 255.48 0 256.33 0C257.179 0 258.016 0.211077 258.771 0.615675L263.043 3.15701C263.686 3.60835 264.228 4.19821 264.632 4.88661C265.036 5.57502 265.294 6.34586 265.387 7.14692Z" fill="white"/>
<path opacity="0.15" d="M66.7876 458.362C66.7392 458.372 66.6895 458.372 66.6411 458.362L66.397 458.451H66.2993C66.1528 458.451 66.0064 458.527 65.8477 458.565C64.88 458.755 63.881 458.672 62.9547 458.324C62.7705 458.251 62.591 458.167 62.4177 458.069L58.1454 455.528C57.4383 455.046 56.8492 454.399 56.4254 453.638C56.0015 452.876 55.7545 452.023 55.7041 451.144V122.676C55.7319 121.781 55.9754 120.907 56.4121 120.135L65.5425 125.611C65.0908 126.377 64.8423 127.254 64.8223 128.153V456.71C64.7959 457.187 64.9297 457.658 65.2007 458.044C65.351 458.241 65.5542 458.388 65.7846 458.465C66.015 458.542 66.2621 458.546 66.4946 458.476C66.5956 458.448 66.6938 458.41 66.7876 458.362Z" fill="black"/>
<path d="M204.281 61.1125L203.927 60.8838L199.886 58.4695C198.417 57.6167 196.82 57.0282 195.163 56.7287C194.467 56.5635 193.844 56.3729 193.295 56.1823C192.685 55.9746 192.09 55.7242 191.513 55.4326L191.806 55.0387L187.265 52.2813C186.882 52.0588 186.471 51.8921 186.044 51.7858C184.323 51.341 181.748 52.383 179.184 52.078C178.251 51.9831 177.35 51.6755 176.544 51.177C175.738 50.6784 175.047 50.0013 174.521 49.1936C172.959 47.0081 172.019 43.1834 170.64 40.0067L171.86 38.1642C171.738 38.0847 171.612 38.0126 171.482 37.9482L167.295 35.4068C166.589 34.9738 165.784 34.7456 164.964 34.7461C163.399 34.832 161.884 35.3447 160.569 36.2328C150.548 42.2685 150.206 56.5635 146.593 65.9919C142.98 75.4202 137.865 78.3555 135.082 82.4089C132.299 86.4624 132.104 89.4611 125.94 98.305C119.775 107.149 119.531 109.309 119.531 111.012V124.189L124.096 126.933L206.148 77.5931L204.281 61.1125ZM129.04 111.939C127.978 112.562 127.099 111.711 127.099 109.995C127.089 109.175 127.259 108.363 127.595 107.621C127.931 106.879 128.425 106.226 129.04 105.713C130.102 105.078 130.969 105.954 130.969 107.67C130.978 108.483 130.808 109.288 130.474 110.023C130.14 110.759 129.65 111.405 129.04 111.914V111.939ZM165.086 74.9501C164.569 75.3428 163.971 75.6049 163.339 75.7155C162.708 75.8262 162.061 75.7824 161.449 75.5876C160.836 75.3928 160.276 75.0524 159.812 74.5933C159.348 74.1342 158.993 73.569 158.775 72.9424C155.589 73.5778 153.221 70.4011 153.221 64.8864C153.221 58.406 156.505 51.2013 160.545 48.7616C161.063 48.3691 161.662 48.1076 162.294 47.9978C162.926 47.888 163.573 47.9329 164.186 48.1289C164.798 48.325 165.358 48.6668 165.822 49.1273C166.285 49.5878 166.639 50.1543 166.856 50.782C170.042 50.1212 172.397 53.3233 172.397 58.8253C172.397 65.2803 169.138 72.485 165.086 74.9247V74.9501ZM192.343 73.8827C191.269 74.5308 190.402 73.6667 190.402 71.9513C190.382 71.1295 190.548 70.3142 190.885 69.5707C191.222 68.8272 191.721 68.176 192.343 67.6692C193.417 67.0211 194.284 67.8852 194.284 69.6006C194.298 70.418 194.131 71.2279 193.794 71.9665C193.457 72.7051 192.961 73.3524 192.343 73.8573V73.8827Z" fill="#455A64"/>
<path opacity="0.5" d="M128.674 114.265L119.849 108.966C119.648 109.627 119.549 110.318 119.556 111.012V124.188L124.121 126.933L128.674 124.188V114.265Z" fill="#37474F"/>
<path opacity="0.5" d="M137.744 97.8219L142.309 86.856L135.059 82.4341C132.935 85.4964 132.312 87.9742 129.456 92.8409L137.744 97.8219Z" fill="#37474F"/>
<path opacity="0.5" d="M155.993 75.9029L156.579 72.7009C154.564 71.8241 153.222 68.9905 153.222 64.8608C153.222 59.3588 155.59 53.3486 158.776 50.1592L152.453 46.3472C149.767 52.7005 148.791 60.3245 146.569 66.0044C146.105 67.2751 145.605 68.3298 145.104 69.3463L155.993 75.9029Z" fill="#37474F"/>
<path d="M204.281 61.1121L203.927 60.8834C202.583 60.2342 201.169 59.7564 199.716 59.4602C197.33 59.0238 195.107 57.9065 193.295 56.2327C192.836 55.8012 192.338 55.4181 191.806 55.0891C191.427 54.8548 191.015 54.6833 190.585 54.5809C187.827 53.882 182.798 57.0206 179.184 52.1412C179.141 52.0959 179.104 52.0446 179.075 51.9887C176.548 48.4562 175.62 40.5527 171.836 38.2274C171.714 38.1478 171.588 38.0757 171.458 38.0113C169.895 37.2489 167.869 37.3887 165.086 39.0406C155.064 45.0763 154.723 59.3713 151.11 68.7997C147.496 78.228 142.394 81.1633 139.611 85.2167C136.828 89.2702 136.645 92.2689 130.468 101.113C124.292 109.957 124.072 112.13 124.072 113.82V127.009L206.124 77.6689V64.4286C206.186 63.7449 206.042 63.0582 205.712 62.4638C205.381 61.8694 204.881 61.3969 204.281 61.1121ZM133.557 114.684C132.483 115.332 131.616 114.468 131.616 112.739C131.601 111.92 131.769 111.108 132.105 110.368C132.442 109.627 132.939 108.978 133.557 108.47C134.631 107.822 135.485 108.699 135.485 110.414C135.502 111.232 135.336 112.043 135.001 112.784C134.667 113.525 134.172 114.175 133.557 114.684ZM165.049 74.9624C164.532 75.3551 163.934 75.6172 163.303 75.7278C162.672 75.8385 162.024 75.7947 161.412 75.5999C160.8 75.4052 160.24 75.0648 159.776 74.6057C159.312 74.1466 158.957 73.5814 158.739 72.9548C158.022 71.2818 157.68 69.4613 157.738 67.6306C157.738 61.1629 161.009 53.9455 165.062 51.5186C165.609 51.1772 166.207 50.9324 166.832 50.7943C170.017 50.1335 172.373 53.3356 172.373 58.8376C172.398 65.2799 169.139 72.4846 165.086 74.9243L165.049 74.9624ZM196.896 76.5635C195.822 77.2115 194.955 76.3474 194.955 74.6447C194.938 73.825 195.104 73.0123 195.441 72.2712C195.778 71.53 196.276 70.8809 196.896 70.3753C197.958 69.7272 198.825 70.5913 198.825 72.3067C198.84 73.123 198.674 73.9318 198.339 74.6702C198.005 75.4086 197.511 76.0565 196.896 76.5635Z" fill="#37474F"/>
<path d="M172.398 58.7743C172.398 65.2547 169.139 72.4594 165.074 74.8991C164.557 75.2918 163.959 75.5538 163.328 75.6645C162.697 75.7751 162.049 75.7314 161.437 75.5366C160.825 75.3418 160.265 75.0014 159.801 74.5423C159.337 74.0832 158.982 73.518 158.764 72.8914C159.386 72.7477 159.984 72.5033 160.534 72.1671C164.574 69.7274 167.858 62.5227 167.858 56.0423C167.911 54.2161 167.568 52.4009 166.857 50.7309C170.042 50.0956 172.398 53.285 172.398 58.7743Z" fill="#263238"/>
<path d="M133.557 114.684C132.483 115.319 131.616 114.455 131.616 112.752C131.601 111.931 131.769 111.117 132.105 110.375C132.442 109.632 132.939 108.98 133.557 108.47C134.619 107.822 135.486 108.711 135.486 110.414C135.499 111.232 135.332 112.042 134.998 112.782C134.663 113.522 134.171 114.173 133.557 114.684Z" fill="#263238"/>
<path d="M196.897 76.5636C195.823 77.1989 194.956 76.3476 194.956 74.6322C194.941 73.8111 195.109 72.9975 195.445 72.2548C195.782 71.512 196.279 70.8602 196.897 70.35C197.959 69.7147 198.825 70.5914 198.825 72.3068C198.838 73.1226 198.671 73.9305 198.336 74.6685C198.002 75.4064 197.509 76.0547 196.897 76.5636Z" fill="#263238"/>
<path d="M79.9218 154.506L250.3 52.103C250.752 51.8651 251.252 51.7412 251.758 51.7412C252.265 51.7412 252.765 51.8651 253.217 52.103L254.865 53.0941C255.288 53.3829 255.641 53.7716 255.893 54.2286C256.146 54.6856 256.291 55.198 256.317 55.7244V326.301C256.293 326.828 256.148 327.341 255.896 327.798C255.643 328.256 255.29 328.644 254.865 328.931L84.487 431.334C84.0347 431.572 83.5351 431.696 83.0284 431.696C82.5216 431.696 82.022 431.572 81.5697 431.334L79.9218 430.343C79.4952 430.057 79.1401 429.669 78.8854 429.212C78.6308 428.754 78.484 428.241 78.457 427.713V157.137C78.4859 156.609 78.6336 156.096 78.888 155.64C79.1425 155.183 79.4966 154.794 79.9218 154.506Z" fill="#F5F5F5"/>
<path d="M256.269 55.267C256.086 54.6444 255.524 54.4411 254.865 54.8477L84.4871 157.251C84.0482 157.522 83.6892 157.913 83.4495 158.382L78.8843 155.65C79.1308 155.183 79.488 154.789 79.9218 154.506L250.3 52.103C250.752 51.8651 251.252 51.7412 251.758 51.7412C252.265 51.7412 252.765 51.8651 253.217 52.103L254.865 53.0941C255.226 53.3404 255.537 53.6595 255.778 54.0327C256.019 54.4059 256.186 54.8256 256.269 55.267Z" fill="#FAFAFA"/>
<path d="M84.133 431.5C83.9582 431.565 83.7786 431.616 83.596 431.652H83.3152C83.019 431.684 82.7204 431.684 82.4241 431.652C82.2418 431.615 82.0623 431.564 81.887 431.5L81.5575 431.334L79.9218 430.356C79.4989 430.066 79.1471 429.678 78.8948 429.221C78.6425 428.764 78.4968 428.252 78.4692 427.726V157.137C78.4779 156.611 78.6211 156.098 78.8843 155.65L83.4495 158.382C83.1897 158.837 83.0429 159.352 83.0222 159.881V430.458C83.0222 431.284 83.5105 431.69 84.133 431.5Z" fill="#E0E0E0"/>
<path d="M217.941 90.4266L213.4 87.6946C212.687 87.331 211.9 87.1536 211.107 87.178C210.313 87.2023 209.538 87.4277 208.847 87.8344C203.549 90.2614 201.254 91.3669 198.52 92.5613L196.543 93.3872C195.468 93.832 193.332 93.4508 193.991 89.5752L201.035 69.8417H200.925L196.469 67.1606C196.243 67.0128 195.989 66.9174 195.725 66.8811C195.59 66.8811 195.42 66.8811 195.236 66.8811C192.356 66.8048 191.575 47.4525 191.514 46.8553L191.306 46.741L186.899 44.098C186.134 43.6458 185.265 43.4175 184.385 43.4372C182.912 43.5079 181.477 43.9436 180.198 44.7079C173.277 48.5199 166.283 59.7145 164.574 69.7909C163.5 76.1443 157.36 85.9284 153.808 89.5371C150.256 93.1458 150.012 96.1446 150.012 96.1446L147.253 112.435L146.362 117.657C145.715 121.545 141.882 125.281 141.882 125.281L127.588 136.285C118.641 144.011 116.114 151.825 114.405 161.482V161.559C114.405 161.902 114.405 162.13 114.564 162.219C114.588 162.235 114.615 162.244 114.643 162.244C114.671 162.244 114.699 162.235 114.723 162.219L116.554 161.139L214.889 102.104C215.12 101.94 215.318 101.729 215.471 101.485C215.624 101.241 215.729 100.968 215.78 100.681C216.341 97.1611 217.977 90.5155 217.977 90.5155L217.941 90.4266ZM189.512 60.5277C188.45 66.7159 184.165 73.6283 179.905 75.9537C176.963 77.5547 174.815 76.5636 174.095 73.7427C173.566 73.9582 172.994 74.0315 172.431 73.956C171.867 73.8805 171.331 73.6586 170.872 73.3107C169.505 72.1925 182.029 49.8033 183.079 50.2988C183.567 50.5665 183.991 50.9456 184.318 51.4076C184.646 51.8697 184.869 52.4028 184.971 52.9672C188.486 51.8618 190.452 54.9622 189.512 60.5277Z" fill="#455A64"/>
<path opacity="0.5" d="M128.675 147.162L121.509 142.854C117.359 148.547 115.687 154.532 114.454 161.483V161.559C114.454 161.902 114.454 162.131 114.613 162.22C114.636 162.235 114.664 162.244 114.692 162.244C114.72 162.244 114.748 162.235 114.771 162.22L120.423 157.569L128.675 147.162Z" fill="#37474F"/>
<path opacity="0.5" d="M145.886 119.169L155.993 125.23L160.546 97.8218L151.44 92.3452C150.715 93.429 150.227 94.6652 150.012 95.9666L147.253 112.257L146.362 117.479C146.261 118.058 146.102 118.625 145.886 119.169Z" fill="#37474F"/>
<path opacity="0.5" d="M169.358 56.5249C167.055 60.5702 165.437 64.9972 164.573 69.6128C163.847 72.8842 162.645 76.0209 161.009 78.9141L169.663 84.1238L173.972 73.7679C173.459 73.9608 172.908 74.02 172.367 73.9402C171.827 73.8605 171.313 73.6443 170.872 73.3104C170.164 72.7259 173.142 66.5378 176.328 60.7181L169.358 56.5249Z" fill="#37474F"/>
<path d="M218.002 90.4647H217.941C217.226 90.1135 216.442 89.9441 215.652 89.9706C214.863 89.9971 214.091 90.2187 213.4 90.6172C206.906 93.6033 204.941 94.5817 201.083 96.1701C200.058 96.6021 197.971 96.259 198.52 92.5995C198.514 92.5149 198.514 92.4299 198.52 92.3453L199.411 87.1356L201.852 72.9422C201.852 72.9422 202.414 70.7058 200.998 69.8672H200.888C200.532 69.6961 200.145 69.6093 199.753 69.6131C198.923 69.5092 198.127 69.2119 197.423 68.7433C196.72 68.2747 196.127 67.6469 195.688 66.9065C194.928 65.7269 194.401 64.4012 194.139 63.0069C193.877 61.6126 193.885 60.1779 194.162 58.7869C195.2 52.7004 194.065 48.431 191.477 46.8426L191.269 46.7156C189.597 45.788 187.351 45.9405 184.727 47.3763C177.793 51.1883 170.799 62.3829 169.102 72.4593C168.016 78.8127 161.876 88.6096 158.324 92.2056C154.772 95.8016 154.54 98.813 154.54 98.813L151.867 115.014L150.988 120.224C150.329 124.112 146.496 127.848 146.496 127.848L132.215 139.004C126.515 143.727 122.4 150.208 120.46 157.518C120.46 157.518 115.101 161.851 114.771 162.194L116.602 161.114L215.218 102.104C215.218 102.104 216.341 101.456 216.598 101.291C216.854 101.126 220.821 97.2247 220.821 97.2247C220.602 93.8956 219.649 91.494 218.002 90.4647ZM189.512 60.5278C188.45 66.7159 184.165 73.6284 179.905 75.9537C176.963 77.5547 174.815 76.5636 174.095 73.7427C173.773 72.1592 173.773 70.5232 174.095 68.9396C175.157 62.7387 179.454 55.839 183.714 53.5264C184.104 53.3035 184.513 53.1164 184.934 52.9673C188.486 51.8618 190.452 54.9622 189.512 60.5278Z" fill="#37474F"/>
<path d="M189.511 60.5276C188.45 66.7158 184.165 73.6283 179.905 75.9536C176.963 77.5546 174.815 76.5635 174.095 73.7426C174.514 73.5983 174.923 73.4199 175.315 73.2089C179.588 70.8836 183.86 63.9712 184.922 57.7703C185.242 56.1866 185.242 54.5508 184.922 52.9672C188.486 51.8617 190.451 54.9621 189.511 60.5276Z" fill="#263238"/>
<path d="M185.398 53.2342C185.797 53.2091 186.195 53.2919 186.555 53.4745C186.914 53.657 187.222 53.9332 187.449 54.2762C189.218 56.8937 187.522 63.552 186.789 65.7122C185.776 68.6728 179.16 75.6361 177.342 75.6361C176.739 75.5327 176.163 75.3024 175.649 74.9594C175.135 74.6164 174.693 74.1678 174.351 73.6412C174.051 72.1153 174.051 70.5418 174.351 69.0159C175.389 62.8913 179.636 56.0805 183.823 53.7679C184.196 53.5631 184.584 53.3889 184.983 53.2469H185.386M185.386 52.9547H184.934C184.512 53.1038 184.104 53.2908 183.713 53.5138C179.453 55.8264 175.169 62.7261 174.095 68.927C173.773 70.5105 173.773 72.1466 174.095 73.7301C174.462 74.3023 174.939 74.7895 175.496 75.1611C176.052 75.5328 176.676 75.781 177.329 75.8902C179.307 75.8902 185.959 68.8634 187.021 65.7249C188.083 62.5863 190.39 52.8784 185.361 52.8784L185.386 52.9547Z" fill="#263238"/>
<path d="M114.722 162.232L215.157 102.129L216.549 101.329C216.793 101.176 220.76 97.25 220.76 97.25L120.398 157.556C120.398 157.556 114.319 162.461 114.722 162.232Z" fill="#263238"/>
<path d="M101.259 204.38V206.757C101.259 208.027 102.138 208.574 103.212 207.926L236.091 128.051C236.658 127.667 237.13 127.149 237.469 126.54C237.808 125.931 238.005 125.247 238.044 124.544V122.155C238.044 120.885 237.166 120.338 236.091 120.986L103.212 200.873C102.645 201.257 102.172 201.775 101.833 202.384C101.494 202.993 101.297 203.677 101.259 204.38Z" fill="#E0E0E0"/>
<path d="M101.259 218.752V221.128C101.259 222.399 102.138 222.945 103.212 222.297L236.091 142.41C236.659 142.026 237.131 141.508 237.47 140.899C237.81 140.29 238.006 139.606 238.044 138.903V136.514C238.044 135.243 237.166 134.71 236.091 135.345L103.212 215.245C102.645 215.629 102.172 216.146 101.833 216.755C101.494 217.365 101.297 218.049 101.259 218.752Z" fill="#E0E0E0"/>
<path d="M101.259 233.034V235.397C101.259 236.668 102.138 237.214 103.212 236.566L236.091 156.705C236.658 156.32 237.13 155.802 237.469 155.193C237.808 154.584 238.005 153.9 238.044 153.198V150.809C238.044 149.538 237.166 148.992 236.091 149.64L103.212 229.527C102.645 229.911 102.172 230.428 101.833 231.037C101.494 231.647 101.297 232.331 101.259 233.034Z" fill="#E0E0E0"/>
<path d="M101.259 264.686V267.062C101.259 268.333 102.138 268.88 103.212 268.231L236.091 188.383C236.659 187.999 237.131 187.481 237.47 186.872C237.81 186.263 238.006 185.579 238.044 184.876V182.487C238.044 181.216 237.166 180.682 236.091 181.318L103.212 261.179C102.645 261.563 102.172 262.081 101.833 262.69C101.494 263.299 101.297 263.983 101.259 264.686Z" fill="#E0E0E0"/>
<path d="M101.259 279.045V281.434C101.259 282.704 102.138 283.238 103.212 282.603L236.091 202.716C236.659 202.332 237.131 201.814 237.47 201.205C237.81 200.596 238.006 199.912 238.044 199.209V196.82C238.044 195.549 237.166 195.003 236.091 195.651L103.212 275.538C102.645 275.923 102.173 276.44 101.834 277.049C101.495 277.659 101.298 278.342 101.259 279.045Z" fill="#E0E0E0"/>
<path d="M101.259 293.34V295.716C101.259 296.986 102.138 297.533 103.212 296.885L236.091 216.998C236.659 216.614 237.131 216.096 237.47 215.487C237.81 214.878 238.006 214.194 238.044 213.491V211.102C238.044 209.831 237.166 209.298 236.091 209.933L103.212 289.833C102.645 290.217 102.172 290.734 101.833 291.343C101.494 291.953 101.297 292.637 101.259 293.34Z" fill="#E0E0E0"/>
<path d="M101.259 324.98V327.368C101.259 328.639 102.138 329.173 103.212 328.537L236.091 248.65C236.659 248.266 237.131 247.749 237.47 247.14C237.81 246.53 238.006 245.846 238.044 245.143V242.754C238.044 241.484 237.166 240.937 236.091 241.585L103.212 321.472C102.645 321.857 102.173 322.375 101.834 322.984C101.495 323.593 101.298 324.277 101.259 324.98Z" fill="#E0E0E0"/>
<path d="M101.259 339.351V341.727C101.259 342.997 102.138 343.544 103.212 342.896L236.091 263.009C236.658 262.628 237.131 262.112 237.47 261.505C237.809 260.898 238.006 260.216 238.044 259.514V257.126C238.044 255.855 237.166 255.308 236.091 255.957L103.212 335.844C102.645 336.227 102.172 336.745 101.833 337.354C101.494 337.964 101.297 338.647 101.259 339.351Z" fill="#E0E0E0"/>
<path d="M101.259 353.633V356.022C101.259 357.292 102.138 357.826 103.212 357.191L236.091 277.329C236.659 276.945 237.131 276.428 237.47 275.818C237.81 275.209 238.006 274.525 238.044 273.822V271.433C238.044 270.163 237.166 269.616 236.091 270.264L103.212 350.126C102.645 350.51 102.173 351.028 101.834 351.637C101.495 352.246 101.298 352.93 101.259 353.633Z" fill="#E0E0E0"/>
<path d="M169.664 355.552L238.081 314.446V315.818L169.664 356.924V355.552Z" fill="#E0E0E0"/>
<path d="M185.581 334.205C188.425 332.222 191.599 328.881 191.086 324.929C190.781 322.527 188.901 321.6 186.777 322.451C182.615 324.116 179.99 330.634 178.538 334.573C177.317 338.017 175.645 344.51 180.613 345.615C186.435 346.886 190.939 337.991 192.258 333.366C192.441 332.718 191.428 332.362 191.135 332.947C190.622 334.001 187.192 340.965 190.964 340.088C192.307 339.783 193.076 337.61 193.564 336.505C194.418 334.522 194.845 331.765 196.188 330.062L195.199 329.592C195.26 331.422 195.199 332.667 196.42 334.09C196.513 334.223 196.652 334.311 196.808 334.338C196.963 334.364 197.122 334.325 197.25 334.23C199.179 332.362 199.313 329.325 201.437 327.635L200.57 327.203C200.57 327.788 200.314 329.452 200.277 330.227C200.277 330.596 200.753 330.837 201.034 330.723C201.31 330.664 201.567 330.532 201.78 330.341C201.994 330.15 202.157 329.905 202.255 329.63L201.327 329.274C202.133 333.76 205.807 329.274 207.064 327.572C210.726 322.489 213.338 317.038 213.436 310.532C213.436 310.011 212.496 309.744 212.484 310.367C212.398 315.373 210.299 319.96 208.944 324.687C207.491 329.77 206.283 334.967 205.282 340.202L206.149 340.533C206.424 336.828 207.333 333.205 208.834 329.834C209.781 326.831 211.361 324.086 213.46 321.803L212.655 321.485C212.868 322.792 212.803 324.131 212.466 325.408C212.128 326.686 211.526 327.871 210.702 328.881C210.445 329.224 211.019 329.872 211.275 329.529C212.618 327.775 214.827 327.216 216.268 325.513C217.621 323.601 218.826 321.578 219.869 319.465L219.21 319.122C219.124 323.391 222.994 316.733 223.518 316.021L222.884 315.767C223.14 316.644 223.482 317.229 224.434 317.241C226.326 317.241 227.034 314.37 228.462 314.039C228.462 314.039 229.085 314.586 229.304 314.611C230.092 314.731 230.895 314.575 231.587 314.166C233.183 313.092 234.473 311.591 235.322 309.821C235.542 309.414 234.797 308.906 234.553 309.35C233.613 311.002 230.684 315.386 228.56 313.239C228.425 313.112 228.145 312.984 227.998 313.162C227.425 313.899 224.141 317.813 223.531 315.704C223.457 315.45 223.103 315.17 222.908 315.45C222.408 316.136 222.005 316.898 221.541 317.622C221.285 318.016 219.857 320.52 219.905 319.249C219.905 318.944 219.454 318.588 219.246 318.906C217.916 321.028 216.939 323.811 215.084 325.539C213.704 326.809 211.898 327.292 210.702 328.83L211.275 329.478C212.197 328.396 212.876 327.114 213.263 325.725C213.649 324.336 213.733 322.874 213.509 321.447C213.491 321.36 213.453 321.279 213.397 321.211C213.341 321.143 213.27 321.091 213.189 321.06C213.109 321.028 213.023 321.018 212.938 321.03C212.853 321.042 212.772 321.077 212.704 321.129C210.421 323.315 209.139 326.39 208.004 329.338C206.481 332.78 205.555 336.475 205.27 340.253C205.27 340.647 206.039 341.092 206.136 340.583C207.168 334.934 208.509 329.351 210.152 323.861C211.495 319.439 213.314 315.183 213.399 310.481L212.447 310.316C212.357 315.184 210.883 319.915 208.212 323.912C207.528 325.018 206.808 326.123 206.027 327.165C205.685 327.635 202.658 331.752 202.267 329.363C202.206 329.02 201.559 328.537 201.339 329.008L200.46 329.821L201.217 330.304C201.278 329.274 201.474 328.309 201.522 327.267C201.522 326.873 200.937 326.619 200.656 326.847C198.495 328.563 198.337 331.6 196.396 333.468L197.226 333.607C196.567 332.458 196.244 331.133 196.298 329.795C196.298 329.351 195.639 328.919 195.309 329.325C193.82 331.18 193.356 334.141 192.38 336.301C191.843 337.483 189.938 340.634 190.549 337.28C190.953 335.889 191.532 334.561 192.27 333.328L191.147 332.909C190 336.949 186.936 343.074 182.749 344.345C177.402 346.009 178.33 339.109 179.307 336.034C180.469 332.452 182.193 329.094 184.409 326.098C184.815 325.501 185.277 324.948 185.788 324.446C186.875 323.429 187.192 323.175 188.706 324.077C190.219 324.98 190.292 325.475 189.926 327.178C189.702 328.023 189.365 328.832 188.925 329.579C187.959 331.114 186.745 332.464 185.337 333.569C185.141 333.735 185.422 334.281 185.642 334.116L185.581 334.205Z" fill="#455A64"/>
<path d="M349.612 254.94C345.193 253.847 340.323 257.126 337.479 264.343C334.635 271.56 328.934 290.011 327.714 294.839C327.177 296.999 342.947 316.136 342.361 315.856C342.19 315.767 347.5 306.517 347.5 306.517L339.847 294.255L344.729 280.951L349.612 254.94Z" fill="#B16668"/>
<path d="M339.383 426.227C338.785 426.468 338.626 427.65 338.541 430.039C338.467 431.83 338.101 434.943 340.115 435.566C342.129 436.189 345.071 435.871 346.365 434.194C347.923 431.935 349.589 429.759 351.357 427.675C353.347 425.439 355.496 423.368 356.301 420.242C357.034 417.421 356.423 416.201 354.58 415.375C352.029 414.257 348.037 417.916 346.035 418.514C344.339 418.997 339.981 425.998 339.383 426.227Z" fill="#263238"/>
<path d="M339.383 424.041V426.938C340.428 427.634 341.636 428.021 342.877 428.057C344.118 428.093 345.345 427.776 346.426 427.141C346.548 426.862 347.158 422.986 347.158 422.986L339.383 424.041Z" fill="#B16668"/>
<path d="M360.109 441.64C359.627 443.193 359.219 444.771 358.889 446.367C358.535 448.12 358.046 451.055 358.645 452.364C359.243 453.673 361.525 454.537 365.102 454.512C367.409 454.512 371.01 456.125 373.475 457.561C375.953 458.826 378.755 459.231 381.471 458.717C384.644 458.324 387.94 456.405 388.453 455.045C388.965 453.686 388.306 453.012 380.824 449.696C380.751 449.696 372.938 445.985 369.313 441.83L360.109 441.64Z" fill="#263238"/>
<path d="M360.109 438.501C360.109 438.501 360.109 440.648 360.109 441.881C360.109 443.114 361.501 444.943 365.114 444.816C367.653 444.715 369.423 444.003 369.313 441.83V438.704L360.109 438.501Z" fill="#B16668"/>
<path d="M336.637 383.837C337.235 378.748 338.377 373.744 340.042 368.919C340.042 368.919 338.468 356.085 337.601 343.76C335.978 321.663 337.284 314.446 341.458 304.534C341.458 304.534 377.065 300.722 378.151 316.186C379.506 335.373 377.712 372.452 377.223 379.224C376.735 385.997 376.125 389.059 373.83 403.215C372.072 413.99 369.362 438.704 369.362 438.704C367.93 439.461 366.341 439.838 364.736 439.803C363.131 439.767 361.558 439.32 360.159 438.501C360.159 438.501 357.253 407.649 357.559 399.835C357.773 394.052 358.713 388.324 360.354 382.795C360.354 382.795 358.145 351.524 357.51 346.543C357.51 346.543 356.387 356.467 355.899 363.239C355.41 370.012 353.457 376.492 351.602 389.085C349.966 400 346.927 424.409 346.927 424.409C342.203 427.078 339.383 424.066 339.383 424.066C339.383 424.066 335.367 393.303 336.637 383.837Z" fill="#67EFDC"/>
<g opacity="0.35">
<path d="M336.637 383.837C337.235 378.748 338.377 373.744 340.042 368.919C340.042 368.919 338.468 356.085 337.601 343.76C335.978 321.663 337.284 314.446 341.458 304.534C341.458 304.534 377.065 300.722 378.151 316.186C379.506 335.373 377.712 372.452 377.223 379.224C376.735 385.997 376.125 389.059 373.83 403.215C372.072 413.99 369.362 438.704 369.362 438.704C367.93 439.461 366.341 439.838 364.736 439.803C363.131 439.767 361.558 439.32 360.159 438.501C360.159 438.501 357.253 407.649 357.559 399.835C357.773 394.052 358.713 388.324 360.354 382.795C360.354 382.795 358.145 351.524 357.51 346.543C357.51 346.543 356.387 356.467 355.899 363.239C355.41 370.012 353.457 376.492 351.602 389.085C349.966 400 346.927 424.409 346.927 424.409C342.203 427.078 339.383 424.066 339.383 424.066C339.383 424.066 335.367 393.303 336.637 383.837Z" fill="black"/>
</g>
<path d="M367.812 249.946L366.14 264.267L354.043 263.136L355.422 247.24L367.812 249.946Z" fill="#B16668"/>
<path d="M340.762 262.081C342.093 258.269 346.621 254.114 351.272 255.016L354.69 255.664C354.787 258.968 360.793 260.671 366.725 258.676C368.507 259.21 370.155 259.756 371.608 260.302C375.868 261.891 377.577 269.197 377.711 281.573C377.845 293.95 379.066 324.611 379.066 324.611L374.025 326.276L371.705 317.292L370.765 328.055C365.105 329.429 359.214 329.398 353.567 327.966C340.774 325.056 336.795 317.876 336.795 317.876C338.36 309.566 341.47 301.654 345.95 294.585C339.554 276.834 338.797 267.71 340.762 262.081Z" fill="#EBEBEB"/>
<path d="M376.808 231.75C377.532 230.04 377.827 228.166 377.667 226.304C377.507 224.442 376.897 222.652 375.893 221.102C371.828 214.469 364.004 213.338 354.727 215.931C351.489 216.963 348.636 219.011 346.558 221.795C344.48 224.579 343.279 227.962 343.118 231.484C342.667 238.561 361.648 243.784 361.208 248.638L376.808 231.75Z" fill="#263238"/>
<path d="M377.211 234.444C377.211 234.444 379.787 238.739 379.42 239.184C378.782 239.596 378.08 239.888 377.345 240.048L377.211 234.444Z" fill="#9A4A4D"/>
<path d="M369.362 220.835C371.925 222.309 376.368 225.029 377.272 235.067C378.199 245.359 375.905 248.866 374.525 250.175C373.598 251.065 368.898 251.255 366.481 250.404C363.454 249.324 356.911 245.74 353.945 240.353C350.454 233.999 349.917 225.677 354.214 222.563C356.391 220.963 358.924 219.965 361.573 219.663C364.223 219.361 366.903 219.764 369.362 220.835Z" fill="#B16668"/>
<path d="M370.119 221.28C370.119 221.28 372.145 230.709 369.264 236.528C369.264 236.528 367.775 232.831 364.723 233.796C361.672 234.762 361.831 238.993 364.162 241.217C364.757 241.853 365.514 242.3 366.343 242.507C367.173 242.714 368.042 242.672 368.849 242.386C367.821 245.054 366.28 247.476 364.321 249.502C364.321 249.502 355.3 253.682 347.5 244.508C340.408 236.185 341.726 221.636 352.578 218.243C363.43 214.851 370.119 221.28 370.119 221.28Z" fill="#263238"/>
<path d="M344.4 222.259C344.826 222.64 345.09 223.182 345.134 223.765C345.177 224.349 344.997 224.927 344.632 225.372L341.409 222.488C341.59 222.267 341.812 222.086 342.061 221.955C342.309 221.824 342.581 221.746 342.859 221.725C343.137 221.703 343.416 221.74 343.681 221.831C343.945 221.923 344.189 222.068 344.4 222.259Z" fill="#263238"/>
<path d="M402.259 283.035C404.017 280.951 404.7 276.3 407.019 273.123C409.339 269.947 410.217 267.621 411.145 269.006C412.366 270.849 409.607 274.521 410.217 274.89C410.828 275.258 413.123 280.099 413.354 282.793C413.586 285.487 406.739 292.247 406.739 292.247L402.259 283.035Z" fill="#B16668"/>
<path d="M410.021 274.471C410.021 274.471 418.297 273.734 419.506 274.471C420.714 275.208 420.348 278.943 419.506 281.231C418.664 283.518 414.44 285.043 410.522 287.762C410.522 287.355 410.021 274.471 410.021 274.471Z" fill="#B16668"/>
<path d="M370.582 259.959C374.134 261.23 377.247 262.742 380.567 269.235C384.827 277.584 392.59 293.924 392.59 293.924L402.258 283.035C402.258 283.035 403.662 280.976 406.274 285.475C408.886 289.973 407.739 291.218 407.739 291.218C407.739 291.218 396.496 306.898 394.434 308.893C392.371 310.888 388.977 309.338 386.756 306.199C384.534 303.061 370.582 284.877 370.582 284.877C370.582 284.877 362.953 274.432 370.582 259.959Z" fill="#B16668"/>
<path opacity="0.2" d="M357.509 346.517L356.826 339.033C352.951 338.433 349.246 336.973 345.962 334.751C345.962 334.751 348.281 338.563 354.628 340.367L355.288 349.897L355.678 365.527L357.509 346.517Z" fill="black"/>
<path d="M332.156 257.977C333.805 257.982 335.438 257.649 336.962 256.996C338.486 256.343 339.872 255.384 341.04 254.173C342.208 252.962 343.135 251.523 343.768 249.939C344.401 248.355 344.727 246.656 344.729 244.94V225.131C343.292 224.645 341.766 224.521 340.274 224.767C338.783 225.014 337.369 225.624 336.147 226.549C334.926 227.473 333.932 228.686 333.247 230.087C332.561 231.488 332.205 233.038 332.205 234.61L332.156 257.977Z" fill="#263238"/>
<path d="M377.98 294.547C377.98 294.547 371.034 285.22 368.812 281.472L378.224 302.158L377.98 294.547Z" fill="#E0E0E0"/>
<path d="M438.878 217.951C436.242 226.045 430.614 250.188 430.614 250.188C430.614 250.188 419.885 265.042 416.931 267.876C415.295 269.451 411.597 272.285 411.597 272.285L414.673 274.648C414.673 274.648 419.799 273.022 420.227 275.919C425.572 271.442 430.629 266.603 435.363 261.433C436.557 260.135 437.4 258.53 437.804 256.783L442.381 236.287C442.381 236.287 442.381 219.768 444.823 217.608C447.264 215.448 446.3 210.556 446.3 210.556C444.627 210.606 440.953 211.61 438.878 217.951Z" fill="#FFA8A7"/>
<path d="M446.384 209.743C447.132 211.929 448.038 214.053 449.094 216.096C450.168 218.015 441.954 252.513 441.404 255.08C440.855 257.647 424.925 272.603 424.925 272.603C422.048 271.335 419.761 268.945 418.554 265.944L430.052 250.366C430.052 250.366 433.629 234.025 435.508 226.528C437.388 219.031 439.39 210.556 446.384 209.743Z" fill="#67EFDC"/>
<path opacity="0.1" d="M446.384 209.743C447.132 211.929 448.038 214.053 449.094 216.096C450.168 218.015 441.954 252.513 441.404 255.08C440.855 257.647 424.925 272.603 424.925 272.603C422.048 271.335 419.761 268.945 418.554 265.944L430.052 250.366C430.052 250.366 433.629 234.025 435.508 226.528C437.388 219.031 439.39 210.556 446.384 209.743Z" fill="black"/>
<path d="M480.026 371.867H472.092V386.022H480.026V371.867Z" fill="#FFA8A7"/>
<path d="M447.557 375.298L439.623 375.59L439.232 360.609L447.557 360.33V375.298Z" fill="#FFA8A7"/>
<path d="M478.914 270.862C478.914 278.753 479.439 324.649 479.439 324.649C479.622 326.911 481.722 331.003 481.881 339.135C482.112 351.003 480.355 378.945 480.355 378.945C478.984 379.645 477.482 380.024 475.955 380.055C474.428 380.085 472.913 379.767 471.517 379.123C471.517 379.123 465.28 339.605 463.864 327.851C462.643 317.61 458.334 290.252 458.334 290.252L452.231 324.891C453.152 329.2 453.484 333.623 453.22 338.029C452.841 343.455 448.008 370.66 448.008 370.66C446.625 371.475 445.087 371.963 443.503 372.091C441.919 372.218 440.327 371.981 438.841 371.397C438.841 371.397 438.365 328.69 438.279 323.709C438.169 318.029 440.549 269.146 440.549 269.146L478.914 270.862Z" fill="#37474F"/>
<path d="M472.091 381.944V380.762C471.664 380.762 471.408 381.194 471.237 382.249C471.124 383.036 470.969 383.817 470.773 384.587C470.423 386.033 469.962 387.448 469.394 388.818C468.271 391.702 467.331 392.77 464.755 396.137C463.883 397.07 463.068 398.059 462.314 399.098C461.838 399.987 461.667 402.452 462.485 403.024C465.475 405.108 470.028 405.159 473.251 404.18C474.45 403.83 475.528 403.129 476.356 402.161C477.185 401.192 477.73 399.997 477.926 398.717C478.048 397.954 477.999 397.166 478.085 396.404C478.368 394.66 479.051 393.013 480.074 391.601C480.668 390.785 481.18 389.908 481.6 388.983C482.259 387.293 481.734 385.375 481.307 383.685C480.941 382.223 480.538 380.622 480.086 380.762V381.651C478.956 382.583 477.549 383.077 476.107 383.049C474.899 383.1 472.079 382.859 472.091 381.944Z" fill="#263238"/>
<path d="M439.537 373.036C439.122 373.036 438.792 373.659 437.877 374.688C436.518 376.112 434.942 377.292 433.214 378.182C430.236 379.733 424.462 382.109 421.837 383.341C420.202 384.104 420.287 386.162 421.972 387.331C423.656 388.5 427.745 389.339 432.64 388.208C435.301 387.585 438.743 385.019 440.977 385.158C443.211 385.298 447.288 385.26 448.911 384.091C450.535 382.922 449.888 380.444 449.424 378.309C448.924 375.984 448.301 372.337 447.556 372.502V373.303C446.604 374.815 441.673 375.425 439.586 374.32L439.537 373.036Z" fill="#263238"/>
<path d="M458.347 290.252C454.236 288.93 450.453 286.688 447.264 283.683C447.264 283.683 449.4 287.85 455.808 291.713L452.732 322.527L458.347 290.252Z" fill="#263238"/>
<path d="M465.146 210.302C467.856 210.988 473.3 211.915 474.521 217.519C475.986 224.241 476.462 238.892 476.462 238.892L476.962 271.497C471.494 275.639 451.414 277.85 439.903 269.146C439.903 269.146 441.319 230.01 441.319 223.91C441.319 217.811 444.566 210.492 453.526 209.933L465.146 210.302Z" fill="#F5F5F5"/>
<path d="M453.673 209.323C451.204 211.476 449.417 214.355 448.546 217.583C447.447 222.513 447.325 277.571 447.325 277.571C447.325 277.571 441.71 276.491 439.086 274.344C439.086 274.344 439.416 230.887 439.953 223.695C440.77 212.805 440.685 209.717 453.709 208.51L453.673 209.323Z" fill="#67EFDC"/>
<path d="M467.515 208.51C467.515 208.51 460.032 213.301 459.947 232.373C459.874 248.892 459.349 277.571 459.349 277.571C459.349 277.571 471.738 279.464 479.587 274.585C479.587 274.585 480.527 234.61 480.368 228.422C480.197 221.331 478.61 212.17 476.426 211.255C473.525 210.111 470.546 209.193 467.515 208.51Z" fill="#67EFDC"/>
<path d="M495.346 252.297C487.9 220.607 482.395 210.035 473.374 210.162C470.725 213.44 471.457 223.377 475.632 229.4C475.632 229.4 484.946 249.832 486.423 257.1C487.729 263.454 489.206 271.522 489.12 277.012C489.089 277.982 488.721 278.908 488.083 279.617C486.386 281.535 486.374 283.086 485.275 285.208C484.409 286.859 483.469 287.482 483.737 287.863C484.093 288.257 484.577 288.497 485.095 288.537C485.612 288.577 486.125 288.414 486.533 288.079C487.327 287.477 488.038 286.762 488.644 285.957C488.352 287.99 487.789 289.97 486.972 291.84C485.056 296.326 485.519 298.613 491.342 297.012C495.004 296.008 497.274 292.857 497.811 283.734C498.08 280.377 498.112 277.005 497.909 273.644C497.115 265.004 496.554 257.405 495.346 252.297Z" fill="#FFA8A7"/>
<path d="M471.799 209.641C471.799 209.641 477.792 209.361 481.039 212.779C484.286 216.197 488.668 223.389 492.916 239.108C497.164 254.826 498.47 266.313 498.678 275.157C498.678 275.157 493.356 277.698 488.449 274.801C488.449 274.801 486.276 261.116 484.347 253.835C482.419 246.554 475.229 231.217 475.229 231.217C475.229 231.217 468.357 220.581 471.799 209.641Z" fill="#67EFDC"/>
<path opacity="0.1" d="M471.799 209.641C471.799 209.641 477.792 209.361 481.039 212.779C484.286 216.197 488.668 223.389 492.916 239.108C497.164 254.826 498.47 266.313 498.678 275.157C498.678 275.157 493.356 277.698 488.449 274.801C488.449 274.801 486.276 261.116 484.347 253.835C482.419 246.554 475.229 231.217 475.229 231.217C475.229 231.217 468.357 220.581 471.799 209.641Z" fill="black"/>
<path opacity="0.1" d="M468.357 218.942L464.927 223.352L466.648 228.383L462.144 240.404L467.563 228.383L465.671 223.631L468.357 218.942Z" fill="black"/>
<path opacity="0.1" d="M444.187 217.519L444.932 222.081L441.966 226.109L446.092 239.629L442.894 226.261L445.628 222.5L444.187 217.519Z" fill="black"/>
<path d="M463.084 184.975C464.049 178.782 460.01 172.947 454.061 171.942C448.112 170.937 442.506 175.142 441.54 181.335C440.575 187.528 444.615 193.363 450.564 194.368C456.513 195.373 462.118 191.168 463.084 184.975Z" fill="#263238"/>
<path d="M471.164 191.216C471.164 191.216 469.394 199.87 468.723 201.293C468.248 202.165 467.47 202.815 466.55 203.11L466.672 197.023L471.164 191.216Z" fill="#263238"/>
<path d="M468.943 178.827C469.564 178.755 470.193 178.832 470.781 179.052C471.37 179.272 471.902 179.63 472.336 180.098C473.789 181.648 472.983 186.451 471.116 191.242L467.783 191.636L468.943 178.827Z" fill="#263238"/>
<path d="M466.794 191.623C467.465 192.03 468.417 190.695 469.235 189.806C469.557 189.412 469.971 189.111 470.437 188.932C470.903 188.752 471.405 188.701 471.896 188.783C472.386 188.865 472.849 189.077 473.238 189.398C473.627 189.72 473.93 190.14 474.117 190.619C475.485 193.618 472.897 197.582 470.822 198.243C467.16 199.438 466.623 196.972 466.623 196.972L466.354 211.09C463.827 214.457 458.164 218.421 455.112 217.85C452.671 217.405 452.146 213.123 454.477 210.314V206.172C452.863 206.439 451.226 206.525 449.595 206.426C446.909 205.994 445.225 203.796 444.407 200.772C443.101 195.918 442.6 192.004 443.711 182.449C444.932 171.978 456.626 171.877 462.936 176.006C469.247 180.136 466.794 191.623 466.794 191.623Z" fill="#FFA8A7"/>
<path d="M466.794 192.792C467.135 192.792 468.417 190.593 469.235 189.806C470.382 188.713 468.893 178.827 468.893 178.827C469.292 177.958 469.429 176.983 469.288 176.031C469.146 175.079 468.732 174.194 468.1 173.49C466.525 171.686 464.328 169.475 457.114 170.364C452.012 170.987 446.458 172.639 441.966 170.364C441.55 171.889 441.582 173.507 442.056 175.013C442.53 176.518 443.425 177.842 444.627 178.814C446.466 179.765 448.472 180.318 450.522 180.441C454.467 180.751 458.432 180.675 462.363 180.212C463.583 180.034 463.864 181.279 464.535 184.698C465.219 187.684 465.707 192.766 466.794 192.792Z" fill="#263238"/>
<path d="M468.942 179.602L472.983 177.34C472.853 177.057 472.67 176.804 472.444 176.596C472.217 176.389 471.953 176.231 471.667 176.132C471.381 176.034 471.078 175.996 470.778 176.023C470.477 176.049 470.185 176.139 469.919 176.286C469.383 176.607 468.984 177.128 468.802 177.744C468.621 178.359 468.671 179.024 468.942 179.602Z" fill="#263238"/>
<path d="M454.502 206.172C457.26 205.624 459.965 204.816 462.583 203.758C463.814 203.089 464.823 202.048 465.476 200.771C465.161 202.049 464.6 203.246 463.828 204.291C462.302 206.324 454.502 207.824 454.502 207.824V206.172Z" fill="#F28F8F"/>
<path d="M455.942 190.06C455.942 190.397 456.071 190.72 456.3 190.958C456.529 191.197 456.839 191.33 457.163 191.33C457.487 191.33 457.797 191.197 458.026 190.958C458.255 190.72 458.384 190.397 458.384 190.06C458.384 189.723 458.255 189.4 458.026 189.161C457.797 188.923 457.487 188.789 457.163 188.789C456.839 188.789 456.529 188.923 456.3 189.161C456.071 189.4 455.942 189.723 455.942 190.06Z" fill="#263238"/>
<path d="M457.212 185.346L459.775 186.82C459.958 186.452 459.997 186.025 459.886 185.628C459.774 185.231 459.521 184.893 459.177 184.685C459.007 184.589 458.821 184.53 458.629 184.512C458.436 184.494 458.243 184.516 458.059 184.578C457.875 184.64 457.705 184.739 457.56 184.871C457.414 185.003 457.296 185.165 457.212 185.346Z" fill="#263238"/>
<path d="M455.039 198.688L452.305 199.755C452.362 199.947 452.457 200.125 452.583 200.278C452.708 200.431 452.863 200.556 453.036 200.645C453.21 200.735 453.399 200.786 453.592 200.797C453.785 200.807 453.978 200.777 454.16 200.708C454.529 200.554 454.826 200.258 454.99 199.882C455.154 199.505 455.171 199.077 455.039 198.688Z" fill="#F28F8F"/>
<path d="M445.238 186.388L447.581 184.507C447.471 184.342 447.33 184.203 447.166 184.097C447.003 183.99 446.82 183.92 446.63 183.889C446.439 183.858 446.245 183.868 446.058 183.917C445.871 183.966 445.696 184.055 445.543 184.177C445.23 184.435 445.025 184.808 444.968 185.219C444.911 185.63 445.008 186.048 445.238 186.388Z" fill="#263238"/>
<path d="M445.958 189.653C445.958 189.99 446.087 190.313 446.316 190.551C446.544 190.79 446.855 190.924 447.179 190.924C447.502 190.924 447.813 190.79 448.042 190.551C448.271 190.313 448.399 189.99 448.399 189.653C448.399 189.316 448.271 188.993 448.042 188.754C447.813 188.516 447.502 188.382 447.179 188.382C446.855 188.382 446.544 188.516 446.316 188.754C446.087 188.993 445.958 189.316 445.958 189.653Z" fill="#263238"/>
<path d="M452.074 188.522L451.683 196.032L447.911 194.698L452.074 188.522Z" fill="#F28F8F"/>
<path d="M450.768 217.036C451.5 218.866 452.867 219.577 455.321 219.895C456.562 219.975 457.806 219.79 458.977 219.354C460.148 218.917 461.222 218.236 462.132 217.354L459.08 214.19L455.186 217.227L454.857 213.834L450.768 217.036Z" fill="#67EFDC"/>
<path opacity="0.1" d="M450.768 217.036C451.5 218.866 452.867 219.577 455.321 219.895C456.562 219.975 457.806 219.79 458.977 219.354C460.148 218.917 461.222 218.236 462.132 217.354L459.08 214.19L455.186 217.227L454.857 213.834L450.768 217.036Z" fill="black"/>
<path d="M452.696 216.045C452.336 217.143 452.199 218.307 452.294 219.463C452.41 220.493 452.789 221.471 453.392 222.297C453.779 222.556 454.219 222.719 454.676 222.772C455.133 222.824 455.596 222.766 456.029 222.602C456.819 221.895 457.453 221.02 457.889 220.036C458.325 219.051 458.553 217.98 458.555 216.896L455.186 217.29L452.696 216.045Z" fill="#67EFDC"/>
<path d="M453.367 222.297C453.367 222.297 449.375 245.169 449.216 247.05C449.058 248.93 451.499 255.461 453.025 255.512C454.551 255.563 457.529 249.629 457.566 247.888C457.602 246.147 456.003 222.538 456.003 222.538L453.367 222.297Z" fill="#67EFDC"/>
<path opacity="0.1" d="M456.028 222.602C455.602 222.798 455.134 222.873 454.67 222.82C454.207 222.766 453.766 222.586 453.392 222.297V222.665C453.772 222.982 454.221 223.198 454.699 223.295C455.177 223.392 455.671 223.368 456.138 223.224L456.028 222.602Z" fill="black"/>
<path d="M455.186 217.291L466.416 208.396V205.753C466.416 205.753 469.028 206.782 469.614 211.573C467.812 215.727 464.733 219.138 460.862 221.268L458.506 216.897L455.186 217.291Z" fill="#E0E0E0"/>
<path d="M454.502 206.96C453.034 207.201 451.718 208.037 450.84 209.285C449.717 211.204 449.973 218.587 449.973 218.587L452.659 216.045L455.1 217.316C454.868 214.864 454.404 210.391 454.404 210.391L454.502 206.96Z" fill="#E0E0E0"/>
<path d="M410.645 287.838C411.693 286.304 412.307 284.495 412.414 282.616C412.732 280.214 419.055 277.634 419.262 279.426C419.47 281.218 420.044 282.704 418.042 284.877C416.04 287.05 413.586 289.452 410.645 287.838Z" fill="#FFA8A7"/>
<path d="M410.974 272.323C409.46 274.356 408.532 278.308 407.727 279.642C406.921 280.976 405.969 282.183 407.727 282.374C409.485 282.565 412.036 279.057 412.988 276.897C413.357 276.043 413.918 275.293 414.623 274.712C414.901 274.48 415.209 274.292 415.539 274.153C414.721 273.86 415.148 270.43 414.575 269.959C414.575 269.959 411.596 271.23 410.974 272.323Z" fill="#FFA8A7"/>
</svg>
