<svg width="42" height="42" viewBox="0 0 42 42" fill="none" xmlns="http://www.w3.org/2000/svg">
<g clip-path="url(#clip0_1_5769)">
<path d="M14.4919 11.0534C14.8603 11.2297 15.2488 11.3746 15.5902 11.5914C15.8317 11.7442 16.0226 11.788 16.2854 11.6678C16.7683 11.4488 17.2625 11.2511 17.7577 11.0624C18.0093 10.9669 18.1261 10.8231 18.1542 10.5423C18.2552 9.51909 18.9493 8.90582 19.9814 8.89795C20.6676 8.89234 21.3549 8.89121 22.0411 8.89795C23.0473 8.90806 23.7425 9.52358 23.8424 10.5221C23.8728 10.8209 24.003 10.9691 24.2681 11.0702C24.751 11.2544 25.2305 11.4488 25.7011 11.6633C25.9583 11.7801 26.1604 11.779 26.394 11.5948C27.224 10.9444 28.1011 10.9983 28.8445 11.7307C29.3342 12.2125 29.8205 12.6966 30.3011 13.1863C30.9997 13.8996 31.0614 14.8038 30.4415 15.572C30.2326 15.8304 30.2236 16.0449 30.3618 16.3336C30.5774 16.7873 30.7605 17.258 30.9368 17.7286C31.0356 17.9925 31.1782 18.1285 31.4803 18.1577C32.481 18.2554 33.0998 18.9518 33.1076 19.9537C33.1133 20.668 33.1166 21.3824 33.1076 22.0967C33.0953 23.0436 32.4608 23.7557 31.5163 23.8411C31.1782 23.8714 31.0289 24.0152 30.9222 24.3151C30.7537 24.7879 30.5549 25.2518 30.3438 25.7078C30.2236 25.9673 30.2349 26.1661 30.4179 26.3986C31.0671 27.223 31.0098 28.1048 30.2753 28.8494C29.7935 29.338 29.3095 29.8255 28.8187 30.3051C28.1067 31.0004 27.2082 31.0577 26.4322 30.4399C26.1919 30.249 25.9852 30.2153 25.7056 30.3456C25.2373 30.5635 24.7566 30.7555 24.2737 30.9386C24.0087 31.0397 23.8773 31.1868 23.8492 31.4867C23.7593 32.4605 23.0608 33.0952 22.0905 33.1064C21.3762 33.1154 20.662 33.1131 19.9466 33.1064C18.9673 33.0974 18.2654 32.4841 18.1654 31.5081C18.1306 31.1677 17.9745 31.0251 17.6802 30.9184C17.2209 30.7521 16.7683 30.5623 16.3258 30.3545C16.0552 30.2276 15.8463 30.2276 15.5981 30.4253C14.7962 31.0633 13.9023 31.0071 13.1779 30.2961C12.6782 29.8053 12.1818 29.3111 11.6932 28.809C11.0014 28.098 10.9531 27.1995 11.5753 26.4211C11.755 26.1964 11.7954 26.001 11.6719 25.7337C11.4507 25.2518 11.253 24.7576 11.0643 24.2623C10.9621 23.9938 10.8027 23.8759 10.5084 23.8489C9.54259 23.7602 8.90919 23.0537 8.89795 22.0788C8.88897 21.3779 8.89122 20.6781 8.89795 19.9772C8.90582 18.9675 9.51226 18.27 10.5107 18.1644C10.8285 18.1307 10.9756 17.9903 11.08 17.7095C11.2597 17.2254 11.4989 16.7615 11.6562 16.2707C11.7168 16.0808 11.6955 15.7899 11.5854 15.6338C10.9588 14.7487 10.9969 13.903 11.7516 13.1392C12.2345 12.6506 12.722 12.1676 13.2071 11.6824C13.5496 11.3409 13.9573 11.1511 14.4458 11.1522C14.4627 11.1185 14.4784 11.0848 14.4953 11.0511L14.4919 11.0534ZM29.5442 14.4556C29.4802 14.3388 29.4454 14.2264 29.3724 14.1523C28.8726 13.6412 28.3684 13.1347 27.8585 12.6349C27.635 12.417 27.4171 12.4709 27.1914 12.6629C26.5827 13.1807 25.9145 13.2302 25.1935 12.9033C24.7106 12.6843 24.2187 12.4787 23.7223 12.2923C22.99 12.0182 22.579 11.506 22.5184 10.731C22.4903 10.3828 22.3308 10.2312 21.9838 10.2368C21.3257 10.2458 20.6664 10.2458 20.0083 10.2368C19.6579 10.2323 19.5097 10.3941 19.4805 10.7389C19.4131 11.5319 18.9819 12.0452 18.2328 12.3147C17.76 12.4855 17.2917 12.673 16.8368 12.8876C16.1035 13.2335 15.4251 13.1841 14.803 12.6573C14.5346 12.4304 14.3111 12.4518 14.073 12.6966C13.6226 13.1583 13.1678 13.6154 12.7051 14.0636C12.4446 14.3163 12.4322 14.5432 12.6714 14.8262C13.1768 15.4204 13.2273 16.0808 12.9106 16.7873C12.6995 17.2591 12.494 17.7353 12.3177 18.2206C12.0403 18.9821 11.5259 19.4258 10.7106 19.4864C10.3826 19.5111 10.2333 19.6672 10.2355 19.9952C10.2411 20.668 10.2411 21.3408 10.2355 22.0136C10.2333 22.3427 10.3882 22.4955 10.7139 22.5202C11.5315 22.5808 12.0436 23.0301 12.3188 23.7905C12.4805 24.2376 12.6501 24.6835 12.8578 25.1092C13.2285 25.8662 13.2004 26.566 12.6422 27.2174C12.4288 27.4668 12.4479 27.688 12.6793 27.9149C13.1487 28.3766 13.6148 28.8427 14.0764 29.3122C14.3156 29.5559 14.5368 29.5717 14.8063 29.3448C15.4296 28.8202 16.1091 28.7708 16.8413 29.1213C17.2692 29.3257 17.7094 29.5121 18.1587 29.666C18.9594 29.9389 19.4255 30.4601 19.4861 31.3149C19.5086 31.6215 19.6636 31.7686 19.9724 31.7675C20.6586 31.7642 21.3459 31.7653 22.0321 31.7675C22.342 31.7675 22.4925 31.6148 22.5139 31.3104C22.5723 30.4725 23.0294 29.9558 23.8076 29.6784C24.2681 29.5144 24.7229 29.329 25.1643 29.119C25.8976 28.7719 26.576 28.8202 27.1981 29.3481C27.4665 29.5762 27.69 29.5537 27.9292 29.31C28.3796 28.8494 28.8355 28.3923 29.2971 27.943C29.5565 27.6903 29.5689 27.4623 29.3286 27.1792C28.8232 26.5851 28.7727 25.9257 29.0905 25.2192C29.3027 24.7475 29.5071 24.2713 29.6835 23.786C29.9597 23.0234 30.4741 22.582 31.2905 22.5191C31.614 22.4943 31.7701 22.3393 31.7667 22.0091C31.7611 21.3363 31.7611 20.6635 31.7667 19.9907C31.769 19.6605 31.6117 19.5122 31.286 19.4864C30.4898 19.4246 29.9766 18.9967 29.6992 18.2531C29.5184 17.769 29.323 17.2894 29.1073 16.8199C28.776 16.1011 28.8288 15.4395 29.3297 14.8172C29.4139 14.7128 29.4701 14.587 29.5476 14.4578L29.5442 14.4556Z" fill="black"/>
<path d="M30.6358 37.997C30.8514 38.38 31.0569 38.7439 31.2939 39.1651C25.3092 42.3494 19.193 42.7089 12.8174 40.203C13.033 40.6174 13.215 40.9656 13.425 41.37C13.0476 41.5744 12.6748 41.7766 12.2615 42.0001C12.1211 41.7496 11.9897 41.5239 11.8673 41.2947C11.4832 40.5793 11.0969 39.866 10.7229 39.146C10.4343 38.5878 10.6151 38.1835 11.2238 38.0476C12.2716 37.8151 13.3228 37.6016 14.4032 37.3748C14.4975 37.8218 14.5829 38.2284 14.6783 38.6833C14.2808 38.7709 13.9068 38.854 13.5339 38.9371C19.3682 41.2914 25.052 40.951 30.6369 37.9981L30.6358 37.997Z" fill="black"/>
<path d="M27.3206 3.32459C27.7406 3.23136 28.1033 3.15049 28.4661 3.0685C22.6318 0.715384 16.948 1.05235 11.3709 4.00637C11.2631 3.8188 11.1542 3.62898 11.0464 3.43803C10.9442 3.25607 10.842 3.07411 10.7106 2.83936C16.6965 -0.347168 22.8149 -0.696484 29.1893 1.8004C28.9636 1.36909 28.7738 1.00854 28.5728 0.625528C28.9703 0.413242 29.3376 0.217804 29.7475 -0.0012207C30.081 0.615419 30.4045 1.21409 30.7268 1.81388C30.9323 2.19577 31.1479 2.57316 31.3321 2.96516C31.5152 3.35492 31.3647 3.7997 30.975 3.89405C29.8643 4.1625 28.7423 4.38602 27.5957 4.63425C27.5002 4.17935 27.4149 3.77499 27.3206 3.32347V3.32459Z" fill="black"/>
<path d="M4.0037 30.6322C3.6724 30.8209 3.36917 30.9938 3.06482 31.1657C3.0053 31.1994 2.94241 31.2252 2.8301 31.2803C-0.35151 25.3003 -0.697411 19.1822 1.79914 12.8181C1.38586 13.0304 1.03434 13.2101 0.627794 13.4191C0.423398 13.0383 0.223494 12.6654 0.00112915 12.2487C0.727746 11.8589 1.42516 11.4838 2.1237 11.1109C2.42019 10.9536 2.71106 10.7829 3.01878 10.6526C3.4096 10.4864 3.78919 10.6739 3.92284 11.0738C3.95765 11.1794 3.98011 11.2906 4.00257 11.3995C4.20809 12.3835 4.41249 13.3685 4.62811 14.4052C4.189 14.4985 3.77572 14.5861 3.32425 14.6827C3.23216 14.2783 3.14905 13.9065 3.06482 13.5359C0.709777 19.3743 1.05119 25.0588 4.00482 30.6322H4.0037Z" fill="black"/>
<path d="M37.9941 11.3757C38.3714 11.1634 38.7431 10.9534 39.1632 10.7175C42.3414 16.7154 42.6873 22.8358 40.1919 29.1987C40.6164 28.9752 40.969 28.7888 41.3688 28.5776C41.5755 28.9606 41.7765 29.3335 42 29.7469C41.4081 30.0647 40.8455 30.368 40.2817 30.669C39.8617 30.8937 39.4484 31.1307 39.0194 31.334C38.6117 31.526 38.1794 31.3519 38.0817 30.9296C37.8278 29.8412 37.61 28.745 37.3663 27.6015C37.811 27.5072 38.2254 27.4196 38.6746 27.3241C38.7667 27.7273 38.851 28.098 38.9352 28.4698C41.2857 22.628 40.9466 16.9412 37.9941 11.3746V11.3757Z" fill="black"/>
<path d="M32.5854 35.2731C32.5854 33.7691 33.7714 32.5853 35.2752 32.5886C36.7711 32.5931 37.9772 33.8051 37.9604 35.2888C37.9435 36.7591 36.7464 37.9542 35.2797 37.9643C33.7961 37.9744 32.5854 36.7658 32.5854 35.272V35.2731ZM33.9297 35.2506C33.9241 36.0009 34.4901 36.5906 35.2347 36.6097C35.9816 36.6288 36.6082 36.0144 36.6071 35.2641C36.6071 34.5239 36.0175 33.941 35.2684 33.9376C34.5104 33.9342 33.9354 34.4981 33.9286 35.2506H33.9297Z" fill="black"/>
<path d="M35.2864 9.41594C33.7826 9.42493 32.5899 8.24556 32.5854 6.74271C32.5809 5.24661 33.7804 4.03916 35.2684 4.04028C36.7329 4.04028 37.9357 5.232 37.9604 6.70453C37.9851 8.18491 36.7812 9.40583 35.2853 9.41594H35.2864ZM35.2426 8.06585C35.9928 8.07371 36.5835 7.50874 36.606 6.76293C36.6284 6.016 36.0119 5.38701 35.2617 5.38925C34.5193 5.3915 33.9331 5.97894 33.9297 6.72362C33.9264 7.47954 34.4924 8.05911 35.2426 8.06697V8.06585Z" fill="black"/>
<path d="M9.41121 35.3001C9.39885 36.776 8.20617 37.9632 6.73272 37.9654C5.25815 37.9677 4.02953 36.7355 4.03514 35.2619C4.04188 33.7736 5.25366 32.5808 6.74957 32.5887C8.25109 32.5976 9.42356 33.7916 9.41121 35.3001ZM6.77091 33.9388C6.00498 33.9163 5.3873 34.5004 5.37944 35.254C5.37158 35.9841 5.96568 36.594 6.70128 36.6109C7.44025 36.6277 8.04445 36.0459 8.05905 35.3046C8.07365 34.543 7.52448 33.9612 6.77091 33.9399V33.9388Z" fill="black"/>
<path d="M9.41119 6.71667C9.41905 8.22289 8.23872 9.41349 6.7372 9.41573C5.24241 9.41798 4.03288 8.21615 4.03513 6.73015C4.03737 5.26774 5.23455 4.06142 6.70238 4.04007C8.18482 4.01873 9.40333 5.22281 9.41119 6.71667ZM8.06128 6.74363C8.06577 5.99782 7.49077 5.40028 6.75067 5.38455C6.00834 5.36883 5.37381 5.99557 5.38055 6.73914C5.38729 7.4782 5.98138 8.06339 6.72484 8.06452C7.47841 8.06564 8.05679 7.49393 8.06128 6.74363Z" fill="black"/>
<path d="M13.5991 20.9836C13.6058 16.9019 16.9357 13.5929 21.0269 13.6031C25.107 13.6132 28.4133 16.9502 28.3976 21.0409C28.3818 25.1013 25.0587 28.4046 20.9899 28.4013C16.9076 28.399 13.5912 25.0698 13.5979 20.9825L13.5991 20.9836ZM21.0236 14.9486C17.6937 14.9397 14.9613 17.641 14.9456 20.9567C14.9299 24.3061 17.6387 27.0489 20.9742 27.0568C24.3029 27.0658 27.0364 24.3645 27.0533 21.0477C27.0712 17.6983 24.3613 14.9565 21.0236 14.9486Z" fill="black"/>
<path d="M19.074 17.6433C19.1571 17.6793 19.3165 17.7309 19.4603 17.8118C20.9315 18.6463 22.4016 19.482 23.8672 20.3266C24.5343 20.7108 24.5376 21.2915 23.8728 21.6756C22.4083 22.5214 20.9394 23.3593 19.467 24.1916C18.791 24.5735 18.3114 24.2837 18.3092 23.5031C18.3058 21.8239 18.3058 20.1447 18.3092 18.4655C18.3092 17.941 18.5731 17.6332 19.074 17.6433ZM19.6703 22.5292C20.5777 22.0081 21.42 21.524 22.3286 21.0017C21.411 20.476 20.5609 19.9886 19.6703 19.4786V22.5292Z" fill="black"/>
</g>
<defs>
<clipPath id="clip0_1_5769">
<rect width="42" height="42" fill="white"/>
</clipPath>
</defs>
</svg>
