<svg width="33" height="33" viewBox="0 0 33 33" fill="none" xmlns="http://www.w3.org/2000/svg">
<circle cx="16.5" cy="16.5" r="16.5" fill="#21D0B3"/>
<g clip-path="url(#clip0_239_1170)">
<path d="M10.3067 25.9101C10.0411 25.7567 9.94372 25.5237 10.0022 25.1593C10.0725 24.7227 10.152 24.2871 10.2299 23.8515C10.5026 22.3212 10.7763 20.791 11.049 19.2601C11.0533 19.2366 11.0538 19.212 11.0571 19.1612C11.0587 19.134 11.0446 19.1083 11.0203 19.0952C10.9959 19.0821 10.9673 19.0654 10.944 19.0429C9.52176 17.7073 8.1006 16.3713 6.6816 15.0326C6.5826 14.9389 6.48955 14.8347 6.41382 14.7227C6.16009 14.3478 6.29426 13.9955 6.74219 13.8892C7.03108 13.8206 7.32753 13.7798 7.62183 13.7379C9.34215 13.4939 11.0625 13.2526 12.7833 13.0107C12.8899 12.9955 12.997 12.9798 13.1074 12.9641C13.1312 12.9605 13.1517 12.9463 13.162 12.9254C13.5521 12.1631 13.941 11.4045 14.3284 10.6459C14.8402 9.64493 15.3492 8.64236 15.8642 7.64241C15.9373 7.50106 16.02 7.35709 16.1304 7.24296C16.1964 7.1749 16.29 7.13145 16.3939 7.07805C16.4425 7.05344 16.501 7.08695 16.501 7.14035V22.9505C16.501 22.9757 16.4874 22.9987 16.4647 23.0113C16.4193 23.0364 16.3722 23.0636 16.3241 23.0877C14.6167 23.9557 12.9099 24.8237 11.2015 25.6891C11.0289 25.7766 10.8477 25.8483 10.6697 25.9263L10.3078 25.9085L10.3067 25.9101Z" fill="white"/>
<path d="M22.6933 25.9101C22.9589 25.7567 23.0563 25.5237 22.9978 25.1593C22.9275 24.7227 22.848 24.2871 22.7701 23.8515C22.4974 22.3212 22.2237 20.791 21.951 19.2601C21.9467 19.2366 21.9462 19.212 21.9429 19.1612C21.9413 19.134 21.9554 19.1083 21.9797 19.0952C22.0041 19.0821 22.0327 19.0654 22.056 19.0429C23.4782 17.7073 24.8994 16.3713 26.3184 15.0326C26.4174 14.9389 26.5104 14.8347 26.5862 14.7227C26.8399 14.3478 26.7057 13.9955 26.2578 13.8892C25.9689 13.8206 25.6725 13.7798 25.3782 13.7379C23.6578 13.4939 21.9375 13.2526 20.2167 13.0107C20.1101 12.9955 20.003 12.9798 19.8926 12.9641C19.8688 12.9605 19.8482 12.9463 19.838 12.9254C19.4479 12.1631 19.059 11.4045 18.6716 10.6459C18.1598 9.64493 17.6508 8.64236 17.1358 7.64241C17.0627 7.50106 16.98 7.35709 16.8696 7.24296C16.8036 7.1749 16.71 7.13145 16.6061 7.07805C16.5575 7.05344 16.499 7.08695 16.499 7.14035V22.9505C16.499 22.9757 16.5125 22.9987 16.5353 23.0113C16.5807 23.0364 16.6278 23.0636 16.6759 23.0877C18.3833 23.9557 20.0901 24.8237 21.7985 25.6891C21.9711 25.7766 22.1523 25.8483 22.3303 25.9263C22.4423 25.9205 22.5802 25.9137 22.6922 25.9085L22.6933 25.9101Z" fill="white"/>
</g>
<defs>
<clipPath id="clip0_239_1170">
<rect width="20.4286" height="18.8571" fill="white" transform="translate(6.28564 7.07129)"/>
</clipPath>
</defs>
</svg>
