<svg width="520" height="126" viewBox="0 0 520 126" fill="none" xmlns="http://www.w3.org/2000/svg">
<g filter="url(#filter0_b_738_431)">
<rect y="2" width="520" height="124" rx="6" fill="url(#paint0_linear_738_431)"/>
</g>
<g filter="url(#filter1_b_738_431)">
<rect width="520" height="30" rx="6" fill="url(#paint1_linear_738_431)"/>
</g>
<g opacity="0.8">
<path d="M19.216 62V50.2399H21.1316V53.2715L21.0483 54.854C21.4037 54.5319 21.7923 54.2488 22.2143 54.0045C22.6363 53.749 23.1249 53.6213 23.6802 53.6213C24.5575 53.6213 25.196 53.9045 25.5958 54.4709C25.9955 55.0372 26.1954 55.8368 26.1954 56.8695V62H24.2798V57.1194C24.2798 56.442 24.1743 55.9645 23.9633 55.6869C23.7635 55.3981 23.4414 55.2538 22.9972 55.2538C22.6419 55.2538 22.3254 55.3426 22.0477 55.5203C21.7812 55.698 21.4758 55.9534 21.1316 56.2865V62H19.216ZM31.3862 62.1666C30.4422 62.1666 29.7704 61.8945 29.3706 61.3504C28.9819 60.8062 28.7876 60.0955 28.7876 59.2182V55.337H27.6216V53.9045L28.8875 53.8212L29.1208 51.256H30.7199V53.8212H32.802V55.337H30.7199V59.2182C30.7199 59.6957 30.8143 60.0566 31.003 60.3009C31.1918 60.5342 31.4805 60.6508 31.8692 60.6508C32.0136 60.6508 32.1579 60.6396 32.3023 60.6174C32.4467 60.5841 32.5855 60.5397 32.7187 60.4842L33.0685 61.8168C32.8576 61.9167 32.6077 62 32.319 62.0666C32.0302 62.1333 31.7193 62.1666 31.3862 62.1666ZM37.0796 62.1666C36.1357 62.1666 35.4638 61.8945 35.0641 61.3504C34.6754 60.8062 34.481 60.0955 34.481 59.2182V55.337H33.315V53.9045L34.581 53.8212L34.8142 51.256H36.4133V53.8212H38.4955V55.337H36.4133V59.2182C36.4133 59.6957 36.5077 60.0566 36.6965 60.3009C36.8853 60.5342 37.174 60.6508 37.5627 60.6508C37.707 60.6508 37.8514 60.6396 37.9957 60.6174C38.1401 60.5841 38.2789 60.5397 38.4122 60.4842L38.762 61.8168C38.551 61.9167 38.3011 62 38.0124 62.0666C37.7237 62.1333 37.4127 62.1666 37.0796 62.1666ZM40.2166 65.2315V53.8212H41.7991L41.9324 54.6874H41.999C42.3432 54.3876 42.7264 54.1377 43.1483 53.9378C43.5703 53.7268 44.009 53.6213 44.4643 53.6213C45.1417 53.6213 45.7191 53.7935 46.1966 54.1377C46.6742 54.482 47.0406 54.965 47.296 55.5869C47.5514 56.2088 47.6791 56.9417 47.6791 57.7857C47.6791 58.7185 47.5126 59.5181 47.1794 60.1843C46.8463 60.8395 46.4132 61.3393 45.8802 61.6835C45.3582 62.0278 44.7919 62.1999 44.1811 62.1999C43.8146 62.1999 43.4537 62.1222 43.0984 61.9667C42.7541 61.8001 42.4154 61.578 42.0823 61.3004L42.1322 62.6663V65.2315H40.2166ZM43.7813 60.6174C44.1478 60.6174 44.4754 60.5119 44.7641 60.3009C45.0528 60.09 45.2805 59.7735 45.4471 59.3515C45.6136 58.9295 45.6969 58.4131 45.6969 57.8023C45.6969 57.2582 45.6358 56.7918 45.5137 56.4031C45.3915 56.0144 45.1972 55.7202 44.9307 55.5203C44.6753 55.3093 44.3366 55.2038 43.9146 55.2038C43.6259 55.2038 43.3371 55.2815 43.0484 55.437C42.7597 55.5814 42.4543 55.809 42.1322 56.1199V59.9345C42.4321 60.1788 42.7208 60.3565 42.9984 60.4675C43.2872 60.5675 43.5481 60.6174 43.7813 60.6174ZM51.8359 62.1999C51.2696 62.1999 50.7088 62.0944 50.1535 61.8834C49.6094 61.6724 49.1374 61.3781 48.7377 61.0006L49.5872 59.9012C49.9537 60.201 50.3257 60.4175 50.7032 60.5508C51.0808 60.6841 51.475 60.7507 51.8859 60.7507C52.3412 60.7507 52.6744 60.6563 52.8854 60.4675C53.1075 60.2787 53.2185 60.0455 53.2185 59.7679C53.2185 59.5458 53.1352 59.357 52.9686 59.2016C52.8132 59.0461 52.6022 58.9128 52.3357 58.8018C52.0803 58.6907 51.7971 58.5797 51.4861 58.4686C51.0975 58.3243 50.7255 58.1521 50.3701 57.9523C50.0147 57.7413 49.7316 57.4859 49.5206 57.186C49.3096 56.8751 49.2041 56.5031 49.2041 56.07C49.2041 55.3482 49.4706 54.7596 50.0036 54.3043C50.5367 53.849 51.264 53.6213 52.1857 53.6213C52.7299 53.6213 53.2352 53.7157 53.7016 53.9045C54.168 54.0822 54.5678 54.3154 54.9009 54.6041L54.0514 55.6869C53.7626 55.4759 53.4684 55.3204 53.1685 55.2204C52.8687 55.1205 52.5522 55.0705 52.2191 55.0705C51.8082 55.0705 51.5028 55.1594 51.3029 55.337C51.103 55.5036 51.0031 55.7146 51.0031 55.97C51.0031 56.1699 51.0642 56.3365 51.1863 56.4698C51.3196 56.603 51.5083 56.7252 51.7527 56.8362C51.997 56.9362 52.2912 57.0472 52.6355 57.1694C53.0575 57.3026 53.4517 57.4747 53.8182 57.6857C54.1846 57.8967 54.4734 58.1633 54.6844 58.4853C54.9065 58.7962 55.0175 59.1849 55.0175 59.6513C55.0175 60.1177 54.8953 60.5453 54.651 60.9339C54.4067 61.3226 54.0514 61.6335 53.585 61.8667C53.1186 62.0888 52.5356 62.1999 51.8359 62.1999ZM60.2821 64.6652L64.18 50.1733H65.4792L61.5981 64.6652H60.2821ZM66.0081 64.6652L69.9059 50.1733H71.2052L67.3241 64.6652H66.0081ZM74.7491 62.1999C74.2716 62.1999 73.8496 62.0999 73.4831 61.9001C73.1167 61.6891 72.8335 61.4059 72.6336 61.0505C72.4337 60.6841 72.3338 60.2676 72.3338 59.8012C72.3338 58.9239 72.7113 58.2465 73.4665 57.769C74.2327 57.2804 75.4542 56.9473 77.1311 56.7696C77.1311 56.4809 77.0811 56.2143 76.9812 55.97C76.8923 55.7257 76.7424 55.5314 76.5314 55.387C76.3204 55.2427 76.0261 55.1705 75.6486 55.1705C75.2488 55.1705 74.8546 55.2482 74.4659 55.4037C74.0883 55.548 73.7163 55.7257 73.3499 55.9367L72.6502 54.6874C72.9501 54.4986 73.2777 54.3209 73.633 54.1544C73.9884 53.9878 74.366 53.8601 74.7657 53.7713C75.1655 53.6713 75.5819 53.6213 76.015 53.6213C76.7035 53.6213 77.2699 53.7602 77.7141 54.0378C78.1583 54.3043 78.4914 54.7041 78.7135 55.2371C78.9467 55.759 79.0633 56.3976 79.0633 57.1527V62H77.4975L77.3476 61.1005H77.281C76.9256 61.4003 76.537 61.6613 76.115 61.8834C75.693 62.0944 75.2377 62.1999 74.7491 62.1999ZM75.3654 60.7007C75.6985 60.7007 75.9984 60.623 76.2649 60.4675C76.5425 60.3009 76.8312 60.0788 77.1311 59.8012V57.9689C76.3982 58.0578 75.8151 58.1855 75.3821 58.352C74.9601 58.5075 74.6547 58.6963 74.4659 58.9184C74.2771 59.1294 74.1827 59.3737 74.1827 59.6513C74.1827 60.0067 74.2938 60.2732 74.5159 60.4509C74.738 60.6174 75.0211 60.7007 75.3654 60.7007ZM81.3558 65.2315V53.8212H82.9383L83.0715 54.6874H83.1381C83.4824 54.3876 83.8655 54.1377 84.2875 53.9378C84.7095 53.7268 85.1481 53.6213 85.6034 53.6213C86.2808 53.6213 86.8583 53.7935 87.3358 54.1377C87.8133 54.482 88.1798 54.965 88.4352 55.5869C88.6906 56.2088 88.8183 56.9417 88.8183 57.7857C88.8183 58.7185 88.6517 59.5181 88.3186 60.1843C87.9854 60.8395 87.5523 61.3393 87.0193 61.6835C86.4974 62.0278 85.931 62.1999 85.3203 62.1999C84.9538 62.1999 84.5929 62.1222 84.2375 61.9667C83.8933 61.8001 83.5546 61.578 83.2214 61.3004L83.2714 62.6663V65.2315H81.3558ZM84.9205 60.6174C85.2869 60.6174 85.6145 60.5119 85.9033 60.3009C86.192 60.09 86.4196 59.7735 86.5862 59.3515C86.7528 58.9295 86.8361 58.4131 86.8361 57.8023C86.8361 57.2582 86.775 56.7918 86.6529 56.4031C86.5307 56.0144 86.3364 55.7202 86.0698 55.5203C85.8144 55.3093 85.4757 55.2038 85.0537 55.2038C84.765 55.2038 84.4763 55.2815 84.1876 55.437C83.8988 55.5814 83.5934 55.809 83.2714 56.1199V59.9345C83.5712 60.1788 83.86 60.3565 84.1376 60.4675C84.4263 60.5675 84.6873 60.6174 84.9205 60.6174ZM90.7581 62V53.8212H92.6737V62H90.7581ZM91.7242 52.3887C91.38 52.3887 91.1024 52.2887 90.8914 52.0889C90.6804 51.889 90.5749 51.6225 90.5749 51.2893C90.5749 50.9673 90.6804 50.7063 90.8914 50.5064C91.1024 50.2954 91.38 50.1899 91.7242 50.1899C92.0685 50.1899 92.3461 50.2954 92.5571 50.5064C92.7681 50.7063 92.8736 50.9673 92.8736 51.2893C92.8736 51.6225 92.7681 51.889 92.5571 52.0889C92.3461 52.2887 92.0685 52.3887 91.7242 52.3887ZM96.1841 62.1999C95.8288 62.1999 95.5289 62.0777 95.2846 61.8334C95.0514 61.578 94.9348 61.2726 94.9348 60.9173C94.9348 60.5286 95.0514 60.2121 95.2846 59.9678C95.5289 59.7235 95.8288 59.6013 96.1841 59.6013C96.5284 59.6013 96.8171 59.7235 97.0503 59.9678C97.2946 60.2121 97.4168 60.5286 97.4168 60.9173C97.4168 61.2726 97.2946 61.578 97.0503 61.8334C96.8171 62.0777 96.5284 62.1999 96.1841 62.1999ZM103.008 62.1999C102.253 62.1999 101.57 62.0333 100.959 61.7002C100.348 61.3559 99.8651 60.8673 99.5097 60.2343C99.1544 59.5902 98.9767 58.8184 98.9767 57.9189C98.9767 57.0305 99.1544 56.2699 99.5097 55.6369C99.8762 54.9928 100.348 54.4986 100.926 54.1544C101.503 53.799 102.108 53.6213 102.741 53.6213C103.474 53.6213 104.091 53.7879 104.59 54.1211C105.101 54.4431 105.484 54.8984 105.74 55.487C105.995 56.0644 106.123 56.7363 106.123 57.5025C106.123 57.6802 106.112 57.8579 106.089 58.0355C106.078 58.2021 106.062 58.3354 106.039 58.4353H100.443L100.409 57.136H104.474C104.474 56.492 104.329 55.9922 104.041 55.6369C103.763 55.2815 103.346 55.1038 102.791 55.1038C102.458 55.1038 102.136 55.1982 101.825 55.387C101.514 55.5647 101.253 55.859 101.042 56.2699C100.842 56.6807 100.748 57.2249 100.759 57.9023C100.781 58.5686 100.909 59.1127 101.142 59.5347C101.375 59.9456 101.675 60.2454 102.042 60.4342C102.419 60.623 102.825 60.7174 103.258 60.7174C103.613 60.7174 103.946 60.6674 104.257 60.5675C104.579 60.4675 104.885 60.3287 105.173 60.151L105.806 61.317C105.429 61.5836 104.996 61.8001 104.507 61.9667C104.029 62.1222 103.53 62.1999 103.008 62.1999ZM109.768 62L106.92 53.8212H108.869L110.168 58.0689C110.279 58.4686 110.39 58.874 110.501 59.2848C110.623 59.6957 110.746 60.1066 110.868 60.5175H110.934C111.045 60.1066 111.156 59.6957 111.268 59.2848C111.39 58.874 111.506 58.4686 111.617 58.0689L112.917 53.8212H114.766L111.984 62H109.768ZM119.584 62.1999C118.829 62.1999 118.146 62.0333 117.535 61.7002C116.924 61.3559 116.441 60.8673 116.086 60.2343C115.73 59.5902 115.553 58.8184 115.553 57.9189C115.553 57.0305 115.73 56.2699 116.086 55.6369C116.452 54.9928 116.924 54.4986 117.502 54.1544C118.079 53.799 118.684 53.6213 119.317 53.6213C120.05 53.6213 120.667 53.7879 121.166 54.1211C121.677 54.4431 122.06 54.8984 122.316 55.487C122.571 56.0644 122.699 56.7363 122.699 57.5025C122.699 57.6802 122.688 57.8579 122.665 58.0355C122.654 58.2021 122.638 58.3354 122.615 58.4353H117.019L116.985 57.136H121.05C121.05 56.492 120.905 55.9922 120.617 55.6369C120.339 55.2815 119.923 55.1038 119.367 55.1038C119.034 55.1038 118.712 55.1982 118.401 55.387C118.09 55.5647 117.829 55.859 117.618 56.2699C117.418 56.6807 117.324 57.2249 117.335 57.9023C117.357 58.5686 117.485 59.1127 117.718 59.5347C117.951 59.9456 118.251 60.2454 118.618 60.4342C118.995 60.623 119.401 60.7174 119.834 60.7174C120.189 60.7174 120.522 60.6674 120.833 60.5675C121.155 60.4675 121.461 60.3287 121.749 60.151L122.382 61.317C122.005 61.5836 121.572 61.8001 121.083 61.9667C120.605 62.1222 120.106 62.1999 119.584 62.1999ZM124.528 62V53.8212H126.111L126.244 55.2704H126.311C126.588 54.7374 126.933 54.3321 127.343 54.0544C127.754 53.7657 128.182 53.6213 128.626 53.6213C128.837 53.6213 129.015 53.638 129.159 53.6713C129.303 53.6935 129.437 53.7324 129.559 53.7879L129.176 55.4203C129.042 55.387 128.92 55.3648 128.809 55.3537C128.698 55.3315 128.554 55.3204 128.376 55.3204C128.054 55.3204 127.715 55.4481 127.36 55.7035C127.005 55.9478 126.699 56.3809 126.444 57.0028V62H124.528ZM132.927 62.1999C132.36 62.1999 131.8 62.0944 131.244 61.8834C130.7 61.6724 130.228 61.3781 129.829 61.0006L130.678 59.9012C131.044 60.201 131.417 60.4175 131.794 60.5508C132.172 60.6841 132.566 60.7507 132.977 60.7507C133.432 60.7507 133.765 60.6563 133.976 60.4675C134.198 60.2787 134.309 60.0455 134.309 59.7679C134.309 59.5458 134.226 59.357 134.059 59.2016C133.904 59.0461 133.693 58.9128 133.427 58.8018C133.171 58.6907 132.888 58.5797 132.577 58.4686C132.188 58.3243 131.816 58.1521 131.461 57.9523C131.106 57.7413 130.822 57.4859 130.611 57.186C130.4 56.8751 130.295 56.5031 130.295 56.07C130.295 55.3482 130.561 54.7596 131.094 54.3043C131.628 53.849 132.355 53.6213 133.277 53.6213C133.821 53.6213 134.326 53.7157 134.792 53.9045C135.259 54.0822 135.659 54.3154 135.992 54.6041L135.142 55.6869C134.853 55.4759 134.559 55.3204 134.259 55.2204C133.96 55.1205 133.643 55.0705 133.31 55.0705C132.899 55.0705 132.594 55.1594 132.394 55.337C132.194 55.5036 132.094 55.7146 132.094 55.97C132.094 56.1699 132.155 56.3365 132.277 56.4698C132.41 56.603 132.599 56.7252 132.843 56.8362C133.088 56.9362 133.382 57.0472 133.726 57.1694C134.148 57.3026 134.543 57.4747 134.909 57.6857C135.275 57.8967 135.564 58.1633 135.775 58.4853C135.997 58.7962 136.108 59.1849 136.108 59.6513C136.108 60.1177 135.986 60.5453 135.742 60.9339C135.498 61.3226 135.142 61.6335 134.676 61.8667C134.209 62.0888 133.626 62.1999 132.927 62.1999ZM137.818 62V53.8212H139.734V62H137.818ZM138.785 52.3887C138.44 52.3887 138.163 52.2887 137.952 52.0889C137.741 51.889 137.635 51.6225 137.635 51.2893C137.635 50.9673 137.741 50.7063 137.952 50.5064C138.163 50.2954 138.44 50.1899 138.785 50.1899C139.129 50.1899 139.406 50.2954 139.617 50.5064C139.828 50.7063 139.934 50.9673 139.934 51.2893C139.934 51.6225 139.828 51.889 139.617 52.0889C139.406 52.2887 139.129 52.3887 138.785 52.3887ZM145.01 65.6147C144.366 65.6147 143.783 65.5369 143.261 65.3814C142.75 65.226 142.345 64.9872 142.045 64.6652C141.745 64.3542 141.595 63.96 141.595 63.4825C141.595 63.1383 141.701 62.8162 141.912 62.5164C142.123 62.2277 142.412 61.9667 142.778 61.7335V61.6669C142.578 61.5336 142.406 61.3559 142.262 61.1338C142.117 60.9117 142.045 60.6396 142.045 60.3176C142.045 59.9845 142.134 59.6902 142.312 59.4348C142.5 59.1682 142.711 58.9517 142.945 58.7851V58.7185C142.667 58.5075 142.417 58.2132 142.195 57.8357C141.973 57.4581 141.862 57.0305 141.862 56.553C141.862 55.9312 142.012 55.4037 142.312 54.9706C142.611 54.5264 143.006 54.1932 143.494 53.9711C143.994 53.7379 144.533 53.6213 145.11 53.6213C145.332 53.6213 145.549 53.638 145.76 53.6713C145.971 53.7046 146.159 53.7546 146.326 53.8212H149.241V55.2371H147.709V55.3037C147.853 55.4703 147.97 55.6646 148.058 55.8867C148.158 56.0977 148.208 56.3476 148.208 56.6363C148.208 57.236 148.07 57.7413 147.792 58.1521C147.514 58.563 147.142 58.8795 146.676 59.1016C146.209 59.3126 145.688 59.4181 145.11 59.4181C144.932 59.4181 144.749 59.4014 144.56 59.3681C144.372 59.3237 144.183 59.2626 143.994 59.1849C143.872 59.296 143.772 59.4126 143.694 59.5347C143.628 59.6458 143.594 59.7957 143.594 59.9845C143.594 60.2066 143.689 60.3842 143.877 60.5175C144.077 60.6508 144.427 60.7174 144.927 60.7174H146.376C147.353 60.7174 148.097 60.8784 148.608 61.2004C149.119 61.5114 149.374 62.0222 149.374 62.7329C149.374 63.2771 149.197 63.7657 148.841 64.1988C148.486 64.6319 147.981 64.9761 147.326 65.2315C146.681 65.4869 145.91 65.6147 145.01 65.6147ZM145.11 58.2021C145.365 58.2021 145.599 58.141 145.81 58.0189C146.032 57.8856 146.204 57.6968 146.326 57.4525C146.459 57.1971 146.526 56.8973 146.526 56.553C146.526 56.0422 146.387 55.648 146.11 55.3704C145.843 55.0927 145.51 54.9539 145.11 54.9539C144.71 54.9539 144.372 55.0927 144.094 55.3704C143.827 55.648 143.694 56.0422 143.694 56.553C143.694 56.8973 143.755 57.1971 143.877 57.4525C144.011 57.6968 144.183 57.8856 144.394 58.0189C144.605 58.141 144.844 58.2021 145.11 58.2021ZM145.31 64.3653C145.754 64.3653 146.143 64.3043 146.476 64.1821C146.809 64.0711 147.065 63.91 147.242 63.6991C147.431 63.4992 147.525 63.2826 147.525 63.0494C147.525 62.7274 147.398 62.5108 147.142 62.3998C146.898 62.2887 146.543 62.2332 146.076 62.2332H144.96C144.738 62.2332 144.538 62.2221 144.361 62.1999C144.183 62.1777 144.016 62.1499 143.861 62.1166C143.639 62.2832 143.472 62.4553 143.361 62.633C143.261 62.8107 143.211 62.9994 143.211 63.1993C143.211 63.5658 143.4 63.849 143.777 64.0489C144.155 64.2599 144.666 64.3653 145.31 64.3653ZM150.799 62V53.8212H152.382L152.515 54.9206H152.582C152.948 54.5542 153.348 54.2488 153.781 54.0045C154.214 53.749 154.708 53.6213 155.264 53.6213C156.141 53.6213 156.779 53.9045 157.179 54.4709C157.579 55.0372 157.779 55.8368 157.779 56.8695V62H155.863V57.1194C155.863 56.442 155.758 55.9645 155.547 55.6869C155.347 55.3981 155.025 55.2538 154.581 55.2538C154.225 55.2538 153.909 55.3426 153.631 55.5203C153.365 55.698 153.059 55.9534 152.715 56.2865V62H150.799ZM161.203 62.1999C160.848 62.1999 160.548 62.0777 160.304 61.8334C160.07 61.578 159.954 61.2726 159.954 60.9173C159.954 60.5286 160.07 60.2121 160.304 59.9678C160.548 59.7235 160.848 59.6013 161.203 59.6013C161.547 59.6013 161.836 59.7235 162.069 59.9678C162.314 60.2121 162.436 60.5286 162.436 60.9173C162.436 61.2726 162.314 61.578 162.069 61.8334C161.836 62.0777 161.547 62.1999 161.203 62.1999ZM167.977 62.1999C167.222 62.1999 166.539 62.0333 165.928 61.7002C165.328 61.3559 164.856 60.8673 164.512 60.2343C164.168 59.5902 163.996 58.8184 163.996 57.9189C163.996 57.0083 164.185 56.2365 164.562 55.6036C164.951 54.9595 165.456 54.4709 166.078 54.1377C166.7 53.7935 167.372 53.6213 168.093 53.6213C168.615 53.6213 169.071 53.7046 169.459 53.8712C169.859 54.0378 170.203 54.2599 170.492 54.5375L169.559 55.7202C169.382 55.5647 169.182 55.437 168.96 55.337C168.749 55.2371 168.493 55.1871 168.193 55.1871C167.76 55.1871 167.377 55.2982 167.044 55.5203C166.711 55.7424 166.444 56.0644 166.245 56.4864C166.056 56.8973 165.961 57.3748 165.961 57.9189C165.961 58.4631 166.056 58.9406 166.245 59.3515C166.433 59.7624 166.689 60.0788 167.011 60.3009C167.344 60.523 167.727 60.6341 168.16 60.6341C168.471 60.6341 168.765 60.573 169.043 60.4509C169.332 60.3287 169.593 60.1732 169.826 59.9845L170.609 61.1505C170.276 61.4725 169.881 61.7279 169.426 61.9167C168.971 62.1055 168.488 62.1999 167.977 62.1999ZM175.165 62.1999C174.487 62.1999 173.854 62.0333 173.266 61.7002C172.677 61.3559 172.2 60.8673 171.833 60.2343C171.467 59.5902 171.283 58.8184 171.283 57.9189C171.283 57.0083 171.467 56.2365 171.833 55.6036C172.2 54.9595 172.677 54.4709 173.266 54.1377C173.854 53.7935 174.487 53.6213 175.165 53.6213C175.853 53.6213 176.492 53.7935 177.08 54.1377C177.669 54.4709 178.146 54.9595 178.513 55.6036C178.879 56.2365 179.062 57.0083 179.062 57.9189C179.062 58.8184 178.879 59.5902 178.513 60.2343C178.146 60.8673 177.669 61.3559 177.08 61.7002C176.492 62.0333 175.853 62.1999 175.165 62.1999ZM175.165 60.6341C175.564 60.6341 175.909 60.523 176.197 60.3009C176.486 60.0788 176.703 59.7624 176.847 59.3515C177.002 58.9406 177.08 58.4631 177.08 57.9189C177.08 57.3748 177.002 56.8973 176.847 56.4864C176.703 56.0644 176.486 55.7424 176.197 55.5203C175.909 55.2982 175.564 55.1871 175.165 55.1871C174.776 55.1871 174.437 55.2982 174.148 55.5203C173.86 55.7424 173.638 56.0644 173.482 56.4864C173.327 56.8973 173.249 57.3748 173.249 57.9189C173.249 58.4631 173.327 58.9406 173.482 59.3515C173.638 59.7624 173.86 60.0788 174.148 60.3009C174.437 60.523 174.776 60.6341 175.165 60.6341ZM180.958 62V53.8212H182.541L182.674 54.9373H182.741C183.085 54.5708 183.463 54.2599 183.873 54.0045C184.284 53.749 184.74 53.6213 185.239 53.6213C185.85 53.6213 186.333 53.749 186.689 54.0045C187.044 54.2599 187.316 54.6208 187.505 55.0872C187.893 54.6652 188.299 54.3154 188.721 54.0378C189.143 53.7602 189.615 53.6213 190.137 53.6213C191.003 53.6213 191.636 53.9045 192.036 54.4709C192.446 55.0372 192.652 55.8368 192.652 56.8695V62H190.736V57.1194C190.736 56.442 190.636 55.9645 190.436 55.6869C190.237 55.3981 189.92 55.2538 189.487 55.2538C189.232 55.2538 188.96 55.337 188.671 55.5036C188.393 55.6702 188.093 55.9312 187.771 56.2865V62H185.856V57.1194C185.856 56.442 185.75 55.9645 185.539 55.6869C185.339 55.3981 185.023 55.2538 184.59 55.2538C184.079 55.2538 183.507 55.598 182.874 56.2865V62H180.958ZM193.964 64.6652L197.862 50.1733H199.161L195.28 64.6652H193.964ZM203.588 62.1999C202.566 62.1999 201.75 61.8223 201.139 61.0672C200.528 60.3121 200.223 59.2626 200.223 57.9189C200.223 57.0305 200.384 56.2643 200.706 55.6202C201.039 54.9761 201.472 54.482 202.005 54.1377C202.538 53.7935 203.099 53.6213 203.688 53.6213C204.154 53.6213 204.548 53.7046 204.871 53.8712C205.204 54.0267 205.526 54.2432 205.837 54.5208L205.753 53.2049V50.2399H207.686V62H206.12L205.97 61.1172H205.903C205.603 61.417 205.248 61.6724 204.837 61.8834C204.437 62.0944 204.021 62.1999 203.588 62.1999ZM204.054 60.6174C204.376 60.6174 204.676 60.5453 204.954 60.4009C205.231 60.2565 205.498 60.0178 205.753 59.6846V55.8867C205.476 55.6313 205.198 55.4537 204.92 55.3537C204.654 55.2538 204.382 55.2038 204.104 55.2038C203.749 55.2038 203.427 55.3093 203.138 55.5203C202.861 55.7313 202.633 56.0367 202.455 56.4364C202.278 56.8362 202.189 57.3248 202.189 57.9023C202.189 58.7796 202.35 59.4514 202.672 59.9178C203.005 60.3842 203.466 60.6174 204.054 60.6174ZM213.473 62.1999C212.796 62.1999 212.163 62.0333 211.574 61.7002C210.986 61.3559 210.508 60.8673 210.142 60.2343C209.775 59.5902 209.592 58.8184 209.592 57.9189C209.592 57.0083 209.775 56.2365 210.142 55.6036C210.508 54.9595 210.986 54.4709 211.574 54.1377C212.163 53.7935 212.796 53.6213 213.473 53.6213C214.162 53.6213 214.8 53.7935 215.389 54.1377C215.977 54.4709 216.455 54.9595 216.821 55.6036C217.188 56.2365 217.371 57.0083 217.371 57.9189C217.371 58.8184 217.188 59.5902 216.821 60.2343C216.455 60.8673 215.977 61.3559 215.389 61.7002C214.8 62.0333 214.162 62.1999 213.473 62.1999ZM213.473 60.6341C213.873 60.6341 214.217 60.523 214.506 60.3009C214.795 60.0788 215.011 59.7624 215.156 59.3515C215.311 58.9406 215.389 58.4631 215.389 57.9189C215.389 57.3748 215.311 56.8973 215.156 56.4864C215.011 56.0644 214.795 55.7424 214.506 55.5203C214.217 55.2982 213.873 55.1871 213.473 55.1871C213.085 55.1871 212.746 55.2982 212.457 55.5203C212.168 55.7424 211.946 56.0644 211.791 56.4864C211.635 56.8973 211.558 57.3748 211.558 57.9189C211.558 58.4631 211.635 58.9406 211.791 59.3515C211.946 59.7624 212.168 60.0788 212.457 60.3009C212.746 60.523 213.085 60.6341 213.473 60.6341ZM222.715 62.1999C221.96 62.1999 221.277 62.0333 220.666 61.7002C220.067 61.3559 219.595 60.8673 219.251 60.2343C218.906 59.5902 218.734 58.8184 218.734 57.9189C218.734 57.0083 218.923 56.2365 219.3 55.6036C219.689 54.9595 220.194 54.4709 220.816 54.1377C221.438 53.7935 222.11 53.6213 222.832 53.6213C223.354 53.6213 223.809 53.7046 224.198 53.8712C224.598 54.0378 224.942 54.2599 225.231 54.5375L224.298 55.7202C224.12 55.5647 223.92 55.437 223.698 55.337C223.487 55.2371 223.232 55.1871 222.932 55.1871C222.499 55.1871 222.116 55.2982 221.782 55.5203C221.449 55.7424 221.183 56.0644 220.983 56.4864C220.794 56.8973 220.7 57.3748 220.7 57.9189C220.7 58.4631 220.794 58.9406 220.983 59.3515C221.172 59.7624 221.427 60.0788 221.749 60.3009C222.082 60.523 222.465 60.6341 222.898 60.6341C223.209 60.6341 223.504 60.573 223.781 60.4509C224.07 60.3287 224.331 60.1732 224.564 59.9845L225.347 61.1505C225.014 61.4725 224.62 61.7279 224.164 61.9167C223.709 62.1055 223.226 62.1999 222.715 62.1999ZM229.393 62.1999C228.516 62.1999 227.872 61.9167 227.461 61.3504C227.061 60.784 226.861 59.9845 226.861 58.9517V53.8212H228.794V58.7018C228.794 59.3681 228.894 59.8456 229.094 60.1344C229.293 60.412 229.616 60.5508 230.06 60.5508C230.426 60.5508 230.743 60.462 231.009 60.2843C231.287 60.1066 231.576 59.8179 231.875 59.4181V53.8212H233.791V62H232.225L232.075 60.8007H232.025C231.659 61.2227 231.265 61.5614 230.843 61.8168C230.432 62.0722 229.949 62.1999 229.393 62.1999ZM236.217 62V53.8212H237.8L237.933 54.9373H238C238.344 54.5708 238.722 54.2599 239.132 54.0045C239.543 53.749 239.999 53.6213 240.498 53.6213C241.109 53.6213 241.592 53.749 241.947 54.0045C242.303 54.2599 242.575 54.6208 242.764 55.0872C243.152 54.6652 243.558 54.3154 243.98 54.0378C244.402 53.7602 244.874 53.6213 245.396 53.6213C246.262 53.6213 246.895 53.9045 247.295 54.4709C247.705 55.0372 247.911 55.8368 247.911 56.8695V62H245.995V57.1194C245.995 56.442 245.895 55.9645 245.695 55.6869C245.496 55.3981 245.179 55.2538 244.746 55.2538C244.491 55.2538 244.218 55.337 243.93 55.5036C243.652 55.6702 243.352 55.9312 243.03 56.2865V62H241.115V57.1194C241.115 56.442 241.009 55.9645 240.798 55.6869C240.598 55.3981 240.282 55.2538 239.849 55.2538C239.338 55.2538 238.766 55.598 238.133 56.2865V62H236.217ZM253.754 62.1999C252.999 62.1999 252.316 62.0333 251.705 61.7002C251.094 61.3559 250.611 60.8673 250.256 60.2343C249.9 59.5902 249.723 58.8184 249.723 57.9189C249.723 57.0305 249.9 56.2699 250.256 55.6369C250.622 54.9928 251.094 54.4986 251.672 54.1544C252.249 53.799 252.854 53.6213 253.487 53.6213C254.22 53.6213 254.837 53.7879 255.336 54.1211C255.847 54.4431 256.23 54.8984 256.486 55.487C256.741 56.0644 256.869 56.7363 256.869 57.5025C256.869 57.6802 256.858 57.8579 256.835 58.0355C256.824 58.2021 256.808 58.3354 256.785 58.4353H251.189L251.155 57.136H255.22C255.22 56.492 255.075 55.9922 254.787 55.6369C254.509 55.2815 254.092 55.1038 253.537 55.1038C253.204 55.1038 252.882 55.1982 252.571 55.387C252.26 55.5647 251.999 55.859 251.788 56.2699C251.588 56.6807 251.494 57.2249 251.505 57.9023C251.527 58.5686 251.655 59.1127 251.888 59.5347C252.121 59.9456 252.421 60.2454 252.788 60.4342C253.165 60.623 253.571 60.7174 254.004 60.7174C254.359 60.7174 254.692 60.6674 255.003 60.5675C255.325 60.4675 255.631 60.3287 255.919 60.151L256.552 61.317C256.175 61.5836 255.742 61.8001 255.253 61.9667C254.775 62.1222 254.276 62.1999 253.754 62.1999ZM258.698 62V53.8212H260.281L260.414 54.9206H260.481C260.847 54.5542 261.247 54.2488 261.68 54.0045C262.113 53.749 262.607 53.6213 263.162 53.6213C264.04 53.6213 264.678 53.9045 265.078 54.4709C265.478 55.0372 265.678 55.8368 265.678 56.8695V62H263.762V57.1194C263.762 56.442 263.657 55.9645 263.446 55.6869C263.246 55.3981 262.924 55.2538 262.48 55.2538C262.124 55.2538 261.808 55.3426 261.53 55.5203C261.264 55.698 260.958 55.9534 260.614 56.2865V62H258.698ZM270.901 62.1666C269.957 62.1666 269.285 61.8945 268.885 61.3504C268.497 60.8062 268.302 60.0955 268.302 59.2182V55.337H267.136V53.9045L268.402 53.8212L268.636 51.256H270.235V53.8212H272.317V55.337H270.235V59.2182C270.235 59.6957 270.329 60.0566 270.518 60.3009C270.707 60.5342 270.995 60.6508 271.384 60.6508C271.528 60.6508 271.673 60.6396 271.817 60.6174C271.962 60.5841 272.1 60.5397 272.234 60.4842L272.583 61.8168C272.372 61.9167 272.123 62 271.834 62.0666C271.545 62.1333 271.234 62.1666 270.901 62.1666ZM35.2691 84.1999C34.7916 84.1999 34.3696 84.0999 34.0032 83.9001C33.6367 83.6891 33.3535 83.4059 33.1537 83.0505C32.9538 82.6841 32.8538 82.2676 32.8538 81.8012C32.8538 80.9239 33.2314 80.2465 33.9865 79.769C34.7528 79.2804 35.9743 78.9473 37.6511 78.7696C37.6511 78.4809 37.6012 78.2143 37.5012 77.97C37.4124 77.7257 37.2625 77.5314 37.0515 77.387C36.8405 77.2427 36.5462 77.1705 36.1686 77.1705C35.7689 77.1705 35.3746 77.2482 34.986 77.4037C34.6084 77.548 34.2364 77.7257 33.8699 77.9367L33.1703 76.6874C33.4701 76.4986 33.7977 76.3209 34.1531 76.1544C34.5085 75.9878 34.886 75.8601 35.2858 75.7713C35.6856 75.6713 36.102 75.6213 36.5351 75.6213C37.2236 75.6213 37.79 75.7602 38.2342 76.0378C38.6784 76.3043 39.0115 76.7041 39.2336 77.2371C39.4668 77.759 39.5834 78.3976 39.5834 79.1527V84H38.0176L37.8677 83.1005H37.8011C37.4457 83.4003 37.057 83.6613 36.635 83.8834C36.2131 84.0944 35.7578 84.1999 35.2691 84.1999ZM35.8855 82.7007C36.2186 82.7007 36.5184 82.623 36.785 82.4675C37.0626 82.3009 37.3513 82.0788 37.6511 81.8012V79.9689C36.9182 80.0578 36.3352 80.1855 35.9021 80.352C35.4801 80.5075 35.1748 80.6963 34.986 80.9184C34.7972 81.1294 34.7028 81.3737 34.7028 81.6513C34.7028 82.0067 34.8138 82.2732 35.0359 82.4509C35.258 82.6174 35.5412 82.7007 35.8855 82.7007ZM45.324 84.1999C44.5688 84.1999 43.8859 84.0333 43.2751 83.7002C42.6754 83.3559 42.2035 82.8673 41.8592 82.2343C41.515 81.5902 41.3428 80.8184 41.3428 79.9189C41.3428 79.0083 41.5316 78.2365 41.9092 77.6036C42.2979 76.9595 42.8031 76.4709 43.425 76.1377C44.0469 75.7935 44.7187 75.6213 45.4406 75.6213C45.9625 75.6213 46.4178 75.7046 46.8065 75.8712C47.2062 76.0378 47.5505 76.2599 47.8392 76.5375L46.9064 77.7202C46.7287 77.5647 46.5288 77.437 46.3067 77.337C46.0957 77.2371 45.8403 77.1871 45.5405 77.1871C45.1074 77.1871 44.7243 77.2982 44.3911 77.5203C44.058 77.7424 43.7915 78.0644 43.5916 78.4864C43.4028 78.8973 43.3084 79.3748 43.3084 79.9189C43.3084 80.4631 43.4028 80.9406 43.5916 81.3515C43.7804 81.7624 44.0358 82.0788 44.3578 82.3009C44.691 82.523 45.0741 82.6341 45.5072 82.6341C45.8181 82.6341 46.1124 82.573 46.39 82.4509C46.6788 82.3287 46.9397 82.1732 47.1729 81.9845L47.9558 83.1505C47.6227 83.4725 47.2284 83.7279 46.7731 83.9167C46.3178 84.1055 45.8348 84.1999 45.324 84.1999ZM52.6116 84.1999C51.8564 84.1999 51.1735 84.0333 50.5627 83.7002C49.963 83.3559 49.4911 82.8673 49.1468 82.2343C48.8026 81.5902 48.6304 80.8184 48.6304 79.9189C48.6304 79.0083 48.8192 78.2365 49.1968 77.6036C49.5855 76.9595 50.0907 76.4709 50.7126 76.1377C51.3345 75.7935 52.0063 75.6213 52.7282 75.6213C53.2501 75.6213 53.7054 75.7046 54.0941 75.8712C54.4938 76.0378 54.8381 76.2599 55.1268 76.5375L54.194 77.7202C54.0163 77.5647 53.8164 77.437 53.5943 77.337C53.3833 77.2371 53.1279 77.1871 52.8281 77.1871C52.395 77.1871 52.0119 77.2982 51.6787 77.5203C51.3456 77.7424 51.0791 78.0644 50.8792 78.4864C50.6904 78.8973 50.596 79.3748 50.596 79.9189C50.596 80.4631 50.6904 80.9406 50.8792 81.3515C51.068 81.7624 51.3234 82.0788 51.6454 82.3009C51.9786 82.523 52.3617 82.6341 52.7948 82.6341C53.1057 82.6341 53.4 82.573 53.6776 82.4509C53.9664 82.3287 54.2273 82.1732 54.4605 81.9845L55.2434 83.1505C54.9103 83.4725 54.516 83.7279 54.0607 83.9167C53.6054 84.1055 53.1224 84.1999 52.6116 84.1999ZM59.9491 84.1999C59.194 84.1999 58.511 84.0333 57.9003 83.7002C57.2895 83.3559 56.8064 82.8673 56.4511 82.2343C56.0957 81.5902 55.918 80.8184 55.918 79.9189C55.918 79.0305 56.0957 78.2699 56.4511 77.6369C56.8175 76.9928 57.2895 76.4986 57.867 76.1544C58.4444 75.799 59.0496 75.6213 59.6826 75.6213C60.4155 75.6213 61.0319 75.7879 61.5316 76.1211C62.0424 76.4431 62.4255 76.8984 62.6809 77.487C62.9363 78.0644 63.0641 78.7363 63.0641 79.5025C63.0641 79.6802 63.053 79.8579 63.0307 80.0355C63.0196 80.2021 63.003 80.3354 62.9808 80.4353H57.3839L57.3506 79.136H61.415C61.415 78.492 61.2706 77.9922 60.9819 77.6369C60.7043 77.2815 60.2878 77.1038 59.7326 77.1038C59.3994 77.1038 59.0774 77.1982 58.7665 77.387C58.4555 77.5647 58.1945 77.859 57.9836 78.2699C57.7837 78.6807 57.6893 79.2249 57.7004 79.9023C57.7226 80.5686 57.8503 81.1127 58.0835 81.5347C58.3167 81.9456 58.6165 82.2454 58.983 82.4342C59.3606 82.623 59.7659 82.7174 60.199 82.7174C60.5543 82.7174 60.8875 82.6674 61.1984 82.5675C61.5205 82.4675 61.8259 82.3287 62.1146 82.151L62.7476 83.317C62.37 83.5836 61.9369 83.8001 61.4483 83.9667C60.9708 84.1222 60.4711 84.1999 59.9491 84.1999ZM67.1757 84.1999C66.6093 84.1999 66.0485 84.0944 65.4933 83.8834C64.9492 83.6724 64.4772 83.3781 64.0774 83.0006L64.9269 81.9012C65.2934 82.201 65.6654 82.4175 66.043 82.5508C66.4206 82.6841 66.8148 82.7507 67.2257 82.7507C67.681 82.7507 68.0141 82.6563 68.2251 82.4675C68.4472 82.2787 68.5583 82.0455 68.5583 81.7679C68.5583 81.5458 68.475 81.357 68.3084 81.2016C68.1529 81.0461 67.9419 80.9128 67.6754 80.8018C67.42 80.6907 67.1368 80.5797 66.8259 80.4686C66.4372 80.3243 66.0652 80.1521 65.7098 79.9523C65.3545 79.7413 65.0713 79.4859 64.8603 79.186C64.6493 78.8751 64.5438 78.5031 64.5438 78.07C64.5438 77.3482 64.8103 76.7596 65.3434 76.3043C65.8764 75.849 66.6038 75.6213 67.5255 75.6213C68.0696 75.6213 68.5749 75.7157 69.0413 75.9045C69.5077 76.0822 69.9075 76.3154 70.2407 76.6041L69.3911 77.6869C69.1024 77.4759 68.8081 77.3204 68.5083 77.2204C68.2085 77.1205 67.892 77.0705 67.5588 77.0705C67.1479 77.0705 66.8425 77.1594 66.6427 77.337C66.4428 77.5036 66.3428 77.7146 66.3428 77.97C66.3428 78.1699 66.4039 78.3365 66.5261 78.4698C66.6593 78.603 66.8481 78.7252 67.0924 78.8362C67.3367 78.9362 67.631 79.0472 67.9752 79.1694C68.3972 79.3026 68.7915 79.4747 69.1579 79.6857C69.5244 79.8967 69.8131 80.1633 70.0241 80.4853C70.2462 80.7962 70.3573 81.1849 70.3573 81.6513C70.3573 82.1177 70.2351 82.5453 69.9908 82.9339C69.7465 83.3226 69.3911 83.6335 68.9247 83.8667C68.4583 84.0888 67.8753 84.1999 67.1757 84.1999ZM74.3494 84.1999C73.7831 84.1999 73.2223 84.0944 72.667 83.8834C72.1229 83.6724 71.6509 83.3781 71.2512 83.0006L72.1007 81.9012C72.4671 82.201 72.8392 82.4175 73.2167 82.5508C73.5943 82.6841 73.9885 82.7507 74.3994 82.7507C74.8547 82.7507 75.1878 82.6563 75.3988 82.4675C75.6209 82.2787 75.732 82.0455 75.732 81.7679C75.732 81.5458 75.6487 81.357 75.4821 81.2016C75.3267 81.0461 75.1157 80.9128 74.8491 80.8018C74.5937 80.6907 74.3106 80.5797 73.9996 80.4686C73.611 80.3243 73.2389 80.1521 72.8836 79.9523C72.5282 79.7413 72.245 79.4859 72.0341 79.186C71.8231 78.8751 71.7176 78.5031 71.7176 78.07C71.7176 77.3482 71.9841 76.7596 72.5171 76.3043C73.0502 75.849 73.7775 75.6213 74.6992 75.6213C75.2434 75.6213 75.7486 75.7157 76.2151 75.9045C76.6815 76.0822 77.0812 76.3154 77.4144 76.6041L76.5649 77.6869C76.2761 77.4759 75.9819 77.3204 75.682 77.2204C75.3822 77.1205 75.0657 77.0705 74.7325 77.0705C74.3217 77.0705 74.0163 77.1594 73.8164 77.337C73.6165 77.5036 73.5166 77.7146 73.5166 77.97C73.5166 78.1699 73.5776 78.3365 73.6998 78.4698C73.833 78.603 74.0218 78.7252 74.2661 78.8362C74.5104 78.9362 74.8047 79.0472 75.149 79.1694C75.571 79.3026 75.9652 79.4747 76.3317 79.6857C76.6981 79.8967 76.9868 80.1633 77.1978 80.4853C77.4199 80.7962 77.531 81.1849 77.531 81.6513C77.531 82.1177 77.4088 82.5453 77.1645 82.9339C76.9202 83.3226 76.5649 83.6335 76.0985 83.8667C75.632 84.0888 75.049 84.1999 74.3494 84.1999ZM78.225 86.2154V85.0661H86.1539V86.2154H78.225ZM87.5698 84V72.2399H89.4687V79.5525H89.5187L92.517 75.8212H94.6325L91.8507 79.1694L94.9323 84H92.8335L90.7347 80.452L89.4687 81.9012V84H87.5698ZM99.3965 84.1999C98.6414 84.1999 97.9584 84.0333 97.3477 83.7002C96.7369 83.3559 96.2538 82.8673 95.8985 82.2343C95.5431 81.5902 95.3654 80.8184 95.3654 79.9189C95.3654 79.0305 95.5431 78.2699 95.8985 77.6369C96.2649 76.9928 96.7369 76.4986 97.3144 76.1544C97.8918 75.799 98.497 75.6213 99.13 75.6213C99.8629 75.6213 100.479 75.7879 100.979 76.1211C101.49 76.4431 101.873 76.8984 102.128 77.487C102.384 78.0644 102.511 78.7363 102.511 79.5025C102.511 79.6802 102.5 79.8579 102.478 80.0355C102.467 80.2021 102.45 80.3354 102.428 80.4353H96.8313L96.798 79.136H100.862C100.862 78.492 100.718 77.9922 100.429 77.6369C100.152 77.2815 99.7352 77.1038 99.18 77.1038C98.8468 77.1038 98.5248 77.1982 98.2139 77.387C97.9029 77.5647 97.6419 77.859 97.431 78.2699C97.2311 78.6807 97.1367 79.2249 97.1478 79.9023C97.17 80.5686 97.2977 81.1127 97.5309 81.5347C97.7641 81.9456 98.0639 82.2454 98.4304 82.4342C98.808 82.623 99.2133 82.7174 99.6464 82.7174C100.002 82.7174 100.335 82.6674 100.646 82.5675C100.968 82.4675 101.273 82.3287 101.562 82.151L102.195 83.317C101.817 83.5836 101.384 83.8001 100.896 83.9667C100.418 84.1222 99.9185 84.1999 99.3965 84.1999ZM104.858 87.3481C104.647 87.3481 104.452 87.3315 104.275 87.2982C104.108 87.2648 103.947 87.226 103.792 87.1816L104.175 85.7324C104.286 85.7657 104.386 85.7879 104.475 85.799C104.564 85.8101 104.652 85.8157 104.741 85.8157C105.174 85.8157 105.519 85.6824 105.774 85.4159C106.04 85.1494 106.24 84.8162 106.374 84.4164L106.524 83.9001L103.309 75.8212H105.258L106.673 79.8357C106.796 80.191 106.912 80.5686 107.023 80.9684C107.145 81.357 107.268 81.7457 107.39 82.1344H107.456C107.556 81.7568 107.656 81.3737 107.756 80.985C107.867 80.5852 107.973 80.2021 108.073 79.8357L109.305 75.8212H111.154L108.189 84.3665C107.967 84.9772 107.712 85.5047 107.423 85.9489C107.134 86.3931 106.785 86.7374 106.374 86.9817C105.963 87.226 105.457 87.3481 104.858 87.3481ZM115.257 77.337V75.9378H122.67V77.337H115.257ZM115.257 81.0683V79.6691H122.67V81.0683H115.257ZM129.764 84V79.9523L126.499 73.1061H128.565L129.747 75.8879C129.914 76.2987 130.075 76.6985 130.23 77.0872C130.386 77.4759 130.547 77.8756 130.713 78.2865H130.78C130.947 77.8756 131.113 77.4759 131.28 77.0872C131.457 76.6985 131.624 76.2987 131.78 75.8879L132.962 73.1061H134.978L131.713 79.9523V84H129.764ZM140.264 84.1999C139.32 84.1999 138.487 83.9722 137.765 83.5169C137.044 83.0505 136.477 82.3953 136.066 81.5514C135.667 80.6963 135.467 79.6802 135.467 78.5031C135.467 77.3259 135.667 76.3209 136.066 75.4881C136.477 74.6552 137.044 74.0167 137.765 73.5725C138.487 73.1283 139.32 72.9062 140.264 72.9062C141.219 72.9062 142.052 73.1283 142.763 73.5725C143.484 74.0167 144.051 74.6552 144.462 75.4881C144.873 76.3209 145.078 77.3259 145.078 78.5031C145.078 79.6802 144.873 80.6963 144.462 81.5514C144.051 82.3953 143.484 83.0505 142.763 83.5169C142.052 83.9722 141.219 84.1999 140.264 84.1999ZM140.264 82.5175C140.841 82.5175 141.341 82.3565 141.763 82.0344C142.185 81.7013 142.507 81.2349 142.729 80.6352C142.962 80.0355 143.079 79.3248 143.079 78.5031C143.079 77.6924 142.962 76.9928 142.729 76.4042C142.507 75.8157 142.185 75.3659 141.763 75.055C141.341 74.7441 140.841 74.5886 140.264 74.5886C139.698 74.5886 139.198 74.7441 138.765 75.055C138.343 75.3659 138.015 75.8157 137.782 76.4042C137.56 76.9928 137.449 77.6924 137.449 78.5031C137.449 79.3248 137.56 80.0355 137.782 80.6352C138.015 81.2349 138.343 81.7013 138.765 82.0344C139.198 82.3565 139.698 82.5175 140.264 82.5175ZM151.355 84.1999C150.722 84.1999 150.15 84.111 149.639 83.9334C149.128 83.7557 148.69 83.4725 148.323 83.0838C147.968 82.6952 147.69 82.1955 147.49 81.5847C147.302 80.9628 147.207 80.2077 147.207 79.3193V73.1061H149.139V79.4692C149.139 80.2354 149.228 80.8407 149.406 81.2848C149.595 81.729 149.856 82.0455 150.189 82.2343C150.522 82.4231 150.911 82.5175 151.355 82.5175C151.799 82.5175 152.188 82.4231 152.521 82.2343C152.854 82.0455 153.115 81.729 153.304 81.2848C153.493 80.8407 153.587 80.2354 153.587 79.4692V73.1061H155.453V79.3193C155.453 80.2077 155.358 80.9628 155.169 81.5847C154.981 82.1955 154.709 82.6952 154.353 83.0838C153.998 83.4725 153.565 83.7557 153.054 83.9334C152.543 84.111 151.977 84.1999 151.355 84.1999ZM158.172 84V73.1061H161.837C162.603 73.1061 163.286 73.206 163.886 73.4059C164.497 73.6058 164.974 73.9445 165.318 74.422C165.674 74.8884 165.851 75.5269 165.851 76.3376C165.851 77.115 165.674 77.759 165.318 78.2699C164.974 78.7696 164.497 79.1416 163.886 79.3859C163.286 79.6302 162.603 79.7524 161.837 79.7524H160.105V84H158.172ZM160.105 78.2032H161.637C162.392 78.2032 162.964 78.0478 163.353 77.7368C163.753 77.4259 163.952 76.9595 163.952 76.3376C163.952 75.7046 163.753 75.266 163.353 75.0217C162.964 74.7774 162.392 74.6552 161.637 74.6552H160.105V78.2032ZM164.119 84L161.487 79.236L162.886 78.07L166.284 84H164.119ZM166.831 86.2154V85.0661H174.76V86.2154H166.831ZM174.927 84L178.475 73.1061H180.74L184.288 84H182.239L180.59 78.2032C180.412 77.6258 180.24 77.0317 180.074 76.4209C179.918 75.8101 179.763 75.2049 179.607 74.6052H179.541C179.385 75.2049 179.224 75.8101 179.058 76.4209C178.902 77.0317 178.741 77.6258 178.575 78.2032L176.909 84H174.927ZM177.025 81.0516V79.5358H182.156V81.0516H177.025ZM189.865 84.1999C188.944 84.1999 188.105 83.9833 187.35 83.5503C186.606 83.1172 186.012 82.4842 185.568 81.6513C185.135 80.8073 184.918 79.7857 184.918 78.5864C184.918 77.698 185.046 76.904 185.301 76.2043C185.568 75.4936 185.929 74.894 186.384 74.4054C186.839 73.9167 187.367 73.5447 187.967 73.2893C188.566 73.0339 189.216 72.9062 189.915 72.9062C190.593 72.9062 191.198 73.0394 191.731 73.306C192.264 73.5725 192.703 73.9001 193.047 74.2888L192.014 75.4548C191.737 75.1771 191.426 74.9661 191.081 74.8218C190.748 74.6663 190.371 74.5886 189.949 74.5886C189.36 74.5886 188.838 74.7496 188.383 75.0716C187.928 75.3937 187.567 75.849 187.3 76.4376C187.034 77.015 186.9 77.7091 186.9 78.5197C186.9 79.3526 187.028 80.0689 187.284 80.6685C187.539 81.2682 187.9 81.729 188.366 82.0511C188.833 82.362 189.377 82.5175 189.999 82.5175C190.465 82.5175 190.882 82.4287 191.248 82.251C191.626 82.0733 191.959 81.8234 192.247 81.5014L193.23 82.6341C192.775 83.1449 192.275 83.5336 191.731 83.8001C191.187 84.0666 190.565 84.1999 189.865 84.1999ZM198.926 84.1999C198.004 84.1999 197.166 83.9833 196.411 83.5503C195.667 83.1172 195.073 82.4842 194.629 81.6513C194.195 80.8073 193.979 79.7857 193.979 78.5864C193.979 77.698 194.107 76.904 194.362 76.2043C194.629 75.4936 194.989 74.894 195.445 74.4054C195.9 73.9167 196.428 73.5447 197.027 73.2893C197.627 73.0339 198.277 72.9062 198.976 72.9062C199.654 72.9062 200.259 73.0394 200.792 73.306C201.325 73.5725 201.763 73.9001 202.108 74.2888L201.075 75.4548C200.797 75.1771 200.486 74.9661 200.142 74.8218C199.809 74.6663 199.431 74.5886 199.009 74.5886C198.421 74.5886 197.899 74.7496 197.444 75.0716C196.988 75.3937 196.627 75.849 196.361 76.4376C196.094 77.015 195.961 77.7091 195.961 78.5197C195.961 79.3526 196.089 80.0689 196.344 80.6685C196.6 81.2682 196.961 81.729 197.427 82.0511C197.893 82.362 198.438 82.5175 199.059 82.5175C199.526 82.5175 199.942 82.4287 200.309 82.251C200.686 82.0733 201.019 81.8234 201.308 81.5014L202.291 82.6341C201.836 83.1449 201.336 83.5336 200.792 83.8001C200.248 84.0666 199.626 84.1999 198.926 84.1999ZM204.159 84V73.1061H210.722V74.7218H206.091V77.5203H210.006V79.1527H206.091V82.3676H210.889V84H204.159ZM216.304 84.1999C215.549 84.1999 214.832 84.0666 214.155 83.8001C213.489 83.5225 212.895 83.1172 212.373 82.5841L213.422 81.3348C213.811 81.7124 214.26 82.0067 214.771 82.2177C215.293 82.4175 215.815 82.5175 216.337 82.5175C216.959 82.5175 217.431 82.3898 217.753 82.1344C218.075 81.879 218.236 81.5403 218.236 81.1183C218.236 80.8073 218.164 80.563 218.019 80.3853C217.875 80.2077 217.675 80.0522 217.42 79.9189C217.175 79.7857 216.887 79.6469 216.554 79.5025L215.071 78.8695C214.705 78.7141 214.349 78.5142 214.005 78.2699C213.672 78.0144 213.394 77.698 213.172 77.3204C212.961 76.9428 212.856 76.4931 212.856 75.9711C212.856 75.3937 213.011 74.8773 213.322 74.422C213.644 73.9556 214.077 73.5891 214.621 73.3226C215.177 73.045 215.81 72.9062 216.52 72.9062C217.175 72.9062 217.792 73.0283 218.369 73.2726C218.958 73.5059 219.463 73.8279 219.885 74.2388L218.852 75.5047C218.497 75.216 218.125 74.9939 217.736 74.8384C217.348 74.6719 216.942 74.5886 216.52 74.5886C215.998 74.5886 215.582 74.7052 215.271 74.9384C214.96 75.1605 214.805 75.4714 214.805 75.8712C214.805 76.1488 214.888 76.382 215.054 76.5708C215.221 76.7485 215.438 76.904 215.704 77.0372C215.971 77.1594 216.254 77.2815 216.554 77.4037L218.019 78.02C218.453 78.1977 218.83 78.4198 219.152 78.6863C219.485 78.9417 219.746 79.2526 219.935 79.6191C220.124 79.9856 220.218 80.4298 220.218 80.9517C220.218 81.5403 220.063 82.0844 219.752 82.5841C219.441 83.0727 218.991 83.467 218.403 83.7668C217.825 84.0555 217.125 84.1999 216.304 84.1999ZM225.12 84.1999C224.365 84.1999 223.649 84.0666 222.972 83.8001C222.305 83.5225 221.711 83.1172 221.189 82.5841L222.239 81.3348C222.627 81.7124 223.077 82.0067 223.588 82.2177C224.11 82.4175 224.632 82.5175 225.154 82.5175C225.776 82.5175 226.248 82.3898 226.57 82.1344C226.892 81.879 227.053 81.5403 227.053 81.1183C227.053 80.8073 226.98 80.563 226.836 80.3853C226.692 80.2077 226.492 80.0522 226.236 79.9189C225.992 79.7857 225.703 79.6469 225.37 79.5025L223.888 78.8695C223.521 78.7141 223.166 78.5142 222.822 78.2699C222.489 78.0144 222.211 77.698 221.989 77.3204C221.778 76.9428 221.672 76.4931 221.672 75.9711C221.672 75.3937 221.828 74.8773 222.139 74.422C222.461 73.9556 222.894 73.5891 223.438 73.3226C223.993 73.045 224.626 72.9062 225.337 72.9062C225.992 72.9062 226.608 73.0283 227.186 73.2726C227.774 73.5059 228.28 73.8279 228.702 74.2388L227.669 75.5047C227.314 75.216 226.942 74.9939 226.553 74.8384C226.164 74.6719 225.759 74.5886 225.337 74.5886C224.815 74.5886 224.399 74.7052 224.088 74.9384C223.777 75.1605 223.621 75.4714 223.621 75.8712C223.621 76.1488 223.705 76.382 223.871 76.5708C224.038 76.7485 224.254 76.904 224.521 77.0372C224.787 77.1594 225.07 77.2815 225.37 77.4037L226.836 78.02C227.269 78.1977 227.647 78.4198 227.969 78.6863C228.302 78.9417 228.563 79.2526 228.752 79.6191C228.941 79.9856 229.035 80.4298 229.035 80.9517C229.035 81.5403 228.879 82.0844 228.568 82.5841C228.258 83.0727 227.808 83.467 227.219 83.7668C226.642 84.0555 225.942 84.1999 225.12 84.1999ZM229.833 86.2154V85.0661H237.762V86.2154H229.833ZM239.345 84V73.1061H241.277V78.0533H241.327L245.208 73.1061H247.357L244.009 77.3537L247.923 84H245.791L242.843 78.8695L241.277 80.8184V84H239.345ZM249.284 84V73.1061H255.847V74.7218H251.216V77.5203H255.13V79.1527H251.216V82.3676H256.013V84H249.284ZM260.062 84V79.9523L256.798 73.1061H258.863L260.046 75.8879C260.212 76.2987 260.373 76.6985 260.529 77.0872C260.684 77.4759 260.845 77.8756 261.012 78.2865H261.078C261.245 77.8756 261.412 77.4759 261.578 77.0872C261.756 76.6985 261.922 76.2987 262.078 75.8879L263.261 73.1061H265.276L262.011 79.9523V84H260.062ZM40.4885 106.2C40.122 106.2 39.7445 106.111 39.3558 105.933C38.9671 105.745 38.6007 105.484 38.2564 105.15H38.2064L38.0399 106H36.524V94.2399H38.4396V97.2715L38.3897 98.6374C38.7339 98.3376 39.1059 98.0933 39.5057 97.9045C39.9166 97.7157 40.333 97.6213 40.755 97.6213C41.4324 97.6213 42.0099 97.7935 42.4874 98.1377C42.976 98.482 43.348 98.965 43.6034 99.5869C43.8588 100.198 43.9865 100.925 43.9865 101.769C43.9865 102.702 43.82 103.501 43.4868 104.168C43.1537 104.834 42.7206 105.339 42.1876 105.684C41.6656 106.028 41.0993 106.2 40.4885 106.2ZM40.0887 104.617C40.4552 104.617 40.7828 104.512 41.0715 104.301C41.3602 104.09 41.5879 103.773 41.7545 103.351C41.921 102.929 42.0043 102.413 42.0043 101.802C42.0043 101.258 41.9432 100.792 41.8211 100.403C41.6989 100.014 41.5046 99.7202 41.2381 99.5203C40.9827 99.3093 40.644 99.2038 40.222 99.2038C39.9333 99.2038 39.6445 99.2815 39.3558 99.437C39.0671 99.5814 38.7617 99.809 38.4396 100.12V103.934C38.7284 104.179 39.0171 104.356 39.3058 104.468C39.5946 104.567 39.8555 104.617 40.0887 104.617ZM48.3421 106.2C47.4648 106.2 46.8207 105.917 46.4098 105.35C46.01 104.784 45.8101 103.984 45.8101 102.952V97.8212H47.7424V102.702C47.7424 103.368 47.8423 103.846 48.0422 104.134C48.2421 104.412 48.5642 104.551 49.0084 104.551C49.3748 104.551 49.6913 104.462 49.9578 104.284C50.2354 104.107 50.5242 103.818 50.824 103.418V97.8212H52.7396V106H51.1738L51.0239 104.801H50.9739C50.6075 105.223 50.2132 105.561 49.7913 105.817C49.3804 106.072 48.8973 106.2 48.3421 106.2ZM57.448 106.2C56.8817 106.2 56.3209 106.094 55.7657 105.883C55.2215 105.672 54.7496 105.378 54.3498 105.001L55.1993 103.901C55.5658 104.201 55.9378 104.418 56.3153 104.551C56.6929 104.684 57.0871 104.751 57.498 104.751C57.9533 104.751 58.2865 104.656 58.4975 104.468C58.7196 104.279 58.8306 104.046 58.8306 103.768C58.8306 103.546 58.7473 103.357 58.5808 103.202C58.4253 103.046 58.2143 102.913 57.9478 102.802C57.6924 102.691 57.4092 102.58 57.0982 102.469C56.7096 102.324 56.3376 102.152 55.9822 101.952C55.6268 101.741 55.3437 101.486 55.1327 101.186C54.9217 100.875 54.8162 100.503 54.8162 100.07C54.8162 99.3482 55.0827 98.7596 55.6157 98.3043C56.1488 97.849 56.8761 97.6213 57.7979 97.6213C58.342 97.6213 58.8473 97.7157 59.3137 97.9045C59.7801 98.0822 60.1799 98.3154 60.513 98.6041L59.6635 99.6869C59.3748 99.4759 59.0805 99.3204 58.7806 99.2204C58.4808 99.1205 58.1643 99.0705 57.8312 99.0705C57.4203 99.0705 57.1149 99.1594 56.915 99.337C56.7151 99.5036 56.6152 99.7146 56.6152 99.97C56.6152 100.17 56.6763 100.336 56.7984 100.47C56.9317 100.603 57.1205 100.725 57.3648 100.836C57.6091 100.936 57.9034 101.047 58.2476 101.169C58.6696 101.303 59.0638 101.475 59.4303 101.686C59.7967 101.897 60.0855 102.163 60.2965 102.485C60.5186 102.796 60.6296 103.185 60.6296 103.651C60.6296 104.118 60.5075 104.545 60.2631 104.934C60.0188 105.323 59.6635 105.634 59.1971 105.867C58.7307 106.089 58.1477 106.2 57.448 106.2ZM62.3397 106V97.8212H64.2553V106H62.3397ZM63.3058 96.3887C62.9616 96.3887 62.684 96.2887 62.473 96.0889C62.262 95.889 62.1565 95.6225 62.1565 95.2893C62.1565 94.9673 62.262 94.7063 62.473 94.5064C62.684 94.2954 62.9616 94.1899 63.3058 94.1899C63.6501 94.1899 63.9277 94.2954 64.1387 94.5064C64.3497 94.7063 64.4552 94.9673 64.4552 95.2893C64.4552 95.6225 64.3497 95.889 64.1387 96.0889C63.9277 96.2887 63.6501 96.3887 63.3058 96.3887ZM66.683 106V97.8212H68.2655L68.3987 98.9206H68.4653C68.8318 98.5542 69.2316 98.2488 69.6647 98.0045C70.0978 97.749 70.5919 97.6213 71.1472 97.6213C72.0245 97.6213 72.663 97.9045 73.0628 98.4709C73.4626 99.0372 73.6624 99.8368 73.6624 100.87V106H71.7468V101.119C71.7468 100.442 71.6413 99.9645 71.4304 99.6869C71.2305 99.3981 70.9084 99.2538 70.4642 99.2538C70.1089 99.2538 69.7924 99.3426 69.5148 99.5203C69.2482 99.698 68.9429 99.9534 68.5986 100.287V106H66.683ZM79.502 106.2C78.7469 106.2 78.0639 106.033 77.4532 105.7C76.8424 105.356 76.3593 104.867 76.004 104.234C75.6486 103.59 75.4709 102.818 75.4709 101.919C75.4709 101.031 75.6486 100.27 76.004 99.6369C76.3704 98.9928 76.8424 98.4986 77.4199 98.1544C77.9973 97.799 78.6025 97.6213 79.2355 97.6213C79.9684 97.6213 80.5848 97.7879 81.0845 98.1211C81.5953 98.4431 81.9784 98.8984 82.2338 99.487C82.4892 100.064 82.617 100.736 82.617 101.503C82.617 101.68 82.6058 101.858 82.5836 102.036C82.5725 102.202 82.5559 102.335 82.5337 102.435H76.9368L76.9035 101.136H80.9679C80.9679 100.492 80.8235 99.9922 80.5348 99.6369C80.2572 99.2815 79.8407 99.1038 79.2855 99.1038C78.9523 99.1038 78.6303 99.1982 78.3194 99.387C78.0084 99.5647 77.7474 99.859 77.5365 100.27C77.3366 100.681 77.2422 101.225 77.2533 101.902C77.2755 102.569 77.4032 103.113 77.6364 103.535C77.8696 103.946 78.1694 104.245 78.5359 104.434C78.9135 104.623 79.3188 104.717 79.7519 104.717C80.1072 104.717 80.4404 104.667 80.7513 104.567C81.0734 104.468 81.3788 104.329 81.6675 104.151L82.3005 105.317C81.9229 105.584 81.4898 105.8 81.0012 105.967C80.5237 106.122 80.024 106.2 79.502 106.2ZM86.7286 106.2C86.1622 106.2 85.6014 106.094 85.0462 105.883C84.5021 105.672 84.0301 105.378 83.6303 105.001L84.4798 103.901C84.8463 104.201 85.2183 104.418 85.5959 104.551C85.9735 104.684 86.3677 104.751 86.7786 104.751C87.2339 104.751 87.567 104.656 87.778 104.468C88.0001 104.279 88.1112 104.046 88.1112 103.768C88.1112 103.546 88.0279 103.357 87.8613 103.202C87.7058 103.046 87.4948 102.913 87.2283 102.802C86.9729 102.691 86.6897 102.58 86.3788 102.469C85.9901 102.324 85.6181 102.152 85.2627 101.952C84.9074 101.741 84.6242 101.486 84.4132 101.186C84.2022 100.875 84.0967 100.503 84.0967 100.07C84.0967 99.3482 84.3632 98.7596 84.8963 98.3043C85.4293 97.849 86.1567 97.6213 87.0784 97.6213C87.6225 97.6213 88.1278 97.7157 88.5942 97.9045C89.0606 98.0822 89.4604 98.3154 89.7936 98.6041L88.944 99.6869C88.6553 99.4759 88.361 99.3204 88.0612 99.2204C87.7614 99.1205 87.4449 99.0705 87.1117 99.0705C86.7008 99.0705 86.3954 99.1594 86.1956 99.337C85.9957 99.5036 85.8957 99.7146 85.8957 99.97C85.8957 100.17 85.9568 100.336 86.079 100.47C86.2122 100.603 86.401 100.725 86.6453 100.836C86.8896 100.936 87.1839 101.047 87.5281 101.169C87.9501 101.303 88.3444 101.475 88.7108 101.686C89.0773 101.897 89.366 102.163 89.577 102.485C89.7991 102.796 89.9102 103.185 89.9102 103.651C89.9102 104.118 89.788 104.545 89.5437 104.934C89.2994 105.323 88.944 105.634 88.4776 105.867C88.0112 106.089 87.4282 106.2 86.7286 106.2ZM93.9023 106.2C93.336 106.2 92.7752 106.094 92.2199 105.883C91.6758 105.672 91.2038 105.378 90.8041 105.001L91.6536 103.901C92.02 104.201 92.3921 104.418 92.7696 104.551C93.1472 104.684 93.5414 104.751 93.9523 104.751C94.4076 104.751 94.7407 104.656 94.9517 104.468C95.1738 104.279 95.2849 104.046 95.2849 103.768C95.2849 103.546 95.2016 103.357 95.035 103.202C94.8796 103.046 94.6686 102.913 94.402 102.802C94.1466 102.691 93.8635 102.58 93.5525 102.469C93.1638 102.324 92.7918 102.152 92.4365 101.952C92.0811 101.741 91.7979 101.486 91.5869 101.186C91.376 100.875 91.2705 100.503 91.2705 100.07C91.2705 99.3482 91.537 98.7596 92.07 98.3043C92.603 97.849 93.3304 97.6213 94.2521 97.6213C94.7963 97.6213 95.3015 97.7157 95.7679 97.9045C96.2344 98.0822 96.6341 98.3154 96.9673 98.6041L96.1178 99.6869C95.829 99.4759 95.5347 99.3204 95.2349 99.2204C94.9351 99.1205 94.6186 99.0705 94.2854 99.0705C93.8746 99.0705 93.5692 99.1594 93.3693 99.337C93.1694 99.5036 93.0695 99.7146 93.0695 99.97C93.0695 100.17 93.1305 100.336 93.2527 100.47C93.3859 100.603 93.5747 100.725 93.819 100.836C94.0633 100.936 94.3576 101.047 94.7019 101.169C95.1239 101.303 95.5181 101.475 95.8846 101.686C96.251 101.897 96.5397 102.163 96.7507 102.485C96.9728 102.796 97.0839 103.185 97.0839 103.651C97.0839 104.118 96.9617 104.545 96.7174 104.934C96.4731 105.323 96.1178 105.634 95.6513 105.867C95.1849 106.089 94.6019 106.2 93.9023 106.2ZM97.7779 108.215V107.066H105.707V108.215H97.7779ZM107.123 106V97.8212H109.038V106H107.123ZM108.089 96.3887C107.745 96.3887 107.467 96.2887 107.256 96.0889C107.045 95.889 106.939 95.6225 106.939 95.2893C106.939 94.9673 107.045 94.7063 107.256 94.5064C107.467 94.2954 107.745 94.1899 108.089 94.1899C108.433 94.1899 108.711 94.2954 108.922 94.5064C109.133 94.7063 109.238 94.9673 109.238 95.2893C109.238 95.6225 109.133 95.889 108.922 96.0889C108.711 96.2887 108.433 96.3887 108.089 96.3887ZM114.331 106.2C113.309 106.2 112.493 105.822 111.882 105.067C111.272 104.312 110.966 103.263 110.966 101.919C110.966 101.031 111.127 100.264 111.449 99.6202C111.782 98.9761 112.216 98.482 112.749 98.1377C113.282 97.7935 113.842 97.6213 114.431 97.6213C114.897 97.6213 115.292 97.7046 115.614 97.8712C115.947 98.0267 116.269 98.2432 116.58 98.5208L116.496 97.2049V94.2399H118.429V106H116.863L116.713 105.117H116.646C116.347 105.417 115.991 105.672 115.58 105.883C115.181 106.094 114.764 106.2 114.331 106.2ZM114.797 104.617C115.119 104.617 115.419 104.545 115.697 104.401C115.975 104.257 116.241 104.018 116.496 103.685V99.8867C116.219 99.6313 115.941 99.4537 115.664 99.3537C115.397 99.2538 115.125 99.2038 114.847 99.2038C114.492 99.2038 114.17 99.3093 113.881 99.5203C113.604 99.7313 113.376 100.037 113.198 100.436C113.021 100.836 112.932 101.325 112.932 101.902C112.932 102.78 113.093 103.451 113.415 103.918C113.748 104.384 114.209 104.617 114.797 104.617ZM136.095 106V104.434H138.477V97.4714H136.511V96.2721C137.044 96.1721 137.499 96.0555 137.877 95.9223C138.266 95.7779 138.621 95.6002 138.943 95.3893H140.392V104.434H142.474V106H136.095Z" fill="white"/>
<path d="M57.8103 56.5031C57.455 56.5031 57.1552 56.3809 56.9108 56.1366C56.6776 55.8812 56.561 55.5758 56.561 55.2204C56.561 54.8318 56.6776 54.5153 56.9108 54.271C57.1552 54.0267 57.455 53.9045 57.8103 53.9045C58.1546 53.9045 58.4433 54.0267 58.6765 54.271C58.9208 54.5153 59.043 54.8318 59.043 55.2204C59.043 55.5758 58.9208 55.8812 58.6765 56.1366C58.4433 56.3809 58.1546 56.5031 57.8103 56.5031ZM57.8103 62.1999C57.455 62.1999 57.1552 62.0777 56.9108 61.8334C56.6776 61.578 56.561 61.2726 56.561 60.9173C56.561 60.5286 56.6776 60.2121 56.9108 59.9678C57.1552 59.7235 57.455 59.6013 57.8103 59.6013C58.1546 59.6013 58.4433 59.7235 58.6765 59.9678C58.9208 60.2121 59.043 60.5286 59.043 60.9173C59.043 61.2726 58.9208 61.578 58.6765 61.8334C58.4433 62.0777 58.1546 62.1999 57.8103 62.1999ZM23.9499 80.4187C23.8722 79.93 23.8944 79.497 24.0166 79.1194C24.1498 78.7418 24.3275 78.3976 24.5496 78.0866C24.7828 77.7646 25.0216 77.4703 25.2659 77.2038C25.5102 76.9262 25.7156 76.6541 25.8822 76.3876C26.0599 76.1211 26.1487 75.8323 26.1487 75.5214C26.1487 75.266 26.0932 75.0383 25.9821 74.8384C25.8711 74.6386 25.7101 74.4831 25.4991 74.372C25.2992 74.261 25.0604 74.2055 24.7828 74.2055C24.4497 74.2055 24.1387 74.2832 23.85 74.4387C23.5724 74.5941 23.3114 74.8051 23.0671 75.0716L21.9844 74.0889C22.3619 73.6669 22.8006 73.3226 23.3003 73.0561C23.8111 72.7785 24.383 72.6397 25.016 72.6397C25.5935 72.6397 26.1043 72.7452 26.5485 72.9562C27.0038 73.1672 27.3536 73.4781 27.5979 73.889C27.8533 74.2887 27.981 74.794 27.981 75.4048C27.981 75.8268 27.8922 76.2043 27.7145 76.5375C27.5479 76.8595 27.3369 77.1649 27.0815 77.4537C26.8372 77.7424 26.5929 78.0367 26.3486 78.3365C26.1154 78.6252 25.9211 78.9362 25.7656 79.2693C25.6212 79.6025 25.5768 79.9856 25.6323 80.4187H23.9499ZM24.7995 84.1999C24.4552 84.1999 24.1609 84.0777 23.9166 83.8334C23.6834 83.578 23.5668 83.2726 23.5668 82.9173C23.5668 82.5286 23.6834 82.2121 23.9166 81.9678C24.1609 81.7235 24.4552 81.6013 24.7995 81.6013C25.1548 81.6013 25.4491 81.7235 25.6823 81.9678C25.9266 82.2121 26.0488 82.5286 26.0488 82.9173C26.0488 83.2726 25.9266 83.578 25.6823 83.8334C25.4491 84.0777 25.1548 84.1999 24.7995 84.1999ZM25.3825 106.2C24.6718 106.2 24.0443 106.072 23.5002 105.817C22.9672 105.561 22.5507 105.206 22.2509 104.751C21.9511 104.284 21.8011 103.746 21.8011 103.135C21.8011 102.569 21.9233 102.08 22.1676 101.669C22.4119 101.247 22.7228 100.886 23.1004 100.586C23.4891 100.275 23.8944 99.9978 24.3164 99.7535C24.7495 99.4981 25.1548 99.2482 25.5324 99.0039C25.9211 98.7596 26.2375 98.4986 26.4819 98.221C26.7262 97.9323 26.8483 97.6047 26.8483 97.2382C26.8483 96.9495 26.7761 96.7107 26.6318 96.522C26.4874 96.3221 26.2598 96.2221 25.9488 96.2221C25.6157 96.2221 25.3381 96.3498 25.116 96.6052C24.905 96.8607 24.7995 97.1938 24.7995 97.6047C24.7995 98.0822 24.9272 98.5875 25.1826 99.1205C25.438 99.6535 25.7822 100.181 26.2153 100.703C26.6484 101.225 27.1259 101.725 27.6479 102.202C28.1809 102.669 28.7139 103.091 29.247 103.468C29.6912 103.779 30.1354 104.029 30.5796 104.218C31.0238 104.406 31.3958 104.545 31.6956 104.634L31.2126 106.2C30.735 106.089 30.2242 105.906 29.6801 105.65C29.147 105.395 28.6196 105.078 28.0976 104.701C27.4535 104.245 26.8372 103.729 26.2487 103.152C25.6601 102.574 25.1326 101.969 24.6662 101.336C24.2109 100.692 23.85 100.053 23.5835 99.4203C23.317 98.7763 23.1837 98.1766 23.1837 97.6213C23.1837 97.1216 23.2947 96.6663 23.5168 96.2554C23.75 95.8446 24.0721 95.517 24.483 95.2726C24.8939 95.0283 25.3769 94.9062 25.9322 94.9062C26.6762 94.9062 27.2648 95.1172 27.6978 95.5392C28.1309 95.9612 28.3475 96.522 28.3475 97.2216C28.3475 97.6991 28.2309 98.1266 27.9977 98.5042C27.7756 98.8706 27.4813 99.2093 27.1148 99.5203C26.7595 99.8201 26.3819 100.103 25.9821 100.37C25.5935 100.636 25.2159 100.903 24.8494 101.169C24.4941 101.436 24.1998 101.719 23.9666 102.019C23.7445 102.319 23.6334 102.652 23.6334 103.018C23.6334 103.385 23.7167 103.696 23.8833 103.951C24.061 104.195 24.2886 104.384 24.5663 104.517C24.855 104.651 25.1715 104.717 25.5157 104.717C25.9377 104.717 26.3486 104.606 26.7484 104.384C27.1593 104.162 27.5424 103.873 27.8977 103.518C28.3308 103.063 28.7139 102.541 29.0471 101.952C29.3802 101.353 29.6412 100.697 29.83 99.9867H31.5957C31.3736 100.786 31.0626 101.564 30.6629 102.319C30.2742 103.063 29.7967 103.757 29.2303 104.401C28.7528 104.934 28.2087 105.367 27.5979 105.7C26.9871 106.033 26.2487 106.2 25.3825 106.2ZM123.553 99.337V97.9378H130.966V99.337H123.553ZM123.553 103.068V101.669H130.966V103.068H123.553Z" fill="#FFC727"/>
</g>
<path opacity="0.8" d="M185.967 20L189.515 9.10608H191.78L195.328 20H193.279L191.63 14.2032C191.453 13.6258 191.28 13.0317 191.114 12.4209C190.958 11.8101 190.803 11.2049 190.647 10.6052H190.581C190.425 11.2049 190.264 11.8101 190.098 12.4209C189.942 13.0317 189.781 13.6258 189.615 14.2032L187.949 20H185.967ZM188.066 17.0516V15.5358H193.196V17.0516H188.066ZM196.687 20V9.10608H200.119C200.929 9.10608 201.651 9.21157 202.284 9.42257C202.917 9.63356 203.417 9.98336 203.783 10.472C204.15 10.9606 204.333 11.6269 204.333 12.4709C204.333 13.2704 204.15 13.9312 203.783 14.4531C203.417 14.975 202.923 15.3637 202.301 15.6191C201.679 15.8745 200.974 16.0022 200.185 16.0022H198.62V20H196.687ZM198.62 14.4531H200.035C200.846 14.4531 201.446 14.2921 201.834 13.97C202.234 13.6369 202.434 13.1372 202.434 12.4709C202.434 11.7935 202.223 11.3215 201.801 11.055C201.39 10.7885 200.779 10.6552 199.969 10.6552H198.62V14.4531ZM206.366 20V9.10608H208.298V20H206.366ZM214.402 20V9.10608H218.067C218.833 9.10608 219.516 9.20602 220.115 9.40591C220.726 9.6058 221.204 9.9445 221.548 10.422C221.903 10.8884 222.081 11.5269 222.081 12.3376C222.081 13.115 221.903 13.759 221.548 14.2699C221.204 14.7696 220.726 15.1416 220.115 15.3859C219.516 15.6302 218.833 15.7524 218.067 15.7524H216.334V20H214.402ZM216.334 14.2032H217.867C218.622 14.2032 219.194 14.0478 219.582 13.7368C219.982 13.4259 220.182 12.9595 220.182 12.3376C220.182 11.7046 219.982 11.266 219.582 11.0217C219.194 10.7774 218.622 10.6552 217.867 10.6552H216.334V14.2032ZM220.349 20L217.717 15.236L219.116 14.07L222.514 20H220.349ZM224.244 20V9.10608H230.807V10.7218H226.176V13.5203H230.09V15.1527H226.176V18.3676H230.973V20H224.244ZM237.438 20.1999C236.494 20.1999 235.661 19.9722 234.939 19.5169C234.217 19.0505 233.651 18.3953 233.24 17.5514C232.84 16.6963 232.64 15.6802 232.64 14.5031C232.64 13.3259 232.84 12.3209 233.24 11.4881C233.651 10.6552 234.217 10.0167 234.939 9.57248C235.661 9.12829 236.494 8.90619 237.438 8.90619C238.393 8.90619 239.225 9.12829 239.936 9.57248C240.658 10.0167 241.224 10.6552 241.635 11.4881C242.046 12.3209 242.252 13.3259 242.252 14.5031C242.252 15.6802 242.046 16.6963 241.635 17.5514C241.224 18.3953 240.658 19.0505 239.936 19.5169C239.225 19.9722 238.393 20.1999 237.438 20.1999ZM237.438 18.6174C238.015 18.6174 238.515 18.4509 238.937 18.1177C239.359 17.7846 239.681 17.3126 239.903 16.7018C240.136 16.0911 240.253 15.3581 240.253 14.5031C240.253 13.6924 240.136 12.9928 239.903 12.4042C239.681 11.8157 239.359 11.3659 238.937 11.055C238.515 10.7441 238.015 10.5886 237.438 10.5886C236.871 10.5886 236.372 10.7441 235.938 11.055C235.516 11.3659 235.189 11.8157 234.956 12.4042C234.734 12.9928 234.622 13.6924 234.622 14.5031C234.622 15.3581 234.734 16.0911 234.956 16.7018C235.189 17.3126 235.516 17.7846 235.938 18.1177C236.372 18.4509 236.871 18.6174 237.438 18.6174ZM240.902 22.8817C239.792 22.8817 238.853 22.5986 238.087 22.0322C237.332 21.477 236.794 20.7829 236.471 19.95L238.437 19.7501C238.581 20.1166 238.787 20.4164 239.053 20.6496C239.331 20.8828 239.647 21.0494 240.003 21.1494C240.358 21.2604 240.73 21.3159 241.119 21.3159C241.363 21.3159 241.58 21.2993 241.769 21.266C241.968 21.2438 242.146 21.2104 242.302 21.166L242.651 22.5819C242.474 22.6707 242.229 22.7429 241.918 22.7984C241.619 22.854 241.28 22.8817 240.902 22.8817ZM248.529 20.1999C247.896 20.1999 247.324 20.111 246.813 19.9334C246.302 19.7557 245.863 19.4725 245.497 19.0838C245.142 18.6952 244.864 18.1955 244.664 17.5847C244.475 16.9628 244.381 16.2077 244.381 15.3193V9.10608H246.313V15.4692C246.313 16.2354 246.402 16.8407 246.58 17.2848C246.768 17.729 247.029 18.0455 247.363 18.2343C247.696 18.4231 248.084 18.5175 248.529 18.5175C248.973 18.5175 249.361 18.4231 249.695 18.2343C250.028 18.0455 250.289 17.729 250.477 17.2848C250.666 16.8407 250.761 16.2354 250.761 15.4692V9.10608H252.626V15.3193C252.626 16.2077 252.532 16.9628 252.343 17.5847C252.154 18.1955 251.882 18.6952 251.527 19.0838C251.172 19.4725 250.738 19.7557 250.228 19.9334C249.717 20.111 249.15 20.1999 248.529 20.1999ZM255.346 20V9.10608H261.909V10.7218H257.278V13.5203H261.193V15.1527H257.278V18.3676H262.076V20H255.346ZM267.491 20.1999C266.735 20.1999 266.019 20.0666 265.342 19.8001C264.676 19.5225 264.081 19.1172 263.559 18.5841L264.609 17.3348C264.998 17.7124 265.447 18.0067 265.958 18.2177C266.48 18.4175 267.002 18.5175 267.524 18.5175C268.146 18.5175 268.618 18.3898 268.94 18.1344C269.262 17.879 269.423 17.5403 269.423 17.1183C269.423 16.8073 269.351 16.563 269.206 16.3853C269.062 16.2077 268.862 16.0522 268.607 15.9189C268.362 15.7857 268.074 15.6469 267.74 15.5025L266.258 14.8695C265.892 14.7141 265.536 14.5142 265.192 14.2699C264.859 14.0144 264.581 13.698 264.359 13.3204C264.148 12.9428 264.043 12.4931 264.043 11.9711C264.043 11.3937 264.198 10.8773 264.509 10.422C264.831 9.9556 265.264 9.58914 265.808 9.32262C266.363 9.045 266.996 8.90619 267.707 8.90619C268.362 8.90619 268.979 9.02834 269.556 9.27265C270.145 9.50585 270.65 9.8279 271.072 10.2388L270.039 11.5047C269.684 11.216 269.312 10.9939 268.923 10.8384C268.534 10.6719 268.129 10.5886 267.707 10.5886C267.185 10.5886 266.769 10.7052 266.458 10.9384C266.147 11.1605 265.991 11.4714 265.991 11.8712C265.991 12.1488 266.075 12.382 266.241 12.5708C266.408 12.7485 266.624 12.904 266.891 13.0372C267.157 13.1594 267.441 13.2815 267.74 13.4037L269.206 14.02C269.639 14.1977 270.017 14.4198 270.339 14.6863C270.672 14.9417 270.933 15.2526 271.122 15.6191C271.311 15.9856 271.405 16.4298 271.405 16.9517C271.405 17.5403 271.25 18.0844 270.939 18.5841C270.628 19.0727 270.178 19.467 269.589 19.7668C269.012 20.0555 268.312 20.1999 267.491 20.1999ZM275.259 20V10.7218H272.128V9.10608H280.34V10.7218H277.192V20H275.259ZM289.586 20.1999C288.953 20.1999 288.381 20.111 287.871 19.9334C287.36 19.7557 286.921 19.4725 286.555 19.0838C286.199 18.6952 285.922 18.1955 285.722 17.5847C285.533 16.9628 285.439 16.2077 285.439 15.3193V9.10608H287.371V15.4692C287.371 16.2354 287.46 16.8407 287.637 17.2848C287.826 17.729 288.087 18.0455 288.42 18.2343C288.753 18.4231 289.142 18.5175 289.586 18.5175C290.031 18.5175 290.419 18.4231 290.752 18.2343C291.086 18.0455 291.346 17.729 291.535 17.2848C291.724 16.8407 291.818 16.2354 291.818 15.4692V9.10608H293.684V15.3193C293.684 16.2077 293.59 16.9628 293.401 17.5847C293.212 18.1955 292.94 18.6952 292.585 19.0838C292.229 19.4725 291.796 19.7557 291.285 19.9334C290.775 20.111 290.208 20.1999 289.586 20.1999ZM296.404 20V9.10608H300.068C300.835 9.10608 301.518 9.20602 302.117 9.40591C302.728 9.6058 303.206 9.9445 303.55 10.422C303.905 10.8884 304.083 11.5269 304.083 12.3376C304.083 13.115 303.905 13.759 303.55 14.2699C303.206 14.7696 302.728 15.1416 302.117 15.3859C301.518 15.6302 300.835 15.7524 300.068 15.7524H298.336V20H296.404ZM298.336 14.2032H299.869C300.624 14.2032 301.196 14.0478 301.584 13.7368C301.984 13.4259 302.184 12.9595 302.184 12.3376C302.184 11.7046 301.984 11.266 301.584 11.0217C301.196 10.7774 300.624 10.6552 299.869 10.6552H298.336V14.2032ZM302.35 20L299.719 15.236L301.118 14.07L304.516 20H302.35ZM306.245 20V9.10608H308.178V18.3676H312.708V20H306.245Z" fill="#00412F"/>
<defs>
<filter id="filter0_b_738_431" x="-28.2" y="-26.2" width="576.4" height="180.4" filterUnits="userSpaceOnUse" color-interpolation-filters="sRGB">
<feFlood flood-opacity="0" result="BackgroundImageFix"/>
<feGaussianBlur in="BackgroundImageFix" stdDeviation="14.1"/>
<feComposite in2="SourceAlpha" operator="in" result="effect1_backgroundBlur_738_431"/>
<feBlend mode="normal" in="SourceGraphic" in2="effect1_backgroundBlur_738_431" result="shape"/>
</filter>
<filter id="filter1_b_738_431" x="-28.2" y="-28.2" width="576.4" height="86.4" filterUnits="userSpaceOnUse" color-interpolation-filters="sRGB">
<feFlood flood-opacity="0" result="BackgroundImageFix"/>
<feGaussianBlur in="BackgroundImageFix" stdDeviation="14.1"/>
<feComposite in2="SourceAlpha" operator="in" result="effect1_backgroundBlur_738_431"/>
<feBlend mode="normal" in="SourceGraphic" in2="effect1_backgroundBlur_738_431" result="shape"/>
</filter>
<linearGradient id="paint0_linear_738_431" x1="0" y1="64" x2="520" y2="64" gradientUnits="userSpaceOnUse">
<stop stop-color="white" stop-opacity="0.5"/>
<stop offset="1" stop-color="#7A9994"/>
</linearGradient>
<linearGradient id="paint1_linear_738_431" x1="0" y1="15" x2="520" y2="15" gradientUnits="userSpaceOnUse">
<stop stop-color="white" stop-opacity="0.5"/>
<stop offset="1" stop-color="#7A9994"/>
</linearGradient>
</defs>
</svg>
