<svg width="76" height="86" viewBox="0 0 76 86" fill="none" xmlns="http://www.w3.org/2000/svg">
<g clip-path="url(#clip0_273_2390)">
<path d="M0.445801 42.9201C0.445801 30.11 0.445801 17.2998 0.445801 4.48972C0.445801 2.04714 1.73937 0.909461 4.51867 0.909461C23.3767 0.906475 42.2347 0.915434 61.0962 0.894531C62.4858 0.894531 63.577 1.26181 64.5514 2.12777C67.7939 4.99735 71.0708 7.84006 74.3647 10.6678C75.3255 11.492 75.7681 12.4147 75.7681 13.5972C75.751 36.2612 75.7544 58.9282 75.7544 81.5923C75.7544 83.8886 74.4025 85.0531 71.7364 85.0531C49.3202 85.0531 26.9006 85.0531 4.48436 85.0531C1.77025 85.0531 0.449232 83.8945 0.449232 81.5236C0.445801 68.6568 0.445801 55.7899 0.445801 42.9201ZM60.9452 3.6178H59.7614C41.4524 3.6178 23.1468 3.6178 4.83777 3.6178C3.98683 3.6178 3.56021 3.98409 3.55792 4.71666C3.55792 30.2234 3.55792 55.7302 3.55792 81.2399C3.55792 81.9745 3.9834 82.3418 4.83434 82.3418C27.0241 82.3418 49.2138 82.3358 71.4036 82.3597C72.3678 82.3597 72.6628 82.1656 72.6628 81.2907C72.6354 59.1044 72.6423 36.9211 72.6388 14.7348C72.6388 14.4392 72.6079 14.1436 72.5908 13.7912C69.736 13.7912 66.991 13.7912 64.2461 13.7912C61.7241 13.7912 60.9486 13.1164 60.9452 10.9187C60.9452 8.52984 60.9452 6.14101 60.9452 3.6178ZM69.9179 11.0321C67.993 9.35697 66.0097 7.63104 64.1191 5.98872V11.0321H69.9179Z" fill="black"/>
<path d="M52.3329 37.4762C54.9886 38.5124 57.4557 39.4888 59.9365 40.4354C60.7016 40.728 61.3261 41.0953 61.3158 41.8896C61.3055 42.6421 60.6982 43.0004 59.9742 43.2811C52.6897 46.1059 45.419 48.9546 38.1139 51.7405C37.5477 51.9555 36.6762 51.9436 36.1066 51.7256C28.8049 48.9366 21.5342 46.088 14.2497 43.2632C13.5188 42.9795 12.9424 42.6033 12.9458 41.8508C12.9527 41.0953 13.5463 40.737 14.2771 40.4563C16.7888 39.4978 19.2867 38.5154 21.9631 37.4732C21.1259 37.1328 20.4396 36.8462 19.7465 36.5774C17.8902 35.8518 16.0374 35.1232 14.1708 34.4185C13.4571 34.1498 12.9492 33.7556 12.9458 33.0479C12.9458 32.3343 13.4777 31.9491 14.1811 31.6803C16.7167 30.7069 19.2455 29.7215 21.9494 28.6734C21.5239 28.4912 21.2494 28.3628 20.968 28.2523C18.7309 27.3774 16.4971 26.4906 14.2497 25.6366C13.5051 25.3559 12.9458 24.9766 12.9527 24.2271C12.9595 23.5165 13.4982 23.1432 14.2016 22.8715C21.517 20.0347 28.8255 17.195 36.1306 14.3374C36.8409 14.0597 37.4654 14.0686 38.1653 14.3404C45.4395 17.1861 52.7206 20.0198 60.0017 22.8416C60.7325 23.1253 61.3193 23.4926 61.3193 24.2451C61.3193 24.9975 60.7325 25.3678 60.0017 25.6485C57.7851 26.4965 55.5788 27.3685 53.3725 28.2314C53.0843 28.3449 52.7995 28.4673 52.3466 28.6555C53.5064 29.1123 54.5083 29.5124 55.5171 29.9066C57.0199 30.4949 58.5159 31.0891 60.0291 31.6564C60.7703 31.9341 61.3364 32.3253 61.3227 33.0748C61.309 33.7795 60.7771 34.1587 60.0669 34.4275C57.8194 35.2845 55.5857 36.1683 53.3485 37.0462C53.0603 37.1597 52.7755 37.2881 52.3397 37.4732L52.3329 37.4762ZM55.8945 24.2719C55.5788 24.1256 55.4519 24.0599 55.3112 24.0062C49.4472 21.7189 43.5832 19.4226 37.7056 17.1622C37.359 17.0278 36.8169 17.0696 36.4566 17.21C31.7558 19.0105 27.0722 20.844 22.3851 22.6714C21.0984 23.1731 19.8117 23.6688 18.4358 24.2033C18.6382 24.3287 18.7 24.3854 18.7789 24.4153C24.7355 26.7354 30.6887 29.0556 36.6556 31.3548C36.9335 31.4623 37.3624 31.4564 37.6438 31.3489C43.669 29.0287 49.6805 26.6876 55.8945 24.2719ZM55.771 33.1196C55.668 33.021 55.62 32.9344 55.5411 32.9016C53.3039 32.0237 51.0702 31.1398 48.8159 30.3008C48.5517 30.2022 48.1296 30.2799 47.838 30.3933C44.616 31.6266 41.401 32.8688 38.1996 34.1348C37.4654 34.4245 36.7997 34.4305 36.0689 34.1348C33.7219 33.1942 31.2789 32.4179 29.028 31.328C26.8251 30.2619 24.8625 30.1365 22.6836 31.316C21.3866 32.0177 19.8975 32.4447 18.4152 33.027C18.6108 33.1345 18.6863 33.1853 18.7686 33.2181C24.7218 35.5353 30.6681 37.8584 36.635 40.1487C36.9575 40.2712 37.4585 40.2204 37.8016 40.095C39.5859 39.441 41.3495 38.7393 43.1166 38.0525C47.3267 36.4132 51.5368 34.7709 55.771 33.1166V33.1196ZM55.9391 41.8627C53.5647 40.937 51.3721 40.0562 49.1453 39.244C48.7404 39.0976 48.1365 39.1066 47.7316 39.2589C44.616 40.4234 41.5176 41.6179 38.4398 42.8511C37.5443 43.2094 36.7654 43.2393 35.8596 42.866C33.5538 41.9165 31.1348 41.158 28.9045 40.098C26.7977 39.0976 24.9139 38.9095 22.8278 40.0771C21.7263 40.6922 20.4259 41.0356 19.2181 41.5074C18.9745 41.6029 18.7412 41.7283 18.4461 41.8657C18.6519 41.9702 18.7583 42.0359 18.875 42.0837C24.7698 44.374 30.6612 46.6732 36.5732 48.9337C36.9438 49.074 37.5237 49.0143 37.9149 48.865C41.4936 47.5033 45.0552 46.1029 48.6203 44.7144C50.9981 43.7887 53.376 42.8601 55.9391 41.8627Z" fill="white"/>
<path d="M38.1004 60.1577C44.9868 60.1577 51.8699 60.1577 58.7564 60.1577C59.048 60.1577 59.3397 60.1518 59.6279 60.1637C60.6504 60.2085 61.292 60.7042 61.3229 61.4656C61.3538 62.245 60.671 62.8153 59.6279 62.8721C59.4014 62.884 59.175 62.875 58.9485 62.875C45.0486 62.875 31.1487 62.875 17.2488 62.8721C16.8336 62.8721 16.4013 62.8661 15.9998 62.7795C15.2415 62.6153 14.8607 62.1136 14.8881 61.4656C14.919 60.7818 15.3582 60.3011 16.1817 60.1966C16.5625 60.1488 16.9537 60.1607 17.3414 60.1577C24.2588 60.1577 31.1761 60.1577 38.0935 60.1577H38.1004Z" fill="white"/>
<path d="M38.1002 69.9828C31.1485 69.9828 24.2003 69.9828 17.2486 69.9828C16.8952 69.9828 16.5315 70.0007 16.185 69.941C15.3443 69.7946 14.8948 69.3139 14.8777 68.5763C14.8639 67.8806 15.5021 67.3491 16.3702 67.2834C16.6585 67.2625 16.9501 67.2714 17.2418 67.2714C31.1417 67.2714 45.0416 67.2714 58.9415 67.2714C60.5953 67.2714 61.3536 67.7134 61.3159 68.657C61.2781 69.5617 60.5267 69.9858 58.9483 69.9858C51.9967 69.9858 45.0484 69.9858 38.0968 69.9858L38.1002 69.9828Z" fill="white"/>
</g>
<defs>
<clipPath id="clip0_273_2390">
<rect width="75.3189" height="84.1586" fill="white" transform="translate(0.446289 0.894531)"/>
</clipPath>
</defs>
</svg>
