<svg width="98" height="86" viewBox="0 0 98 86" fill="none" xmlns="http://www.w3.org/2000/svg">
<path d="M20.9857 44.9785C17.5454 44.633 14.3088 44.2786 11.0619 43.9951C9.77945 43.88 8.46646 43.9597 7.17383 43.88C4.98551 43.7471 3.42824 42.7726 2.71576 40.9566C2.00329 39.1228 2.66487 37.5725 4.29339 36.3057C12.6395 29.8299 22.4106 26.7825 33.5761 27.0571C34.0036 27.066 34.4413 27.0571 34.9299 27.0571C36.8637 24.9753 38.7976 22.8315 40.8129 20.7496C44.5585 16.8872 48.3549 13.0691 53.1692 10.1545C59.7444 6.16806 67.0829 3.7939 74.8692 2.38535C79.8565 1.49061 84.8948 1.00338 89.9839 0.897074C94.7778 0.799628 97.9229 3.51042 97.7804 7.6652C97.4445 17.1884 95.5005 26.4016 90.4623 34.9769C87.4597 40.0884 83.2459 44.3229 78.2687 48.017C74.8183 50.5772 71.3068 53.0843 67.5409 55.8216C67.5409 57.6731 67.7343 59.8169 67.5104 61.9253C66.635 69.8274 63.0014 76.6929 56.8334 82.5309C55.4695 83.8154 53.7189 84.2318 51.8054 83.656C49.8715 83.0801 48.6603 81.8665 48.4771 80.077C48.2124 77.4902 48.1208 74.8857 47.8562 72.299C47.7035 70.8373 47.3269 69.4022 47.0318 67.8164C45.9732 68.3391 45.0674 68.8263 44.1106 69.2427C40.7314 70.7133 37.393 72.2458 33.9527 73.5835C31.0316 74.7263 28.2835 74.1948 26.0035 72.2458C22.5531 69.3047 19.1434 66.337 15.7643 63.3339C13.5861 61.3938 12.9652 59.0285 14.2375 56.5746C16.0492 53.102 18.1358 49.7356 20.1205 46.3339C20.3445 45.9441 20.6091 45.5809 21.006 44.9607L20.9857 44.9785ZM68.0498 8.21444C61.21 10.2608 55.1031 13.1576 50.1565 17.7022C40.8434 26.2421 32.8738 35.6856 25.8916 45.7403C23.1842 49.647 20.9857 53.8107 18.5734 57.868C17.9729 58.8779 18.207 59.8169 19.1231 60.6142C22.4819 63.5465 25.8407 66.4699 29.2097 69.3933C30.0545 70.1286 31.0519 70.3323 32.1817 69.9071C33.3726 69.4553 34.5838 69.0478 35.7339 68.5429C51.042 61.819 64.8131 53.1728 77.5054 43.1713C82.8693 38.9456 86.4724 33.7455 88.9253 27.881C89.078 27.5089 89.2103 27.1368 89.3528 26.7559C79.7242 22.7252 72.6707 16.5771 68.0498 8.20558V8.21444ZM90.6862 22.8846C90.788 22.6277 90.8389 22.5125 90.8694 22.3974C92.2536 17.6136 92.9559 12.7413 93.1697 7.8158C93.2613 5.72512 92.2231 4.75065 89.8109 4.92783C85.8719 5.22903 81.9329 5.57452 78.0143 5.99974C76.1924 6.2035 74.4112 6.64643 72.4875 7.00965C76.5893 14.141 82.5741 19.35 90.6862 22.8846ZM53.3524 79.8998C59.7037 73.8847 62.9302 66.8331 63.205 58.5678C59.0828 61.004 55.1133 63.3427 51.4288 65.522C52.0802 70.3855 52.701 75.0629 53.3524 79.9087V79.8998ZM7.03133 39.5746C12.5886 40.1416 17.9933 40.6819 23.5506 41.2489C26.0646 38.0243 28.7517 34.5694 31.5303 30.9993C22.0442 31.2473 13.9423 34.0467 7.02115 39.5746H7.03133Z" fill="black"/>
<path d="M3.57036 85.1966C1.494 85.1701 0.384571 83.5223 1.23954 82.2201C1.39222 81.9809 1.62631 81.7683 1.85024 81.5645C5.53475 78.3488 9.21927 75.1419 12.9038 71.935C13.6163 71.3149 14.4102 70.9783 15.428 71.2529C16.2931 71.4921 16.9547 71.997 16.9649 72.7677C16.9649 73.3701 16.802 74.1497 16.3542 74.5484C12.5679 77.9413 8.72054 81.2722 4.85281 84.5854C4.44568 84.9309 3.81463 85.0815 3.57036 85.1878V85.1966Z" fill="white"/>
<path d="M3.01053 73.3425C2.4202 72.9261 1.68736 72.5718 1.23952 72.0403C0.689897 71.3847 0.79168 70.5431 1.43291 69.9496C3.06142 68.4524 4.73065 66.9819 6.46095 65.5822C7.33628 64.8735 8.65945 65.0064 9.48388 65.7239C10.3083 66.4415 10.4508 67.5931 9.62638 68.355C8.03858 69.8433 6.36935 71.2607 4.67976 72.6692C4.32352 72.9704 3.73319 73.059 3.00035 73.3425H3.01053Z" fill="white"/>
<path d="M16.8942 85.3815C16.3038 84.9829 15.5608 84.6462 15.1028 84.1324C14.5328 83.4857 14.6041 82.6353 15.2453 82.0418C16.8942 80.518 18.5837 79.0298 20.3446 77.5946C21.1792 76.9125 22.4718 77.0543 23.2861 77.7364C24.1207 78.4362 24.3141 79.6056 23.4998 80.3674C21.8917 81.8823 20.1919 83.3174 18.482 84.7526C18.1461 85.0272 17.5965 85.1158 16.8942 85.3815Z" fill="white"/>
<path d="M53.9727 30.9801C53.9931 26.5861 58.156 22.9629 63.2044 22.9629C68.2833 22.9629 72.5073 26.6659 72.436 31.0687C72.3648 35.4804 68.1714 39.0859 63.1535 39.0416C58.0949 38.9973 53.9524 35.3652 53.9727 30.9801ZM63.2146 27.0025C60.6395 27.0025 58.6242 28.7477 58.6242 30.989C58.6242 33.2302 60.6293 34.9843 63.2044 34.9843C65.7795 34.9843 67.7948 33.2302 67.7948 30.9978C67.7948 28.7565 65.7897 27.0025 63.2146 27.0025Z" fill="white"/>
</svg>
