<svg width="100" height="86" viewBox="0 0 100 86" fill="none" xmlns="http://www.w3.org/2000/svg">
<path d="M0.619629 27.4221C1.45773 26.1613 2.6688 25.8841 4.28356 26.1727C8.18006 26.8676 12.1248 27.3765 16.0082 28.117C20.0495 28.8917 23.8845 30.1563 27.1272 32.4919C31.9978 36.0009 33.2747 40.501 31.9847 45.7075C31.0676 49.4178 29.1193 52.771 27.1184 56.0977C24.3189 60.7536 21.4317 65.3753 18.6585 70.0425C17.4825 72.0249 16.7058 74.1477 16.3636 76.3769C16.0959 78.1124 16.7322 79.134 18.5795 79.8365C21.2342 80.8467 24.0688 80.915 26.8947 80.9948C28.5314 81.0404 30.1724 80.9948 31.8135 81.01C33.2045 81.0252 34.1874 81.8075 34.2576 82.9164C34.3278 84.0215 33.4108 84.9899 32.0373 85.0013C27.5748 85.043 23.0903 85.2557 18.7243 84.1696C15.7405 83.4253 13.2218 82.1493 12.0853 79.4454C11.3131 77.6111 11.6378 75.7769 12.1029 73.9427C12.8664 70.9577 14.3276 68.2045 15.9511 65.5196C18.7331 60.9169 21.6247 56.3636 24.3891 51.7495C25.7933 49.4064 26.9561 46.9721 27.5265 44.3442C28.4699 40.0263 26.5831 36.5439 22.1469 34.4021C18.5532 32.6666 14.6303 31.8729 10.6373 31.2652C8.01332 30.8627 5.38933 30.4526 2.76095 30.0804C1.69468 29.9285 1.12863 29.3057 0.619629 28.5879V27.4183L0.619629 27.4221Z" fill="white"/>
<path d="M90.8357 20.454C91.4763 20.7199 92.016 20.9401 92.6523 21.2022C93.4333 19.8198 94.1705 18.4717 94.9604 17.1463C95.4913 16.2501 96.5576 15.8589 97.6282 16.0868C98.5936 16.2919 99.379 17.0742 99.3483 17.9704C99.3307 18.4451 99.107 18.9426 98.8656 19.3831C94.2671 27.6125 89.6509 35.8343 85.0392 44.0561C84.3503 45.2789 83.6921 46.5169 82.9462 47.7132C82.424 48.5525 81.3972 48.8904 80.4055 48.674C79.37 48.4499 78.6196 47.7512 78.6591 46.8208C78.6811 46.2625 78.9356 45.6853 79.2208 45.1726C82.8189 38.7167 86.4477 32.2722 90.0634 25.8238C90.2301 25.5276 90.3837 25.2238 90.5812 24.8478C89.98 24.5972 89.4184 24.3618 88.8041 24.1035C88.6154 24.4187 88.4442 24.6808 88.2951 24.9504C79.7824 40.1218 71.2654 55.2894 62.766 70.4684C62.1297 71.6039 61.2741 72.5077 60.0893 73.2444C56.5658 75.4357 53.0686 77.6573 49.589 79.8978C48.3121 80.7181 46.9518 81.246 45.3458 81.3219C45.0518 81.3371 44.6745 81.5878 44.5077 81.8194C44.1172 82.3587 43.8627 82.9701 43.4941 83.5208C42.814 84.5309 41.5196 84.8993 40.4445 84.4246C39.2685 83.9081 38.7508 82.7195 39.3826 81.6599C40.1505 80.3649 40.9403 79.1725 39.5932 77.756C39.2027 77.3421 39.2027 76.5901 39.1764 75.9901C38.9789 71.9039 38.7771 67.8177 38.6893 63.7277C38.6718 62.8466 38.9263 61.8782 39.3695 61.0845C49.5188 42.894 59.7032 24.7187 69.9008 6.55102C72.358 2.16859 78.2291 0.00395715 84.1397 1.23438C89.7826 2.40784 93.8151 6.45988 94.2978 11.4613C94.4689 13.2576 93.9029 14.9323 93.0297 16.5349C92.332 17.8147 91.608 19.0793 90.8401 20.454H90.8357ZM64.5475 25.4251C64.4246 25.6074 64.3237 25.7441 64.2403 25.8922C57.5136 37.8812 50.7913 49.874 44.0514 61.8592C43.7925 62.3188 43.8583 62.577 44.2796 62.9264C47.9611 65.9796 52.2832 67.8708 57.3337 68.5658C58.2596 68.6949 58.6676 68.5278 59.0757 67.7949C64.8766 57.3895 70.7126 47.003 76.5441 36.6128C77.4656 34.9684 78.3827 33.3241 79.3393 31.619C74.3853 29.5455 69.4839 27.4948 64.5519 25.4289L64.5475 25.4251ZM81.3753 27.9429C81.5508 27.6581 81.7044 27.4188 81.8448 27.172C84.1046 23.1503 86.3161 19.1097 88.6329 15.1108C89.9098 12.912 89.9493 10.8005 88.4925 8.68527C86.7154 6.1067 83.951 4.91425 80.603 4.94084C77.4524 4.96742 75.1576 6.39532 73.7753 8.86755C71.9017 12.217 70.0236 15.5665 68.15 18.916C67.6366 19.835 67.1232 20.754 66.5747 21.7376C71.5331 23.8149 76.4344 25.8656 81.3797 27.9391L81.3753 27.9429ZM43.4459 67.6886C43.5687 70.457 43.6872 72.9862 43.7793 75.5116C43.8013 76.1534 43.8934 76.7686 44.6262 77.08C45.3766 77.399 46.0435 77.1332 46.671 76.7306C48.8913 75.3103 51.1248 73.9052 53.3538 72.4963C53.503 72.4014 53.6873 72.3482 53.8541 72.2723C50.0234 71.2279 46.671 69.781 43.4415 67.6886H43.4459Z" fill="black"/>
</svg>
