<svg width="98" height="86" viewBox="0 0 98 86" fill="none" xmlns="http://www.w3.org/2000/svg">
<g clip-path="url(#clip0_273_2399)">
<path d="M74.9217 48.6172V49.7181C74.9217 58.9816 74.9217 68.2428 74.9217 77.5063C74.9217 82.1205 71.5471 85.0506 66.2349 85.0506C54.822 85.0506 43.4065 85.0506 31.9936 85.0506C26.7514 85.0506 23.3579 82.1017 23.3579 77.5484C23.3552 69.2218 23.3579 60.8928 23.3579 52.5662C23.3579 52.2172 23.3579 51.8682 23.3579 51.3881C22.5264 51.3881 21.7379 51.3951 20.9494 51.3881C19.7976 51.374 19.3186 51.0414 19.028 50.0718C18.9849 49.9312 18.9553 49.786 18.923 49.6431C18.4763 47.7771 17.2285 46.485 15.1797 45.7667C14.9295 45.6801 14.5258 45.7269 14.2863 45.8487C13.331 46.3336 12.4079 46.8699 11.4795 47.3946C10.6157 47.8818 9.84602 47.7904 9.1275 47.158C7.97034 46.1391 6.8051 45.1297 5.63717 44.1225C4.9052 43.4924 4.83523 42.8202 5.39767 42.0754C5.93319 41.368 6.44719 40.649 6.97195 39.9369C7.07959 39.7894 7.20338 39.6488 7.28949 39.4896C7.55322 39.0047 6.04083 36.2409 5.43534 36.1144C4.35891 35.8896 3.27979 35.6811 2.20066 35.4726C1.23188 35.2829 0.790538 34.7489 0.790538 33.9034C0.793229 32.4722 0.79592 31.0388 0.790538 29.6077C0.787847 28.7153 1.28031 28.1977 2.28947 28.015C3.3067 27.8323 4.332 27.6637 5.31962 27.392C5.68561 27.2912 5.99508 26.9493 6.24805 26.6612C6.4418 26.4387 6.44719 26.0897 6.63556 25.8625C7.62857 24.6726 7.17109 23.7053 6.28303 22.6021C4.49615 20.3817 4.56612 20.3372 6.78088 18.4001C7.56129 17.7162 8.34978 17.0393 9.12212 16.3484C9.83794 15.7089 10.6076 15.6199 11.4714 16.1094C12.3729 16.6177 13.2583 17.1517 14.1975 17.5968C14.5097 17.7443 14.9779 17.7139 15.3547 17.6623C15.6722 17.6202 15.9521 17.3625 16.2696 17.318C17.9838 17.0791 18.5813 16.0907 18.7158 14.7182C18.7669 14.2005 18.9338 13.6852 19.106 13.1817C19.3671 12.4204 20.1367 12.0012 20.936 12.1394C21.7648 12.2846 22.3622 12.924 22.2035 13.6899C21.8886 15.21 21.5414 16.7325 21.0678 18.2198C20.944 18.6039 20.352 18.967 19.8811 19.159C18.4925 19.7282 17.0393 20.1802 15.6426 20.7377C14.9268 21.0211 14.2971 21.0234 13.6485 20.6557C12.9461 20.2575 12.1899 19.9179 11.5441 19.4588C10.8525 18.9693 10.4004 19.1005 9.88369 19.6439C9.54462 19.9975 9.08444 20.2622 8.61081 20.6182C9.28358 21.5294 9.84871 22.3445 10.473 23.1244C11.0355 23.8271 11.0328 24.4712 10.5861 25.2441C9.9725 26.3075 9.4585 27.4201 9.01447 28.5467C8.70769 29.3243 8.20715 29.7763 7.27873 29.9309C6.19961 30.1113 5.13394 30.3455 4.04405 30.561V32.9384C5.18507 33.1679 6.31532 33.4185 7.45365 33.6199C8.27443 33.7652 8.68616 34.1985 8.96873 34.8613C9.48272 36.0582 10.0478 37.2434 10.6668 38.4028C11.0113 39.0516 11.0409 39.6184 10.5861 40.2157C10.0667 40.8972 9.59306 41.6046 9.05484 42.2745C8.74806 42.6563 8.78304 42.8998 9.16248 43.2418C10.6022 44.5464 10.5861 44.5605 12.2868 43.6142C12.4295 43.5346 12.5828 43.469 12.7066 43.373C13.9634 42.3986 15.1959 42.3916 16.6195 43.2067C17.4672 43.6915 18.5086 43.9562 19.5043 44.1974C20.5377 44.4481 21.1109 44.9399 21.2858 45.8628C21.4553 46.7528 21.711 47.6311 21.937 48.547H23.296V40.1993C20.387 40.0704 17.9381 39.1382 16.0274 37.2317C12.311 33.5263 13.1453 27.5653 17.8008 24.9139C18.2583 24.6539 19.0468 24.5649 19.5527 24.7195C19.9672 24.8436 20.4731 25.4737 20.43 25.832C20.3708 26.3333 19.9483 26.9095 19.4855 27.2467C17.7416 28.5162 16.8348 30.0902 16.9236 32.0647C17.0527 34.9738 19.9645 37.3792 23.3525 37.3207C23.3525 36.9787 23.3525 36.6367 23.3525 36.2924C23.3525 27.0008 23.3525 17.7092 23.3525 8.41757C23.3552 3.84788 26.7379 0.896677 31.9694 0.894335C43.4172 0.891993 54.8651 0.891993 66.3129 0.894335C71.5417 0.894335 74.919 3.84788 74.919 8.41991C74.9217 16.7465 74.919 25.0755 74.919 33.4021V34.5545C75.7371 34.5545 76.496 34.5498 77.2549 34.5545C78.5116 34.5639 78.9987 34.9011 79.2839 35.9786C79.51 36.8311 79.6661 37.7024 79.9513 38.5386C80.0536 38.8337 80.4061 39.1171 80.7263 39.2905C81.1461 39.5177 81.7032 39.5645 82.1042 39.8058C83.1564 40.4405 84.0417 40.2555 84.9648 39.5879C85.5541 39.1617 86.2484 38.8478 86.9051 38.4918C87.6612 38.0819 88.3878 38.1451 89.0176 38.6815C90.2662 39.7425 91.4987 40.82 92.7232 41.9021C93.3798 42.4829 93.4175 43.1317 92.9142 43.8133C92.3168 44.6237 91.6871 45.4201 91.1462 46.2586C90.9874 46.5069 91.017 46.891 91.0843 47.1908C91.1543 47.4953 91.4611 47.7623 91.5203 48.0668C91.7974 49.5166 92.9089 49.9312 94.4239 50.1748C97.4918 50.6667 97.4756 50.7346 97.4756 53.4633C97.4756 54.3978 97.4864 55.3324 97.4729 56.2693C97.4595 57.2647 97.0773 57.6699 95.9498 57.9276C95.7883 57.9651 95.6241 58.0002 95.4627 58.0353C94.397 58.2672 93.0945 58.2508 92.333 58.7989C91.601 59.3259 91.3965 60.4314 91.0224 61.3051C90.9282 61.5276 90.9767 61.8719 91.1166 62.0804C91.679 62.9095 92.298 63.7082 92.9008 64.5163C93.4363 65.233 93.3556 65.8935 92.6693 66.4978C91.4907 67.5377 90.3039 68.5707 89.1225 69.6083C88.4013 70.243 87.6236 70.3063 86.7651 69.8144C85.9524 69.3483 85.1289 68.8986 84.3082 68.4418C84.1386 68.3482 83.9772 68.2381 83.7969 68.1655C83.229 67.9359 80.0697 69.2663 79.9298 69.7957C79.6903 70.7068 79.4857 71.6226 79.2328 72.529C78.9664 73.4729 78.1887 73.9625 77.2952 73.7938C76.3749 73.6182 75.8932 72.9272 76.1085 71.9622C76.4072 70.6154 76.6924 69.2616 77.1364 67.95C77.2898 67.4979 77.8227 67.0225 78.3232 66.807C79.7279 66.2027 81.1838 65.6686 82.6666 65.2306C83.2263 65.0643 83.9933 65.0901 84.5369 65.2915C85.4196 65.6218 86.2108 66.1465 87.0073 66.6336C87.4567 66.9077 87.7447 66.8608 88.116 66.5236C88.5762 66.1043 89.1198 65.753 89.6661 65.3454C88.9637 64.3898 88.3986 63.57 87.7743 62.7877C87.2334 62.1131 87.228 61.4901 87.6451 60.7476C88.2587 59.6515 88.7888 58.5155 89.2598 57.3678C89.5611 56.6323 90.0213 56.1779 90.9202 56.0304C92.0047 55.8524 93.0784 55.6181 94.2006 55.4003V52.9808C93.1268 52.7747 92.0585 52.5451 90.9794 52.3671C90.0509 52.2149 89.5558 51.7558 89.249 50.9805C88.805 49.8563 88.291 48.7414 87.6774 47.678C87.2307 46.9051 87.2253 46.2609 87.7958 45.5606C88.3017 44.9423 88.7161 44.2701 89.2221 43.6517C89.545 43.2582 89.4589 43.017 89.0902 42.6867C87.6586 41.3961 87.672 41.3844 85.9659 42.333C85.5703 42.5532 85.1585 42.757 84.7818 42.9982C83.9772 43.5159 83.221 43.4386 82.3491 43.0521C81.1919 42.5368 79.9809 42.0848 78.743 41.7451C77.7177 41.4641 77.1553 40.9769 76.9777 40.0658C76.8054 39.1757 76.5498 38.2997 76.3264 37.3956H74.9621V45.7058C75.5003 45.7761 76.0519 45.8393 76.6009 45.9213C80.3765 46.4811 83.517 49.0084 84.3162 52.2828C85.1693 55.7798 83.9206 58.6841 80.6967 60.8952C80.2689 61.188 79.5853 61.3847 79.0525 61.3355C77.8603 61.2254 77.3975 59.8974 78.2102 59.0964C78.4524 58.8598 78.7726 58.6818 79.0552 58.4757C81.1165 56.972 81.8808 54.4939 80.9658 52.2805C80.059 50.0858 77.6881 48.6149 74.9136 48.6102L74.9217 48.6172ZM26.5765 42.9233C26.5765 54.4915 26.5765 66.0621 26.5765 77.6304C26.5765 80.5348 28.5517 82.2446 31.9102 82.2446C43.3903 82.2446 54.8705 82.2446 66.3479 82.2446C69.7521 82.2446 71.6951 80.5395 71.6951 77.5531C71.6951 54.5032 71.6951 31.451 71.6951 8.40117C71.6951 5.37267 69.7575 3.70032 66.2591 3.70032C54.8462 3.70032 43.4334 3.70032 32.0205 3.70032C28.479 3.70032 26.5738 5.37267 26.5738 8.47847C26.5738 19.9601 26.5738 31.4417 26.5738 42.9233H26.5765Z" fill="black"/>
<path d="M83.0034 12.123C83.8699 12.1348 84.5803 12.7672 84.5803 13.526C84.5803 14.3411 83.773 15.0789 82.8957 15.0649C81.9834 15.0485 81.3672 14.4793 81.3672 13.6549C81.3672 12.7601 82.0588 12.1113 83.0034 12.1254V12.123Z" fill="white"/>
<path d="M81.3672 19.2621C81.3672 18.3674 82.0615 17.7186 83.0061 17.7326C83.8726 17.7467 84.5803 18.3791 84.5803 19.138C84.5803 19.9531 83.7703 20.6909 82.893 20.6745C81.9807 20.6557 81.3672 20.0889 81.3672 19.2621Z" fill="white"/>
<path d="M81.3671 24.833C81.386 23.9453 82.1126 23.3059 83.0518 23.3434C83.9183 23.3785 84.6072 24.032 84.5803 24.7885C84.5534 25.6083 83.7218 26.3227 82.8472 26.2805C81.9323 26.236 81.3483 25.6669 81.3671 24.8307V24.833Z" fill="white"/>
<path d="M13.686 61.0108C13.7076 60.1653 14.383 59.5422 15.2818 59.5352C16.1834 59.5282 16.9315 60.2004 16.8992 60.9874C16.8642 61.8212 16.073 62.4841 15.1581 62.4489C14.2269 62.4115 13.6645 61.8634 13.6887 61.0132L13.686 61.0108Z" fill="white"/>
<path d="M13.6866 66.6202C13.7082 65.777 14.3836 65.1516 15.2824 65.1446C16.184 65.1376 16.9321 65.8098 16.8998 66.5968C16.8648 67.4306 16.0736 68.0934 15.156 68.056C14.2302 68.0185 13.6651 67.4657 13.6866 66.6178V66.6202Z" fill="white"/>
<path d="M15.2011 73.6706C14.2727 73.6542 13.6807 73.1085 13.6861 72.2699C13.6915 71.3869 14.4019 70.7311 15.3357 70.7545C16.1995 70.7756 16.9073 71.415 16.9019 72.1669C16.8938 72.9937 16.1107 73.6846 15.2011 73.6682V73.6706Z" fill="white"/>
<path d="M36.8914 42.9558C38.4765 44.333 39.9673 45.6283 41.4555 46.9235C41.7165 47.1507 41.991 47.3662 42.2278 47.6121C42.8522 48.2633 42.828 49.0409 42.1875 49.5796C41.5497 50.1183 40.659 50.1206 39.9243 49.5538C39.4722 49.2072 39.0658 48.816 38.638 48.4436C37.0018 47.0195 35.3575 45.6001 33.7321 44.169C32.7526 43.3071 32.7579 42.6255 33.7483 41.7565C35.7316 40.0163 37.723 38.2807 39.7251 36.5545C40.5728 35.8213 41.5066 35.7698 42.2036 36.3741C42.9006 36.9784 42.8468 37.7958 42.0045 38.5336C40.3522 39.9835 38.6756 41.4122 36.8914 42.9511V42.9558Z" fill="white"/>
<path d="M61.3644 42.9234C59.7256 41.5157 58.1755 40.183 56.6254 38.8503C56.4102 38.6653 56.1841 38.4872 55.9984 38.2835C55.4252 37.6581 55.4602 36.9086 56.0657 36.3816C56.6685 35.8546 57.5889 35.7726 58.2428 36.3277C60.4791 38.2202 62.6858 40.1385 64.8548 42.0919C65.5087 42.6822 65.3957 43.413 64.7498 43.9845C62.6346 45.8582 60.5006 47.7203 58.3424 49.5566C57.64 50.1539 56.7169 50.1211 56.0792 49.5847C55.4172 49.0296 55.3956 48.1981 56.1115 47.554C57.5835 46.233 59.0932 44.9471 60.5867 43.6448C60.8182 43.4411 61.0388 43.2279 61.3644 42.9258V42.9234Z" fill="white"/>
<path d="M52.3544 37.5389C52.1311 38.3095 51.862 39.2394 51.5929 40.1716C50.7882 42.9682 49.9917 45.7672 49.179 48.5614C48.8668 49.6389 48.1079 50.1471 47.1634 49.9457C46.1569 49.7326 45.7613 48.983 46.0842 47.8494C47.0988 44.2892 48.1133 40.7267 49.1467 37.1688C49.3943 36.3116 50.1101 35.8689 50.9578 35.9743C51.7489 36.0727 52.341 36.6629 52.3544 37.5366V37.5389Z" fill="white"/>
<path d="M49.055 9.3095C47.5453 9.3095 46.0329 9.32121 44.5232 9.30482C43.4118 9.29311 42.7094 8.74503 42.696 7.92525C42.6825 7.10078 43.3822 6.51522 44.4802 6.51054C47.5668 6.49649 50.6562 6.49649 53.7429 6.51054C54.857 6.51522 55.5567 7.06565 55.5701 7.89011C55.5836 8.74034 54.857 9.30013 53.6837 9.3095C52.139 9.32121 50.597 9.31184 49.0523 9.31184L49.055 9.3095Z" fill="black"/>
</g>
<defs>
<clipPath id="clip0_273_2399">
<rect width="96.6932" height="84.1586" fill="white" transform="translate(0.790527 0.894531)"/>
</clipPath>
</defs>
</svg>
