<svg width="95" height="89" viewBox="0 0 95 89" fill="none" xmlns="http://www.w3.org/2000/svg">
<path d="M60.6412 84.2925C59.7638 85.5242 59.1549 86.6493 58.2894 87.5257C57.1612 88.6744 55.651 89.1126 54.0154 88.9764C52.3619 88.8343 50.7085 88.6863 49.055 88.5205C45.9092 88.2066 43.623 85.8854 43.4917 82.9069C43.3604 79.9047 45.4198 77.2815 48.5178 76.8433C50.7085 76.5295 52.9469 76.3814 55.1555 76.4584C57.6626 76.5531 59.328 77.9861 60.0682 80.408C60.1159 80.5738 60.2115 80.7278 60.295 80.9173C64.6346 80.9765 68.9922 81.3318 72.9975 79.0579C76.979 76.7959 79.5457 73.4917 80.7336 69.1098C80.7933 68.8789 80.7873 68.6361 80.8291 68.2512C80.5187 68.5118 80.3098 68.6776 80.1009 68.8552C77.8803 70.7264 75.3673 71.212 72.6871 70.1224C69.9532 69.0092 68.3952 66.8419 68.3594 63.9285C68.2639 56.882 68.2102 49.8354 68.3654 42.7888C68.4848 37.4713 74.251 34.4099 78.9369 36.9976C79.1756 37.1279 79.4204 37.2522 79.8323 37.4772C78.6444 30.5846 75.6478 24.823 70.8008 19.8904C70.4666 20.2635 70.186 20.5654 69.9114 20.8734C67.7685 23.3012 65.0465 23.6802 62.3544 21.8504C57.9432 18.8541 53.0723 17.279 47.7418 17.2257C42.4829 17.1724 37.5404 18.4811 33.2545 21.507C30.2699 23.615 26.8555 23.4611 24.5753 20.2812C24.4917 20.1687 24.3962 20.068 24.229 19.8726C19.3641 24.7697 16.3915 30.5372 15.1678 37.4358C15.5618 37.2404 15.7886 37.1397 16.0094 37.0153C20.7669 34.3566 26.557 37.5128 26.6466 42.9368C26.76 49.8768 26.7122 56.8227 26.6466 63.7627C26.6167 66.8478 24.5932 69.3763 21.6921 70.2823C18.7971 71.1883 15.7528 70.1994 13.8963 67.6946C13.5322 67.2031 13.18 67.0728 12.5951 67.0847C5.57526 67.2327 0.0179251 61.8442 1.74586e-05 54.8627C1.74586e-05 53.1514 -0.011921 51.4223 0.185063 49.7229C0.489493 47.1293 1.749 44.9679 3.55767 43.0849C3.92776 42.7 4.23219 42.1019 4.27397 41.5749C4.7336 35.2981 6.01698 29.2286 8.8046 23.544C14.6186 11.6951 24.0977 4.16292 36.9673 1.30876C52.9887 -2.24413 67.2909 1.32653 78.9966 13.1044C85.4015 19.5529 88.7383 27.5943 90.1351 36.4706C90.2366 37.1279 90.356 37.7851 90.3798 38.4483C90.4694 40.8169 90.9409 42.9013 92.7377 44.7666C94.4509 46.543 95.0239 49.0182 94.994 51.4993C94.9642 53.5955 95.0776 55.7509 94.618 57.7643C93.5017 62.608 90.2784 65.5747 85.4314 66.7531C84.7031 66.9307 84.4763 67.1853 84.3927 67.8959C83.366 76.79 75.3553 84.0557 66.3359 84.2807C64.3242 84.3281 62.3186 84.2866 60.6353 84.2866L60.6412 84.2925ZM68.2639 17.6284C67.9655 17.3619 67.7685 17.1665 67.5476 17.0007C63.8049 14.1288 59.6503 12.1096 55.0302 11.0733C53.5856 10.7535 52.1053 10.5996 50.6547 10.3153C49.6937 10.1318 49.1386 9.37383 49.2221 8.52114C49.3117 7.60923 50.0399 7.01116 51.0666 7.02892C51.4188 7.03484 51.771 7.06445 52.1232 7.11182C66.694 8.85866 79.0622 19.7483 82.5244 33.9184C82.978 35.7837 83.2645 37.6845 83.6227 39.5497C84.7927 39.7925 85.9567 40.0294 87.3296 40.3136C86.1417 27.1738 80.3755 16.6573 69.1891 9.62253C55.454 0.989001 41.104 0.722534 27.0764 8.85866C15.132 15.7868 8.9598 26.5994 7.67045 40.3255C9.06128 40.0353 10.2551 39.7866 11.5146 39.5261C11.5743 38.9813 11.6101 38.4187 11.6937 37.874C13.6934 25.3619 20.3491 16.1776 31.7383 10.4279C35.487 8.5389 39.4983 7.44343 43.6887 7.05853C44.8586 6.95194 45.5929 7.45527 45.7719 8.37902C45.9809 9.46265 45.1929 10.2739 43.7782 10.4219C38.7342 10.9549 34.0962 12.6188 29.8341 15.3249C28.7776 16 27.7867 16.7757 26.766 17.504C28.318 19.7364 29.1298 20.1509 31.4697 18.6232C37.6478 14.5907 44.4587 13.1458 51.7949 14.188C56.3136 14.8334 60.4383 16.4737 64.1989 19.0318C65.4882 19.9082 66.2941 19.7957 67.3447 18.6528C67.6312 18.3449 67.9058 18.0251 68.2579 17.6284H68.2639ZM12.8935 43.0908C8.71507 42.475 4.36948 45.6252 3.63527 49.8413C3.32487 51.6177 3.38456 53.4652 3.40844 55.2831C3.46813 59.2742 6.35723 62.7146 10.3208 63.4666C11.5206 63.6976 12.7741 63.6443 14.0098 63.6621C15.1021 63.6798 15.7946 64.0884 16.3557 65.0951C16.7854 65.8649 17.5495 66.6228 18.3494 66.9722C20.8087 68.038 23.274 66.1432 23.2799 63.2712C23.2978 56.6155 23.2859 49.9597 23.2799 43.304C23.2799 42.8895 23.2262 42.4631 23.1188 42.0605C22.6472 40.2603 20.9699 39.1826 19.0896 39.4372C17.2869 39.68 16.2781 40.9058 16.2781 42.8599C16.2781 47.5201 16.2781 52.1803 16.2781 56.8346C16.2781 58.2084 15.5976 59.0374 14.535 59.0137C13.4904 58.9959 12.8875 58.232 12.8875 56.8819C12.8816 53.6962 12.8875 50.5045 12.8875 47.3187C12.8875 45.9272 12.8875 44.5297 12.8875 43.0908H12.8935ZM82.1185 43.1145C82.1185 47.1648 82.1185 51.1559 82.1185 55.1469C82.1185 55.9523 82.1483 56.7635 82.0826 57.5629C82.011 58.4097 81.438 58.8953 80.6262 58.99C79.8024 59.0907 79.1637 58.6998 78.8891 57.9123C78.7459 57.4978 78.7279 57.0181 78.7279 56.5681C78.716 51.9079 78.728 47.2477 78.722 42.5875C78.722 40.9117 77.5281 39.6267 75.8209 39.455C73.4392 39.2181 71.7261 40.8584 71.7201 43.4283C71.7082 50.0189 71.7141 56.6036 71.7201 63.1943C71.7201 63.6443 71.7619 64.1121 71.8813 64.5444C72.2812 66.0543 73.3139 66.9603 74.836 67.1972C76.3641 67.434 77.7967 66.9248 78.4175 65.5273C79.1518 63.8871 80.2919 63.514 81.8737 63.6739C82.2916 63.7153 82.7213 63.6857 83.1452 63.6739C86.858 63.5851 90.2067 61.1691 91.1797 57.6103C91.9557 54.7739 91.9677 51.825 91.1558 48.9945C90.0396 45.1278 85.8134 42.4217 82.1125 43.1145H82.1185ZM53.5379 85.5953C55.848 85.7433 56.9642 84.8077 56.9821 82.6878C57 80.4909 55.8778 79.4902 53.5438 79.6797C52.0993 79.7922 50.6607 79.9343 49.2221 80.1001C47.8313 80.2659 46.8703 81.3259 46.8703 82.6345C46.8703 83.9609 47.7955 84.9735 49.2221 85.1452C50.6607 85.3169 52.0993 85.4472 53.5379 85.5953Z" fill="black"/>
</svg>
