<svg width="291" height="396" viewBox="0 0 291 396" fill="none" xmlns="http://www.w3.org/2000/svg">
<path d="M46.0145 56.1651C41.967 56.1397 38.0729 54.7812 35.081 52.3507C32.0892 49.9202 30.2109 46.5893 29.8073 42.9987C29.4036 39.4081 30.5032 35.8111 32.8946 32.8997C35.2859 29.9882 38.8002 27.9677 42.7615 27.2267C41.706 21.8815 42.8486 16.3763 45.9796 11.7217C48.2519 8.29809 51.5068 5.47645 55.4092 3.54752C59.3116 1.61859 63.7203 0.652113 68.181 0.747668C72.6418 0.843224 76.9933 1.99735 80.7873 4.09115C84.5813 6.18495 87.6805 9.14271 89.7657 12.6597C92.2184 11.1574 95.1882 10.4774 98.1493 10.7401C101.11 11.0027 103.872 12.1911 105.944 14.0947C107.952 15.936 109.207 18.3257 109.508 20.8797C113.264 21.1061 116.87 22.2805 119.905 24.2657C122.941 26.2509 125.28 28.965 126.65 32.091C128.02 35.2171 128.365 38.6261 127.643 41.9201C126.921 45.2141 125.164 48.2571 122.575 50.6938C120.8 52.3737 118.667 53.7218 116.302 54.6596C113.936 55.5974 111.385 56.1061 108.797 56.1561L46.0145 56.1651Z" fill="#292A2E"/>
<path d="M41.3355 56.1655C37.2879 56.1402 33.3939 54.7816 30.402 52.3511C27.4102 49.9206 25.5319 46.5897 25.1282 42.9991C24.7246 39.4085 25.8242 35.8116 28.2155 32.9001C30.6069 29.9886 34.1211 27.9681 38.0825 27.2271C37.0268 21.882 38.1692 16.3767 41.3 11.7221C43.5723 8.29851 46.8274 5.47689 50.7298 3.54798C54.6323 1.61906 59.041 0.652601 63.5017 0.748156C67.9625 0.843712 72.314 1.99783 76.1081 4.09161C79.9021 6.18539 83.0014 9.14313 85.0867 12.6601C87.5394 11.1579 90.5092 10.4778 93.4703 10.7405C96.4314 11.0031 99.1928 12.1915 101.265 14.0951C103.273 15.9366 104.528 18.3262 104.829 20.8801C108.585 21.1065 112.191 22.2809 115.226 24.2661C118.262 26.2513 120.601 28.9654 121.971 32.0914C123.341 35.2175 123.686 38.6265 122.964 41.9205C122.242 45.2145 120.485 48.2575 117.896 50.6942C116.121 52.3741 113.988 53.7221 111.623 54.6599C109.257 55.5977 106.706 56.1064 104.118 56.1565L41.3355 56.1655Z" fill="white"/>
<path d="M41.3351 56.6669C36.8549 56.6486 32.5659 55.0466 29.4089 52.2125C26.2519 49.3783 24.4848 45.5434 24.4953 41.5492C24.4482 38.1488 25.7062 34.8363 28.0607 32.1609C30.4151 29.4855 33.7246 27.608 37.4402 26.8397C36.5298 21.5215 37.7232 16.0866 40.8158 11.4671C43.1118 8.00648 46.3904 5.14657 50.3213 3.17566C54.2521 1.20475 58.6963 0.192495 63.2058 0.240917C67.7153 0.289339 72.1308 1.39673 76.0073 3.45147C79.8838 5.50621 83.0842 8.43569 85.286 11.9446C87.8382 10.5355 90.8538 9.94607 93.8331 10.274C96.8125 10.602 99.5767 11.8276 101.668 13.7478C103.65 15.5664 104.932 17.8999 105.329 20.4109C109.145 20.7195 112.787 21.9797 115.837 24.0473C118.888 26.115 121.223 28.9065 122.577 32.1024C123.931 35.2983 124.248 38.7695 123.492 42.1186C122.737 45.4678 120.939 48.5596 118.304 51.0401C116.477 52.7679 114.283 54.1544 111.85 55.1188C109.417 56.0833 106.792 56.6065 104.13 56.6579L41.3351 56.6669ZM62.9041 1.24485C59.2999 1.26147 55.7433 1.97916 52.4824 3.34782C49.2215 4.71648 46.3349 6.70314 44.0241 9.16912C41.7133 11.6351 40.0341 14.521 39.1035 17.6253C38.1729 20.7297 38.0135 23.9777 38.6363 27.1426L38.7302 27.6242L38.1929 27.7205C34.6154 28.3529 31.3991 30.0823 29.1025 32.6084C26.8059 35.1345 25.574 38.2977 25.6205 41.5492C25.6097 45.2775 27.2582 48.8573 30.2042 51.5034C33.1502 54.1495 37.1533 55.6457 41.3351 55.6637L104.117 55.6567C106.629 55.6066 109.105 55.1116 111.4 54.2006C113.696 53.2895 115.765 51.9806 117.488 50.35C120.002 47.9824 121.71 45.0259 122.411 41.8257C123.112 38.6254 122.778 35.3134 121.447 32.2762C120.116 29.239 117.844 26.602 114.895 24.6729C111.947 22.7438 108.443 21.6022 104.794 21.3815L104.318 21.3564L104.269 20.9335C103.98 18.492 102.781 16.2076 100.862 14.4465C98.8823 12.6277 96.2444 11.4922 93.4155 11.241C90.5866 10.9898 87.7492 11.6392 85.4059 13.0742L84.886 13.3937L84.5895 12.8972C82.503 9.38196 79.3818 6.43992 75.5612 4.38698C71.7406 2.33405 67.3649 1.24778 62.9041 1.24485Z" fill="#292A2E"/>
<path d="M74.5239 48.0425C74.3747 48.0425 74.2316 47.9896 74.1261 47.8955C74.0206 47.8015 73.9613 47.6739 73.9613 47.5409V18.4073C73.9613 18.2743 74.0206 18.1467 74.1261 18.0527C74.2316 17.9586 74.3747 17.9058 74.5239 17.9058C74.6731 17.9058 74.8162 17.9586 74.9217 18.0527C75.0272 18.1467 75.0865 18.2743 75.0865 18.4073V47.5409C75.0865 47.6739 75.0272 47.8015 74.9217 47.8955C74.8162 47.9896 74.6731 48.0425 74.5239 48.0425Z" fill="#292A2E"/>
<path d="M86.8643 29.9115C86.7904 29.9117 86.7171 29.8988 86.6489 29.8736C86.5806 29.8484 86.5186 29.8113 86.4665 29.7646L74.523 19.1169L62.5802 29.7646C62.474 29.8559 62.3319 29.9065 62.1844 29.9054C62.0369 29.9042 61.8958 29.8515 61.7915 29.7585C61.6872 29.6655 61.628 29.5397 61.6267 29.4082C61.6254 29.2766 61.6822 29.1499 61.7846 29.0553L74.1247 18.0531C74.2324 17.9625 74.3748 17.9121 74.5228 17.9121C74.6708 17.9121 74.8132 17.9625 74.9208 18.0531L87.2615 29.0553C87.3401 29.1255 87.3937 29.2149 87.4154 29.3121C87.4371 29.4094 87.4259 29.5103 87.3834 29.6019C87.3408 29.6935 87.2687 29.7719 87.1762 29.827C87.0837 29.8821 86.975 29.9115 86.8637 29.9115H86.8643Z" fill="#292A2E"/>
<path d="M269.132 23.9351H126.22C114.398 23.9351 104.813 32.4798 104.813 43.0203V342.538C104.813 353.079 114.398 361.624 126.22 361.624H269.132C280.955 361.624 290.539 353.079 290.539 342.538V43.0203C290.539 32.4798 280.955 23.9351 269.132 23.9351Z" fill="#292A2E"/>
<path d="M269.067 29.8945H126.288C118.17 29.8945 111.589 35.7618 111.589 42.9994V342.114C111.589 349.351 118.17 355.219 126.288 355.219H269.067C277.185 355.219 283.766 349.351 283.766 342.114V42.9994C283.766 35.7618 277.185 29.8945 269.067 29.8945Z" fill="white"/>
<path d="M162.414 27.4307H232.94V33.9367C232.939 35.8024 232.107 37.5914 230.627 38.9104C229.148 40.2294 227.141 40.9704 225.048 40.9704H170.307C168.214 40.9704 166.207 40.2292 164.727 38.9097C163.247 37.5903 162.415 35.8007 162.415 33.9347V27.4307H162.414Z" fill="#292A2E"/>
<path d="M225.073 91.2979H170.282C163.255 91.2979 157.559 96.3762 157.559 102.641V151.489C157.559 157.754 163.255 162.832 170.282 162.832H225.073C232.1 162.832 237.796 157.754 237.796 151.489V102.641C237.796 96.3762 232.1 91.2979 225.073 91.2979Z" fill="white"/>
<path d="M225.071 163.334H170.281C166.759 163.331 163.382 162.082 160.891 159.861C158.4 157.641 156.999 154.63 156.996 151.49V102.641C157 99.5006 158.401 96.49 160.891 94.2695C163.382 92.049 166.759 90.8 170.281 90.7964H225.071C228.594 90.8 231.971 92.049 234.461 94.2695C236.952 96.49 238.353 99.5006 238.357 102.641V151.49C238.353 154.63 236.952 157.641 234.461 159.861C231.971 162.082 228.594 163.331 225.071 163.334ZM170.281 91.7996C167.057 91.8029 163.966 92.9461 161.687 94.9785C159.407 97.011 158.125 99.7665 158.121 102.641V151.49C158.125 154.364 159.407 157.119 161.687 159.152C163.966 161.184 167.057 162.327 170.281 162.331H225.071C228.295 162.328 231.386 161.184 233.666 159.152C235.946 157.12 237.228 154.364 237.232 151.49V102.641C237.228 99.7665 235.946 97.0108 233.666 94.9784C231.386 92.946 228.295 91.8027 225.071 91.7996H170.281Z" fill="#292A2E"/>
<path opacity="0.6" d="M221.43 221.344V230.693H143.943C142.552 230.693 141.219 230.201 140.235 229.324C139.252 228.447 138.7 227.258 138.7 226.019C138.7 224.779 139.252 223.59 140.235 222.713C141.219 221.836 142.552 221.344 143.943 221.344H221.43Z" fill="#21D0B3"/>
<path d="M251.41 231.196H143.945C143.178 231.203 142.416 231.074 141.705 230.816C140.994 230.559 140.347 230.179 139.802 229.698C139.257 229.216 138.824 228.643 138.528 228.012C138.233 227.38 138.081 226.703 138.081 226.019C138.081 225.334 138.233 224.657 138.528 224.026C138.824 223.394 139.257 222.821 139.802 222.34C140.347 221.858 140.994 221.478 141.705 221.221C142.416 220.964 143.178 220.835 143.945 220.842H251.41C252.94 220.855 254.403 221.406 255.48 222.376C256.556 223.345 257.16 224.654 257.16 226.019C257.16 227.383 256.556 228.692 255.48 229.662C254.403 230.631 252.94 231.182 251.41 231.196ZM143.945 221.845C143.326 221.839 142.712 221.942 142.138 222.149C141.564 222.356 141.041 222.663 140.601 223.051C140.161 223.439 139.812 223.901 139.573 224.411C139.335 224.92 139.212 225.467 139.212 226.019C139.212 226.571 139.335 227.117 139.573 227.627C139.812 228.136 140.161 228.598 140.601 228.986C141.041 229.375 141.564 229.681 142.138 229.888C142.712 230.095 143.326 230.199 143.945 230.193H251.41C252.643 230.181 253.821 229.735 254.688 228.954C255.555 228.173 256.041 227.118 256.041 226.019C256.041 224.92 255.555 223.865 254.688 223.083C253.821 222.302 252.643 221.857 251.41 221.845H143.945Z" fill="#292A2E"/>
<path opacity="0.8" d="M235.244 262.577H160.11C155.682 262.577 152.093 265.777 152.093 269.724V288.914C152.093 292.861 155.682 296.061 160.11 296.061H235.244C239.672 296.061 243.261 292.861 243.261 288.914V269.724C243.261 265.777 239.672 262.577 235.244 262.577Z" fill="#21D0B3"/>
<path d="M243.258 288.916V292.204C243.258 294.099 242.414 295.917 240.911 297.257C239.408 298.597 237.369 299.349 235.243 299.349H160.109C157.983 299.349 155.944 298.597 154.441 297.257C152.938 295.917 152.094 294.099 152.094 292.204V288.916C152.094 290.811 152.938 292.628 154.441 293.968C155.944 295.308 157.983 296.061 160.109 296.061H235.243C237.369 296.061 239.408 295.308 240.911 293.968C242.414 292.628 243.258 290.811 243.258 288.916Z" fill="#21D0B3"/>
<path d="M192.667 289.211C192.353 289.211 192.049 289.111 191.81 288.928L183.211 282.358C183.079 282.257 182.971 282.135 182.893 281.997C182.815 281.86 182.768 281.71 182.754 281.556C182.741 281.402 182.762 281.248 182.815 281.101C182.869 280.954 182.955 280.819 183.067 280.702C183.18 280.585 183.317 280.488 183.472 280.418C183.626 280.349 183.794 280.307 183.966 280.295C184.139 280.283 184.312 280.302 184.477 280.349C184.641 280.397 184.793 280.474 184.925 280.574L192.556 286.405L210.313 269.084C210.429 268.97 210.57 268.878 210.727 268.812C210.883 268.747 211.053 268.71 211.226 268.703C211.399 268.696 211.571 268.719 211.734 268.772C211.896 268.825 212.046 268.905 212.174 269.009C212.301 269.113 212.405 269.239 212.478 269.378C212.551 269.518 212.593 269.669 212.601 269.823C212.608 269.977 212.582 270.131 212.523 270.276C212.464 270.421 212.374 270.554 212.257 270.668L193.64 288.829C193.517 288.95 193.366 289.046 193.199 289.112C193.031 289.177 192.85 289.211 192.667 289.211Z" fill="white"/>
<path d="M197.676 145.03C197.527 145.03 197.384 144.977 197.278 144.883C197.173 144.789 197.113 144.661 197.113 144.528V109.602C197.113 109.469 197.173 109.342 197.278 109.247C197.384 109.153 197.527 109.101 197.676 109.101C197.825 109.101 197.968 109.153 198.074 109.247C198.179 109.342 198.239 109.469 198.239 109.602V144.528C198.239 144.661 198.179 144.789 198.074 144.883C197.968 144.977 197.825 145.03 197.676 145.03Z" fill="#292A2E"/>
<path d="M217.264 127.567H178.089C177.94 127.567 177.797 127.514 177.692 127.42C177.586 127.326 177.527 127.198 177.527 127.065C177.527 126.932 177.586 126.804 177.692 126.71C177.797 126.616 177.94 126.563 178.089 126.563H217.264C217.413 126.563 217.556 126.616 217.662 126.71C217.767 126.804 217.827 126.932 217.827 127.065C217.827 127.198 217.767 127.326 217.662 127.42C217.556 127.514 217.413 127.567 217.264 127.567Z" fill="#292A2E"/>
<path d="M83.0866 149.545L89.3664 140.836C89.5044 140.644 89.6855 140.481 89.8984 140.355C90.1112 140.23 90.3511 140.145 90.6026 140.107C90.8542 140.068 91.1119 140.077 91.3595 140.132C91.607 140.188 91.8389 140.288 92.0404 140.428C92.4032 140.696 92.6415 141.075 92.7091 141.491C92.7767 141.906 92.6687 142.33 92.4061 142.679L91.0598 144.547L98.3174 140.406C99.1151 139.933 100.433 139.808 100.969 140.641C101.199 140.949 101.305 141.318 101.269 141.687C101.234 142.056 101.059 142.404 100.774 142.673C100.78 142.678 100.786 142.684 100.792 142.691C100.795 142.696 100.798 142.702 100.8 142.709L102.031 141.979C102.258 141.844 102.517 141.757 102.788 141.722C103.059 141.688 103.335 141.707 103.597 141.78C103.858 141.853 104.098 141.977 104.298 142.143C104.499 142.308 104.656 142.512 104.757 142.739C104.908 143.099 104.917 143.494 104.78 143.858C104.644 144.223 104.371 144.535 104.008 144.742L103.484 145.052C103.488 145.07 103.488 145.088 103.484 145.105C103.893 144.969 104.342 144.966 104.752 145.098C105.162 145.23 105.507 145.488 105.723 145.825C105.948 146.201 106.006 146.638 105.886 147.049C105.765 147.461 105.475 147.817 105.073 148.047L103.772 148.817C103.799 148.818 103.825 148.824 103.849 148.836C103.873 148.847 103.893 148.864 103.908 148.884C103.925 148.908 103.933 148.936 103.932 148.965C104.334 148.934 104.735 149.021 105.076 149.213C105.417 149.405 105.677 149.691 105.817 150.028C105.957 150.384 105.957 150.773 105.818 151.129C105.679 151.486 105.409 151.79 105.052 151.993L94.0776 158.496C92.5424 159.406 90.7373 159.886 88.8938 159.876C87.0503 159.865 85.2525 159.363 83.7308 158.435C82.4191 157.635 81.5089 156.411 81.1938 155.022C80.8786 153.633 81.1833 152.189 82.043 150.997L83.0866 149.545Z" fill="#E98862"/>
<g opacity="0.2">
<path d="M93.6147 146.802C93.6394 146.835 93.6776 146.858 93.7211 146.866C93.7646 146.874 93.8098 146.866 93.8471 146.844L100.744 142.899C100.782 142.877 100.808 142.843 100.818 142.804C100.828 142.765 100.819 142.724 100.795 142.69C100.771 142.656 100.732 142.633 100.688 142.624C100.644 142.616 100.598 142.623 100.561 142.645L93.6637 146.59C93.6449 146.601 93.6286 146.615 93.6159 146.631C93.6031 146.647 93.5941 146.666 93.5894 146.685C93.5846 146.704 93.5842 146.724 93.5881 146.744C93.5921 146.763 93.6004 146.782 93.6125 146.799L93.6147 146.802Z" fill="#0C0C0C"/>
</g>
<g opacity="0.2">
<path d="M95.4805 149.564C95.5052 149.596 95.5434 149.619 95.5869 149.627C95.6304 149.635 95.6756 149.628 95.7129 149.606L103.41 145.2C103.429 145.189 103.445 145.175 103.458 145.159C103.471 145.143 103.48 145.124 103.484 145.105C103.489 145.085 103.49 145.065 103.486 145.046C103.482 145.026 103.473 145.007 103.461 144.991C103.436 144.958 103.397 144.935 103.354 144.927C103.31 144.918 103.265 144.925 103.226 144.945L95.5278 149.35C95.5089 149.361 95.4926 149.374 95.4798 149.391C95.467 149.407 95.4579 149.425 95.4532 149.445C95.4484 149.464 95.448 149.484 95.452 149.504C95.4561 149.524 95.4644 149.542 95.4766 149.559L95.4805 149.564Z" fill="#0C0C0C"/>
</g>
<g opacity="0.2">
<path d="M97.4845 152.561C97.5091 152.594 97.5472 152.617 97.5906 152.625C97.6339 152.633 97.6791 152.625 97.7163 152.604L103.856 149.093C103.894 149.071 103.921 149.037 103.93 148.998C103.94 148.959 103.932 148.918 103.907 148.884C103.883 148.85 103.845 148.826 103.801 148.818C103.757 148.809 103.711 148.817 103.673 148.838L97.5329 152.35C97.514 152.36 97.4978 152.374 97.485 152.391C97.4723 152.407 97.4633 152.425 97.4586 152.445C97.4539 152.464 97.4535 152.484 97.4576 152.504C97.4617 152.523 97.47 152.542 97.4822 152.559L97.4845 152.561Z" fill="#0C0C0C"/>
</g>
<path d="M28.8877 135.418L57.9466 177.027L39.6919 174.381L82.1716 145.118L97.6511 162.979L55.1713 192.241C53.8566 193.147 52.3547 193.813 50.7514 194.201C49.148 194.59 47.4746 194.692 45.8266 194.504C44.1787 194.316 42.5885 193.84 41.1469 193.103C39.7052 192.367 38.4404 191.385 37.4246 190.213C37.3496 190.125 37.2746 190.036 37.1996 189.947L36.9149 189.596L4.78644 149.82L28.8877 135.418Z" fill="#21D0B3"/>
<path d="M20.6787 378.044C20.6787 378.044 22.7704 387.711 32.9231 388.25C43.0758 388.789 40.8738 396 40.8738 396H2.0802V378.719L20.6787 378.044Z" fill="#21D0B3"/>
<path d="M8.7123 201.699C8.7123 201.699 8.83439 198.793 8.80851 205.385C8.7123 229.974 8.23353 258.06 7.06444 274.495C5.18479 300.916 0.36499 384.214 0.36499 384.214L25.8587 384.023L50.5681 200.7L8.7123 201.699Z" fill="#262626"/>
<path d="M37.5017 230.694C37.5017 230.694 38.5583 248.538 38.7541 252.727C39.2075 262.416 39.3645 272.446 39.3645 283.819L43.3831 254.005C43.3831 254.005 40.4424 244.664 37.5017 230.694Z" fill="#0A0A0A"/>
<path d="M66.0652 378.044C66.0652 378.044 68.1569 387.711 78.309 388.25C88.4612 388.789 86.2597 396 86.2597 396H47.4633V378.719L66.0652 378.044Z" fill="#21D0B3"/>
<path d="M78.4086 203.608C78.4086 203.608 80.6668 287.647 80.336 291.754L70.8551 383.578L45.7828 383.991L48.2261 288.433C48.2261 288.433 46.5023 262.074 39.359 237.597C35.7041 225.034 33.5044 212.171 32.7946 199.208L78.4086 203.608Z" fill="#262626"/>
<path d="M8.43739 201.696L8.35413 201.7C8.35413 201.7 8.41207 200.267 8.43739 201.696Z" fill="#333333"/>
<path d="M81.9973 156.961C81.4718 162.468 78.9142 196.825 78.4085 203.608H8.74046C8.34664 197.489 6.58007 170.739 5.08749 158.776C3.66299 147.36 3.47001 141.451 5.51901 138.077C8.86704 132.559 15.4123 129.566 21.6505 128.813C25.4598 128.353 31.1888 128.024 31.1888 128.024C31.1888 128.024 31.6732 136.773 43.2403 137.259C58.9858 137.921 57.9349 128.023 58.0125 128.023C60.5633 128.023 73.4413 129.094 76.7257 131.347C83.7447 136.161 83.1135 145.291 81.9973 156.961Z" fill="#21D0B3"/>
<path d="M64.399 128.339C64.3259 128.331 62.3174 135.075 46.6276 134.026C35.7666 133.3 33.1184 126.709 32.8692 126.709C34.0405 126.487 35.9421 126.258 36.462 126.009C37.3605 125.64 38.1514 125.091 38.7729 124.405C39.3944 123.719 39.8298 122.914 40.0452 122.053C40.5358 120.379 40.7856 113.936 40.7856 110.703L57.4971 114.051C57.2641 117.698 55.6337 126.152 61.3486 127.648C62.3 127.895 63.3239 128.123 64.399 128.339Z" fill="#E98862"/>
<path d="M56.9193 121.22C50.3307 121.683 41.8669 119.204 40.2596 111.367L38.8092 104.295C37.2013 96.4578 40.515 89.3518 48.7914 88.0026C57.0679 86.6528 64.5572 91.9972 66.1646 99.834L66.8071 102.965C67.4237 105.975 68.6743 120.393 56.9193 121.22Z" fill="#E98862"/>
<path d="M63.0282 114.025C61.8468 108.727 61.3033 105.193 61.3663 101.464C63.0322 98.859 62.5939 95.869 62.2153 94.5775C63.3625 95.2269 64.7112 95.5352 66.0674 95.4577C66.0674 95.4577 63.3107 85.6011 53.9496 82.9487C52.228 82.3513 47.8318 81.5969 41.9948 82.3107C37.0299 82.9176 24.7922 86.2271 23.0436 98.5119V98.5189C22.9874 98.9262 21.811 110.244 19.4683 115.673C16.3177 122.973 11.8979 125.241 12.0099 133.663C12.1528 144.399 41.4339 145.521 47.9669 145.128C61.4412 144.317 68.9626 140.368 69.0599 132.56C69.1679 123.812 65.3945 124.624 63.0282 114.025Z" fill="#0A0A0A"/>
<path d="M175.874 78.1504H85.4743C83.9347 78.1504 82.6866 79.2631 82.6866 80.6357V146.7C82.6866 148.073 83.9347 149.186 85.4743 149.186H175.874C177.414 149.186 178.662 148.073 178.662 146.7V80.6357C178.662 79.2631 177.414 78.1504 175.874 78.1504Z" fill="white"/>
<path d="M175.873 149.563H85.4739C84.6239 149.562 83.8091 149.26 83.2081 148.724C82.6071 148.188 82.2687 147.462 82.267 146.704V80.6355C82.2681 79.8773 82.6062 79.1503 83.2073 78.614C83.8084 78.0776 84.6234 77.7755 85.4739 77.7739H175.873C176.724 77.7749 177.54 78.0766 178.142 78.613C178.744 79.1495 179.082 79.8768 179.083 80.6355V146.7C179.083 147.459 178.744 148.187 178.143 148.724C177.541 149.26 176.724 149.562 175.873 149.563ZM85.4739 78.5263C84.8471 78.5276 84.2466 78.7504 83.8037 79.1457C83.3608 79.541 83.1117 80.0767 83.1109 80.6355V146.7C83.1123 147.258 83.3617 147.794 83.8045 148.188C84.2473 148.583 84.8476 148.806 85.4739 148.807H175.873C176.5 148.806 177.101 148.584 177.545 148.189C177.988 147.795 178.238 147.259 178.239 146.7V80.6355C178.239 80.0762 177.989 79.5402 177.545 79.1448C177.102 78.7494 176.5 78.527 175.873 78.5263H85.4739Z" fill="#292A2E"/>
<path d="M138.258 149.545L144.538 140.836C144.676 140.644 144.857 140.481 145.07 140.355C145.282 140.23 145.522 140.145 145.774 140.107C146.025 140.068 146.283 140.077 146.531 140.132C146.778 140.188 147.01 140.288 147.212 140.428C147.574 140.696 147.813 141.075 147.881 141.491C147.948 141.906 147.84 142.33 147.578 142.679L146.231 144.547L153.488 140.406C154.286 139.933 155.605 139.808 156.141 140.641C156.37 140.949 156.476 141.318 156.441 141.687C156.405 142.056 156.23 142.404 155.945 142.673C155.952 142.678 155.958 142.684 155.963 142.691C155.966 142.697 155.969 142.703 155.971 142.709L157.202 141.979C157.43 141.844 157.689 141.757 157.959 141.722C158.23 141.688 158.507 141.707 158.768 141.78C159.029 141.853 159.269 141.977 159.469 142.143C159.67 142.308 159.827 142.512 159.928 142.739C160.079 143.099 160.088 143.494 159.951 143.858C159.815 144.223 159.542 144.535 159.179 144.742L158.655 145.052C158.659 145.07 158.659 145.088 158.655 145.105C159.064 144.969 159.513 144.966 159.923 145.098C160.333 145.23 160.677 145.488 160.894 145.825C161.119 146.201 161.177 146.638 161.056 147.049C160.936 147.461 160.645 147.817 160.243 148.047L158.942 148.817C158.969 148.818 158.996 148.824 159.02 148.836C159.043 148.847 159.063 148.864 159.079 148.884C159.095 148.908 159.104 148.936 159.103 148.965C159.504 148.934 159.906 149.021 160.247 149.213C160.587 149.405 160.848 149.691 160.988 150.028C161.127 150.384 161.128 150.773 160.989 151.129C160.85 151.486 160.58 151.79 160.222 151.993L149.248 158.496C147.713 159.406 145.908 159.886 144.064 159.876C142.221 159.865 140.423 159.363 138.901 158.435C137.59 157.635 136.68 156.411 136.364 155.022C136.049 153.633 136.354 152.189 137.214 150.997L138.258 149.545Z" fill="#E98862"/>
<g opacity="0.2">
<path d="M148.784 146.802C148.809 146.835 148.847 146.858 148.89 146.866C148.934 146.874 148.979 146.866 149.016 146.844L155.913 142.899C155.932 142.888 155.948 142.874 155.961 142.858C155.974 142.842 155.983 142.823 155.987 142.804C155.992 142.784 155.992 142.764 155.989 142.745C155.985 142.725 155.976 142.707 155.964 142.69C155.952 142.673 155.937 142.659 155.918 142.648C155.9 142.636 155.879 142.628 155.858 142.624C155.836 142.62 155.813 142.619 155.792 142.623C155.77 142.627 155.749 142.634 155.73 142.645L148.833 146.59C148.814 146.601 148.798 146.615 148.785 146.631C148.773 146.647 148.763 146.666 148.759 146.685C148.754 146.704 148.754 146.724 148.758 146.744C148.761 146.763 148.77 146.782 148.782 146.799L148.784 146.802Z" fill="#0C0C0C"/>
</g>
<g opacity="0.2">
<path d="M150.652 149.564C150.676 149.596 150.715 149.619 150.758 149.627C150.802 149.635 150.847 149.628 150.884 149.606L158.581 145.2C158.6 145.189 158.616 145.175 158.629 145.159C158.642 145.143 158.651 145.124 158.656 145.105C158.66 145.085 158.661 145.065 158.657 145.046C158.653 145.026 158.644 145.007 158.632 144.991C158.607 144.958 158.568 144.935 158.525 144.927C158.481 144.918 158.436 144.925 158.398 144.945L150.701 149.348C150.682 149.359 150.665 149.373 150.653 149.389C150.64 149.406 150.631 149.424 150.626 149.443C150.621 149.463 150.621 149.483 150.625 149.503C150.629 149.522 150.637 149.541 150.649 149.558L150.652 149.564Z" fill="#0C0C0C"/>
</g>
<g opacity="0.2">
<path d="M152.655 152.561C152.68 152.594 152.718 152.617 152.762 152.625C152.805 152.633 152.85 152.625 152.887 152.604L159.027 149.093C159.065 149.071 159.092 149.037 159.101 148.998C159.111 148.959 159.103 148.918 159.078 148.884C159.054 148.85 159.016 148.826 158.972 148.818C158.928 148.809 158.882 148.817 158.844 148.838L152.704 152.35C152.686 152.36 152.669 152.374 152.656 152.39C152.644 152.407 152.635 152.425 152.63 152.445C152.625 152.464 152.625 152.484 152.629 152.504C152.633 152.523 152.641 152.542 152.653 152.559L152.655 152.561Z" fill="#0C0C0C"/>
</g>
<path d="M78.7814 133.439L112.73 176.54L94.8639 174.381L137.343 145.118L152.823 162.979L110.343 192.242C107.718 194.05 104.402 194.867 101.109 194.517C97.8153 194.167 94.8076 192.678 92.7334 190.371L92.4746 190.082L55.5724 148.958L78.7814 133.439Z" fill="#21D0B3"/>
<path d="M158.005 122.233H107.235C108.354 120.673 109.523 119.023 110.647 117.339C115.067 118.046 120.522 115.733 126.887 110.446C128.023 112.937 130.723 117.387 135.535 117.45H135.637C138.168 117.45 140.729 116.205 143.424 113.652C144.781 115.286 148.37 117.45 157.871 117.45C158.18 117.45 158.473 117.367 158.687 117.217C158.901 117.068 159.018 116.865 159.012 116.653C159.006 116.442 158.878 116.239 158.655 116.09C158.433 115.94 158.135 115.856 157.827 115.856C145.364 115.856 144.931 112.022 144.927 111.87C144.921 111.699 144.836 111.532 144.682 111.394C144.528 111.257 144.315 111.156 144.073 111.107C143.832 111.059 143.575 111.064 143.342 111.123C143.109 111.183 142.911 111.292 142.778 111.436C139.419 115.079 137.022 115.856 135.586 115.856H135.534C131.754 115.806 129.198 110.571 128.534 108.56C128.484 108.414 128.375 108.279 128.219 108.172C128.063 108.065 127.867 107.99 127.654 107.955C127.441 107.919 127.218 107.926 127.013 107.974C126.807 108.021 126.626 108.108 126.49 108.224C120.551 113.459 115.358 116.105 111.648 115.836C118.386 105.394 120.485 98.5502 117.87 95.4832C117.122 94.5943 115.552 93.5361 112.416 93.5361C108.399 93.5361 105.122 96.4079 103.647 101.217C102.724 104.255 102.66 107.398 103.459 110.475C104.311 113.523 106.043 115.667 108.484 116.723C107.207 118.636 105.888 120.51 104.616 122.239H97.5508C97.2424 122.239 96.9491 122.323 96.7352 122.473C96.5214 122.622 96.4046 122.825 96.4105 123.036C96.4164 123.248 96.5446 123.451 96.7668 123.6C96.989 123.75 97.2871 123.834 97.5954 123.834H103.437C99.8317 128.65 96.8777 132.14 96.8326 132.192C96.7565 132.281 96.7072 132.381 96.6875 132.485C96.6678 132.588 96.6782 132.694 96.718 132.795C96.7579 132.897 96.8264 132.993 96.9196 133.077C97.0129 133.161 97.129 133.232 97.2615 133.286C97.4449 133.359 97.6531 133.396 97.8632 133.393C98.0639 133.393 98.2602 133.358 98.433 133.29C98.6059 133.222 98.7493 133.125 98.8493 133.007C98.8943 132.953 102.183 129.071 106.068 123.828H158.05C158.358 123.828 158.652 123.744 158.866 123.594C159.079 123.445 159.196 123.242 159.19 123.031C159.184 122.819 159.056 122.616 158.834 122.467C158.612 122.317 158.314 122.233 158.005 122.233ZM105.741 110.198C105.005 107.33 105.07 104.402 105.932 101.571C106.883 98.4585 109.097 95.1304 112.46 95.1304C114.646 95.1304 115.452 95.7801 115.866 96.2664C118.715 99.5944 113.435 109.08 109.446 115.258C107.725 114.399 106.425 112.634 105.741 110.198Z" fill="black"/>
</svg>
