<svg width="337" height="319" viewBox="0 0 337 319" fill="none" xmlns="http://www.w3.org/2000/svg">
<path d="M27.0785 318.723L26.2031 318.567L39.8858 192.933L40.7613 193.088L27.0785 318.723Z" fill="#494949"/>
<path d="M78.027 318.723L77.1516 318.567L90.8339 192.933L91.7093 193.088L78.027 318.723Z" fill="#494949"/>
<path d="M190.645 318.723L191.521 318.567L177.838 192.933L176.962 193.088L190.645 318.723Z" fill="#494949"/>
<path d="M139.697 318.723L140.572 318.567L126.89 192.933L126.014 193.088L139.697 318.723Z" fill="#494949"/>
<path d="M121.552 137.64L120.668 137.75L128.661 193.066L129.545 192.957L121.552 137.64Z" fill="#494949"/>
<path d="M29.8049 137.64L28.9213 137.749L36.9144 193.065L37.7981 192.956L29.8049 137.64Z" fill="#494949"/>
<path d="M129.468 188.959H39.7289C37.3077 188.959 35.345 190.773 35.345 193.01V193.011C35.345 195.248 37.3077 197.061 39.7289 197.061H129.468C131.889 197.061 133.852 195.248 133.852 193.011V193.01C133.852 190.773 131.889 188.959 129.468 188.959Z" fill="#292A2E"/>
<path opacity="0.8" d="M129.468 188.959H39.7289C37.3077 188.959 35.345 190.773 35.345 193.01V193.011C35.345 195.248 37.3077 197.061 39.7289 197.061H129.468C131.889 197.061 133.852 195.248 133.852 193.011V193.01C133.852 190.773 131.889 188.959 129.468 188.959Z" fill="white"/>
<path d="M129.468 197.473H39.7294C39.0951 197.473 38.4671 197.357 37.8811 197.133C37.2952 196.909 36.7627 196.58 36.3143 196.166C35.8658 195.751 35.51 195.259 35.2673 194.718C35.0246 194.176 34.8997 193.596 34.8997 193.01C34.8997 192.424 35.0246 191.844 35.2673 191.302C35.51 190.761 35.8658 190.269 36.3143 189.854C36.7627 189.44 37.2952 189.111 37.8811 188.887C38.4671 188.663 39.0951 188.547 39.7294 188.547H129.468C130.102 188.547 130.73 188.663 131.316 188.887C131.902 189.111 132.434 189.44 132.883 189.854C133.331 190.269 133.687 190.761 133.93 191.302C134.172 191.844 134.297 192.424 134.297 193.01C134.297 193.596 134.172 194.176 133.93 194.718C133.687 195.259 133.331 195.751 132.883 196.166C132.434 196.58 131.902 196.909 131.316 197.133C130.73 197.357 130.102 197.473 129.468 197.473ZM39.7294 189.371C39.2122 189.371 38.7001 189.465 38.2223 189.648C37.7445 189.831 37.3103 190.099 36.9446 190.437C36.5789 190.775 36.2889 191.176 36.0909 191.617C35.893 192.059 35.7912 192.532 35.7912 193.01C35.7912 193.488 35.893 193.961 36.0909 194.403C36.2889 194.844 36.5789 195.245 36.9446 195.583C37.3103 195.921 37.7445 196.189 38.2223 196.372C38.7001 196.555 39.2122 196.649 39.7294 196.649H129.468C129.985 196.649 130.497 196.555 130.975 196.372C131.452 196.189 131.887 195.921 132.252 195.583C132.618 195.245 132.908 194.844 133.106 194.403C133.304 193.961 133.406 193.488 133.406 193.01C133.406 192.532 133.304 192.059 133.106 191.617C132.908 191.176 132.618 190.775 132.252 190.437C131.887 190.099 131.452 189.831 130.975 189.648C130.497 189.465 129.985 189.371 129.468 189.371H39.7294Z" fill="#292A2E"/>
<path d="M178.721 188.959H88.9827C86.5615 188.959 84.5987 190.773 84.5987 193.01V193.011C84.5987 195.248 86.5615 197.061 88.9827 197.061H178.721C181.143 197.061 183.105 195.248 183.105 193.011V193.01C183.105 190.773 181.143 188.959 178.721 188.959Z" fill="white"/>
<path d="M178.721 197.473H88.9827C88.3484 197.473 87.7204 197.357 87.1344 197.133C86.5485 196.909 86.016 196.58 85.5675 196.166C85.1191 195.751 84.7633 195.259 84.5206 194.718C84.2779 194.176 84.153 193.596 84.153 193.01C84.153 192.424 84.2779 191.844 84.5206 191.302C84.7633 190.761 85.1191 190.269 85.5675 189.854C86.016 189.44 86.5485 189.111 87.1344 188.887C87.7204 188.663 88.3484 188.547 88.9827 188.547H178.721C179.356 188.547 179.984 188.663 180.57 188.887C181.156 189.111 181.688 189.44 182.136 189.854C182.585 190.269 182.941 190.761 183.183 191.302C183.426 191.844 183.551 192.424 183.551 193.01C183.551 193.596 183.426 194.176 183.183 194.718C182.941 195.259 182.585 195.751 182.136 196.166C181.688 196.58 181.156 196.909 180.57 197.133C179.984 197.357 179.356 197.473 178.721 197.473ZM88.9827 189.371C88.4655 189.371 87.9534 189.465 87.4756 189.648C86.9978 189.831 86.5636 190.099 86.1979 190.437C85.8322 190.775 85.5421 191.176 85.3442 191.617C85.1463 192.059 85.0445 192.532 85.0445 193.01C85.0445 193.488 85.1463 193.961 85.3442 194.403C85.5421 194.844 85.8322 195.245 86.1979 195.583C86.5636 195.921 86.9978 196.189 87.4756 196.372C87.9534 196.555 88.4655 196.649 88.9827 196.649H178.721C179.239 196.649 179.751 196.555 180.228 196.372C180.706 196.189 181.14 195.921 181.506 195.583C181.872 195.245 182.162 194.844 182.36 194.403C182.558 193.961 182.66 193.488 182.66 193.01C182.66 192.532 182.558 192.059 182.36 191.617C182.162 191.176 181.872 190.775 181.506 190.437C181.14 190.099 180.706 189.831 180.228 189.648C179.751 189.465 179.239 189.371 178.721 189.371H88.9827Z" fill="#292A2E"/>
<path d="M116.635 137.694H29.6036C28.1807 137.694 26.8064 137.215 25.7372 136.348C24.668 135.48 23.9771 134.283 23.7933 132.979L18.0364 92.1294C17.9288 91.3658 17.9988 90.5897 18.2416 89.853C18.4844 89.1164 18.8945 88.436 19.4445 87.8575C19.9945 87.2789 20.6718 86.8154 21.4311 86.4979C22.1904 86.1804 23.0142 86.0162 23.8477 86.0164H110.878C112.301 86.0163 113.676 86.4948 114.745 87.3623C115.814 88.2299 116.505 89.4273 116.689 90.7311L122.445 131.581C122.553 132.344 122.483 133.12 122.24 133.857C121.998 134.594 121.588 135.274 121.038 135.852C120.488 136.431 119.811 136.895 119.052 137.212C118.292 137.53 117.469 137.694 116.635 137.694Z" fill="#292A2E"/>
<path opacity="0.8" d="M116.635 137.694H29.6036C28.1807 137.694 26.8064 137.215 25.7372 136.348C24.668 135.48 23.9771 134.283 23.7933 132.979L18.0364 92.1294C17.9288 91.3658 17.9988 90.5897 18.2416 89.853C18.4844 89.1164 18.8945 88.436 19.4445 87.8575C19.9945 87.2789 20.6718 86.8154 21.4311 86.4979C22.1904 86.1804 23.0142 86.0162 23.8477 86.0164H110.878C112.301 86.0163 113.676 86.4948 114.745 87.3623C115.814 88.2299 116.505 89.4273 116.689 90.7311L122.445 131.581C122.553 132.344 122.483 133.12 122.24 133.857C121.998 134.594 121.588 135.274 121.038 135.852C120.488 136.431 119.811 136.895 119.052 137.212C118.292 137.53 117.469 137.694 116.635 137.694Z" fill="white"/>
<path d="M116.635 138.106H29.6037C28.0734 138.102 26.5963 137.586 25.4465 136.653C24.2966 135.72 23.5521 134.434 23.3511 133.032L17.5947 92.1825C17.4788 91.3607 17.5539 90.5256 17.8152 89.7328C18.0764 88.9401 18.5176 88.2079 19.1095 87.5853C19.7013 86.9626 20.4301 86.4638 21.2472 86.1222C22.0643 85.7805 22.9508 85.6039 23.8477 85.604H110.878C112.409 85.6071 113.886 86.1231 115.036 87.0562C116.185 87.9893 116.93 89.2761 117.131 90.6779L122.887 131.528C123.003 132.349 122.928 133.184 122.667 133.977C122.406 134.77 121.964 135.502 121.373 136.124C120.781 136.747 120.052 137.246 119.235 137.587C118.418 137.929 117.532 138.106 116.635 138.106ZM23.8477 86.4278C23.0777 86.4278 22.3167 86.5795 21.6153 86.8729C20.9138 87.1663 20.2882 87.5946 19.7802 88.1292C19.2721 88.6637 18.8933 89.2922 18.669 89.9728C18.4447 90.6534 18.3801 91.3703 18.4795 92.0758L24.2364 132.926C24.4088 134.129 25.048 135.234 26.0352 136.035C27.0224 136.836 28.2907 137.279 29.6046 137.282H116.635C117.405 137.282 118.166 137.13 118.867 136.836C119.569 136.543 120.194 136.115 120.702 135.58C121.21 135.046 121.589 134.417 121.813 133.737C122.037 133.056 122.102 132.339 122.002 131.634L116.247 90.7846C116.074 89.581 115.435 88.4762 114.448 87.6751C113.46 86.874 112.192 86.4309 110.878 86.4282L23.8477 86.4278Z" fill="#292A2E"/>
<path d="M121.556 137.694H34.5248C33.1019 137.694 31.7276 137.215 30.6585 136.348C29.5894 135.48 28.8986 134.283 28.7149 132.979L22.9562 92.1294C22.8486 91.3658 22.9185 90.5898 23.1613 89.8532C23.4041 89.1166 23.8141 88.4363 24.364 87.8578C24.9139 87.2792 25.5911 86.8157 26.3503 86.4981C27.1095 86.1806 27.9332 86.0164 28.7666 86.0164H115.8C117.223 86.0164 118.597 86.4948 119.666 87.3624C120.735 88.2299 121.426 89.4274 121.61 90.7311L127.367 131.581C127.474 132.344 127.404 133.12 127.162 133.857C126.919 134.594 126.509 135.274 125.959 135.852C125.409 136.431 124.732 136.895 123.973 137.212C123.214 137.53 122.39 137.694 121.556 137.694Z" fill="white"/>
<path d="M121.556 138.106H34.5248C32.9945 138.102 31.5175 137.586 30.3677 136.653C29.218 135.72 28.4736 134.434 28.2726 133.032L22.5158 92.1825C22.4 91.3608 22.4753 90.5257 22.7365 89.7331C22.9978 88.9404 23.439 88.2083 24.0307 87.5857C24.6225 86.9631 25.3512 86.4643 26.1681 86.1226C26.9851 85.7808 27.8715 85.604 28.7683 85.604H115.799C117.33 85.6072 118.807 86.1232 119.957 87.0563C121.107 87.9894 121.851 89.2761 122.052 90.6779L127.809 131.528C127.925 132.349 127.849 133.184 127.588 133.977C127.327 134.77 126.886 135.502 126.294 136.124C125.702 136.747 124.973 137.245 124.156 137.587C123.34 137.929 122.453 138.106 121.556 138.106ZM28.7683 86.4278C27.9985 86.4281 27.2376 86.5801 26.5364 86.8736C25.8352 87.1672 25.2098 87.5955 24.702 88.13C24.1941 88.6646 23.8155 89.2931 23.5913 89.9735C23.3671 90.654 23.3025 91.3709 23.4019 92.0762L29.1566 132.926C29.3292 134.129 29.9684 135.234 30.9556 136.035C31.9428 136.836 33.2109 137.279 34.5248 137.282H121.556C122.326 137.282 123.087 137.13 123.789 136.837C124.49 136.543 125.116 136.115 125.624 135.581C126.132 135.046 126.511 134.417 126.735 133.737C126.959 133.056 127.024 132.339 126.925 131.634L121.168 90.7846C120.995 89.581 120.356 88.4761 119.369 87.675C118.382 86.8738 117.113 86.4308 115.799 86.4282L28.7683 86.4278Z" fill="#292A2E"/>
<path d="M189.209 147.021L188.322 147.104L207.113 318.999L208 318.916L189.209 147.021Z" fill="#494949"/>
<path d="M112.177 23.3043C112.177 23.3043 117.961 19.2708 119.394 9.9863C120.503 2.79785 113.327 7.45492 113.327 7.45492C113.327 7.45492 114.071 2.27147 109.983 2.78591C105.896 3.30034 103.609 8.74532 103.609 8.74532" fill="#0C0C0C"/>
<path d="M88.8596 3.39258C88.8596 3.39258 68.5802 5.40294 75.9115 30.7926L77.7061 30.9038L81.3487 31.1295" fill="#0C0C0C"/>
<path d="M108.781 57.3099C108.692 57.2992 107.702 72.4668 88.6301 71.146C75.4269 70.232 70.7194 57.2884 70.4167 57.2884C71.8404 57.0092 73.5994 56.5845 74.2987 56.4391C75.8224 56.1123 77.2023 55.3646 78.2548 54.2954C79.3073 53.2262 79.9825 51.8862 80.1907 50.4538C80.5771 48.3038 79.9232 37.3035 80.1234 35.1279L100.39 39.3076C100.107 43.9025 98.125 54.554 105.071 56.4391C106.228 56.7509 107.473 57.0376 108.781 57.3099Z" fill="#E98862"/>
<path opacity="0.52" d="M100.675 52.086C100.358 51.1406 100.153 50.166 100.065 49.1794C99.8429 46.9283 99.8878 44.6615 100.199 42.4193C96.0798 41.9057 92.1991 40.3348 88.9978 37.885C88.6216 39.1692 86.552 44.7806 87.1256 46.001C88.2066 48.3083 93.2957 52.086 100.675 52.086Z" fill="#0C0C0C"/>
<path d="M96.4923 49.0839C88.4964 48.4212 78.9265 43.7534 78.7888 33.7246L78.664 24.6757C78.5262 14.6474 84.1146 6.45069 94.3339 6.33042C104.553 6.21057 112.303 14.2504 112.441 24.2791L112.496 28.285C112.489 29.6608 112.38 31.0346 112.171 32.3968C111.647 36.0007 110.834 41.4798 108.187 45.1863C105.688 48.6856 101.6 49.5069 96.4923 49.0839Z" fill="#E98862"/>
<path d="M100.202 39.918C101.852 39.9872 103.496 39.6969 105.003 39.0708C105.034 39.0585 105.062 39.0407 105.086 39.0184C105.109 38.996 105.128 38.9696 105.141 38.9405C105.153 38.9115 105.16 38.8805 105.159 38.8492C105.159 38.8179 105.152 38.787 105.139 38.7582C105.125 38.7294 105.106 38.7034 105.082 38.6815C105.058 38.6596 105.029 38.6423 104.998 38.6307C104.966 38.619 104.932 38.6132 104.899 38.6135C104.865 38.6138 104.831 38.6203 104.8 38.6326C101.555 39.9115 98.6083 39.7241 96.2788 38.091C96.2318 38.0565 96.1829 38.0245 96.1321 37.995C96.0736 37.9699 96.007 37.966 95.9455 37.9841C95.884 38.0021 95.832 38.0408 95.7999 38.0925C95.7677 38.1442 95.7576 38.2051 95.7717 38.2633C95.7858 38.3215 95.8229 38.3727 95.8758 38.4069C95.8945 38.4176 95.9244 38.4394 95.9649 38.4695C97.1897 39.3312 98.665 39.8356 100.202 39.918Z" fill="#0C0C0C"/>
<path d="M100.125 42.1764C100.423 42.1934 100.722 42.1868 101.019 42.1567C101.087 42.15 101.149 42.1187 101.192 42.0695C101.235 42.0204 101.255 41.9575 101.248 41.8947C101.241 41.8319 101.207 41.7743 101.154 41.7346C101.101 41.6949 101.032 41.6764 100.964 41.683C99.1784 41.8585 98.3261 41.1023 98.29 41.0697C98.2417 41.025 98.1761 40.9998 98.1078 40.9998C98.0394 40.9997 97.9738 41.0247 97.9254 41.0693C97.8769 41.114 97.8497 41.1745 97.8496 41.2377C97.8495 41.3009 97.8766 41.3615 97.9249 41.4062C98.5398 41.8901 99.3171 42.1622 100.125 42.1764Z" fill="#0C0C0C"/>
<path d="M109.066 30.2135C109.761 30.2135 110.325 29.6927 110.325 29.0503C110.325 28.408 109.761 27.8872 109.066 27.8872C108.371 27.8872 107.807 28.408 107.807 29.0503C107.807 29.6927 108.371 30.2135 109.066 30.2135Z" fill="#0C0C0C"/>
<path d="M96.7686 29.5006C97.4638 29.5006 98.0274 28.9798 98.0274 28.3375C98.0274 27.6951 97.4638 27.1743 96.7686 27.1743C96.0734 27.1743 95.5098 27.6951 95.5098 28.3375C95.5098 28.9798 96.0734 29.5006 96.7686 29.5006Z" fill="#0C0C0C"/>
<path d="M79.4654 36.7725C76.3599 36.8092 73.8004 33.7687 73.7598 30.8992C73.7193 28.0297 76.2159 26.4176 79.3215 26.3813L80.948 28.285L82.1346 36.7412L79.4654 36.7725Z" fill="#E98862"/>
<path d="M82.5532 32.1617C82.5532 32.1617 83.602 17.9713 88.2588 17.0949C91.3603 16.5112 98.8815 20.5764 105.848 19.3486C108.896 18.8132 111.789 19.5085 112.083 20.8388C112.2 21.3656 114.099 13.7957 109.326 8.05257C105.526 3.4787 93.0903 2.18747 87.4328 3.68669C71.7678 7.83922 78.6805 27.0058 78.6805 27.0058L79.379 31.8981L82.5532 32.1617Z" fill="#0C0C0C"/>
<path d="M102.077 36.5682H102.097C103.098 36.5588 104.775 36.4402 104.769 35.7482C104.762 35.1749 102.997 29.0038 102.795 28.3019C102.775 28.2436 102.732 28.1945 102.675 28.1649C102.617 28.1353 102.549 28.1275 102.486 28.1431C102.422 28.1587 102.367 28.1966 102.333 28.2487C102.299 28.3008 102.288 28.3631 102.302 28.4226C103.086 31.1558 104.254 35.3635 104.259 35.754C104.162 35.9187 103.129 36.0884 102.092 36.0983C102.027 36.0996 101.965 36.124 101.918 36.1665C101.872 36.2091 101.845 36.2664 101.843 36.3268C101.841 36.3872 101.864 36.4459 101.908 36.491C101.951 36.536 102.012 36.5638 102.077 36.5687V36.5682Z" fill="#0C0C0C"/>
<path d="M105.493 22.7429C106.545 22.4754 107.655 22.4754 108.707 22.7429C109.224 22.8712 109.717 23.0705 110.169 23.3343C110.617 23.5925 111.027 23.902 111.39 24.2553C111.46 24.3176 111.5 24.4026 111.503 24.4922C111.505 24.5817 111.47 24.6687 111.404 24.7344C111.338 24.8001 111.247 24.8393 111.15 24.8437C111.053 24.848 110.959 24.8172 110.886 24.7577L110.863 24.7396C110.527 24.4519 110.152 24.2043 109.749 24.0028C109.353 23.8025 108.927 23.6586 108.484 23.5761C107.613 23.4073 106.71 23.4541 105.865 23.7116L105.829 23.7231C105.69 23.7687 105.536 23.7612 105.403 23.7023C105.269 23.6434 105.167 23.5379 105.117 23.4091C105.068 23.2802 105.076 23.1386 105.14 23.0152C105.204 22.8919 105.318 22.7971 105.457 22.7515L105.493 22.7429Z" fill="#0C0C0C"/>
<path d="M98.0457 23.3273C97.2455 22.9679 96.3566 22.8103 95.4693 22.8705C95.0189 22.8976 94.5755 22.9875 94.1543 23.1374C93.7261 23.2876 93.32 23.4869 92.9454 23.7305L92.9214 23.7453C92.841 23.793 92.7438 23.8101 92.6501 23.7933C92.5563 23.7764 92.4732 23.7268 92.418 23.6548C92.3628 23.5828 92.3397 23.4939 92.3536 23.4066C92.3675 23.3193 92.4173 23.2403 92.4926 23.186C92.9037 22.8805 93.355 22.6242 93.8356 22.4232C94.3222 22.2179 94.8394 22.081 95.3699 22.0171C96.4509 21.8809 97.5516 22.0172 98.5557 22.4117C98.6916 22.4663 98.7985 22.5686 98.8529 22.696C98.9072 22.8235 98.9045 22.9657 98.8454 23.0913C98.7863 23.2169 98.6756 23.3157 98.5377 23.3659C98.3997 23.4161 98.2459 23.4136 98.1099 23.359L98.0792 23.3454L98.0457 23.3273Z" fill="#0C0C0C"/>
<path d="M103.996 12.9748C106.295 12.531 107.586 9.63697 106.879 6.51076C106.172 3.38455 103.735 1.21 101.437 1.65377C99.1379 2.09753 97.8475 4.99157 98.5543 8.11777C99.2612 11.244 101.698 13.4185 103.996 12.9748Z" fill="#0C0C0C"/>
<path d="M232.201 297.274C232.201 297.274 234.591 308.721 246.191 309.359C257.79 309.997 255.275 318.536 255.275 318.536H210.948V298.072L232.201 297.274Z" fill="#21D0B3"/>
<path d="M147.87 290.046C147.87 290.046 144.546 301.293 154.65 306.596C164.754 311.899 158.418 318.535 158.418 318.535L118.643 300.454L128.418 282.092L147.87 290.046Z" fill="#21D0B3"/>
<path d="M123.235 286.869L156.777 189.094H95.977C83.7634 189.094 78.672 179.524 78.672 168.24C78.672 156.955 90.6788 147.063 102.891 147.063H184.95C192.399 147.063 200.751 151.272 204.84 157.026C208.928 162.78 207.823 171.696 204.861 178.012L151.148 298.553" fill="#262626"/>
<path opacity="0.8" d="M123.235 286.869L156.777 189.094H95.977C83.7634 189.094 78.672 179.524 78.672 168.24C78.672 156.955 90.6788 147.063 102.891 147.063H184.95C192.399 147.063 200.751 151.272 204.84 157.026C208.928 162.78 207.823 171.696 204.861 178.012L151.148 298.553" fill="#0A0A0A"/>
<path d="M208.399 307.905L152.313 189.094L78.6711 189.09C61.4156 187.84 53.5129 179.102 53.7643 167.82C54.0121 156.681 60.1162 145.678 72.1172 145.678H171.374C180.253 145.847 187.239 154.914 190.533 162.534L237.158 300.631" fill="#262626"/>
<path d="M48.7416 145.815C48.7416 145.815 45.4711 165.521 50.6552 176.477C57.127 190.156 81.3884 189.09 81.3884 189.09L80.0213 145.678L48.7416 145.815Z" fill="#262626"/>
<path d="M192.643 145.427L140.624 135.467C138.456 135.052 136.437 134.138 134.753 132.811C133.069 131.484 131.774 129.785 130.988 127.873L110.528 78.0552C109.905 76.5601 109.608 74.966 109.654 73.3644C109.7 71.7629 110.088 70.1855 110.795 68.7228C111.502 67.2601 112.516 65.941 113.776 64.8412C115.037 63.7414 116.521 62.8827 118.142 62.3142C119.763 61.7458 121.49 61.4789 123.223 61.5289C124.956 61.5788 126.661 61.9447 128.24 62.6054C129.82 63.2661 131.243 64.2087 132.427 65.379C133.611 66.5493 134.533 67.9242 135.141 69.4248L153.038 113.001L197.986 121.607C197.986 121.607 193.545 145.599 192.643 145.427Z" fill="#21D0B3"/>
<path d="M132.477 90.706C131.877 97.2272 127.619 137.911 127.039 145.943H48.7759C48.3261 138.699 46.8663 107.941 45.1609 93.7748C43.5334 80.2563 42.9428 72.5419 44.8176 68.3412C48.1242 60.9315 56.3987 58.2655 63.5263 57.3738C67.8781 56.8297 74.424 56.4392 74.424 56.4392C74.424 56.4392 74.9785 66.7991 88.1941 67.3757C106.184 68.1583 104.983 56.4392 105.072 56.4392C107.986 56.4392 123.851 58.3977 127.817 60.7866C133.421 64.161 135.076 68.7592 135.142 72.9838C135.217 77.8485 133.158 83.3103 132.477 90.706Z" fill="#21D0B3"/>
<path d="M129.402 123.949H129.383C129.354 123.947 129.325 123.939 129.299 123.927C129.273 123.915 129.25 123.898 129.231 123.877C129.212 123.856 129.198 123.832 129.189 123.807C129.18 123.781 129.177 123.754 129.179 123.727L131.211 101.175C131.213 101.148 131.22 101.121 131.233 101.097C131.246 101.072 131.265 101.051 131.287 101.033C131.31 101.016 131.336 101.002 131.364 100.994C131.392 100.986 131.422 100.984 131.451 100.987C131.48 100.989 131.509 100.997 131.535 101.009C131.561 101.021 131.584 101.038 131.603 101.059C131.622 101.08 131.636 101.104 131.645 101.129C131.654 101.155 131.657 101.182 131.655 101.209L129.623 123.761C129.618 123.812 129.593 123.86 129.552 123.895C129.511 123.93 129.457 123.949 129.402 123.949Z" fill="#0C0C0C"/>
<path d="M166.675 137.484L183.847 88.7084C184.149 87.8512 184.736 87.1043 185.526 86.5747C186.315 86.045 187.265 85.7597 188.241 85.7598H262.66C263.389 85.7597 264.108 85.9192 264.758 86.2252C265.408 86.5311 265.97 86.9749 266.399 87.5202C266.827 88.0654 267.11 88.6966 267.224 89.3622C267.338 90.0279 267.279 90.7089 267.054 91.3497L245.424 140.127C245.122 140.984 244.535 141.731 243.745 142.261C242.956 142.791 242.006 143.076 241.03 143.076H171.069C170.339 143.076 169.62 142.916 168.97 142.61C168.32 142.304 167.758 141.86 167.329 141.315C166.901 140.77 166.618 140.138 166.504 139.472C166.39 138.806 166.449 138.125 166.675 137.484Z" fill="#292A2E"/>
<path d="M166.675 137.484L183.847 88.7084C184.149 87.8512 184.736 87.1043 185.526 86.5747C186.315 86.045 187.265 85.7597 188.241 85.7598H262.66C263.389 85.7597 264.108 85.9192 264.758 86.2252C265.408 86.5311 265.97 86.9749 266.399 87.5202C266.827 88.0654 267.11 88.6966 267.224 89.3622C267.338 90.0279 267.279 90.7089 267.054 91.3497L245.424 140.127C245.122 140.984 244.535 141.731 243.745 142.261C242.956 142.791 242.006 143.076 241.03 143.076H171.069C170.339 143.076 169.62 142.916 168.97 142.61C168.32 142.304 167.758 141.86 167.329 141.315C166.901 140.77 166.618 140.138 166.504 139.472C166.39 138.806 166.449 138.125 166.675 137.484Z" fill="#292A2E"/>
<path d="M180.683 139.119H133.851C132.684 139.119 131.738 139.993 131.738 141.071V141.122C131.738 142.2 132.684 143.074 133.851 143.074H180.683C181.85 143.074 182.796 142.2 182.796 141.122V141.071C182.796 139.993 181.85 139.119 180.683 139.119Z" fill="#292A2E"/>
<path d="M180.683 139.119H133.851C132.684 139.119 131.738 139.993 131.738 141.071V141.122C131.738 142.2 132.684 143.074 133.851 143.074H180.683C181.85 143.074 182.796 142.2 182.796 141.122V141.071C182.796 139.993 181.85 139.119 180.683 139.119Z" fill="#292A2E"/>
<path d="M214.635 123.576C218.688 123.576 221.973 120.541 221.973 116.796C221.973 113.052 218.688 110.017 214.635 110.017C210.583 110.017 207.298 113.052 207.298 116.796C207.298 120.541 210.583 123.576 214.635 123.576Z" fill="white"/>
<path d="M162.76 126.058L151.072 122.273L152.75 122.166C153.291 122.121 153.794 121.889 154.156 121.515C154.518 121.141 154.714 120.654 154.702 120.153C154.687 119.894 154.615 119.641 154.49 119.409C154.365 119.177 154.19 118.971 153.976 118.803C153.762 118.636 153.514 118.51 153.246 118.434C152.977 118.359 152.695 118.334 152.417 118.362L131.738 120.393L132.273 126.533C132.44 128.44 133.219 130.258 134.511 131.753C135.803 133.248 137.549 134.352 139.525 134.924L148.48 137.502C148.943 137.644 149.444 137.635 149.9 137.475C150.355 137.314 150.737 137.014 150.98 136.623C151.192 136.267 151.274 135.857 151.216 135.454C151.158 135.051 150.961 134.675 150.656 134.382C150.676 134.369 150.692 134.353 150.705 134.334C150.718 134.315 150.726 134.293 150.729 134.271C150.733 134.249 150.731 134.226 150.725 134.205C150.718 134.183 150.707 134.163 150.692 134.145L152.341 134.623C152.856 134.783 153.417 134.756 153.911 134.548C154.406 134.34 154.796 133.967 155.003 133.503C155.173 133.083 155.177 132.62 155.013 132.197C154.85 131.775 154.531 131.419 154.112 131.192C154.131 131.183 154.148 131.17 154.163 131.154L154.841 131.351C155.304 131.493 155.805 131.483 156.261 131.323C156.716 131.163 157.098 130.862 157.341 130.472C157.598 130.039 157.663 129.532 157.523 129.056C157.384 128.58 157.05 128.172 156.592 127.918C156.596 127.905 156.598 127.892 156.599 127.879L161.466 129.456C161.708 129.537 161.965 129.572 162.222 129.561C162.479 129.549 162.731 129.491 162.964 129.389C163.196 129.287 163.405 129.144 163.577 128.967C163.749 128.79 163.881 128.583 163.966 128.359C164.051 128.134 164.088 127.897 164.073 127.659C164.058 127.422 163.992 127.19 163.879 126.976C163.766 126.762 163.609 126.571 163.416 126.414C163.223 126.257 162.998 126.136 162.754 126.06L162.76 126.058Z" fill="#E98862"/>
<path opacity="0.2" d="M156.414 128.054C156.392 128.053 156.369 128.05 156.348 128.043L151.64 126.461C151.591 126.445 151.552 126.411 151.53 126.368C151.509 126.325 151.507 126.275 151.524 126.231C151.542 126.186 151.578 126.15 151.625 126.13C151.672 126.11 151.725 126.108 151.773 126.124L156.482 127.706C156.525 127.72 156.561 127.748 156.584 127.785C156.607 127.821 156.615 127.864 156.607 127.906C156.599 127.947 156.575 127.985 156.54 128.012C156.505 128.039 156.461 128.054 156.416 128.054H156.414Z" fill="#0A0A0A"/>
<path opacity="0.2" d="M154.033 131.216C154.011 131.216 153.989 131.213 153.968 131.206L150.257 129.989C150.233 129.982 150.21 129.97 150.191 129.954C150.171 129.939 150.155 129.92 150.144 129.898C150.132 129.877 150.126 129.853 150.124 129.83C150.123 129.806 150.126 129.782 150.135 129.759C150.144 129.737 150.157 129.716 150.174 129.698C150.192 129.681 150.213 129.667 150.236 129.656C150.26 129.646 150.285 129.641 150.311 129.64C150.337 129.639 150.363 129.643 150.387 129.652L154.098 130.868C154.141 130.882 154.177 130.91 154.201 130.947C154.224 130.983 154.232 131.026 154.224 131.067C154.217 131.109 154.193 131.147 154.158 131.174C154.123 131.201 154.079 131.216 154.033 131.216Z" fill="#0A0A0A"/>
<path opacity="0.2" d="M150.539 134.426C150.515 134.426 150.492 134.422 150.47 134.414L148.731 133.802C148.683 133.785 148.644 133.751 148.623 133.707C148.602 133.664 148.601 133.615 148.619 133.57C148.638 133.526 148.674 133.49 148.721 133.471C148.768 133.451 148.822 133.45 148.87 133.467L150.608 134.079C150.651 134.094 150.686 134.122 150.709 134.159C150.731 134.195 150.739 134.238 150.731 134.279C150.722 134.321 150.699 134.358 150.664 134.385C150.629 134.412 150.585 134.426 150.539 134.426H150.539Z" fill="#0A0A0A"/>
<path d="M140.89 116.759L91.8578 116.728L73.3083 74.918L45.6369 85.6679L68.7794 135.29L69.0054 135.784C70.1377 138.196 72.0449 140.228 74.4687 141.605C76.8926 142.982 79.7159 143.638 82.5563 143.483L141.631 140.258L140.89 116.759Z" fill="#21D0B3"/>
<path d="M81.7446 143.71C78.9958 143.706 76.3079 142.962 74.0094 141.569C71.7109 140.175 69.9015 138.194 68.8022 135.866L68.5758 135.372L48.8544 93.091L49.2636 92.9263L69.2109 135.704C70.3303 138.073 72.208 140.069 74.5915 141.423C76.975 142.777 79.75 143.424 82.5434 143.277L141.402 140.065L140.672 116.965L91.7076 116.935L77.4435 84.7868L77.8563 84.6311L92.0058 116.523L141.105 116.554L141.86 140.452L141.644 140.464L82.571 143.688C82.2951 143.703 82.0183 143.71 81.7446 143.71Z" fill="#0C0C0C"/>
<path d="M27.2066 147.024L8.40192 318.918L9.2889 319.001L28.0936 147.106L27.2066 147.024Z" fill="#494949"/>
<path d="M104.9 147.024L86.0956 318.918L86.9826 319.001L105.787 147.106L104.9 147.024Z" fill="#494949"/>
<path d="M266.902 147.021L266.015 147.104L284.807 319L285.694 318.917L266.902 147.021Z" fill="#494949"/>
<path d="M283.847 143.688H11.4919C9.47469 143.688 7.83942 145.199 7.83942 147.063C7.83942 148.926 9.47469 150.437 11.4919 150.437H283.847C285.865 150.437 287.5 148.926 287.5 147.063C287.5 145.199 285.865 143.688 283.847 143.688Z" fill="#292A2E"/>
<path opacity="0.8" d="M283.847 143.688H11.4919C9.47469 143.688 7.83942 145.199 7.83942 147.063C7.83942 148.926 9.47469 150.437 11.4919 150.437H283.847C285.865 150.437 287.5 148.926 287.5 147.063C287.5 145.199 285.865 143.688 283.847 143.688Z" fill="white"/>
<path d="M283.848 150.849H11.4937C10.9519 150.854 10.4144 150.76 9.9123 150.572C9.41015 150.384 8.95331 150.106 8.56822 149.754C8.18313 149.402 7.87742 148.983 7.66878 148.521C7.46015 148.059 7.35272 147.563 7.35272 147.063C7.35272 146.562 7.46015 146.066 7.66878 145.604C7.87742 145.142 8.18313 144.723 8.56822 144.371C8.95331 144.019 9.41015 143.741 9.9123 143.553C10.4144 143.365 10.9519 143.271 11.4937 143.276H283.848C284.39 143.271 284.927 143.365 285.429 143.553C285.931 143.741 286.388 144.019 286.773 144.371C287.158 144.723 287.464 145.142 287.673 145.604C287.881 146.066 287.989 146.562 287.989 147.063C287.989 147.563 287.881 148.059 287.673 148.521C287.464 148.983 287.158 149.402 286.773 149.754C286.388 150.106 285.931 150.384 285.429 150.572C284.927 150.76 284.39 150.854 283.848 150.849ZM11.4937 144.1C11.0694 144.095 10.6484 144.168 10.255 144.315C9.86156 144.462 9.50358 144.68 9.2018 144.955C8.90001 145.231 8.66041 145.559 8.49689 145.921C8.33336 146.282 8.24916 146.671 8.24916 147.063C8.24916 147.455 8.33336 147.843 8.49689 148.205C8.66041 148.566 8.90001 148.895 9.2018 149.17C9.50358 149.446 9.86156 149.663 10.255 149.81C10.6484 149.957 11.0694 150.03 11.4937 150.025H283.848C284.272 150.03 284.693 149.957 285.087 149.81C285.48 149.663 285.838 149.446 286.14 149.17C286.441 148.895 286.681 148.566 286.845 148.205C287.008 147.843 287.092 147.455 287.092 147.063C287.092 146.671 287.008 146.282 286.845 145.921C286.681 145.559 286.441 145.231 286.14 144.955C285.838 144.68 285.48 144.462 285.087 144.315C284.693 144.168 284.272 144.095 283.848 144.1H11.4937Z" fill="#292A2E"/>
<path d="M283.847 143.688H92.1555C90.1383 143.688 88.5031 145.199 88.5031 147.063C88.5031 148.926 90.1383 150.437 92.1555 150.437H283.847C285.865 150.437 287.5 148.926 287.5 147.063C287.5 145.199 285.865 143.688 283.847 143.688Z" fill="white"/>
<path d="M283.848 150.849H92.1555C91.0761 150.839 90.0447 150.435 89.2853 149.726C88.526 149.017 88.1 148.06 88.1 147.063C88.1 146.065 88.526 145.108 89.2853 144.399C90.0447 143.69 91.0761 143.286 92.1555 143.276H283.848C284.39 143.271 284.927 143.365 285.429 143.553C285.931 143.741 286.388 144.019 286.773 144.371C287.158 144.723 287.464 145.142 287.673 145.604C287.881 146.066 287.989 146.562 287.989 147.063C287.989 147.563 287.881 148.059 287.673 148.521C287.464 148.983 287.158 149.402 286.773 149.754C286.388 150.106 285.931 150.384 285.429 150.572C284.927 150.76 284.39 150.854 283.848 150.849ZM92.1555 144.1C91.3117 144.109 90.5057 144.425 89.9125 144.98C89.3193 145.535 88.9866 146.283 88.9866 147.063C88.9866 147.842 89.3193 148.591 89.9125 149.145C90.5057 149.7 91.3117 150.016 92.1555 150.025H283.848C284.272 150.03 284.693 149.957 285.087 149.81C285.48 149.663 285.838 149.446 286.14 149.17C286.441 148.895 286.681 148.566 286.845 148.205C287.008 147.843 287.092 147.455 287.092 147.063C287.092 146.671 287.008 146.282 286.845 145.921C286.681 145.559 286.441 145.231 286.14 144.955C285.838 144.68 285.48 144.462 285.087 144.315C284.693 144.168 284.272 144.095 283.848 144.1H92.1555Z" fill="#292A2E"/>
<path d="M291.194 264.2C291.135 264.2 291.077 264.19 291.023 264.169C290.969 264.148 290.92 264.118 290.879 264.079C290.251 263.499 289.227 252.852 286.469 221.153C285.341 208.182 284.275 195.93 283.497 188.485C283.442 187.953 283.219 187.891 283.146 187.871C282.081 187.574 278.843 189.933 277.036 191.999C276.961 192.084 276.854 192.138 276.736 192.15C276.618 192.161 276.501 192.129 276.409 192.06C276.317 191.991 276.258 191.892 276.246 191.783C276.233 191.674 276.268 191.566 276.342 191.481C277.538 190.115 281.434 186.534 283.402 187.082C283.799 187.192 284.294 187.511 284.385 188.406C285.164 195.858 286.229 208.113 287.358 221.087C289.034 240.35 290.932 262.174 291.556 263.548C291.603 263.61 291.632 263.682 291.638 263.758C291.644 263.833 291.628 263.909 291.59 263.976C291.553 264.044 291.496 264.1 291.426 264.14C291.356 264.179 291.276 264.2 291.194 264.2Z" fill="#494949"/>
<path d="M282.352 202.147C289.749 196.669 292.2 188.142 287.828 183.102C283.455 178.061 273.915 178.416 266.518 183.895C259.121 189.373 256.67 197.9 261.042 202.941C265.415 207.981 274.955 207.626 282.352 202.147Z" fill="#0CBC8B"/>
<path opacity="0.2" d="M282.352 202.147C289.749 196.669 292.2 188.142 287.828 183.102C283.455 178.061 273.915 178.416 266.518 183.895C259.121 189.373 256.67 197.9 261.042 202.941C265.415 207.981 274.955 207.626 282.352 202.147Z" fill="white"/>
<path d="M263.116 204.222C263.074 204.222 263.032 204.211 262.996 204.19C262.961 204.169 262.932 204.139 262.914 204.104C262.896 204.069 262.889 204.029 262.895 203.991C262.9 203.952 262.917 203.915 262.944 203.885L284.024 180.396C284.062 180.354 284.116 180.328 284.175 180.323C284.234 180.318 284.293 180.334 284.338 180.369C284.384 180.404 284.412 180.454 284.418 180.509C284.423 180.563 284.405 180.617 284.368 180.659L263.287 204.148C263.267 204.171 263.24 204.19 263.211 204.203C263.181 204.216 263.149 204.222 263.116 204.222Z" fill="white"/>
<path d="M295.791 259.165C295.72 259.165 295.65 259.149 295.587 259.119C295.524 259.089 295.469 259.045 295.428 258.991C295.387 258.938 295.36 258.876 295.35 258.811C295.34 258.746 295.347 258.679 295.37 258.617L303.289 237.576C303.522 236.958 303.92 236.404 304.445 235.964C304.97 235.525 305.606 235.214 306.294 235.06C306.983 234.907 307.703 234.915 308.387 235.085C309.071 235.255 309.698 235.581 310.211 236.033L314.397 239.728C314.483 239.803 314.532 239.907 314.535 240.016C314.538 240.125 314.494 240.231 314.412 240.31C314.33 240.389 314.218 240.435 314.1 240.438C313.981 240.44 313.867 240.399 313.781 240.324L309.595 236.628C309.191 236.272 308.695 236.014 308.155 235.88C307.615 235.746 307.047 235.739 306.503 235.861C305.96 235.982 305.457 236.227 305.043 236.574C304.628 236.921 304.315 237.359 304.131 237.847L296.213 258.888C296.182 258.969 296.125 259.039 296.05 259.089C295.974 259.138 295.884 259.165 295.791 259.165Z" fill="#494949"/>
<path d="M326.092 251.377C331.574 247.368 331.248 238.55 325.365 231.682C319.481 224.814 310.268 222.497 304.786 226.506C299.305 230.515 299.63 239.333 305.514 246.201C311.397 253.069 320.611 255.387 326.092 251.377Z" fill="#0CBC8B"/>
<path d="M287.599 262.858C287.499 262.858 287.401 262.827 287.323 262.77C287.244 262.713 287.189 262.633 287.166 262.543L273.875 211.204C273.784 210.855 273.591 210.535 273.316 210.28C273.041 210.025 272.695 209.845 272.317 209.76C271.939 209.675 271.542 209.688 271.171 209.797C270.8 209.907 270.469 210.109 270.214 210.381L266.118 214.755C266.08 214.796 266.033 214.83 265.981 214.855C265.928 214.88 265.871 214.895 265.812 214.899C265.754 214.903 265.695 214.896 265.639 214.879C265.583 214.862 265.531 214.835 265.486 214.8C265.442 214.764 265.405 214.721 265.379 214.672C265.353 214.623 265.337 214.57 265.333 214.516C265.33 214.461 265.337 214.407 265.356 214.355C265.375 214.304 265.405 214.256 265.444 214.216L269.54 209.842C269.902 209.455 270.373 209.168 270.9 209.013C271.428 208.857 271.991 208.839 272.529 208.96C273.067 209.081 273.558 209.337 273.949 209.7C274.339 210.062 274.614 210.517 274.742 211.015L288.03 262.353C288.057 262.459 288.037 262.57 287.976 262.663C287.914 262.755 287.815 262.821 287.7 262.847C287.667 262.854 287.633 262.858 287.599 262.858Z" fill="#494949"/>
<path d="M282.695 226.159C284.311 217.528 280.036 209.639 273.147 208.538C266.258 207.437 259.364 213.542 257.749 222.173C256.133 230.804 260.408 238.694 267.297 239.794C274.186 240.895 281.08 234.79 282.695 226.159Z" fill="#0CBC8B"/>
<path d="M291.194 264.2C291.176 264.2 291.158 264.199 291.139 264.197C291.081 264.191 291.025 264.174 290.974 264.147C290.923 264.12 290.878 264.085 290.842 264.042C290.806 263.999 290.78 263.95 290.764 263.898C290.748 263.846 290.744 263.792 290.751 263.738L299.236 200.08C299.329 199.386 299.636 198.732 300.121 198.196C300.606 197.66 301.249 197.265 301.971 197.058C302.693 196.852 303.465 196.842 304.193 197.031C304.921 197.219 305.575 197.598 306.075 198.122L315.774 208.272C315.852 208.354 315.892 208.461 315.885 208.57C315.877 208.679 315.823 208.781 315.735 208.854C315.646 208.926 315.53 208.963 315.412 208.956C315.294 208.949 315.184 208.899 315.105 208.817L305.407 198.667C305.02 198.263 304.515 197.97 303.952 197.824C303.389 197.678 302.793 197.685 302.235 197.845C301.676 198.005 301.18 198.31 300.805 198.725C300.43 199.139 300.193 199.644 300.121 200.18L291.636 263.838C291.623 263.938 291.571 264.03 291.489 264.097C291.408 264.163 291.303 264.2 291.194 264.2Z" fill="#494949"/>
<path d="M325.721 213.913C329.105 208.26 325.124 200.241 316.829 196.001C308.533 191.761 299.065 192.906 295.682 198.559C292.298 204.212 296.279 212.231 304.574 216.471C312.87 220.71 322.337 219.565 325.721 213.913Z" fill="#0CBC8B"/>
<path opacity="0.2" d="M326.092 251.377C331.574 247.368 331.248 238.55 325.365 231.682C319.481 224.814 310.268 222.497 304.786 226.506C299.305 230.515 299.63 239.333 305.514 246.201C311.397 253.069 320.611 255.387 326.092 251.377Z" fill="white"/>
<path opacity="0.5" d="M282.695 226.159C284.311 217.528 280.036 209.639 273.147 208.538C266.258 207.437 259.364 213.542 257.749 222.173C256.133 230.804 260.408 238.694 267.297 239.794C274.186 240.895 281.08 234.79 282.695 226.159Z" fill="white"/>
<path opacity="0.5" d="M325.721 213.913C329.105 208.26 325.124 200.241 316.829 196.001C308.533 191.761 299.065 192.906 295.682 198.559C292.298 204.212 296.279 212.231 304.574 216.471C312.87 220.71 322.337 219.565 325.721 213.913Z" fill="white"/>
<path d="M302.047 318.214H280.341L276.743 254.042H305.644L302.047 318.214Z" fill="#292A2E"/>
<path opacity="0.3" d="M302.047 318.214H280.341L276.743 254.042H305.644L302.047 318.214Z" fill="white"/>
<path d="M326.093 251.58C326.059 251.58 326.026 251.573 325.996 251.56C325.966 251.546 325.939 251.527 325.918 251.502L304.611 226.631C304.575 226.588 304.558 226.533 304.565 226.479C304.571 226.425 304.601 226.375 304.648 226.341C304.694 226.307 304.753 226.292 304.812 226.298C304.87 226.305 304.924 226.332 304.961 226.375L326.268 251.246C326.294 251.277 326.31 251.313 326.315 251.352C326.319 251.39 326.312 251.429 326.294 251.464C326.276 251.499 326.247 251.528 326.212 251.549C326.176 251.57 326.135 251.58 326.093 251.58Z" fill="white"/>
<path d="M324.304 215.905C324.257 215.905 324.211 215.891 324.173 215.864L296.908 197.469C296.86 197.437 296.828 197.388 296.819 197.334C296.81 197.28 296.824 197.225 296.859 197.181C296.894 197.137 296.947 197.108 297.005 197.099C297.063 197.091 297.123 197.104 297.171 197.136L324.436 215.532C324.473 215.558 324.501 215.594 324.515 215.635C324.529 215.676 324.528 215.721 324.513 215.762C324.499 215.803 324.47 215.838 324.432 215.864C324.394 215.889 324.349 215.903 324.302 215.903L324.304 215.905Z" fill="white"/>
<path d="M266.189 239.526C266.17 239.526 266.151 239.523 266.132 239.518C266.075 239.504 266.026 239.47 265.997 239.423C265.967 239.375 265.959 239.319 265.974 239.267L274.653 209.219C274.67 209.168 274.707 209.124 274.758 209.098C274.808 209.072 274.868 209.065 274.924 209.079C274.98 209.092 275.028 209.126 275.058 209.172C275.088 209.218 275.097 209.273 275.084 209.325L266.405 239.373C266.392 239.416 266.364 239.455 266.325 239.483C266.286 239.511 266.238 239.526 266.189 239.526Z" fill="white"/>
<path d="M312.526 318.792H0.312026C0.229272 318.792 0.149907 318.762 0.0913903 318.708C0.0328741 318.654 0 318.581 0 318.504C0 318.428 0.0328741 318.354 0.0913903 318.3C0.149907 318.246 0.229272 318.216 0.312026 318.216H312.525C312.608 318.216 312.687 318.246 312.746 318.3C312.804 318.354 312.837 318.428 312.837 318.504C312.837 318.581 312.804 318.654 312.746 318.708C312.687 318.762 312.608 318.792 312.525 318.792H312.526Z" fill="#292A2E"/>
<g opacity="0.65">
<path d="M312.526 318.792H0.312026C0.229272 318.792 0.149907 318.762 0.0913903 318.708C0.0328741 318.654 0 318.581 0 318.504C0 318.428 0.0328741 318.354 0.0913903 318.3C0.149907 318.246 0.229272 318.216 0.312026 318.216H312.525C312.608 318.216 312.687 318.246 312.746 318.3C312.804 318.354 312.837 318.428 312.837 318.504C312.837 318.581 312.804 318.654 312.746 318.708C312.687 318.762 312.608 318.792 312.525 318.792H312.526Z" fill="#292A2E"/>
</g>
</svg>
