<svg width="41" height="41" viewBox="0 0 41 41" fill="none" xmlns="http://www.w3.org/2000/svg">
<g clip-path="url(#clip0_1_5791)">
<path d="M-2.645e-05 11.9279C0.200216 11.3767 0.602472 11.1694 1.17839 11.1782C2.48616 11.1959 3.79394 11.1835 5.10172 11.1835C5.24702 11.1835 5.39056 11.1835 5.60675 11.1835C5.47916 9.57601 5.79282 8.12799 6.94819 6.96709C8.10712 5.80265 9.54957 5.47299 11.1887 5.60947C11.1887 5.41451 11.1887 5.27272 11.1887 5.13093C11.1887 3.76976 11.1799 2.40858 11.194 1.04741C11.2011 0.271118 11.8178 -0.191468 12.4628 0.077931C12.92 0.269346 13.0529 0.657493 13.0529 1.11831C13.0529 2.45289 13.0529 3.78748 13.0529 5.12207C13.0529 5.26563 13.0529 5.40919 13.0529 5.57047H16.7547C16.7618 5.41096 16.7742 5.26917 16.7742 5.12738C16.7742 3.81938 16.7636 2.51138 16.7849 1.20338C16.7902 0.923347 16.8611 0.614956 16.9975 0.375687C17.1729 0.0655245 17.5079 -0.0443618 17.8676 0.0265326C18.2362 0.0991993 18.4984 0.311882 18.5853 0.689395C18.626 0.868403 18.6437 1.05805 18.6455 1.24237C18.6508 2.53619 18.6473 3.83179 18.6473 5.12561V5.5687H22.3615C22.3615 5.40387 22.3615 5.26031 22.3615 5.11675C22.3615 3.78216 22.3544 2.44758 22.3651 1.11299C22.3704 0.322517 22.8931 -0.140069 23.5435 0.0478009C23.9085 0.154142 24.1407 0.389866 24.1938 0.774468C24.2204 0.9712 24.231 1.17325 24.2328 1.37175C24.2363 2.75774 24.2328 4.1455 24.2328 5.56161H27.9382C27.9435 5.434 27.9559 5.29399 27.9559 5.15397C27.9559 3.7928 27.9488 2.43162 27.9594 1.07045C27.9647 0.290614 28.5637 -0.171972 29.2158 0.0708416C29.6145 0.217947 29.813 0.544062 29.8165 1.09704C29.8219 2.3111 29.8183 3.52694 29.8183 4.74101C29.8183 5.00509 29.8183 5.26917 29.8183 5.60415C31.4291 5.47654 32.8769 5.79025 34.0376 6.94583C35.2018 8.10495 35.5314 9.54765 35.3914 11.1853C35.5881 11.1853 35.7299 11.1853 35.8734 11.1853C37.2344 11.1853 38.5971 11.1764 39.958 11.1906C40.7306 11.1977 41.1949 11.8198 40.9238 12.4632C40.7306 12.9187 40.3408 13.0498 39.8818 13.0498C38.5475 13.0481 37.2131 13.0498 35.877 13.0498C35.7334 13.0498 35.5917 13.0498 35.4322 13.0498V16.7523C35.5934 16.7594 35.737 16.7718 35.8787 16.7718C37.1865 16.7718 38.4943 16.7629 39.8021 16.7806C40.0696 16.7842 40.362 16.848 40.5977 16.9721C40.9167 17.1404 41.0372 17.4701 40.9823 17.8281C40.922 18.2145 40.7076 18.4945 40.3106 18.5814C40.1175 18.6239 39.9155 18.6399 39.717 18.6416C38.3029 18.6469 36.8888 18.6434 35.4428 18.6434V22.337C35.5686 22.3441 35.7086 22.3583 35.8486 22.3583C37.183 22.3583 38.5173 22.3583 39.8535 22.36C40.4648 22.3618 40.8139 22.5834 40.9504 23.0353C41.1081 23.5564 40.798 24.0845 40.2646 24.1856C40.0821 24.2192 39.8942 24.2281 39.7081 24.2299C38.4394 24.2334 37.1723 24.2317 35.9035 24.2317C35.7582 24.2317 35.6129 24.2317 35.4109 24.2317C35.4109 24.5152 35.4145 24.7634 35.4109 25.0115C35.4003 25.6673 35.0299 26.0944 34.4788 26.0909C33.9295 26.0873 33.5574 25.6584 33.5574 25.0009C33.5538 21.878 33.5574 18.7551 33.5574 15.6322C33.5574 13.9236 33.5591 12.2151 33.5574 10.5065C33.5556 8.62779 32.386 7.45272 30.5112 7.45272C23.8376 7.45095 17.1641 7.45095 10.4905 7.45272C8.63873 7.45272 7.45855 8.62957 7.45677 10.4781C7.455 17.1653 7.45323 23.8524 7.45677 30.5395C7.45677 32.3668 8.63873 33.5507 10.4622 33.5507C17.1623 33.5543 23.8624 33.5543 30.5626 33.5507C32.3648 33.5507 33.5432 32.365 33.5556 30.5643C33.5591 30.0574 33.552 29.5505 33.5556 29.0436C33.5644 28.3258 33.9224 27.9589 34.6436 27.9572C36.3926 27.9501 38.1399 27.9518 39.8889 27.9572C40.5694 27.9589 41.0088 28.34 41 28.9C40.9911 29.4566 40.5818 29.811 39.9084 29.8146C38.5209 29.8217 37.1316 29.8164 35.7441 29.8181C35.6519 29.8181 35.5615 29.8305 35.4021 29.8412C35.5279 31.4239 35.2142 32.8719 34.0588 34.0328C32.8999 35.1972 31.4557 35.5287 29.8148 35.3887V35.8636C29.8148 37.1858 29.8024 38.5062 29.8201 39.8284C29.8289 40.4044 29.6216 40.8032 29.0723 41.0053H28.6718C28.1189 40.7713 27.9382 40.3371 27.9488 39.7593C27.9683 38.7313 27.9541 37.7034 27.9541 36.6754V35.4276H24.2505C24.2434 35.5889 24.231 35.7307 24.231 35.8743C24.231 37.1823 24.2204 38.4903 24.2346 39.7983C24.2417 40.3832 24.045 40.8085 23.4637 41.0035H23.0632C22.5175 40.7607 22.3473 40.3194 22.3527 39.7504C22.3668 38.4584 22.358 37.1663 22.358 35.8725V35.4259H18.6437C18.6437 35.5872 18.6437 35.7289 18.6437 35.8725C18.6437 37.1646 18.6331 38.4566 18.6491 39.7504C18.6562 40.3194 18.4843 40.7607 17.9385 41.0035H17.538C16.9568 40.8103 16.7583 40.3832 16.7636 39.8001C16.776 38.4921 16.7671 37.1841 16.7671 35.8761C16.7671 35.7343 16.7671 35.5907 16.7671 35.4294C16.5988 35.4206 16.4818 35.4081 16.3649 35.4081C15.2733 35.4081 14.1835 35.4081 13.0476 35.4081C13.0476 35.5907 13.0476 35.7325 13.0476 35.8761C13.0476 37.1699 13.0352 38.4655 13.0529 39.7593C13.0618 40.3371 12.8828 40.7695 12.3299 41.0053H11.9294C11.3801 40.8032 11.171 40.4044 11.1781 39.8284C11.1958 38.508 11.1834 37.1858 11.1834 35.8654C11.1834 35.7236 11.171 35.5801 11.1639 35.3922C9.54425 35.5287 8.1018 35.1972 6.94288 34.0328C5.78927 32.8719 5.47562 31.4239 5.60321 29.8181C5.38702 29.8181 5.24171 29.8181 5.09817 29.8181C3.7904 29.8181 2.48262 29.8057 1.17484 29.8234C0.598928 29.8305 0.198444 29.6249 -0.00357056 29.0737V28.6732C0.23034 28.122 0.660949 27.943 1.23864 27.9501C2.54287 27.9678 3.84887 27.9571 5.1531 27.9554C5.2931 27.9554 5.43309 27.9447 5.56777 27.9377V24.2334C5.39765 24.2334 5.25411 24.2334 5.11058 24.2334C3.80634 24.2334 2.50034 24.2246 1.19611 24.237C0.616648 24.2423 0.187811 24.0491 -0.00357056 23.4678V23.0672C0.239201 22.5213 0.680442 22.3512 1.24927 22.3565C2.5411 22.3707 3.8347 22.3618 5.12652 22.3618H5.57308V18.6469H5.12652C3.8347 18.6469 2.5411 18.6363 1.24927 18.6523C0.680442 18.6593 0.239201 18.4874 -0.00357056 17.9415V17.541C0.187811 16.9597 0.614876 16.7665 1.19611 16.7718C2.50034 16.7842 3.80634 16.7771 5.11058 16.7736C5.26297 16.7736 5.41537 16.7576 5.56954 16.7487V13.0534C5.40119 13.0534 5.25766 13.0534 5.11412 13.0534C3.82229 13.0534 2.53047 13.041 1.23864 13.0587C0.662721 13.0676 0.23034 12.8868 -0.00357056 12.3356V11.935L-2.645e-05 11.9279Z" fill="black"/>
<path d="M24.2328 13.0445C24.2328 14.1735 24.2328 15.2405 24.2328 16.3074C24.2328 17.6296 24.2382 18.95 24.2293 20.2722C24.2275 20.5363 24.2789 20.694 24.5518 20.8252C25.7196 21.387 26.3185 22.6968 26.0155 23.941C25.7125 25.1799 24.5731 26.0838 23.3061 26.0891C22.0426 26.0944 20.8996 25.1941 20.5913 23.9499C20.2865 22.7216 20.8606 21.4189 22.0054 20.8465C22.296 20.7011 22.3704 20.5416 22.3704 20.2403C22.3598 17.6509 22.3633 15.0615 22.3651 12.4721C22.3651 11.4902 22.6717 11.1818 23.6569 11.1835C24.8584 11.1871 26.0598 11.1623 27.2595 11.2119C28.6063 11.2668 29.728 12.4047 29.7935 13.7464C29.8325 14.5457 29.8166 15.3468 29.8166 16.1479C29.8184 19.698 29.8113 23.2498 29.8201 26.7998C29.8237 28.0157 29.3612 28.9656 28.2554 29.5044C27.8638 29.6958 27.3871 29.7898 26.9476 29.7969C25.1596 29.8288 23.3699 29.8164 21.5818 29.8075C20.7951 29.804 20.3361 29.2138 20.5789 28.558C20.7277 28.1574 21.0804 27.9501 21.6456 27.9501C23.3273 27.9483 25.009 27.9501 26.6907 27.9501C27.6564 27.9501 27.9559 27.6488 27.9559 26.6811C27.9559 22.5568 27.9559 18.4325 27.9559 14.3082C27.9559 13.3458 27.6547 13.0481 26.6836 13.0463C25.8862 13.0463 25.087 13.0463 24.2346 13.0463L24.2328 13.0445ZM24.2133 23.3065C24.2204 22.8049 23.8253 22.3866 23.3238 22.3689C22.8258 22.3512 22.3722 22.7925 22.3757 23.2959C22.3793 23.7939 22.7922 24.2033 23.2937 24.2068C23.8022 24.2104 24.2063 23.8152 24.2151 23.3065H24.2133Z" fill="black"/>
<path d="M16.7743 27.9501C16.7743 27.6878 16.7743 27.4751 16.7743 27.2642C16.7743 25.0753 16.7707 22.8882 16.7796 20.6994C16.7796 20.4441 16.7211 20.2988 16.4712 20.1783C15.2981 19.6111 14.6992 18.3279 14.9898 17.0731C15.2804 15.8236 16.4553 14.8913 17.7241 14.9073C18.9999 14.9232 20.127 15.8236 20.4229 17.0642C20.7206 18.3191 20.127 19.604 18.9539 20.1747C18.7076 20.2953 18.6402 20.4335 18.642 20.6905C18.6509 23.3065 18.6473 25.9207 18.6473 28.5367C18.6473 29.4956 18.3337 29.8146 17.3838 29.8128C16.17 29.8093 14.9544 29.8341 13.7423 29.7845C12.3991 29.7295 11.2827 28.5881 11.2171 27.2429C11.1781 26.4312 11.1941 25.6159 11.1941 24.8024C11.1923 21.2665 11.1994 17.7306 11.1905 14.1948C11.187 12.9772 11.653 12.0325 12.757 11.4937C13.1486 11.3023 13.6253 11.2084 14.0648 11.2013C15.8528 11.1694 17.6408 11.1818 19.4288 11.1906C20.2174 11.1942 20.6745 11.7808 20.4335 12.4366C20.2847 12.8389 19.9321 13.0463 19.3685 13.0481C17.6869 13.0516 16.007 13.0481 14.3253 13.0481C13.3577 13.0481 13.0547 13.3494 13.0547 14.3118C13.0547 18.4485 13.0547 22.5834 13.0547 26.7201C13.0547 27.6328 13.3701 27.9518 14.2774 27.9518C15.089 27.9518 15.9006 27.9518 16.7778 27.9518L16.7743 27.9501ZM16.7937 17.6917C16.7884 18.195 17.1871 18.6097 17.6869 18.6257C18.1866 18.6399 18.6367 18.195 18.6314 17.6952C18.626 17.1954 18.2132 16.7895 17.7099 16.7878C17.2013 16.7878 16.7991 17.183 16.7937 17.6917Z" fill="black"/>
<path d="M11.1712 10.2391C11.1766 10.7354 10.7672 11.1554 10.2693 11.1661C9.77487 11.1767 9.34957 10.7708 9.33362 10.2746C9.31768 9.7659 9.74474 9.32636 10.2551 9.32813C10.753 9.3299 11.1677 9.74286 11.1712 10.2409V10.2391Z" fill="black"/>
<path d="M31.6737 10.2407C31.6772 10.737 31.2661 11.1553 30.7699 11.1641C30.2596 11.173 29.8272 10.7405 29.8361 10.2301C29.8449 9.73207 30.2649 9.32265 30.7611 9.32619C31.259 9.32974 31.6719 9.7427 31.6755 10.2407H31.6737Z" fill="black"/>
<path d="M11.171 30.7504C11.1693 31.2467 10.7564 31.6614 10.2584 31.6667C9.74807 31.672 9.31746 31.2343 9.33164 30.7238C9.34582 30.2258 9.76934 29.8199 10.2637 29.827C10.7617 29.8359 11.1728 30.2524 11.1693 30.7486L11.171 30.7504Z" fill="black"/>
<path d="M31.6737 30.7504C31.6719 31.2467 31.259 31.6614 30.7611 31.6667C30.2507 31.672 29.8201 31.2343 29.8343 30.7238C29.8485 30.2258 30.272 29.8199 30.7664 29.827C31.2643 29.8359 31.6755 30.2524 31.6719 30.7486L31.6737 30.7504Z" fill="black"/>
</g>
<defs>
<clipPath id="clip0_1_5791">
<rect width="41" height="41" fill="white"/>
</clipPath>
</defs>
</svg>
