<svg width="39" height="41" viewBox="0 0 39 41" fill="none" xmlns="http://www.w3.org/2000/svg">
<g clip-path="url(#clip0_1_5736)">
<path d="M10.1237 41C9.69052 40.7692 9.54845 40.4087 9.55898 39.915C9.58529 38.6915 9.56775 37.4662 9.56775 36.1947C8.99948 36.1947 8.46278 36.1947 7.92784 36.1947C7.2368 36.1929 6.98073 35.9603 6.89829 35.2624C6.84041 34.7723 6.7913 34.2821 6.72816 33.792C6.64222 33.119 6.05291 32.7514 5.42676 32.9893C4.90935 33.1865 4.40423 33.4155 3.89033 33.6198C3.37994 33.824 3.03618 33.7085 2.7573 33.222C1.9049 31.7356 1.05601 30.2457 0.21413 28.7522C-0.0559722 28.2728 0.0299695 27.9105 0.473709 27.5696C0.894648 27.2481 1.32436 26.9391 1.74354 26.6159C2.35741 26.1454 2.3539 25.4546 1.73653 24.9857C1.31559 24.6661 0.884125 24.3571 0.46494 24.0339C0.0264617 23.6965 -0.0524644 23.3307 0.221146 22.8477C1.06478 21.3542 1.91192 19.8643 2.76432 18.3779C3.03968 17.8967 3.37819 17.7901 3.90085 17.9979C4.3902 18.1933 4.87428 18.4046 5.36362 18.5999C6.09149 18.8911 6.64222 18.5502 6.73693 17.7564C6.79656 17.2538 6.84392 16.7477 6.91408 16.247C6.99651 15.6574 7.25258 15.4283 7.83313 15.4265C9.52039 15.4212 11.2077 15.4212 12.8932 15.4265C13.4544 15.4283 13.7052 15.6538 13.7859 16.2257C13.8648 16.7797 13.9139 17.3391 13.9929 17.8931C14.0841 18.536 14.6401 18.8734 15.2452 18.6443C15.7748 18.4436 16.2905 18.2075 16.8167 17.9979C17.3358 17.7901 17.6778 17.9038 17.9532 18.385C18.8056 19.8732 19.6527 21.3631 20.4946 22.8565C20.7647 23.336 20.6823 23.7036 20.2438 24.0428C19.8141 24.3749 19.3721 24.6892 18.9424 25.0195C18.3619 25.4634 18.3601 26.1489 18.9389 26.5946C19.3581 26.9178 19.7878 27.2268 20.2087 27.5482C20.6911 27.9158 20.7717 28.271 20.4771 28.7913C19.6405 30.2723 18.7986 31.7498 17.9532 33.2255C17.6743 33.7103 17.3323 33.8257 16.8184 33.6198C16.3168 33.4191 15.824 33.1971 15.3206 33C14.6681 32.7443 14.0858 33.0906 13.9859 33.792C13.9069 34.3461 13.8561 34.9037 13.7736 35.4577C13.7017 35.939 13.4211 36.1805 12.9388 36.1894C12.36 36.2 11.7829 36.1911 11.1761 36.1911V39.3734H32.5072C32.5142 39.2278 32.5247 39.0875 32.5247 38.9454C32.5247 37.6118 32.5247 36.2764 32.5265 34.9427C32.5265 34.2058 32.8001 33.9341 33.535 33.9323C34.668 33.9287 35.801 33.9323 36.9358 33.9323C37.0779 33.9323 37.2217 33.9323 37.4129 33.9323C37.4129 33.7405 37.4129 33.586 37.4129 33.4315C37.4129 27.5198 37.4129 21.6099 37.4129 15.6982C37.4129 15.082 37.6777 14.7393 38.1618 14.718C38.588 14.6984 38.9318 14.9844 38.9844 15.4123C39.0002 15.5437 38.9931 15.6787 38.9931 15.8119C38.9931 22.0166 38.9896 28.2213 39.0002 34.426C39.0002 34.8433 38.8809 35.1576 38.6055 35.4648C37.0884 37.1518 35.5888 38.8549 34.0769 40.5454C33.9208 40.7195 33.7156 40.8491 33.535 40.9983H10.1237V41ZM1.88912 23.1123C2.16448 23.32 2.41704 23.51 2.66961 23.7018C4.15342 24.8312 4.15868 26.7811 2.68013 27.9087C2.42055 28.1076 2.15922 28.303 1.89262 28.5054C2.52228 29.6117 3.13089 30.6861 3.743 31.7587C3.76756 31.8031 3.8079 31.8386 3.86578 31.9096C4.89006 31.4231 5.91785 30.9915 7.04737 31.6593C8.16988 32.3216 8.34702 33.4191 8.39789 34.568H12.2881C12.3284 34.2555 12.3687 33.9678 12.4038 33.6784C12.6248 31.8422 14.263 30.8584 15.9678 31.5403C16.2677 31.661 16.5694 31.78 16.8833 31.9043C17.5393 30.75 18.1742 29.6348 18.8179 28.5019C18.5373 28.2905 18.2829 28.1005 18.0321 27.9087C16.5501 26.7811 16.5518 24.8224 18.0356 23.7018C18.2952 23.5065 18.5548 23.3111 18.8196 23.1123C18.1584 21.9544 17.5217 20.8357 16.8798 19.7098C16.4606 19.8767 16.0748 20.049 15.6784 20.1857C14.1823 20.7007 12.602 19.6867 12.4161 18.0991C12.388 17.8612 12.3442 17.6232 12.3389 17.3835C12.3337 17.1118 12.2284 17.0177 11.9566 17.023C11.1129 17.039 10.2693 17.0283 9.42568 17.0283C8.75568 17.0283 8.37976 17.3693 8.29791 18.0512C8.09446 19.74 6.44754 20.7415 4.87428 20.1307C4.53226 19.9975 4.19376 19.8519 3.82894 19.7009C3.18526 20.8303 2.54859 21.9491 1.88561 23.1105L1.88912 23.1123ZM34.1225 38.1055C34.8644 37.2762 35.5327 36.5268 36.2027 35.7756C36.2518 35.7205 36.2956 35.6602 36.371 35.5643H34.1225V38.1055Z" fill="black"/>
<path d="M11.148 1.62658C11.148 2.70627 11.148 3.75756 11.148 4.81061C11.148 5.79797 11.1533 6.78532 11.1463 7.77267C11.1428 8.33028 10.8323 8.66946 10.3517 8.66768C9.87293 8.66591 9.5695 8.32673 9.5695 7.76557C9.56599 5.53692 9.5695 3.31005 9.5695 1.0814C9.5695 0.252099 9.81505 0.00170898 10.6236 0.00170898C17.7918 0.00170898 24.9583 0.00170898 32.1266 0.00170898C34.0769 0.00170898 36.0273 0.00170898 37.9759 0.00170898C38.7336 0.00170898 38.9931 0.268081 38.9949 1.03878C38.9949 3.37398 38.9949 5.7074 38.9949 8.0426C38.9949 8.09587 38.9949 8.14915 38.9949 8.20242C38.9826 8.74049 38.6546 9.10453 38.1898 9.09388C37.7391 9.08322 37.4181 8.72984 37.4164 8.2113C37.4111 6.61129 37.4146 5.00951 37.4146 3.4095C37.4146 2.82525 37.4146 2.23923 37.4146 1.62835H11.148V1.62658Z" fill="black"/>
<path d="M18.3163 13.5956C18.2759 13.2227 18.2426 12.9102 18.2093 12.5976C18.1479 12.0311 18.4162 11.6298 18.8986 11.5694C19.3721 11.5108 19.7176 11.8447 19.7825 12.4218C19.879 13.2831 19.979 14.1426 20.0737 15.0038C20.1491 15.6875 19.9158 16.0054 19.2493 16.1102C18.3654 16.2487 17.4796 16.3872 16.5939 16.508C16.0607 16.5808 15.7047 16.3233 15.631 15.858C15.5591 15.3981 15.8327 15.0429 16.3519 14.9381C16.5957 14.8884 16.8412 14.8582 17.1078 14.7428C16.7255 14.5475 16.3536 14.3273 15.9608 14.1621C10.8446 12.0187 6.08798 12.6544 1.69619 16.0747C1.59271 16.1563 1.49449 16.2469 1.39276 16.3304C0.975328 16.6767 0.498264 16.6731 0.196591 16.3215C-0.112098 15.961 -0.0559728 15.494 0.356197 15.1281C1.65409 13.9739 3.10107 13.054 4.71642 12.4342C9.27133 10.6904 13.6912 10.9958 17.9567 13.3985C18.0567 13.4553 18.1584 13.5086 18.3163 13.5938V13.5956Z" fill="black"/>
<path d="M24.4286 6.55626C26.9981 6.55626 29.5694 6.55626 32.1388 6.55626C32.2844 6.55626 32.43 6.54916 32.5738 6.56692C32.9316 6.60953 33.2 6.88656 33.2473 7.24705C33.2964 7.62708 33.0982 7.97691 32.7334 8.09056C32.5615 8.14384 32.3704 8.15449 32.1897 8.15449C27.0104 8.15804 21.8293 8.15804 16.65 8.15449C16.4676 8.15449 16.2782 8.14206 16.1063 8.08701C15.7643 7.97691 15.5556 7.62353 15.5907 7.27547C15.6293 6.90254 15.9116 6.60776 16.2835 6.56514C16.4273 6.54916 16.5729 6.55626 16.7184 6.55626C19.2879 6.55626 21.8592 6.55626 24.4286 6.55626Z" fill="black"/>
<path d="M27.9523 20.1892C26.5158 20.1892 25.0793 20.1892 23.6429 20.1892C23.0448 20.1892 22.7046 19.905 22.6958 19.4114C22.687 18.9106 23.0501 18.5909 23.6499 18.5909C26.5351 18.5892 29.422 18.5892 32.3072 18.5909C32.8211 18.5909 33.121 18.7898 33.2245 19.1805C33.3175 19.5339 33.1859 19.9175 32.8702 20.072C32.7019 20.1554 32.4914 20.1838 32.3002 20.1856C30.8515 20.1945 29.401 20.1909 27.9523 20.1909V20.1892Z" fill="black"/>
<path d="M27.9172 14.1727C26.4948 14.1727 25.0706 14.1727 23.6482 14.1727C23.0378 14.1727 22.6853 13.8655 22.6958 13.3558C22.7045 12.8657 23.0536 12.5745 23.6429 12.5745C26.5281 12.5745 29.415 12.5745 32.3002 12.5745C32.9 12.5745 33.2684 12.8941 33.2561 13.3913C33.2456 13.8744 32.8878 14.1727 32.3055 14.1727C30.8427 14.1745 29.3799 14.1727 27.9172 14.1727Z" fill="black"/>
<path d="M27.9926 26.211C26.5965 26.211 25.2004 26.211 23.8025 26.211C23.6569 26.211 23.5113 26.2128 23.3693 26.195C22.9922 26.1453 22.7221 25.8487 22.6975 25.4741C22.6712 25.078 22.9115 24.7371 23.2991 24.6519C23.464 24.6163 23.6394 24.6146 23.8095 24.6146C26.5895 24.6128 29.3694 24.6146 32.1494 24.6146C32.8808 24.6146 33.2473 24.8756 33.2596 25.4012C33.2719 25.9411 32.9 26.2146 32.1441 26.2146C30.7603 26.2146 29.3782 26.2146 27.9943 26.2146L27.9926 26.211Z" fill="black"/>
<path d="M27.9996 30.6434C29.4483 30.6434 30.8988 30.6469 32.3476 30.6416C32.7404 30.6416 33.0509 30.7641 33.2052 31.1477C33.3859 31.597 33.1245 32.0942 32.6527 32.2008C32.4879 32.2381 32.3125 32.2416 32.1424 32.2416C29.3624 32.2434 26.5825 32.2416 23.8025 32.2416C23.7359 32.2416 23.671 32.2416 23.6043 32.2416C23.029 32.2203 22.6835 31.9042 22.6958 31.4123C22.7081 30.9364 23.0431 30.6469 23.6113 30.6452C25.0741 30.6398 26.5369 30.6452 27.9979 30.6452L27.9996 30.6434Z" fill="black"/>
<path d="M38.2162 11.0668C38.6406 11.0757 38.9896 11.438 38.9896 11.8695C38.9896 12.3188 38.6213 12.6739 38.1723 12.6579C37.7444 12.642 37.4023 12.2726 37.4164 11.8446C37.4304 11.4166 37.7987 11.0579 38.2162 11.0668Z" fill="black"/>
<path d="M10.3219 30.2758C7.88574 30.2616 5.91435 28.2372 5.93539 25.767C5.95469 23.3253 7.95765 21.3204 10.3658 21.3328C12.802 21.3453 14.7962 23.3786 14.7769 25.831C14.7593 28.3029 12.7651 30.29 10.3219 30.2776V30.2758ZM10.3693 28.674C11.9303 28.6687 13.2071 27.3653 13.1966 25.7901C13.1861 24.2167 11.8847 22.9133 10.3377 22.9293C8.77147 22.9453 7.5069 24.2416 7.51391 25.8221C7.52093 27.4026 8.79778 28.6794 10.3693 28.674Z" fill="black"/>
</g>
<defs>
<clipPath id="clip0_1_5736">
<rect width="39" height="41" fill="white"/>
</clipPath>
</defs>
</svg>
