<svg width="61" height="82" viewBox="0 0 61 82" fill="none" xmlns="http://www.w3.org/2000/svg">
<path d="M47.4521 50.814C54.6318 50.814 60.6929 44.7368 57.6993 38.2109C57.0341 36.7607 56.2522 35.3593 55.3581 34.0213C52.0368 29.0506 47.3162 25.1765 41.7931 22.8887C36.27 20.601 30.1925 20.0024 24.3293 21.1687C18.466 22.335 13.0802 25.2137 8.85301 29.4409C4.62582 33.6681 1.74707 39.0539 0.580785 44.9171C-0.585494 50.7804 0.0130829 56.8579 2.30082 62.381C4.58856 67.9041 8.46271 72.6247 13.4334 75.946C14.7714 76.8401 16.1728 77.622 17.623 78.2872C24.1489 81.2808 30.2261 75.2197 30.2261 68.04V63.814C30.2261 56.6343 36.0464 50.814 43.2261 50.814H47.4521Z" fill="#21D0B3"/>
<g clip-path="url(#clip0_239_1071)">
<path d="M1 25.1247C1.10875 24.5097 1.2024 23.8917 1.32776 23.2797C1.56641 22.1138 1.96063 21.0166 2.69922 20.0629C2.78531 19.953 2.80193 19.7058 2.74151 19.5745C1.5649 17.0322 1.55734 14.5157 2.83667 12.0054C2.91068 11.8589 2.88047 11.5964 2.79891 11.4423C1.66156 9.29363 1.64948 7.06256 2.37297 4.80861C2.55724 4.23176 2.92125 3.67781 3.32302 3.22153C3.58432 2.92395 4.04953 2.70115 4.44828 2.65079C9.25594 2.04496 14.0681 1.4788 18.8788 0.897376C20.9194 0.651685 22.9615 0.418201 24.9975 0.135885C26.8689 -0.123542 28.7222 0.02601 30.58 0.251863C34.6234 0.743247 38.6683 1.22242 42.7117 1.70465C46.7747 2.18993 50.8377 2.67368 54.9007 3.15744C55.8749 3.27341 56.8461 3.42144 57.8219 3.49164C58.3702 3.53131 58.7417 3.75412 58.9985 4.22108V4.67737C58.7719 4.89101 58.5469 5.10466 58.3203 5.31678C58.1224 5.50143 57.834 5.64487 57.7373 5.87225C56.9791 7.65161 56.9836 9.45081 57.7252 11.2363C57.8113 11.4423 58.0213 11.6071 58.2025 11.7566C58.4547 11.9642 58.7327 12.1397 59 12.3289V13.0141C58.787 13.1881 58.5695 13.3575 58.3611 13.536C58.1421 13.7207 57.8325 13.8717 57.7313 14.1098C56.9791 15.8861 56.9851 17.6822 57.7282 19.4631C57.8143 19.6676 58.0258 19.8324 58.2055 19.9804C58.4562 20.188 58.7342 20.3635 59 20.5527V21.2379C58.8218 21.3981 58.6632 21.6591 58.4608 21.7003C57.5349 21.888 57.2147 22.6174 56.9277 23.3637C56.2888 25.0286 56.1861 26.7652 56.3371 28.5247C56.4383 29.7044 56.6543 30.8657 57.2419 31.9079C57.4277 32.236 57.7373 32.5092 58.0364 32.7518C58.3279 32.9884 58.6753 33.1517 58.9985 33.347V34.0322C58.7115 34.2229 58.4442 34.5358 58.136 34.5816C56.5697 34.8181 54.9944 34.9829 53.422 35.1752C52.2681 35.3156 51.1141 35.459 49.936 35.6025C49.936 36.6539 49.93 37.6428 49.939 38.6301C49.9451 39.2146 49.9843 39.822 49.279 40.0387C48.6023 40.2462 48.3032 39.7197 47.974 39.2756C47.4604 38.5828 46.9439 37.8931 46.3941 37.1545C45.7914 38.1677 45.2386 39.0956 44.6858 40.0234C44.5891 40.1867 44.4909 40.35 44.3897 40.5087C44.1526 40.8826 43.8158 41.0748 43.3808 40.9619C42.9277 40.8444 42.6905 40.5163 42.689 40.0387C42.6845 38.8636 42.689 37.6901 42.689 36.4754C41.0472 36.6738 39.4779 36.8828 37.904 37.0476C36.8769 37.1545 35.8332 37.3284 34.8167 37.2445C32.4136 37.0446 30.0196 36.7089 27.6226 36.4235C23.6155 35.9474 19.6083 35.4697 15.6012 34.9936C11.9505 34.5587 8.29984 34.11 4.64615 33.7041C3.79427 33.6095 3.0738 33.2905 2.64938 32.5809C2.16906 31.7782 1.77938 30.9038 1.47125 30.0172C1.22052 29.2984 1.15104 28.511 1 27.7526C1 26.8766 1 26.0007 1 25.1247ZM55.4505 22.1505C55.1983 22.1779 55.014 22.1963 54.8328 22.2176C52.4735 22.5015 50.1142 22.7853 47.7549 23.0691C43.8415 23.5407 39.931 24.0412 36.0115 24.4639C35.1807 24.554 34.7563 24.9691 34.4588 25.6497C34.3153 25.9793 34.1808 26.3166 34.0811 26.6614C33.5555 28.5034 33.4528 30.3819 33.8319 32.2513C34.0177 33.1669 34.3953 34.0505 34.7533 34.9203C34.9496 35.3995 35.3559 35.5597 35.9193 35.4651C36.9963 35.282 38.0898 35.192 39.1758 35.0607C40.3343 34.9203 41.4928 34.7769 42.6648 34.6334V29.2328C42.5319 29.2114 42.4186 29.2008 42.3099 29.1763C41.8251 29.0665 41.5381 28.7735 41.5532 28.2592C41.5668 27.748 41.8598 27.4626 42.3537 27.3833C42.5591 27.3497 42.7645 27.3222 42.9699 27.2963C44.0741 27.1589 45.1782 27.0246 46.2838 26.8888C47.5948 26.7286 48.9044 26.5607 50.2154 26.4096C50.7758 26.344 51.2214 26.6782 51.2939 27.1818C51.3679 27.6991 51.0431 28.1096 50.4752 28.218C50.3106 28.2485 50.1459 28.279 49.9647 28.3126V33.7529C51.892 33.521 53.7891 33.2921 55.7692 33.054C54.9128 31.3082 54.4899 29.5426 54.4642 27.6717C54.4385 25.7855 54.7301 23.968 55.4535 22.152L55.4505 22.1505ZM33.3879 7.88357C33.051 7.83779 32.7731 7.79506 32.4937 7.76148C28.8038 7.32046 25.1138 6.88096 21.4223 6.44299C17.675 5.99891 13.9277 5.56247 10.1818 5.11381C9.88578 5.07871 9.70302 5.0894 9.59125 5.43581C8.98708 7.32656 9.01729 9.21732 9.55047 11.1111C9.58521 11.2363 9.70302 11.4148 9.80573 11.4316C10.4069 11.5323 11.0156 11.5934 11.5291 11.6559C11.5291 10.1268 11.5095 8.68779 11.5382 7.24721C11.5503 6.62001 11.9671 6.24613 12.4943 6.2797C13.0259 6.3148 13.3613 6.74209 13.3386 7.35709C13.3341 7.48985 13.2978 7.62262 13.3039 7.75538C13.3582 8.98536 13.4126 10.2169 13.4776 11.4469C13.4942 11.7704 13.6618 11.9367 14.0107 11.9703C15.0439 12.071 16.0724 12.2022 17.1041 12.3243C21.1505 12.802 25.1984 13.2812 29.2448 13.7588C30.5332 13.9114 31.8216 14.0594 33.1779 14.2181C32.5405 12.0603 32.5299 9.99255 33.3879 7.88204V7.88357ZM24.4673 34.1985C23.3406 30.5116 23.3481 26.9102 24.6108 23.3011C24.3435 23.2569 24.1426 23.2172 23.9387 23.1928C20.2472 22.7578 16.5543 22.3428 12.8673 21.8743C12.3402 21.8071 12.1393 21.9551 11.952 22.4038C10.567 25.7092 10.6697 29.0329 11.8297 32.3627C11.8931 32.5458 12.1877 32.7381 12.3946 32.7641C15.4834 33.1547 18.5737 33.5194 21.6655 33.8857C22.5778 33.994 23.4916 34.0902 24.4673 34.1985ZM27.174 15.3581C25.1078 15.1093 23.1261 14.8667 21.1414 14.6302C15.7658 13.9923 10.3903 13.3636 5.01771 12.7135C4.65219 12.6692 4.43318 12.7654 4.29724 13.0843C3.50729 14.9247 3.49672 16.7758 4.29724 18.6085C4.39391 18.8298 4.72318 19.0374 4.97542 19.0831C5.78953 19.2327 6.61875 19.309 7.44344 19.4067C11.8448 19.9301 16.2461 20.452 20.6475 20.9708C21.4571 21.067 22.2682 21.1509 23.1216 21.2455C23.0778 21.0182 23.0536 20.8884 23.0264 20.7603C22.7228 19.2937 22.6231 17.8226 22.9403 16.3439C23.0853 15.6679 23.4871 15.3337 24.0112 15.4283C24.5655 15.529 24.8253 16.0097 24.7045 16.7025C24.4447 18.1904 24.5051 19.6585 25.0111 21.0899C25.067 21.2486 25.1984 21.4683 25.3283 21.4958C25.8161 21.5965 26.3176 21.6286 26.8689 21.6927C26.4596 19.5257 26.4898 17.4564 27.174 15.3566V15.3581ZM55.8206 13.9007C55.4656 13.9328 55.1696 13.9511 54.8751 13.9862C51.9177 14.3448 48.9588 14.7049 46.0014 15.0651C42.5757 15.4802 39.1486 15.8907 35.7245 16.3225C35.5191 16.3485 35.2366 16.5102 35.1581 16.6857C34.3077 18.5689 34.2956 20.4673 35.1445 22.3595C35.2789 22.6602 35.507 22.7227 35.8393 22.6815C41.7178 21.9612 47.5964 21.2547 53.4764 20.5436C54.3298 20.4398 55.1802 20.3253 56.0713 20.2109C55.1892 18.1141 55.1907 16.0479 55.8221 13.8992L55.8206 13.9007ZM55.8191 5.67692C55.5291 5.69828 55.2874 5.70439 55.0488 5.73338C48.9301 6.47809 42.8114 7.22737 36.6911 7.97055C35.1369 8.15978 34.8907 8.38411 34.6476 9.94677C34.6204 10.1162 34.5902 10.284 34.5751 10.4549C34.4693 11.6636 34.5388 12.8508 35.0569 13.9694C35.1913 14.2609 35.3318 14.5264 35.7668 14.4684C37.691 14.212 39.6198 13.9862 41.5471 13.7542C45.1963 13.3147 48.847 12.8783 52.4961 12.4373C53.6697 12.2953 54.8403 12.1443 56.0517 11.9917C55.1862 9.89336 55.1938 7.82405 55.8176 5.67539L55.8191 5.67692ZM49.8846 4.51866C49.8801 4.47593 49.8756 4.43473 49.871 4.392C47.477 4.10663 45.083 3.82279 42.6905 3.53742C38.6637 3.05824 34.6415 2.54702 30.6102 2.11668C29.0243 1.94729 27.4036 1.79316 25.8237 1.92745C22.4811 2.21282 19.1552 2.69047 15.8217 3.09182C14.8324 3.21085 13.8431 3.34209 12.8538 3.46722C12.9972 3.5893 13.1392 3.6244 13.2827 3.64119C15.3626 3.88383 17.4424 4.11884 19.5207 4.36758C24.1653 4.92153 28.8068 5.48617 33.4528 6.03249C34.2715 6.12863 35.1128 6.27055 35.9223 6.18662C39.2226 5.84021 42.5153 5.41444 45.811 5.01615C47.1689 4.85286 48.5268 4.68347 49.8846 4.51713V4.51866ZM33.0948 24.2793C32.246 24.1755 31.4621 24.1038 30.6888 23.9771C30.2522 23.9054 30.0604 24.0595 29.9033 24.4639C29.0802 26.5897 28.9065 28.8025 29.1753 31.0274C29.3188 32.2162 29.7719 33.3668 30.1027 34.5297C30.1435 34.6746 30.2809 34.8837 30.3988 34.9005C31.1706 35.018 31.9484 35.0913 32.7656 35.1843C31.4455 31.4913 31.3896 27.9052 33.0948 24.2793ZM6.25172 32.0392C5.23974 28.3202 5.23068 24.7173 6.65651 21.1494C6.13995 21.0899 5.65813 21.0899 5.20802 20.9678C4.5238 20.7816 4.12052 21.0777 3.83354 21.6408C3.66135 21.978 3.4937 22.3214 3.37286 22.6785C2.82609 24.3083 2.71281 25.9854 2.87745 27.6885C2.99375 28.8879 3.21125 30.0675 3.8426 31.1114C4.02385 31.412 4.33047 31.7263 4.64615 31.8332C5.11438 31.9919 5.64302 31.9705 6.25021 32.0377L6.25172 32.0392ZM33.3939 16.0921C32.0723 15.9365 30.8005 15.8006 29.5348 15.6297C29.1617 15.5794 28.9941 15.7091 28.8747 16.0479C28.2298 17.8852 28.2857 19.7378 28.7479 21.5965C28.7811 21.7293 28.9246 21.9185 29.0364 21.9338C30.3927 22.12 31.7536 22.2771 33.1794 22.4496C32.5315 20.2704 32.5345 18.1889 33.3924 16.0906L33.3939 16.0921ZM44.5347 28.9474V36.7195C44.8806 36.1442 45.1465 35.694 45.4198 35.2484C45.9304 34.4183 46.5798 34.3817 47.1674 35.1477C47.4574 35.5247 47.7429 35.9046 48.0857 36.3563V28.5201C46.8849 28.6651 45.728 28.8055 44.5347 28.949V28.9474ZM7.87391 4.83455C6.91479 4.72315 6.0463 4.67737 5.20198 4.50645C4.61896 4.38742 4.35766 4.61022 4.17792 5.0955C3.56771 6.74209 3.56318 8.39326 4.12203 10.0551C4.30328 10.5923 4.61443 10.896 5.21708 10.9295C6.02667 10.9738 6.83172 11.0959 7.67906 11.1874C7.21234 9.01741 7.20026 6.95116 7.8724 4.83455H7.87391ZM10.286 21.5828C9.82385 21.5279 9.42359 21.5187 9.04448 21.4256C8.68198 21.3356 8.50073 21.479 8.41313 21.7888C8.06875 23.0051 7.58693 24.206 7.43135 25.4482C7.16099 27.6137 7.35885 29.7745 8.15938 31.8377C8.22734 32.0148 8.35724 32.2635 8.50224 32.2971C8.92818 32.3993 9.37677 32.41 9.86464 32.4619C8.86927 28.7567 8.85115 25.1735 10.2876 21.5828H10.286ZM28.2177 23.7116C27.7117 23.646 27.2692 23.559 26.8236 23.5499C26.6801 23.5468 26.4415 23.7253 26.4037 23.8642C26.0895 24.9935 25.6847 26.1182 25.5503 27.2734C25.283 29.5807 25.4446 31.8713 26.4128 34.0337C26.4853 34.197 26.5985 34.432 26.7299 34.461C27.1604 34.5571 27.6105 34.5739 28.1074 34.6258C26.9822 30.9542 26.958 27.368 28.2192 23.7101L28.2177 23.7116Z" fill="black"/>
</g>
<defs>
<clipPath id="clip0_239_1071">
<rect width="58" height="41" fill="white" transform="translate(1)"/>
</clipPath>
</defs>
</svg>
