<svg width="70" height="82" viewBox="0 0 61 82" fill="none" xmlns="http://www.w3.org/2000/svg">
<path d="M47.4521 50.814C54.6318 50.814 60.6929 44.7368 57.6993 38.2109C57.0341 36.7607 56.2522 35.3593 55.3581 34.0213C52.0368 29.0506 47.3162 25.1765 41.7931 22.8887C36.27 20.601 30.1925 20.0024 24.3293 21.1687C18.466 22.335 13.0802 25.2137 8.85301 29.4409C4.62582 33.6681 1.74707 39.0539 0.580785 44.9171C-0.585494 50.7804 0.0130829 56.8579 2.30082 62.381C4.58856 67.9041 8.46271 72.6247 13.4334 75.946C14.7714 76.8401 16.1728 77.622 17.623 78.2872C24.1489 81.2808 30.2261 75.2197 30.2261 68.04V63.814C30.2261 56.6343 36.0464 50.814 43.2261 50.814H47.4521Z" fill="#21D0B3"/>
<g>
<path d="M128.63 42H94.373C94.2709 41.9694 94.1699 41.9322 94.0656 41.9081C92.2308 41.4936 91.0099 40.0345 91.0077 38.2014C91.0011 31.0559 91.0077 23.9105 91 16.765C91 16.3122 91.1581 15.9961 91.515 15.7194C92.6184 14.863 93.7032 13.9847 94.7946 13.113C95.2536 12.7455 95.8893 12.4578 96.1166 11.9798C96.3516 11.4855 96.1913 10.8041 96.1968 10.2047C96.2133 8.19766 97.6 6.80312 99.6093 6.78453C100.528 6.77578 101.447 6.79766 102.366 6.7725C102.591 6.76594 102.851 6.67625 103.028 6.53953C104.069 5.73672 105.089 4.90875 106.118 4.08953C107.829 2.72453 109.542 1.36281 111.255 0C111.419 0 111.584 0 111.749 0C111.848 0.07 111.951 0.135625 112.045 0.211094C114.655 2.29578 117.267 4.37828 119.869 6.47281C120.155 6.7025 120.437 6.79656 120.802 6.78891C121.761 6.76922 122.722 6.76047 123.682 6.79656C125.243 6.85563 126.54 8.01281 126.738 9.55281C126.828 10.2528 126.774 10.9703 126.817 11.678C126.828 11.8519 126.929 12.0706 127.062 12.1789C128.539 13.3787 130.027 14.5655 131.521 15.7445C131.835 15.9928 132.001 16.2739 132.001 16.683C131.997 23.8689 132.003 31.0559 131.995 38.2419C131.992 39.8606 130.988 41.2202 129.448 41.7561C129.18 41.8491 128.904 41.9191 128.63 42ZM111.515 8.34641C107.562 8.34641 103.61 8.34531 99.6576 8.34641C98.4663 8.34641 97.768 9.04313 97.7669 10.2353C97.7636 13.4892 97.7691 16.742 97.7603 19.9959C97.7603 20.2552 97.8361 20.4225 98.0392 20.5833C102.436 24.0789 106.828 27.5789 111.213 31.0877C111.443 31.2725 111.579 31.2594 111.802 31.08C116.167 27.5888 120.537 24.1041 124.912 20.627C125.15 20.4389 125.246 20.2475 125.245 19.9402C125.233 16.7409 125.239 13.5428 125.237 10.3436C125.237 9.0125 124.573 8.34641 123.248 8.34531C119.337 8.34531 115.426 8.34531 111.515 8.34531V8.34641ZM94.059 40.2041C94.0634 40.2467 94.0678 40.2905 94.0711 40.3331C94.4334 40.3681 94.7968 40.4338 95.1592 40.4338C102.719 40.4392 110.278 40.4381 117.839 40.4381C121.201 40.4381 124.562 40.4414 127.923 40.4327C128.262 40.4327 128.601 40.3583 128.94 40.3189C128.942 40.2795 128.943 40.2412 128.945 40.2019C124.77 36.6034 120.594 33.005 116.409 29.3978C114.942 30.5725 113.509 31.7166 112.078 32.865C111.706 33.1636 111.313 33.1756 110.958 32.8913C109.59 31.7953 108.222 30.6994 106.853 29.6056C106.77 29.54 106.68 29.4842 106.579 29.4142C102.396 33.0192 98.2281 36.6122 94.059 40.2041ZM92.7557 39.2602C97.0104 35.5928 101.166 32.0119 105.351 28.4058C101.095 25.0141 96.8731 21.6497 92.5954 18.2405C92.5833 18.3958 92.5745 18.4592 92.5745 18.5227C92.5745 25.0961 92.5723 31.6695 92.5811 38.2441C92.5811 38.547 92.6821 38.8489 92.7557 39.2612V39.2602ZM117.656 28.4058C121.853 32.0228 126.007 35.6016 130.264 39.2711C130.331 38.8084 130.423 38.4661 130.423 38.1227C130.432 31.6323 130.43 25.1409 130.429 18.6506C130.429 18.538 130.412 18.4253 130.398 18.2481C126.124 21.6552 121.907 25.0162 117.656 28.4058ZM117.726 6.75609C115.598 5.05969 113.557 3.43328 111.504 1.79594C109.443 3.43875 107.405 5.06406 105.283 6.75609H117.726ZM96.1781 14.012C95.0867 14.8827 94.0579 15.7041 92.9939 16.5528C94.0667 17.407 95.0944 18.2262 96.1781 19.0892V14.0109V14.012ZM126.833 14.0186V19.0881C127.919 18.2219 128.949 17.4016 130.013 16.5528C128.94 15.6986 127.91 14.8772 126.833 14.0186Z" fill="black"/>
<path d="M111.539 14.1761C114.131 14.1761 116.724 14.1761 119.315 14.1761C119.465 14.1761 119.619 14.1674 119.766 14.1892C120.154 14.2461 120.383 14.4824 120.424 14.8663C120.466 15.248 120.298 15.54 119.929 15.6669C119.753 15.7282 119.552 15.7358 119.363 15.7358C114.151 15.7391 108.94 15.7391 103.728 15.7358C103.551 15.7358 103.368 15.7292 103.2 15.6822C102.829 15.5783 102.614 15.2425 102.653 14.8707C102.691 14.4944 102.964 14.2166 103.35 14.1838C103.569 14.1652 103.788 14.1739 104.008 14.1739C106.518 14.1739 109.028 14.1739 111.538 14.1739L111.539 14.1761Z" fill="black"/>
<path d="M111.575 20.4325C108.969 20.4325 106.362 20.4325 103.757 20.4325C103.62 20.4325 103.481 20.4391 103.346 20.4238C102.951 20.3789 102.667 20.0716 102.65 19.6855C102.634 19.3059 102.9 18.9647 103.284 18.8903C103.403 18.8674 103.53 18.8728 103.653 18.8728C108.92 18.8728 114.186 18.8728 119.453 18.8728C119.562 18.8728 119.674 18.8674 119.781 18.8859C120.167 18.9527 120.443 19.2852 120.439 19.6636C120.433 20.0628 120.135 20.3844 119.722 20.4259C119.586 20.4391 119.447 20.4336 119.311 20.4336C116.733 20.4336 114.154 20.4336 111.576 20.4336L111.575 20.4325Z" fill="black"/>
</g>
<defs>
</defs>
</svg>
