<svg width="239" height="190" viewBox="0 0 239 190" fill="none" xmlns="http://www.w3.org/2000/svg">
<path d="M134.452 51.814C141.632 51.814 147.693 45.7368 144.699 39.2109C144.034 37.7607 143.252 36.3593 142.358 35.0213C139.037 30.0506 134.316 26.1765 128.793 23.8887C123.27 21.601 117.193 21.0024 111.329 22.1687C105.466 23.335 100.08 26.2137 95.853 30.4409C91.6258 34.6681 88.7471 40.0539 87.5808 45.9171C86.4145 51.7804 87.0131 57.8579 89.3008 63.381C91.5886 68.9041 95.4627 73.6247 100.433 76.946C101.771 77.8401 103.173 78.622 104.623 79.2872C111.149 82.2808 117.226 76.2197 117.226 69.04V64.814C117.226 57.6343 123.046 51.814 130.226 51.814H134.452Z" fill="#21D0B3"/>
<g clip-path="url(#clip0_239_1031)">
<path d="M124.108 8.73752C124.557 8.44128 124.773 8.09508 124.744 7.53978C124.697 6.59878 124.711 5.65197 124.749 4.70864C124.759 4.44842 124.882 4.13359 125.057 3.94771C126.211 2.72673 127.395 1.53596 128.568 0.333571C128.786 0.109357 129.015 -0.0788433 129.354 0.031521C129.709 0.146532 129.79 0.44742 129.848 0.775028C129.98 1.53131 130.134 2.28528 130.252 3.04388C130.29 3.28669 130.374 3.38543 130.612 3.42493C131.353 3.5504 132.089 3.70142 132.827 3.84432C133.139 3.90473 133.454 3.97443 133.57 4.33457C133.691 4.71445 133.47 4.9619 133.23 5.20586C132.093 6.36295 130.956 7.52003 129.832 8.68989C129.576 8.95709 129.306 9.08836 128.934 9.08255C128.041 9.06861 127.147 9.08836 126.253 9.09185C125.795 9.09417 125.402 9.29941 125.075 9.70756C125.385 10.0921 125.709 10.4731 126.009 10.8728C127.904 13.3926 129.017 16.24 129.39 19.3941C129.441 19.8239 129.234 20.1503 128.875 20.2119C128.489 20.2781 128.187 20.047 128.129 19.5753C127.9 17.7328 127.42 15.967 126.606 14.3034C125.955 12.9732 125.149 11.7557 124.178 10.6927C123.571 11.3154 122.983 11.9172 122.367 12.5492C122.478 12.6909 122.627 12.8779 122.775 13.0673C124.441 15.2014 125.405 17.6224 125.598 20.3537C125.618 20.6278 125.695 20.7335 125.976 20.7254C126.599 20.7068 127.224 20.7173 127.848 20.7208C128.419 20.7242 128.582 20.8567 128.685 21.4201C128.774 21.9046 128.855 22.3913 128.924 22.8792C128.959 23.1302 129.03 23.3254 129.313 23.3614C129.381 23.3695 129.454 23.3974 129.511 23.4369C130.168 23.8993 130.72 23.7482 131.234 23.172C131.423 22.9606 131.669 22.8003 131.895 22.626C132.21 22.3844 132.528 22.3797 132.815 22.6701C133.521 23.3846 134.222 24.1037 134.922 24.8263C135.203 25.1167 135.215 25.4397 134.986 25.7708C134.676 26.2215 134.358 26.6665 134.051 27.1207C133.815 27.4692 134.412 28.7832 134.823 28.8319C135.33 28.8924 135.837 28.947 136.343 29.012C136.795 29.0701 136.996 29.2885 136.999 29.759C137.007 30.7465 137.002 31.734 137.001 32.7214C137.001 33.1455 136.805 33.401 136.385 33.4707C135.868 33.5555 135.35 33.645 134.834 33.7379C134.399 33.8158 133.893 35.1587 134.166 35.5142C134.481 35.9255 134.807 36.3286 135.116 36.7445C135.398 37.1244 135.384 37.409 135.057 37.7517C134.383 38.458 133.698 39.1539 133.016 39.8521C132.722 40.153 132.4 40.1809 132.06 39.9334C131.632 39.6221 131.217 39.291 130.773 39.0075C130.639 38.9227 130.424 38.9471 130.249 38.9611C130.143 38.9692 130.047 39.0865 129.942 39.1005C129.134 39.2004 129.016 39.7812 129 40.4585C128.993 40.7617 128.947 41.0661 128.906 41.367C128.85 41.7678 128.622 41.9967 128.22 41.999C127.228 42.006 126.234 42.006 125.241 41.999C124.845 41.9967 124.61 41.7829 124.543 41.3798C124.453 40.8361 124.378 40.2889 124.259 39.7522C124.227 39.6082 124.067 39.4827 123.944 39.3735C123.875 39.3107 123.75 39.3154 123.672 39.2585C123.016 38.7671 122.492 39.0017 121.996 39.5419C121.813 39.7406 121.582 39.8951 121.366 40.0589C120.97 40.361 120.706 40.3482 120.352 39.9915C119.656 39.2875 118.957 38.5858 118.283 37.8586C118.116 37.6785 117.999 37.6588 117.78 37.7262C112.731 39.2736 107.941 38.6555 103.541 35.685C99.311 32.8295 96.788 28.7681 96.1445 23.61C95.144 15.5836 99.4077 8.17176 106.81 5.35456C112.956 3.01484 118.652 4.14172 123.735 8.40991C123.855 8.51098 123.97 8.61786 124.108 8.73868V8.73752ZM120.435 12.4597C120.398 12.4225 120.34 12.3598 120.274 12.304C117.301 9.80166 113.903 8.8688 110.167 9.77843C105.628 10.8821 102.63 13.8363 101.488 18.4624C100.346 23.0918 101.643 27.1149 105.104 30.3271C107.201 32.273 109.729 33.2024 112.557 33.279C113.093 33.293 113.376 33.5288 113.367 33.9505C113.357 34.3688 113.062 34.6046 112.526 34.586C112.059 34.5697 111.589 34.5465 111.126 34.4872C103.792 33.5613 98.7084 26.4504 100.04 18.9875C101.571 10.4011 110.703 5.64964 118.353 9.48916C119.436 10.0328 120.418 10.788 121.534 11.5001C121.743 11.2678 122.024 10.9425 122.319 10.6311C122.611 10.3233 122.92 10.0305 123.238 9.7157C123.008 9.51007 122.833 9.34046 122.647 9.18595C118.696 5.9273 114.222 4.8283 109.278 5.93078C101.674 7.63039 96.4128 15.2432 97.3531 23.1221C97.8807 27.5448 99.8193 31.2088 103.295 33.889C108.023 37.5333 113.211 38.1699 118.72 35.9638C118.956 35.8685 119.302 35.4852 119.26 35.3388C119.112 34.8358 118.817 34.3769 118.569 33.9064C118.555 33.8785 118.461 33.8936 118.406 33.8878C117.899 33.8285 117.392 33.7751 116.884 33.7089C116.442 33.6508 116.232 33.4359 116.227 33.006C116.218 31.9744 116.222 30.9428 116.227 29.9124C116.228 29.5627 116.406 29.3361 116.743 29.2653C117.09 29.1932 117.439 29.1026 117.791 29.0864C118.441 29.0562 118.882 28.811 118.984 28.1001C119.003 27.9758 119.116 27.8654 119.129 27.7422C119.146 27.5796 119.161 27.3717 119.08 27.2508C118.816 26.857 118.508 26.4934 118.218 26.117C117.789 25.5617 117.797 25.3375 118.274 24.8461C118.914 24.1862 119.565 23.538 120.19 22.8641C120.332 22.7108 120.467 22.468 120.463 22.2693C120.44 21.3446 120.45 20.4059 120.29 19.5021C120.073 18.2765 119.492 17.1937 118.71 16.2713C118.096 16.8998 117.507 17.5039 116.914 18.1115C118.972 21.0948 117.693 24.3419 115.752 25.7348C113.66 27.2369 110.756 26.9767 108.989 25.0819C107.146 23.1046 107.014 20.1294 108.684 18.0046C110.228 16.0401 113.269 15.1596 115.908 17.102C116.51 16.4839 117.108 15.8705 117.712 15.2525C117.672 15.2153 117.612 15.1538 117.546 15.1003C115.033 13.0324 111.39 12.8315 108.621 14.6054C105.831 16.3933 104.43 19.7983 105.118 23.0338C106.035 27.3519 110.293 30.2655 114.75 29.0748C115.206 28.9528 115.539 29.1166 115.641 29.4883C115.751 29.8938 115.544 30.2074 115.072 30.3387C113.879 30.6698 112.667 30.7488 111.446 30.5653C106.184 29.7706 102.728 24.5951 103.9 19.2756C104.92 14.6438 109.339 11.5257 113.95 12.1728C115.728 12.4225 117.285 13.1614 118.627 14.3173C119.235 13.6946 119.833 13.0812 120.435 12.462V12.4597ZM133.764 37.1151C133.463 36.7247 133.151 36.2937 132.81 35.8871C132.521 35.5421 132.506 35.2203 132.707 34.8149C132.949 34.3269 133.172 33.8158 133.308 33.2883C133.44 32.7842 133.712 32.5657 134.191 32.5053C134.694 32.4426 135.193 32.3404 135.694 32.2556V30.2516C135.14 30.1865 134.608 30.111 134.073 30.0657C133.665 30.0309 133.452 29.8276 133.319 29.4302C133.131 28.8703 132.906 28.3196 132.643 27.7934C132.45 27.4042 132.467 27.0917 132.722 26.7501C133.047 26.3145 133.347 25.8579 133.633 25.4443C133.156 24.9564 132.707 24.4975 132.238 24.0201C131.852 24.3337 131.431 24.6544 131.034 25.0029C130.7 25.2968 130.388 25.3224 129.987 25.1167C129.485 24.8588 128.951 24.6544 128.416 24.472C128.036 24.343 127.819 24.1362 127.764 23.718C127.692 23.1604 127.581 22.6086 127.486 22.0533H125.523C125.46 22.6179 125.386 23.1616 125.343 23.7076C125.312 24.1049 125.132 24.3337 124.765 24.4731C124.196 24.6881 123.63 24.9192 123.087 25.1946C122.733 25.3735 122.452 25.3526 122.145 25.1167C121.704 24.7775 121.247 24.4604 120.858 24.1781C120.38 24.6544 119.925 25.1074 119.446 25.5838C119.78 26.0194 120.125 26.4771 120.478 26.9267C120.701 27.2102 120.697 27.4902 120.553 27.8154C120.304 28.3812 120.073 28.9574 119.868 29.5406C119.739 29.9089 119.538 30.118 119.148 30.1714C118.605 30.2446 118.067 30.3585 117.526 30.4549V32.4554C118.093 32.5239 118.639 32.6029 119.186 32.6529C119.567 32.6877 119.752 32.9038 119.879 33.2512C120.087 33.8193 120.304 34.3862 120.569 34.9287C120.751 35.3005 120.75 35.6025 120.506 35.9336C120.175 36.382 119.867 36.8479 119.596 37.2371C120.081 37.7401 120.526 38.2025 120.987 38.6799C121.395 38.3488 121.831 38.0038 122.259 37.646C122.548 37.4044 122.829 37.4032 123.164 37.5577C123.717 37.8133 124.282 38.0421 124.851 38.2559C125.174 38.3767 125.383 38.5568 125.433 38.9227C125.503 39.4246 125.587 39.9265 125.686 40.4237C125.705 40.5213 125.818 40.6723 125.892 40.6746C126.482 40.6955 127.073 40.6862 127.679 40.6862C127.748 40.0903 127.83 39.5466 127.868 38.9994C127.898 38.5521 128.127 38.3465 128.524 38.2094C129.057 38.0236 129.582 37.7993 130.084 37.5368C130.445 37.3474 130.74 37.3405 131.064 37.5926C131.503 37.9329 131.959 38.2489 132.368 38.5475C132.847 38.0549 133.295 37.596 133.761 37.1162L133.764 37.1151ZM115.02 18.1034C113.324 16.8499 110.986 17.1868 109.687 18.819C108.366 20.4791 108.534 22.87 110.074 24.3326C111.584 25.7673 113.941 25.751 115.439 24.2954C116.866 22.9106 117.097 20.4872 115.911 19.0444C115.089 19.8866 114.268 20.7277 113.447 21.5677C112.945 22.0823 112.615 22.1567 112.291 21.8314C111.971 21.5107 112.048 21.146 112.537 20.6441C113.357 19.8042 114.178 18.9642 115.019 18.1022L115.02 18.1034ZM119.627 15.3176C119.654 15.3582 119.689 15.4198 119.733 15.4756C121.306 17.4656 122.024 19.7472 121.729 22.2833C121.638 23.0686 121.909 23.4264 122.475 23.7389C122.569 23.7912 122.697 23.876 122.773 23.8481C123.184 23.6936 123.587 23.5136 123.985 23.3277C124.046 23.2986 124.103 23.1964 124.111 23.1221C124.195 22.3588 124.343 21.5932 124.329 20.8311C124.292 18.7551 123.677 16.8383 122.601 15.0829C122.251 14.5102 121.834 13.9804 121.464 13.4565C120.822 14.107 120.229 14.7065 119.626 15.3187L119.627 15.3176ZM126.014 7.76283C126.968 7.76283 127.872 7.77212 128.776 7.75237C128.905 7.74889 129.05 7.6211 129.155 7.51654C129.812 6.85552 130.46 6.1852 131.11 5.51837C131.273 5.35224 131.436 5.18495 131.647 4.96655C130.987 4.83643 130.42 4.704 129.848 4.62035C129.382 4.55181 129.155 4.3032 129.085 3.83618C128.999 3.253 128.88 2.67562 128.772 2.075C128.693 2.11218 128.649 2.12031 128.623 2.14703C127.801 2.98696 126.978 3.82689 126.163 4.67495C126.084 4.75744 126.024 4.89801 126.021 5.01185C126.01 5.90987 126.014 6.80673 126.014 7.76167V7.76283Z" fill="black"/>
</g>
<defs>
<clipPath id="clip0_239_1031">
<rect width="41" height="42" fill="white" transform="translate(96)"/>
</clipPath>
</defs>
</svg>
