<svg width="61" height="83" viewBox="0 0 61 83" fill="none" xmlns="http://www.w3.org/2000/svg">
<path d="M47.4521 51.8145C54.6318 51.8145 60.6929 45.7372 57.6993 39.2114C57.0341 37.7612 56.2522 36.3598 55.3581 35.0217C52.0368 30.0511 47.3162 26.1769 41.7931 23.8892C36.27 21.6015 30.1925 21.0029 24.3293 22.1692C18.466 23.3354 13.0802 26.2142 8.85301 30.4414C4.62582 34.6686 1.74707 40.0544 0.580785 45.9176C-0.585494 51.7809 0.0130829 57.8584 2.30082 63.3815C4.58856 68.9046 8.46271 73.6252 13.4334 76.9465C14.7714 77.8406 16.1728 78.6224 17.623 79.2877C24.1489 82.2813 30.2261 76.2202 30.2261 69.0405V64.8144C30.2261 57.6347 36.0464 51.8145 43.2261 51.8145H47.4521Z" fill="#21D0B3"/>
<g clip-path="url(#clip0_239_1016)">
<path d="M9 29.0862C9.09759 28.85 9.17452 28.6022 9.29737 28.3799C9.80944 27.4582 10.5913 26.9834 11.6476 26.9846C13.6247 26.9846 15.6006 26.9777 17.5777 26.9915C17.913 26.9939 18.1139 26.8989 18.3056 26.6071C20.4102 23.402 23.1175 20.9055 26.6721 19.4083C26.7961 19.3562 26.9454 19.1801 26.9522 19.0539C27.1853 14.7719 27.1199 10.5038 26.1715 6.30049C25.9453 5.29772 25.509 4.34243 25.1474 3.3744C25.0636 3.14976 24.9051 2.94944 24.7582 2.7549C23.8971 1.60392 22.8362 1.4256 21.6559 2.24541C20.7213 2.89617 20.0278 3.78315 19.3918 4.71181C17.6765 7.21757 16.3963 9.95839 15.1976 12.7397C14.821 13.6128 14.4858 14.5033 14.1161 15.3775C13.9083 15.8685 13.4387 16.0653 12.9875 15.8858C12.55 15.7121 12.3399 15.2258 12.5317 14.7325C13.906 11.1962 15.3779 7.70621 17.4468 4.51033C18.3355 3.13818 19.3217 1.84477 20.6616 0.880214C21.6995 0.133349 22.8236 -0.24761 24.0957 0.180824C25.036 0.496939 25.6973 1.16738 26.2289 1.98025C27.2324 3.51566 27.7192 5.24909 28.0705 7.02419C28.8157 10.7875 28.9006 14.5936 28.7319 18.4124C28.7273 18.512 28.7319 18.6128 28.7319 18.6301C29.5413 18.7749 30.3783 18.8027 31.1142 19.0898C31.8525 19.3782 32.4909 19.9247 33.1637 20.352C33.3543 19.8784 33.5471 19.2716 33.8365 18.7158C34.1935 18.0303 34.5598 17.3263 35.0478 16.7369C36.282 15.2478 37.9996 15.2698 39.3188 16.6929C39.9928 17.4189 40.6667 18.1531 41.4165 18.7957C42.3947 19.6341 43.5348 20.1586 44.8574 20.1771C45.9631 20.1922 46.9264 19.795 47.8139 19.1674C47.931 19.084 48.0424 18.9926 48.1618 18.9127C48.5992 18.622 49.1044 18.6938 49.3822 19.084C49.6681 19.4835 49.5946 19.9745 49.171 20.3091C48.0596 21.1845 46.7989 21.6975 45.3913 21.8063C42.8998 21.9997 40.855 21.0954 39.2189 19.2103C38.8136 18.7436 38.4313 18.2526 37.9927 17.8196C37.3314 17.1665 36.8101 17.1746 36.2831 17.9435C35.809 18.6359 35.3796 19.3955 35.1063 20.1864C34.6654 21.4613 34.3681 22.7859 34.0087 24.0898C33.9398 24.3399 33.8916 24.5981 33.7917 24.8343C33.6287 25.2199 33.2188 25.4121 32.8387 25.3195C32.4174 25.2164 32.1545 24.876 32.1751 24.4325C32.1832 24.2611 32.2061 24.084 32.2566 23.9207C32.7848 22.1838 31.3002 20.6449 29.7526 20.5002C28.64 20.396 28.6159 20.433 28.446 21.5261C28.1773 23.2491 27.8776 24.9686 27.5929 26.6893C27.5791 26.7715 27.5814 26.8561 27.5734 26.9869C27.7778 26.9869 27.9603 26.9869 28.144 26.9869C35.5059 26.9869 42.8689 26.9869 50.2307 26.9869C51.5924 26.9869 52.6027 27.7141 52.9139 28.9044C53.3421 30.5429 52.1756 32.12 50.4787 32.1941C50.3214 32.2011 50.1641 32.1964 50.0057 32.1964C42.1421 32.1964 34.2785 32.1988 26.4149 32.1895C26.0705 32.1895 25.8983 32.2787 25.7536 32.6191C24.6101 35.3182 23.0968 37.7661 20.8178 39.6547C20.0152 40.3205 19.1357 40.8578 18.068 40.9805C17.0059 41.1032 16.1942 40.6852 15.6282 39.7878C15.1379 39.0097 14.9806 38.1297 14.9359 37.2265C14.8612 35.7108 15.1127 34.2356 15.5065 32.78C15.5547 32.6029 15.5937 32.4222 15.6477 32.1964C14.4617 32.1964 13.3181 32.1964 12.1746 32.1964C11.9025 32.1964 11.6269 32.215 11.3594 32.1791C10.2113 32.0274 9.45237 31.3917 9.09415 30.2766C9.06889 30.1967 9.0333 30.1191 9.0023 30.0404C9 29.7219 9 29.4035 9 29.0862ZM26.5791 30.4619H27.0521C34.7561 30.4619 42.459 30.4619 50.163 30.4607C50.3053 30.4607 50.4511 30.4607 50.5889 30.4306C51.0252 30.3333 51.3134 29.9431 51.2778 29.5158C51.2422 29.0781 50.915 28.7586 50.4569 28.725C50.3145 28.7145 50.171 28.7192 50.0275 28.7192C42.5669 28.7192 35.1075 28.7192 27.6469 28.7192C27.5183 28.7192 27.3851 28.7018 27.2622 28.7284C27.183 28.7458 27.0751 28.8153 27.0521 28.8859C26.8891 29.3896 26.7456 29.8979 26.5791 30.463V30.4619ZM24.0877 32.1964C21.8982 32.1964 19.7971 32.193 17.696 32.208C17.5926 32.208 17.4227 32.3632 17.3986 32.4709C17.138 33.6485 16.8487 34.8249 16.6741 36.0165C16.5513 36.8548 16.5961 37.7186 16.9095 38.5326C17.1701 39.21 17.5444 39.4104 18.2207 39.1707C18.6202 39.0294 19.0186 38.8395 19.3631 38.5917C21.5928 36.9914 22.9441 34.7277 24.0877 32.1953V32.1964ZM26.7858 21.2494C24.0061 22.5775 21.8821 24.4893 20.1553 26.9221C20.2471 26.9591 20.2724 26.9777 20.2977 26.9777C22.029 26.98 23.7604 26.9777 25.4918 26.9881C25.7502 26.9904 25.7984 26.8491 25.8386 26.6523C25.9706 26.0027 26.1267 25.3577 26.2393 24.7046C26.431 23.5872 26.5952 22.464 26.7858 21.2471V21.2494ZM18.13 30.4619C20.3309 30.4619 22.4194 30.4642 24.5079 30.4561C24.6032 30.4561 24.7593 30.3947 24.7846 30.3241C24.9671 29.8146 25.1233 29.2958 25.2852 28.7852C25.2025 28.7493 25.1772 28.7273 25.1508 28.7273C23.1772 28.7227 21.2024 28.718 19.2287 28.7227C19.1334 28.7227 18.9934 28.784 18.952 28.8604C18.6799 29.3607 18.4285 29.8725 18.13 30.4607V30.4619ZM17.0507 28.7261C15.154 28.7261 13.3239 28.7157 11.4938 28.7331C11.0333 28.7377 10.7073 29.1534 10.7222 29.6085C10.7371 30.0682 11.0919 30.448 11.589 30.4538C13.0782 30.47 14.5662 30.4642 16.0553 30.4538C16.1563 30.4538 16.3056 30.3704 16.3481 30.2835C16.5869 29.7949 16.7993 29.2924 17.0507 28.7261Z" fill="black"/>
<path d="M11.7498 23.1227C11.5156 22.9224 11.3284 22.7858 11.1677 22.6225C10.7222 22.1686 10.6935 21.6684 11.0781 21.2921C11.4524 20.925 11.9335 20.9516 12.3652 21.3893C12.5351 21.5618 12.6637 21.7749 12.8635 22.0389C13.1505 21.7101 13.3205 21.4727 13.5329 21.2816C13.9083 20.9424 14.402 20.9667 14.7281 21.3106C15.0323 21.6313 15.0518 22.1397 14.7361 22.487C14.5444 22.6978 14.3021 22.861 14.0047 23.1123C14.2929 23.3717 14.5076 23.5373 14.689 23.7341C15.0484 24.122 15.0518 24.6373 14.72 24.9766C14.3836 25.3193 13.8704 25.324 13.4892 24.9604C13.2952 24.7751 13.1425 24.5458 12.883 24.2297C12.6752 24.503 12.5615 24.6906 12.4111 24.8434C11.945 25.3182 11.4341 25.3587 11.0598 24.9708C10.6832 24.5806 10.736 24.0919 11.2159 23.6079C11.3571 23.4655 11.5133 23.3381 11.751 23.1239L11.7498 23.1227Z" fill="#21D0B3"/>
</g>
<defs>
<clipPath id="clip0_239_1016">
<rect width="44" height="41" fill="white" transform="translate(9)"/>
</clipPath>
</defs>
</svg>
