<svg width="41" height="42" viewBox="0 0 41 42" fill="none" xmlns="http://www.w3.org/2000/svg">
<path d="M29.4879 21.0081C29.4879 16.141 25.4262 12.1953 20.4158 12.1953C15.4055 12.1953 11.3438 16.1409 11.3438 21.0081C11.3438 25.4068 14.6613 29.0528 18.9983 29.7138V23.5556H16.6949V21.0081H18.9983V19.0665C18.9983 16.8578 20.3528 15.6378 22.425 15.6378C23.4176 15.6378 24.4558 15.8099 24.4558 15.8099V17.9787H23.3118C22.1848 17.9787 21.8334 18.6581 21.8334 19.355V21.0081H24.3495L23.9472 23.5556H21.8334V29.7138C26.1704 29.0528 29.4879 25.4069 29.4879 21.0081Z" fill="#1877F2"/>
<circle cx="20.416" cy="21.2676" r="19.9104" stroke="#AEAEAE" stroke-width="0.847251"/>
</svg>
