<svg width="42" height="42" viewBox="0 0 42 42" fill="none" xmlns="http://www.w3.org/2000/svg">
<g clip-path="url(#clip0_333_6411)">
<path d="M29.2955 21.1064C29.2955 20.4399 29.238 19.9536 29.1136 19.4492H21.0254V22.4573H25.773C25.6773 23.2048 25.1604 24.3306 24.0118 25.0871L23.9957 25.1878L26.5531 27.0519L26.7302 27.0685C28.3574 25.6545 29.2955 23.5741 29.2955 21.1064Z" fill="#4285F4"/>
<path d="M21.0259 29.0318C23.3518 29.0318 25.3045 28.3113 26.7307 27.0685L24.0123 25.087C23.2849 25.5644 22.3085 25.8976 21.0259 25.8976C18.7478 25.8976 16.8143 24.4837 16.1251 22.5293L16.024 22.5374L13.3649 24.4737L13.3301 24.5647C14.7467 27.2125 17.6566 29.0318 21.0259 29.0318Z" fill="#34A853"/>
<path d="M16.125 22.5292C15.9431 22.0248 15.8379 21.4844 15.8379 20.9261C15.8379 20.3676 15.9431 19.8273 16.1154 19.3229L16.1106 19.2155L13.4181 17.248L13.33 17.2875C12.7462 18.3863 12.4111 19.6201 12.4111 20.9261C12.4111 22.232 12.7462 23.4658 13.33 24.5646L16.125 22.5292Z" fill="#FBBC05"/>
<path d="M21.0259 15.9545C22.6435 15.9545 23.7347 16.6119 24.3569 17.1614L26.7882 14.9278C25.295 13.6219 23.3518 12.8203 21.0259 12.8203C17.6566 12.8203 14.7467 14.6396 13.3301 17.2874L16.1155 19.3229C16.8143 17.3685 18.7478 15.9545 21.0259 15.9545Z" fill="#EB4335"/>
</g>
<circle cx="20.8575" cy="21.2676" r="19.9104" stroke="#AEAEAE" stroke-width="0.847251"/>
<defs>
<clipPath id="clip0_333_6411">
<rect width="16.8929" height="16.2672" fill="white" transform="translate(12.4111 12.8203)"/>
</clipPath>
</defs>
</svg>
