<svg width="998" height="932" viewBox="0 0 998 932" fill="none" xmlns="http://www.w3.org/2000/svg">
<g filter="url(#filter0_f_2014_11409)">
<path d="M794.501 519.282C801.889 408.374 745.952 302.203 649.026 248.105C630.88 237.987 611.697 229.861 591.809 223.869C436.668 176.999 378.799 216.468 338.166 265.805C297.534 315.141 335.704 399.013 288.916 433.548C242.127 468.084 185.488 517.42 208.883 590.191C232.277 662.962 290.147 711.065 344.323 706.131C398.499 701.198 455.138 637.06 493.307 678.996C531.477 720.932 653.373 761.635 733.405 691.33C776.18 653.761 790.463 579.904 794.501 519.282Z" fill="#88E5FF"/>
</g>
<g opacity="0.7" filter="url(#filter1_f_2014_11409)">
<path d="M794.501 519.282C801.889 408.374 745.952 302.203 649.026 248.105C630.88 237.987 611.697 229.861 591.809 223.869C436.668 176.999 378.799 216.468 338.166 265.805C297.534 315.141 335.704 399.013 288.916 433.548C242.127 468.084 185.488 517.42 208.883 590.191C232.277 662.962 290.147 711.065 344.323 706.131C398.499 701.198 455.138 637.06 493.307 678.996C531.477 720.932 653.373 761.635 733.405 691.33C776.18 653.761 790.463 579.904 794.501 519.282Z" fill="white"/>
</g>
<path d="M736.077 535.723C730.906 536.599 721.216 543.272 721.204 543.272C721.191 543.272 727.532 548.341 727.976 548.612C733.085 551.721 744.795 554.718 749.855 550.314C750.676 549.562 751.329 548.645 751.773 547.622C752.216 546.6 752.44 545.496 752.429 544.382C752.419 543.267 752.175 542.167 751.712 541.154C751.249 540.14 750.579 539.236 749.745 538.498C746.297 535.255 740.485 534.971 736.077 535.723Z" fill="#21D0B3"/>
<path d="M714.038 509.402C709.47 511.524 702.353 519.825 701.786 520.503C697.055 516.417 692.057 512.651 686.826 509.23C683.785 507.219 680.67 505.295 677.518 503.396C679.082 504.049 680.485 504.629 680.695 504.629C686.445 506.27 698.524 506.072 702.254 500.497C702.848 499.554 703.237 498.496 703.395 497.392C703.553 496.288 703.478 495.163 703.174 494.09C702.869 493.018 702.343 492.021 701.629 491.166C700.915 490.31 700.029 489.615 699.028 489.125C694.854 486.905 689.178 488.175 685.115 490.063C681.052 491.95 674.797 498.931 673.172 500.793C671.94 500.078 670.709 499.35 669.478 498.647C663.629 495.231 657.768 491.863 652.129 488.373C650.134 487.139 648.226 485.906 646.305 484.599C647.697 485.166 648.879 485.647 649.063 485.696C654.813 487.349 666.892 487.139 670.611 481.564C671.204 480.621 671.593 479.563 671.751 478.459C671.91 477.355 671.834 476.23 671.53 475.158C671.226 474.085 670.699 473.088 669.985 472.233C669.271 471.377 668.385 470.682 667.385 470.192C663.211 467.972 657.534 469.243 653.484 471.13C649.433 473.017 643.769 479.32 641.836 481.527C639.903 480.158 637.969 478.802 636.172 477.383C634.941 476.396 633.709 475.533 632.564 474.46L629.08 471.413C626.937 469.391 624.721 467.319 622.677 465.246C621.249 463.853 619.919 462.496 618.565 461.127C620.535 462.36 624.425 464.728 624.783 464.889C630.212 467.356 642.18 469.021 646.712 464.075C647.44 463.232 647.984 462.244 648.307 461.177C648.63 460.11 648.724 458.986 648.585 457.88C648.446 456.773 648.075 455.708 647.498 454.755C646.921 453.801 646.149 452.98 645.234 452.345C641.454 449.508 635.642 449.878 631.345 451.112C626.629 452.481 618.626 459.289 617.641 460.152C615.413 457.883 613.27 455.663 611.275 453.529C606.88 448.83 603.063 444.537 599.899 440.85L596.205 443.316C599.566 447.017 603.654 451.482 608.407 456.329C610.648 458.635 613.098 461.065 615.646 463.532C613.7 466.296 611.927 469.18 610.34 472.166C605.415 470.932 595.7 472.104 594.456 472.265C593.841 469.144 593.225 466.097 592.794 463.224C591.772 457.205 590.984 451.79 590.331 447.128L586.354 449.73C587.019 453.961 587.832 458.722 588.817 463.939C589.42 467.109 590.134 470.488 590.886 473.942C589.654 474.411 579.915 478.308 576.492 481.86C573.389 485.067 570.336 490.038 571.05 494.713C571.182 495.819 571.545 496.886 572.116 497.842C572.687 498.799 573.453 499.624 574.364 500.264C575.275 500.904 576.31 501.344 577.402 501.557C578.495 501.769 579.619 501.749 580.703 501.496C587.179 499.807 591.341 488.447 591.686 482.465C591.686 482.107 591.489 478.259 591.317 475.829C591.637 477.235 591.932 478.617 592.277 480.06C592.942 482.933 593.693 485.783 594.481 488.841C594.912 490.309 595.355 491.789 595.798 493.282C596.242 494.774 596.833 496.304 597.337 497.833C598.569 501.348 600.046 504.839 601.585 508.329C599.123 508.921 590.208 511.142 586.625 513.855C583.042 516.569 579.238 521.009 579.299 525.745C579.263 526.859 579.462 527.968 579.882 529C580.303 530.032 580.935 530.963 581.739 531.734C582.543 532.504 583.5 533.096 584.548 533.471C585.596 533.846 586.71 533.996 587.82 533.91C594.481 533.22 600.317 522.625 601.561 516.766C601.635 516.396 602.053 512.091 602.226 509.723C603.174 511.82 604.097 513.904 605.119 515.989C608.074 522.008 611.275 528.015 614.366 534.009C615.339 535.847 616.274 537.709 617.21 539.535C616.324 539.732 605.71 542.137 601.708 545.184C598.15 547.897 594.321 552.337 594.382 557.074C594.344 558.188 594.542 559.298 594.961 560.331C595.381 561.363 596.014 562.296 596.818 563.067C597.623 563.837 598.58 564.429 599.629 564.804C600.677 565.178 601.793 565.326 602.903 565.239C609.564 564.548 615.388 553.953 616.632 548.094C616.718 547.65 617.309 541.459 617.383 539.868C619.463 543.926 621.495 547.983 623.342 552.066C625.918 557.59 628.135 563.276 629.979 569.087C629.56 569.186 618.478 571.653 614.378 574.761C610.82 577.474 606.991 581.914 606.991 586.651C606.954 587.765 607.153 588.874 607.574 589.906C607.994 590.937 608.627 591.869 609.431 592.639C610.235 593.41 611.192 594.002 612.239 594.377C613.287 594.752 614.402 594.901 615.511 594.816C622.172 594.125 628.008 583.53 629.252 577.672C629.338 577.215 629.979 570.542 630.003 569.321C630.102 569.654 630.249 570 630.348 570.333C631.979 576.18 633.092 582.161 633.672 588.205C634.029 591.547 634.177 594.754 634.263 597.875C632.146 598.121 622.517 599.355 618.515 601.748C614.514 604.14 610.438 608.05 609.896 612.762C609.742 613.864 609.821 614.987 610.127 616.057C610.433 617.127 610.96 618.121 611.674 618.974C612.388 619.828 613.272 620.521 614.27 621.011C615.269 621.5 616.358 621.774 617.469 621.815C624.167 621.815 631.136 611.948 633.007 606.287C633.106 605.978 633.795 602.71 634.239 600.329C634.239 601.735 634.239 603.191 634.239 604.548C634.239 609.617 633.869 614.267 633.525 618.374C633.315 620.705 633.081 622.814 632.835 624.788C630.89 626.12 623.12 631.559 620.719 635.457C618.318 639.354 616.434 644.769 618.158 649.185C618.524 650.237 619.108 651.201 619.87 652.013C620.633 652.825 621.558 653.466 622.586 653.896C623.613 654.325 624.719 654.533 625.831 654.506C626.944 654.478 628.038 654.216 629.043 653.736C635.014 650.677 636.64 638.688 635.679 632.768C635.593 632.25 633.389 624.405 633.291 624.479L633.168 624.553C633.438 622.666 633.709 620.631 633.956 618.386C634.386 614.267 634.83 609.617 634.977 604.535C635.195 599.045 635.092 593.547 634.67 588.069C634.222 581.938 633.233 575.858 631.715 569.901C631.715 569.827 631.715 569.765 631.715 569.691C632.761 571.357 635.839 575.858 636.11 576.228C640.001 580.78 650.196 587.329 656.377 584.69C657.391 584.231 658.297 583.563 659.036 582.73C659.775 581.897 660.331 580.918 660.666 579.855C661.002 578.793 661.111 577.671 660.985 576.564C660.859 575.457 660.501 574.388 659.935 573.429C657.682 569.272 652.24 567.188 647.82 566.522C642.895 565.769 632.33 568.766 631.493 568.988C629.798 562.968 627.705 557.067 625.226 551.326C623.798 547.971 622.258 544.629 620.67 541.311C621.618 542.717 622.48 543.975 622.615 544.135C626.506 548.686 636.701 555.236 642.87 552.596C643.885 552.139 644.792 551.472 645.533 550.64C646.273 549.807 646.83 548.828 647.167 547.765C647.504 546.702 647.613 545.58 647.488 544.473C647.363 543.365 647.006 542.296 646.441 541.335C644.187 537.166 638.745 535.094 634.325 534.416C629.905 533.738 620.781 536.118 618.466 536.772C617.838 535.538 617.235 534.231 616.607 532.973C613.59 526.892 610.561 520.848 607.779 514.817C606.794 512.696 605.907 510.574 605.008 508.44C605.846 509.674 606.572 510.735 606.695 510.907C610.586 515.458 620.781 522.008 626.962 519.381C627.976 518.921 628.882 518.252 629.622 517.418C630.361 516.584 630.916 515.603 631.252 514.539C631.588 513.476 631.696 512.353 631.57 511.245C631.444 510.137 631.086 509.068 630.52 508.107C628.267 503.951 622.825 501.866 618.405 501.2C613.984 500.534 605.796 502.668 602.964 503.445C602.115 501.237 601.253 499.029 600.502 496.859C600.034 495.366 599.48 493.96 599.098 492.431C598.716 490.901 598.286 489.434 597.867 487.953C597.19 485.08 596.488 482.132 595.897 479.32C595.478 477.371 595.109 475.496 594.739 473.609C595.688 475.743 597.645 479.862 597.842 480.183C600.79 484.551 604.804 488.092 609.502 490.47C609.805 490.971 610.156 491.442 610.549 491.876C611.27 492.725 612.161 493.413 613.165 493.895C614.169 494.377 615.263 494.641 616.375 494.671C617.488 494.702 618.595 494.497 619.623 494.07C620.651 493.644 621.579 493.005 622.345 492.196C626.814 487.201 624.031 475.434 621.015 470.254C620.842 469.946 618.552 466.85 617.062 464.926C618.109 465.925 619.106 466.912 620.19 467.923C622.332 469.958 624.524 471.919 626.863 474.09L630.409 477.062C631.579 478.086 632.934 479.011 634.202 479.998C637.194 482.23 640.358 484.352 643.535 486.412C641.762 488.286 635.581 495.046 634.091 499.288C632.601 503.531 631.912 509.304 634.522 513.251C635.107 514.198 635.885 515.012 636.804 515.64C637.723 516.267 638.764 516.694 639.859 516.893C640.954 517.092 642.078 517.058 643.159 516.794C644.239 516.53 645.253 516.041 646.133 515.36C651.316 511.092 650.344 499.029 648.14 493.467C648.004 493.109 645.985 489.298 644.828 487.213C646.761 488.447 648.694 489.68 650.689 490.84C656.463 494.244 662.41 497.488 668.333 500.769C670.143 501.768 671.94 502.791 673.738 503.803C673.11 504.456 665.587 512.338 663.888 517.087C662.41 521.305 661.696 527.102 664.319 531.049C664.903 531.996 665.679 532.81 666.597 533.437C667.516 534.065 668.555 534.492 669.649 534.691C670.743 534.89 671.866 534.856 672.946 534.592C674.026 534.328 675.038 533.839 675.917 533.158C681.101 528.89 680.128 516.828 677.937 511.265C677.764 510.846 674.846 505.344 674.034 503.988C677.998 506.22 681.926 508.477 685.718 510.87C690.844 514.075 695.758 517.605 700.432 521.44C700.137 521.749 692.244 529.926 690.582 534.798C689.104 539.017 688.39 544.814 691.013 548.76C691.598 549.709 692.375 550.523 693.295 551.151C694.215 551.778 695.256 552.205 696.352 552.402C697.447 552.6 698.571 552.565 699.652 552.299C700.732 552.032 701.745 551.541 702.624 550.857C707.795 546.602 706.822 534.539 704.631 528.964C704.458 528.533 701.306 522.625 700.666 521.564L701.503 522.218C706.083 526.195 710.298 530.575 714.099 535.304C716.229 537.894 718.125 540.484 719.911 543.037C718.286 544.407 710.935 550.771 708.915 554.977C706.896 559.183 705.64 564.696 707.82 568.902C708.295 569.91 708.977 570.806 709.822 571.531C710.666 572.257 711.654 572.797 712.721 573.114C713.787 573.432 714.908 573.521 716.012 573.375C717.115 573.23 718.175 572.853 719.123 572.269C724.737 568.569 725.094 556.519 723.518 550.734C723.432 550.413 722.213 547.317 721.29 545.073C722.078 546.244 722.915 547.428 723.654 548.563C726.412 552.818 728.69 556.876 730.672 560.503C731.78 562.562 732.741 564.449 733.627 566.226C732.728 568.409 729.244 577.24 729.392 581.828C729.539 586.416 730.955 591.954 734.809 594.693C735.696 595.366 736.714 595.846 737.798 596.099C738.882 596.353 740.006 596.375 741.099 596.164C742.192 595.954 743.229 595.515 744.141 594.877C745.053 594.239 745.822 593.415 746.395 592.46C749.695 586.626 744.45 575.723 740.387 571.32C740.042 570.937 733.873 565.609 733.837 565.72L733.775 565.855C732.962 564.129 732.063 562.291 731.054 560.293C729.145 556.593 726.954 552.51 724.269 548.181C721.431 543.479 718.319 538.948 714.949 534.613C711.207 529.728 707.037 525.187 702.488 521.046L702.316 520.91C704.101 521.724 709.174 523.821 709.58 523.932C715.33 525.585 727.409 525.375 731.14 519.8C731.734 518.857 732.122 517.799 732.281 516.695C732.439 515.591 732.364 514.466 732.059 513.393C731.755 512.32 731.229 511.324 730.515 510.468C729.8 509.613 728.914 508.918 727.914 508.428C723.777 506.245 718.088 507.552 714.038 509.402Z" fill="#21D0B3"/>
<path d="M635.15 598.824C635.027 598.824 637.612 606.545 637.859 607.014C640.407 612.429 648.522 621.396 655.158 620.582C656.252 620.406 657.296 620.004 658.225 619.399C659.154 618.795 659.946 618.003 660.55 617.073C661.154 616.143 661.557 615.097 661.734 614.002C661.91 612.907 661.855 611.787 661.573 610.714C660.489 606.101 655.798 602.648 651.723 600.847C646.909 598.565 635.15 598.824 635.15 598.824Z" fill="#21D0B3"/>
<path d="M370.919 333.642C374.612 331.545 380.018 323.774 380.018 323.774C380.018 323.774 373.861 321.715 373.443 321.641C368.739 320.728 359.098 321.727 356.5 326.439C356.091 327.234 355.854 328.107 355.803 329C355.753 329.893 355.891 330.787 356.208 331.623C356.525 332.46 357.014 333.22 357.643 333.855C358.273 334.489 359.029 334.984 359.862 335.307C363.358 336.873 367.816 335.455 370.919 333.642Z" fill="#21D0B3"/>
<path d="M394.805 347.345C397.649 344.471 400.703 336.244 400.962 335.59C405.654 337.35 410.458 338.792 415.343 339.907C418.187 340.573 421.081 341.141 423.962 341.708C422.607 341.708 421.388 341.609 421.216 341.622C416.426 341.992 407.401 345.507 406.133 350.737C405.951 351.612 405.954 352.516 406.143 353.39C406.331 354.265 406.701 355.089 407.228 355.811C407.755 356.533 408.427 357.136 409.201 357.582C409.976 358.027 410.835 358.304 411.723 358.396C415.478 358.914 419.406 356.373 421.93 353.82C424.454 351.267 427.237 344.273 427.939 342.423L431.276 343.028C436.632 343.953 441.975 344.866 447.196 345.914C449.031 346.284 450.828 346.716 452.626 347.147C451.395 347.147 450.397 347.073 450.237 347.147C445.46 347.505 436.422 351.02 435.166 356.262C434.982 357.137 434.984 358.041 435.171 358.915C435.358 359.789 435.726 360.614 436.252 361.336C436.778 362.059 437.45 362.662 438.224 363.107C438.998 363.553 439.856 363.83 440.744 363.922C444.512 364.427 448.427 361.887 450.964 359.346C453.5 356.805 456 350.465 456.837 348.245C458.671 348.738 460.531 349.219 462.254 349.787C463.486 350.194 464.606 350.502 465.776 351.02L469.248 352.352C471.415 353.277 473.668 354.215 475.761 355.177C477.227 355.831 478.606 356.41 479.997 357.126C478.175 356.743 474.592 356.053 474.284 356.028C469.494 355.658 460.038 357.767 457.994 362.75C457.679 363.587 457.544 364.482 457.597 365.375C457.65 366.268 457.891 367.14 458.303 367.934C458.716 368.728 459.291 369.426 459.991 369.982C460.691 370.538 461.5 370.94 462.365 371.162C466.059 372.247 470.258 370.335 473.151 368.202C476.316 365.846 480.453 358.495 480.957 357.57C483.26 358.655 485.489 359.74 487.582 360.789C492.199 363.095 496.201 365.266 499.66 367.153L501.766 364.316C498.195 362.429 493.898 360.246 488.973 357.915C486.646 356.805 484.122 355.658 481.524 354.511C482.216 351.889 482.75 349.229 483.124 346.543C487.151 346.099 494.206 342.51 495.056 342.041C496.373 344.212 497.641 346.346 498.749 348.381C501.212 352.624 503.28 356.484 505.029 359.827L507.294 356.756C505.632 353.758 503.687 350.404 501.483 346.753C500.153 344.545 498.688 342.201 497.149 339.809C497.924 339.118 504.192 333.457 505.768 329.843C507.208 326.549 508.144 321.961 506.297 318.643C505.895 317.843 505.329 317.137 504.635 316.571C503.942 316.005 503.137 315.593 502.274 315.36C501.41 315.127 500.507 315.079 499.624 315.22C498.741 315.361 497.897 315.687 497.149 316.176C492.741 319.26 492.753 328.967 494.169 333.568C494.243 333.839 495.474 336.676 496.274 338.501C495.647 337.527 495.043 336.577 494.378 335.59C493.147 333.605 491.731 331.668 490.29 329.584L488.062 326.611C487.348 325.6 486.449 324.625 485.599 323.614C483.666 321.32 481.61 319.1 479.443 316.892C481.167 315.757 487.237 311.613 489.17 308.566C491.103 305.52 492.716 301.166 491.386 297.589C491.104 296.74 490.647 295.961 490.044 295.301C489.442 294.641 488.707 294.115 487.888 293.758C487.07 293.401 486.185 293.22 485.292 293.228C484.4 293.236 483.518 293.431 482.706 293.802C477.892 296.183 476.439 305.779 477.128 310.54C477.128 310.836 478.052 314.24 478.581 316.028C477.288 314.721 476.008 313.401 474.666 312.119C470.775 308.418 466.724 304.718 462.698 301.129L459.004 297.762C459.619 297.367 466.933 292.594 469.113 289.189C471.033 286.168 472.646 281.789 471.329 278.2C471.044 277.36 470.588 276.589 469.989 275.936C469.39 275.283 468.662 274.762 467.851 274.407C467.04 274.052 466.164 273.87 465.279 273.873C464.393 273.877 463.519 274.065 462.71 274.426C457.883 276.806 456.43 286.402 457.132 291.163C457.132 291.521 458.462 296.343 458.844 297.552C456.147 295.085 453.5 292.618 450.976 290.028C447.615 286.558 444.482 282.875 441.594 279.002C441.877 278.817 449.535 273.871 451.764 270.368C453.685 267.346 455.298 262.967 453.98 259.39C453.697 258.55 453.242 257.777 452.643 257.123C452.045 256.469 451.317 255.947 450.506 255.59C449.694 255.234 448.818 255.051 447.932 255.053C447.046 255.056 446.171 255.243 445.361 255.604C440.535 257.984 439.094 267.58 439.784 272.341C439.784 272.711 441.212 277.904 441.532 278.829C441.36 278.607 441.163 278.397 440.99 278.163C438.161 274.214 435.689 270.02 433.603 265.631C432.371 263.165 431.399 260.846 430.475 258.527C431.99 257.75 438.897 254.136 441.249 251.213C443.601 248.29 445.583 244.232 444.659 240.544C444.473 239.669 444.104 238.843 443.578 238.121C443.051 237.398 442.379 236.795 441.604 236.351C440.829 235.906 439.969 235.63 439.08 235.541C438.192 235.451 437.295 235.551 436.447 235.832C431.386 237.658 428.899 247.044 429.059 251.867C429.059 252.126 429.453 254.765 429.761 256.689C429.355 255.628 428.924 254.555 428.53 253.532C427.151 249.696 426.067 246.131 425.23 242.924C424.75 241.111 424.331 239.458 423.999 237.904C425.095 236.363 429.441 230.109 430.155 226.495C430.869 222.881 430.783 218.293 428.271 215.395C427.702 214.706 426.995 214.144 426.196 213.747C425.397 213.349 424.523 213.125 423.631 213.088C422.739 213.05 421.85 213.201 421.02 213.531C420.19 213.86 419.439 214.361 418.815 215C415.121 218.959 417.276 228.432 419.628 232.625C419.837 232.983 423.679 238.274 423.728 238.2L423.802 238.102C424.122 239.606 424.479 241.198 424.91 242.949C425.722 246.168 426.683 249.782 427.988 253.655C429.345 257.856 430.944 261.974 432.778 265.989C434.817 270.483 437.248 274.787 440.042 278.854L440.153 278.989C438.922 278.027 435.326 275.462 435.031 275.289C430.832 272.958 421.364 270.898 417.436 274.561C416.8 275.189 416.303 275.943 415.977 276.776C415.652 277.609 415.504 278.5 415.545 279.394C415.585 280.287 415.813 281.162 416.213 281.961C416.613 282.761 417.177 283.467 417.867 284.034C420.724 286.501 425.402 286.587 428.948 285.859C432.901 285.045 440.03 279.865 440.547 279.446C443.494 283.51 446.711 287.371 450.176 291.003C452.17 293.136 454.263 295.209 456.332 297.268C455.224 296.479 454.226 295.776 454.079 295.69C449.88 293.346 440.412 291.286 436.484 294.962C435.848 295.589 435.351 296.344 435.025 297.177C434.699 298.009 434.552 298.901 434.593 299.794C434.633 300.688 434.861 301.562 435.261 302.362C435.661 303.161 436.225 303.867 436.915 304.434C439.771 306.901 444.45 306.988 447.996 306.26C451.542 305.532 457.674 301.228 459.287 300.093L461.75 302.436C465.702 306.137 469.654 309.837 473.422 313.648C474.764 314.968 476.02 316.324 477.288 317.669C476.303 316.966 475.466 316.374 475.331 316.3C471.144 313.956 461.663 311.909 457.736 315.572C457.1 316.201 456.604 316.956 456.28 317.789C455.955 318.622 455.809 319.514 455.85 320.407C455.892 321.301 456.121 322.175 456.522 322.974C456.923 323.773 457.488 324.478 458.179 325.045C461.023 327.511 465.702 327.598 469.26 326.87C472.819 326.142 478.347 322.257 480.256 320.888C481.487 322.307 482.718 323.725 483.949 325.168C484.713 326.155 485.525 327.067 486.24 328.116L488.394 331.138C489.699 333.111 491.054 335.134 492.273 337.095C493.135 338.452 493.935 339.759 494.735 341.067C493.43 339.735 490.808 337.181 490.574 336.984C487.139 334.521 483.135 332.976 478.938 332.494C478.556 332.193 478.143 331.933 477.707 331.717C476.928 331.28 476.067 331.011 475.178 330.929C474.289 330.847 473.393 330.953 472.548 331.24C471.702 331.528 470.927 331.99 470.271 332.597C469.616 333.204 469.095 333.942 468.743 334.764C466.761 339.772 472.129 347.85 475.835 350.909C476.057 351.094 478.643 352.784 480.293 353.82C479.234 353.364 478.199 352.895 477.104 352.439C474.937 351.501 472.733 350.638 470.381 349.701L466.884 348.467C465.727 348.023 464.421 347.702 463.19 347.308C460.321 346.469 457.366 345.741 454.387 345.088C455.199 343.176 457.97 336.367 457.908 332.753C457.846 329.14 456.775 324.601 453.709 322.368C453.007 321.817 452.196 321.42 451.33 321.203C450.465 320.987 449.563 320.954 448.684 321.109C447.805 321.264 446.969 321.602 446.229 322.101C445.489 322.601 444.862 323.251 444.389 324.009C441.68 328.659 445.755 337.465 448.957 341.042C449.154 341.276 451.739 343.583 453.18 344.829C451.382 344.446 449.597 344.051 447.762 343.731C442.48 342.781 437.099 341.992 431.756 341.165L426.831 340.388C427.126 339.722 430.598 331.693 430.524 327.659C430.463 324.07 429.392 319.507 426.326 317.274C425.623 316.723 424.813 316.326 423.947 316.11C423.081 315.893 422.18 315.86 421.301 316.015C420.422 316.17 419.585 316.508 418.845 317.007C418.105 317.507 417.478 318.157 417.005 318.915C414.296 323.565 418.372 332.371 421.561 335.96C421.807 336.219 425.525 339.55 426.486 340.351C422.878 339.772 419.295 339.118 415.774 338.415C411.029 337.43 406.353 336.141 401.774 334.554C401.91 334.246 405.579 325.92 405.468 321.751C405.406 318.162 404.335 313.599 401.269 311.366C400.567 310.815 399.756 310.418 398.89 310.201C398.025 309.985 397.123 309.952 396.244 310.107C395.365 310.262 394.529 310.6 393.789 311.099C393.049 311.599 392.422 312.249 391.949 313.007C389.24 317.657 393.315 326.463 396.517 330.052C396.763 330.324 400.777 333.901 401.54 334.493C401.282 334.406 400.999 334.332 400.728 334.234C396.177 332.515 391.789 330.393 387.615 327.894C385.3 326.549 383.157 325.119 381.101 323.7C381.938 322.208 385.718 315.375 386.026 311.65C386.334 307.925 385.792 303.423 382.997 300.858C382.358 300.232 381.595 299.749 380.758 299.438C379.92 299.127 379.026 298.995 378.135 299.052C377.243 299.109 376.374 299.353 375.583 299.768C374.791 300.183 374.096 300.76 373.541 301.462C370.34 305.791 373.43 315.029 376.213 318.902C376.361 319.124 378.146 321.11 379.464 322.603C378.54 321.949 377.58 321.283 376.718 320.629C373.455 318.162 370.623 315.782 368.099 313.611C366.695 312.378 365.439 311.206 364.282 310.12C364.356 308.233 364.528 300.611 363.149 297.194C361.77 293.778 359.16 290.004 355.491 289.029C354.634 288.77 353.733 288.694 352.846 288.806C351.958 288.919 351.104 289.218 350.34 289.684C349.575 290.149 348.917 290.771 348.409 291.508C347.901 292.245 347.553 293.082 347.389 293.963C346.527 299.279 353.545 306.026 357.781 308.209C358.15 308.394 364.257 310.675 364.27 310.589V310.478C365.365 311.551 366.547 312.686 367.865 313.907C370.327 316.127 373.11 318.631 376.336 321.135C379.774 323.883 383.371 326.424 387.11 328.745C391.282 331.367 395.678 333.612 400.247 335.455L400.407 335.516C398.844 335.393 394.436 335.233 394.103 335.257C389.314 335.627 380.276 339.143 379.02 344.372C378.836 345.247 378.838 346.151 379.025 347.025C379.212 347.899 379.58 348.724 380.106 349.446C380.632 350.169 381.304 350.772 382.078 351.217C382.851 351.663 383.71 351.94 384.598 352.032C388.366 352.439 392.343 349.898 394.805 347.345Z" fill="#21D0B3"/>
<path d="M429.404 258.108C429.49 258.108 425.39 252.989 425.095 252.705C421.672 249.338 413.077 244.836 408.349 247.303C407.57 247.74 406.892 248.336 406.358 249.053C405.824 249.771 405.448 250.593 405.253 251.465C405.057 252.338 405.048 253.243 405.225 254.119C405.402 254.996 405.762 255.825 406.281 256.553C408.362 259.723 412.856 261.018 416.439 261.24C420.662 261.549 429.392 258.12 429.404 258.108Z" fill="#21D0B3"/>
<g opacity="0.1">
<path d="M284.914 377.71C285.086 376.39 283.56 374.947 283.56 373.591C283.56 372.234 285.086 370.778 284.914 369.471C284.742 368.164 282.895 367.115 282.55 365.771C282.205 364.426 283.301 362.675 282.784 361.441C282.267 360.208 280.235 359.702 279.558 358.555C278.881 357.408 279.484 355.373 278.671 354.312C277.859 353.252 275.753 353.301 274.805 352.351C273.857 351.402 273.919 349.305 272.847 348.478C271.776 347.652 269.782 348.256 268.612 347.59C267.442 346.924 266.974 344.877 265.731 344.359C264.487 343.841 262.714 344.939 261.409 344.593C260.104 344.248 259.119 342.398 257.777 342.225C256.435 342.052 255.031 343.582 253.664 343.582C252.298 343.582 250.869 342.114 249.515 342.274C248.16 342.435 247.175 344.297 245.895 344.642C244.614 344.988 242.792 343.89 241.561 344.408C240.33 344.926 239.837 346.961 238.68 347.64C237.522 348.318 235.503 347.714 234.444 348.528C233.385 349.342 233.434 351.451 232.486 352.401C231.538 353.35 229.445 353.289 228.632 354.362C227.82 355.435 228.411 357.433 227.734 358.605C227.056 359.776 225.025 360.245 224.508 361.491C223.991 362.737 225.099 364.513 224.742 365.82C224.385 367.128 222.562 368.114 222.378 369.52C222.193 370.926 223.732 372.283 223.732 373.64C223.732 374.997 222.218 376.44 222.378 377.759C222.538 379.079 224.397 380.103 224.742 381.46C225.086 382.816 224.003 384.556 224.508 385.789C225.012 387.022 227.069 387.516 227.734 388.675C228.398 389.835 227.807 391.857 228.632 392.918C229.457 393.979 231.538 393.929 232.486 394.879C233.434 395.829 233.385 397.926 234.444 398.752C235.503 399.578 237.522 398.974 238.68 399.64C239.837 400.306 240.33 402.354 241.573 402.872C242.817 403.39 244.59 402.292 245.895 402.637C247.2 402.983 248.173 404.82 249.515 405.005C250.857 405.19 252.273 403.649 253.627 403.649C254.982 403.649 256.435 405.178 257.74 405.005C259.045 404.833 260.091 402.983 261.372 402.637C262.653 402.292 264.463 403.377 265.694 402.872C266.925 402.366 267.43 400.306 268.575 399.64C269.72 398.974 271.752 399.566 272.811 398.74C273.869 397.913 273.82 395.829 274.768 394.879C275.716 393.929 277.822 393.979 278.634 392.918C279.447 391.857 278.856 389.847 279.533 388.675C280.211 387.503 282.242 387.035 282.747 385.789C283.252 384.543 282.168 382.755 282.513 381.46C282.858 380.165 284.742 379.055 284.914 377.71ZM253.664 397.876C248.869 397.876 244.182 396.452 240.195 393.783C236.208 391.115 233.101 387.322 231.266 382.884C229.431 378.447 228.951 373.564 229.886 368.853C230.822 364.142 233.131 359.814 236.521 356.418C239.912 353.021 244.232 350.708 248.935 349.771C253.637 348.834 258.512 349.315 262.942 351.153C267.372 352.992 271.158 356.104 273.822 360.098C276.486 364.092 277.908 368.787 277.908 373.591C277.905 380.031 275.349 386.206 270.804 390.76C266.258 395.313 260.093 397.873 253.664 397.876Z" fill="black"/>
<path d="M267.379 387.33C274.953 379.743 274.953 367.443 267.379 359.857C259.806 352.27 247.527 352.27 239.954 359.857C232.381 367.443 232.381 379.743 239.954 387.33C247.527 394.916 259.806 394.916 267.379 387.33Z" fill="black"/>
</g>
<g opacity="0.1">
<path d="M765.111 368.609C765.332 366.857 763.301 364.908 763.301 363.108C763.301 361.307 765.332 359.407 765.111 357.607C764.889 355.806 762.414 354.474 761.959 352.759C761.503 351.045 762.956 348.615 762.266 346.975C761.577 345.334 758.856 344.656 757.969 343.114C757.083 341.572 757.858 338.871 756.738 337.453C755.618 336.034 752.847 336.108 751.579 334.838C750.311 333.568 750.348 330.768 748.969 329.67C747.59 328.572 744.868 329.374 743.317 328.437C741.766 327.499 741.125 324.823 739.463 324.132C737.801 323.441 735.437 324.909 733.689 324.44C731.94 323.972 730.647 321.517 728.85 321.283C727.052 321.048 725.156 323.096 723.358 323.096C721.56 323.096 719.664 321.061 717.867 321.283C716.069 321.505 714.739 323.984 713.028 324.44C711.316 324.897 708.903 323.454 707.253 324.132C705.603 324.81 704.951 327.549 703.399 328.449C701.848 329.349 699.164 328.548 697.748 329.682C696.332 330.817 696.467 333.568 695.236 334.875C694.005 336.182 691.173 336.108 690.089 337.49C689.006 338.871 689.794 341.597 688.858 343.151C687.922 344.705 685.238 345.347 684.548 347.012C683.859 348.677 685.336 351.045 684.869 352.796C684.401 354.548 681.95 355.843 681.716 357.644C681.483 359.445 683.514 361.344 683.514 363.145C683.514 364.945 681.483 366.845 681.716 368.646C681.95 370.447 684.413 371.779 684.869 373.493C685.324 375.207 683.871 377.625 684.548 379.278C685.226 380.93 687.959 381.584 688.858 383.138C689.757 384.692 688.969 387.381 690.089 388.8C691.21 390.218 693.98 390.144 695.236 391.414C696.492 392.685 696.467 395.485 697.846 396.57C699.225 397.655 701.946 396.866 703.51 397.803C705.074 398.741 705.702 401.43 707.364 402.12C709.026 402.811 711.39 401.343 713.126 401.8C714.862 402.256 716.18 404.723 717.965 404.957C719.751 405.192 721.659 403.156 723.457 403.156C725.254 403.156 727.15 405.192 728.948 404.957C730.746 404.723 732.076 402.256 733.787 401.8C735.499 401.343 737.924 402.799 739.562 402.12C741.199 401.442 741.877 398.704 743.416 397.803C744.955 396.903 747.651 397.705 749.067 396.57C750.483 395.435 750.409 392.673 751.677 391.414C752.946 390.156 755.741 390.181 756.837 388.8C757.932 387.418 757.132 384.692 758.068 383.138C759.004 381.584 761.675 380.93 762.365 379.278C763.054 377.625 761.589 375.232 762.057 373.493C762.525 371.754 764.877 370.397 765.111 368.609ZM723.395 395.522C716.995 395.522 710.739 393.621 705.418 390.059C700.097 386.497 695.949 381.435 693.5 375.512C691.051 369.589 690.41 363.072 691.659 356.784C692.908 350.496 695.989 344.721 700.515 340.188C705.04 335.654 710.806 332.567 717.082 331.317C723.359 330.066 729.865 330.708 735.778 333.161C741.691 335.614 746.744 339.769 750.3 345.099C753.855 350.43 755.753 356.697 755.753 363.108C755.75 371.703 752.34 379.946 746.272 386.024C740.204 392.102 731.976 395.518 723.395 395.522Z" fill="black"/>
<path d="M738.308 381.542C749.743 372.951 752.061 356.7 743.485 345.245C734.908 333.79 718.686 331.469 707.251 340.06C695.816 348.651 693.498 364.902 702.074 376.357C710.651 387.812 726.873 390.133 738.308 381.542Z" fill="black"/>
</g>
<g opacity="0.1">
<path d="M697.181 632.286C691.824 632.286 686.587 633.877 682.132 636.859C677.677 639.84 674.205 644.078 672.155 649.037C670.105 653.995 669.569 659.451 670.614 664.714C671.659 669.978 674.239 674.813 678.027 678.608C681.815 682.403 686.642 684.987 691.897 686.034C697.151 687.081 702.598 686.544 707.547 684.49C712.497 682.436 716.728 678.958 719.704 674.496C722.681 670.034 724.269 664.787 724.269 659.421C724.269 652.224 721.415 645.322 716.335 640.233C711.255 635.144 704.365 632.286 697.181 632.286ZM698.93 678.242V681.104H695.482V678.242C690.803 677.601 688.698 674.036 688.698 668.918V666.661H692.626V669.251C692.626 672.643 694.029 674.592 697.046 674.592C700.062 674.592 701.466 672.643 701.466 669.251C701.466 660.839 688.858 660.728 688.858 650.096C688.858 644.916 690.963 641.524 695.482 640.821V637.799H698.93V640.759C703.51 641.413 705.603 644.965 705.603 650.034V651.058H701.675V649.763C701.675 646.42 700.333 644.373 697.317 644.373C694.3 644.373 693.007 646.42 693.007 649.763C693.007 658.237 705.665 658.286 705.665 668.918C705.665 673.987 703.51 677.601 698.93 678.242Z" fill="black"/>
<path d="M697.181 615.018C688.414 615.018 679.845 617.622 672.555 622.501C665.266 627.38 659.584 634.315 656.23 642.429C652.875 650.542 651.997 659.47 653.707 668.083C655.417 676.697 659.639 684.608 665.838 690.818C672.037 697.028 679.935 701.257 688.534 702.97C697.132 704.684 706.045 703.804 714.144 700.443C722.244 697.083 729.166 691.392 734.037 684.09C738.908 676.788 741.507 668.203 741.507 659.421C741.507 647.644 736.837 636.35 728.524 628.023C720.212 619.696 708.937 615.018 697.181 615.018ZM697.181 692.723C690.606 692.723 684.179 690.77 678.712 687.11C673.245 683.451 668.984 678.25 666.467 672.165C663.951 666.08 663.293 659.384 664.576 652.924C665.858 646.464 669.025 640.53 673.674 635.873C678.323 631.215 684.247 628.044 690.696 626.759C697.144 625.474 703.829 626.133 709.903 628.654C715.978 631.174 721.17 635.443 724.823 640.919C728.476 646.396 730.426 652.834 730.426 659.421C730.426 668.253 726.923 676.724 720.689 682.969C714.454 689.214 705.998 692.723 697.181 692.723Z" fill="black"/>
</g>
<g opacity="0.1">
<path d="M592.511 670.781C588.727 670.781 585.027 671.905 581.881 674.011C578.734 676.118 576.282 679.111 574.833 682.613C573.385 686.116 573.006 689.97 573.744 693.688C574.483 697.406 576.305 700.821 578.981 703.502C581.657 706.182 585.066 708.008 588.778 708.747C592.49 709.487 596.337 709.107 599.833 707.657C603.329 706.206 606.318 703.749 608.42 700.597C610.523 697.445 611.645 693.739 611.645 689.948C611.645 687.431 611.15 684.939 610.188 682.613C609.227 680.288 607.817 678.175 606.041 676.395C604.264 674.615 602.155 673.204 599.833 672.24C597.512 671.277 595.024 670.781 592.511 670.781ZM593.742 703.245V705.267H591.28V703.245C587.967 702.788 586.49 700.272 586.49 696.646V695.03H589.346V696.856C589.346 699.248 590.331 700.63 592.462 700.63C594.592 700.63 595.589 699.248 595.589 696.856C595.589 690.91 586.687 690.836 586.687 683.288C586.687 679.588 588.164 677.232 591.366 676.739V674.605H593.828V676.739C597.054 677.195 598.544 679.711 598.544 683.288V684.016H595.761V683.103C595.761 680.735 594.813 679.292 592.683 679.292C590.553 679.292 589.642 680.735 589.642 683.103C589.642 689.085 598.581 689.122 598.581 696.67C598.507 700.235 596.98 702.788 593.754 703.245H593.742Z" fill="black"/>
<path d="M592.511 658.583C586.318 658.583 580.264 660.422 575.115 663.869C569.966 667.315 565.953 672.214 563.583 677.945C561.213 683.676 560.593 689.983 561.801 696.067C563.009 702.152 565.991 707.74 570.37 712.127C574.749 716.513 580.329 719.501 586.402 720.711C592.476 721.921 598.772 721.3 604.493 718.926C610.215 716.552 615.105 712.532 618.545 707.374C621.986 702.216 623.822 696.152 623.822 689.948C623.822 681.629 620.523 673.651 614.651 667.769C608.779 661.887 600.815 658.583 592.511 658.583ZM592.511 713.469C587.867 713.469 583.327 712.09 579.466 709.505C575.605 706.921 572.595 703.247 570.818 698.949C569.041 694.651 568.576 689.922 569.482 685.359C570.388 680.797 572.624 676.606 575.908 673.316C579.191 670.027 583.375 667.786 587.93 666.879C592.485 665.971 597.206 666.437 601.496 668.217C605.787 669.998 609.454 673.012 612.034 676.88C614.614 680.748 615.991 685.296 615.991 689.948C615.999 693.042 615.398 696.107 614.222 698.968C613.045 701.829 611.317 704.429 609.136 706.62C606.955 708.811 604.363 710.549 601.511 711.735C598.658 712.92 595.6 713.531 592.511 713.531V713.469Z" fill="black"/>
</g>
<g opacity="0.1">
<path d="M559.439 604.189C555.654 604.189 551.955 605.313 548.809 607.419C545.662 609.525 543.21 612.519 541.761 616.021C540.313 619.523 539.934 623.377 540.672 627.095C541.411 630.813 543.233 634.229 545.909 636.909C548.585 639.59 551.994 641.415 555.706 642.155C559.418 642.895 563.265 642.515 566.761 641.064C570.257 639.614 573.246 637.157 575.348 634.005C577.451 630.853 578.573 627.147 578.573 623.356C578.574 620.839 578.081 618.345 577.12 616.019C576.159 613.693 574.749 611.579 572.972 609.799C571.195 608.019 569.085 606.607 566.763 605.645C564.441 604.682 561.952 604.187 559.439 604.189ZM560.67 636.652V638.663H558.208V636.652C554.908 636.196 553.418 633.68 553.418 630.054V628.425H556.201V630.251C556.201 632.644 557.186 634.025 559.316 634.025C561.446 634.025 562.431 632.644 562.431 630.251C562.431 624.306 553.529 624.232 553.529 616.683C553.529 612.983 555.019 610.627 558.208 610.134V608H560.67V610.134C563.908 610.59 565.386 613.107 565.386 616.683V617.411H562.616V616.498C562.616 614.13 561.655 612.687 559.525 612.687C557.395 612.687 556.484 614.13 556.484 616.498C556.484 622.48 565.423 622.517 565.423 630.066C565.423 633.643 563.908 636.196 560.67 636.652Z" fill="black"/>
<path d="M559.439 591.991C553.246 591.988 547.191 593.826 542.04 597.271C536.889 600.716 532.874 605.614 530.502 611.345C528.13 617.076 527.509 623.383 528.715 629.468C529.922 635.553 532.903 641.143 537.282 645.531C541.66 649.919 547.239 652.907 553.313 654.118C559.388 655.33 565.684 654.709 571.406 652.335C577.128 649.962 582.019 645.942 585.46 640.783C588.901 635.625 590.738 629.56 590.738 623.356C590.739 619.238 589.931 615.16 588.359 611.354C586.787 607.549 584.481 604.091 581.575 601.178C578.668 598.266 575.217 595.955 571.419 594.379C567.621 592.802 563.55 591.991 559.439 591.991ZM559.439 646.877C554.795 646.877 550.255 645.498 546.394 642.913C542.533 640.329 539.523 636.655 537.746 632.357C535.969 628.06 535.504 623.33 536.41 618.768C537.316 614.205 539.552 610.014 542.836 606.724C546.119 603.435 550.303 601.195 554.858 600.287C559.413 599.38 564.134 599.845 568.424 601.626C572.715 603.406 576.382 606.421 578.962 610.289C581.542 614.157 582.919 618.704 582.919 623.356C582.926 626.449 582.323 629.513 581.146 632.373C579.969 635.232 578.24 637.831 576.059 640.02C573.878 642.209 571.288 643.946 568.436 645.132C565.584 646.317 562.526 646.927 559.439 646.927V646.877Z" fill="black"/>
</g>
<path opacity="0.1" d="M298.495 241.172H316.607L307.545 225.471L298.495 241.172Z" fill="black"/>
<path opacity="0.1" d="M262.948 241.172H281.06L272.01 225.471L262.948 241.172Z" fill="black"/>
<path opacity="0.1" d="M289.778 204.959C282.808 204.959 275.995 207.03 270.2 210.909C264.405 214.787 259.888 220.301 257.221 226.751C254.554 233.201 253.856 240.299 255.216 247.146C256.575 253.994 259.931 260.284 264.86 265.221C269.788 270.157 276.067 273.519 282.903 274.881C289.738 276.244 296.824 275.544 303.263 272.873C309.702 270.201 315.206 265.676 319.078 259.871C322.95 254.066 325.017 247.241 325.017 240.26C325.007 230.9 321.291 221.927 314.685 215.309C308.078 208.692 299.121 204.969 289.778 204.959ZM314.699 246.069H300.403C299.706 246.069 299.021 245.885 298.417 245.536C297.812 245.187 297.31 244.685 296.961 244.08C296.612 243.475 296.428 242.789 296.427 242.09C296.426 241.392 296.608 240.705 296.956 240.099L307.299 222.141H292.215V256.43H297.805V259.353H305.599V263.46H274.928V259.353H281.737V256.43H288.916V222.079H272.257L282.599 240.038C282.962 240.645 283.158 241.338 283.165 242.046C283.172 242.754 282.99 243.451 282.639 244.065C282.288 244.679 281.78 245.189 281.167 245.541C280.554 245.893 279.858 246.075 279.152 246.069H264.857C264.159 246.069 263.474 245.885 262.87 245.536C262.265 245.187 261.764 244.685 261.414 244.08C261.065 243.475 260.881 242.789 260.88 242.09C260.879 241.392 261.061 240.705 261.409 240.099L271.752 222.141H271.333C270.915 222.105 270.526 221.913 270.243 221.604C269.959 221.294 269.802 220.89 269.802 220.47C269.802 220.05 269.959 219.645 270.243 219.335C270.526 219.026 270.915 218.834 271.333 218.798H288.916C288.952 218.38 289.143 217.99 289.452 217.706C289.761 217.422 290.165 217.265 290.584 217.265C291.003 217.265 291.407 217.422 291.716 217.706C292.025 217.99 292.216 218.38 292.252 218.798H309.749C309.98 218.778 310.213 218.807 310.432 218.882C310.652 218.957 310.854 219.077 311.024 219.234C311.195 219.391 311.332 219.582 311.425 219.795C311.519 220.007 311.567 220.237 311.567 220.47C311.567 220.702 311.519 220.932 311.425 221.145C311.332 221.357 311.195 221.548 311.024 221.705C310.854 221.863 310.652 221.982 310.432 222.057C310.213 222.132 309.98 222.161 309.749 222.141H307.791L318.146 240.099C318.494 240.705 318.676 241.392 318.675 242.09C318.674 242.789 318.49 243.475 318.141 244.08C317.792 244.685 317.29 245.187 316.685 245.536C316.081 245.885 315.396 246.069 314.699 246.069Z" fill="black"/>
<path opacity="0.1" d="M289.778 199.841C281.797 199.841 273.996 202.211 267.361 206.653C260.726 211.094 255.554 217.406 252.5 224.792C249.446 232.178 248.647 240.304 250.204 248.145C251.761 255.985 255.604 263.187 261.247 268.84C266.889 274.493 274.079 278.342 281.906 279.902C289.733 281.461 297.846 280.661 305.218 277.602C312.591 274.542 318.893 269.362 323.326 262.715C327.76 256.068 330.126 248.254 330.126 240.26C330.126 229.54 325.875 219.259 318.308 211.679C310.742 204.099 300.479 199.841 289.778 199.841ZM289.778 276.793C282.564 276.793 275.513 274.65 269.516 270.636C263.518 266.622 258.844 260.916 256.083 254.24C253.323 247.565 252.601 240.219 254.008 233.132C255.415 226.045 258.889 219.536 263.989 214.426C269.09 209.317 275.588 205.838 282.663 204.428C289.737 203.018 297.07 203.742 303.734 206.507C310.398 209.272 316.094 213.955 320.102 219.963C324.109 225.971 326.248 233.034 326.248 240.26C326.235 249.945 322.388 259.23 315.552 266.078C308.715 272.927 299.446 276.78 289.778 276.793Z" fill="black"/>
<path opacity="0.1" d="M325.374 654.931H343.486L334.436 639.218L325.374 654.931Z" fill="black"/>
<path opacity="0.1" d="M289.839 654.931H307.951L298.889 639.218L289.839 654.931Z" fill="black"/>
<path opacity="0.1" d="M316.656 618.719C309.686 618.719 302.872 620.789 297.077 624.669C291.282 628.548 286.765 634.062 284.098 640.513C281.432 646.964 280.734 654.062 282.095 660.91C283.456 667.758 286.813 674.048 291.743 678.984C296.672 683.921 302.952 687.282 309.789 688.642C316.626 690.003 323.711 689.302 330.15 686.628C336.589 683.955 342.092 679.428 345.962 673.622C349.833 667.815 351.898 660.989 351.895 654.007C351.886 644.648 348.169 635.677 341.562 629.061C334.956 622.445 325.998 618.725 316.656 618.719ZM341.59 659.754H327.282C326.584 659.756 325.898 659.573 325.294 659.224C324.689 658.875 324.187 658.372 323.838 657.766C323.49 657.16 323.307 656.473 323.309 655.774C323.31 655.075 323.496 654.389 323.847 653.785L334.19 635.838H319.106V670.177H324.696V673.1H332.49V677.207H301.807V673.1H308.616V670.177H315.757V635.826H299.135L309.478 653.772C309.829 654.376 310.015 655.063 310.016 655.762C310.018 656.461 309.835 657.148 309.486 657.754C309.138 658.359 308.636 658.862 308.031 659.211C307.427 659.56 306.741 659.743 306.043 659.742H291.735C291.037 659.743 290.351 659.56 289.747 659.211C289.142 658.862 288.64 658.359 288.292 657.754C287.943 657.148 287.76 656.461 287.762 655.762C287.763 655.063 287.949 654.376 288.3 653.772L298.643 635.826H298.224C297.78 635.826 297.354 635.649 297.04 635.335C296.726 635.02 296.55 634.594 296.55 634.149C296.55 633.704 296.726 633.277 297.04 632.963C297.354 632.648 297.78 632.471 298.224 632.471H315.757C315.757 632.026 315.934 631.6 316.248 631.285C316.562 630.971 316.988 630.794 317.432 630.794C317.876 630.794 318.302 630.971 318.616 631.285C318.93 631.6 319.106 632.026 319.106 632.471H336.64C337.084 632.471 337.51 632.648 337.824 632.963C338.138 633.277 338.314 633.704 338.314 634.149C338.314 634.594 338.138 635.02 337.824 635.335C337.51 635.649 337.084 635.826 336.64 635.826H334.682L345.025 653.772C345.375 654.377 345.56 655.064 345.561 655.764C345.562 656.463 345.38 657.151 345.031 657.757C344.683 658.363 344.182 658.867 343.578 659.218C342.974 659.568 342.288 659.753 341.59 659.754Z" fill="black"/>
<path opacity="0.1" d="M316.656 613.625C308.676 613.625 300.875 615.995 294.24 620.436C287.604 624.878 282.433 631.19 279.379 638.576C276.325 645.961 275.526 654.088 277.083 661.929C278.64 669.769 282.482 676.971 288.125 682.624C293.768 688.276 300.958 692.126 308.785 693.685C316.611 695.245 324.724 694.445 332.097 691.385C339.47 688.326 345.772 683.146 350.205 676.499C354.639 669.852 357.005 662.037 357.005 654.043C357.005 643.324 352.754 633.043 345.187 625.463C337.62 617.883 327.357 613.625 316.656 613.625ZM316.656 690.577C309.443 690.577 302.392 688.434 296.394 684.42C290.397 680.405 285.722 674.7 282.962 668.024C280.202 661.348 279.479 654.003 280.887 646.916C282.294 639.829 285.767 633.319 290.868 628.21C295.968 623.101 302.467 619.621 309.541 618.212C316.616 616.802 323.949 617.526 330.613 620.291C337.277 623.056 342.973 627.738 346.98 633.746C350.988 639.754 353.127 646.818 353.127 654.043C353.107 663.723 349.257 673 342.421 679.842C335.585 686.683 326.319 690.53 316.656 690.54V690.577Z" fill="black"/>
<path d="M495.77 753C636.533 753 750.643 748.582 750.643 743.133C750.643 737.683 636.533 733.266 495.77 733.266C355.007 733.266 240.896 737.683 240.896 743.133C240.896 748.582 355.007 753 495.77 753Z" fill="#263238"/>
<path d="M676.127 493.577C683.404 494.934 691.345 490.259 695.827 482.748C699.238 477.111 700.432 471.548 701.824 465.172C703.387 458.215 757.465 206.366 758.031 203.874H484.147L428.395 463.395L426.129 473.867C425.659 476.046 424.826 478.131 423.666 480.034L422.017 482.785C420.273 485.676 417.772 488.033 414.786 489.602C411.8 491.171 408.442 491.89 405.076 491.683C401.711 491.476 398.466 490.35 395.694 488.427C392.922 486.504 390.728 483.857 389.351 480.774C387.08 475.681 383.404 471.343 378.756 468.271C374.107 465.199 368.68 463.52 363.112 463.432H362.09C355.611 463.554 349.355 465.825 344.302 469.89C339.249 473.954 335.684 479.582 334.165 485.893L311.547 579.903H585.394L606.178 493.565" fill="white"/>
<path d="M676.127 493.577C683.404 494.934 691.345 490.259 695.827 482.748C699.238 477.111 700.432 471.548 701.824 465.172C703.387 458.215 757.465 206.366 758.031 203.874H484.147L428.395 463.395L426.129 473.867C425.659 476.046 424.826 478.131 423.666 480.034L422.017 482.785C420.273 485.676 417.772 488.033 414.786 489.602C411.8 491.17 408.442 491.89 405.076 491.683C401.711 491.476 398.466 490.35 395.694 488.427C392.922 486.504 390.728 483.857 389.351 480.774C387.08 475.681 383.404 471.343 378.756 468.271C374.107 465.199 368.68 463.52 363.112 463.432H362.09C355.611 463.554 349.355 465.825 344.302 469.89C339.249 473.954 335.684 479.582 334.165 485.893L311.547 579.903H585.394L606.178 493.565" stroke="#263238" stroke-linecap="round" stroke-linejoin="round"/>
<path d="M570.878 233.168L570.484 235.24H568.021L568.44 233.032C568.846 230.96 568.267 229.714 566.383 229.714C564.5 229.714 563.453 230.947 563.047 233.032L560.707 245.23C560.301 247.302 560.917 248.548 562.763 248.548C564.61 248.548 565.706 247.315 566.1 245.23L566.679 242.233H569.141L568.6 245.095C567.922 248.585 565.829 250.892 562.283 250.892C558.737 250.892 557.567 248.585 558.232 245.095L560.535 233.168C561.2 229.677 563.293 227.371 566.814 227.371C570.336 227.371 571.493 229.677 570.878 233.168Z" fill="#263238"/>
<path d="M572.958 233.168C573.636 229.64 575.815 227.371 579.336 227.371C582.858 227.371 584.188 229.64 583.51 233.168L581.22 245.095C580.543 248.585 578.364 250.892 574.805 250.892C571.247 250.892 569.991 248.585 570.656 245.095L572.958 233.168ZM573.168 245.23C572.761 247.339 573.414 248.548 575.261 248.548C577.108 248.548 578.216 247.315 578.622 245.23L580.974 233.032C581.368 230.96 580.752 229.714 578.881 229.714C577.009 229.714 575.913 230.947 575.519 233.032L573.168 245.23Z" fill="#263238"/>
<path d="M584.853 250.657H582.55L586.983 227.568H590.246L592.363 244.231L595.577 227.568H597.842L593.398 250.62H590.738L588.436 231.983L584.853 250.657Z" fill="#263238"/>
<path d="M599.357 250.657L603.346 229.936H599.098L599.554 227.605H610.574L610.118 229.936H605.883L601.893 250.657H599.357Z" fill="#263238"/>
<path d="M617.444 227.568C621.064 227.568 622.222 229.406 621.569 232.835L621.2 234.709C620.72 237.25 619.525 238.829 617.432 239.458C619.414 240.087 619.895 241.801 619.402 244.268L618.7 247.857C618.462 248.763 618.462 249.715 618.7 250.62H616.09C615.903 249.691 615.946 248.73 616.213 247.82L616.903 244.207C617.407 241.592 616.349 240.778 614.206 240.778H612.396L610.5 250.645H607.939L612.31 227.568H617.444ZM614.699 238.434C615.163 238.502 615.636 238.472 616.088 238.346C616.54 238.221 616.961 238.003 617.324 237.706C617.688 237.409 617.986 237.04 618.199 236.622C618.413 236.204 618.537 235.746 618.565 235.277L618.983 233.069C619.39 230.984 618.836 229.899 616.927 229.899H614.465L612.741 238.471L614.699 238.434Z" fill="#263238"/>
<path d="M624.327 246.069L622.591 250.657H620.129L629.031 227.568H632.724V250.62H630.163V246.069H624.327ZM625.078 243.861H630.213V230.553L625.078 243.861Z" fill="#263238"/>
<path d="M648.214 233.168L647.82 235.24H645.357L645.788 233.032C646.182 230.96 645.604 229.714 643.732 229.714C641.861 229.714 640.789 230.947 640.395 233.032L638.044 245.23C637.65 247.302 638.253 248.548 640.1 248.548C641.947 248.548 643.043 247.315 643.437 245.23L644.015 242.233H646.478L645.985 245.095C645.308 248.585 643.227 250.892 639.669 250.892C636.11 250.892 634.904 248.536 635.556 245.095L637.859 233.168C638.524 229.677 640.617 227.371 644.138 227.371C647.66 227.371 648.891 229.677 648.214 233.168Z" fill="#263238"/>
<path d="M650.504 250.657L654.493 229.936H650.258L650.701 227.605H661.721L661.278 229.936H657.067L653.077 250.657H650.504Z" fill="#263238"/>
<path d="M491.202 261.931H732.766" stroke="#263238" stroke-miterlimit="10"/>
<path d="M668.505 288.745H725.033" stroke="#263238" stroke-miterlimit="10"/>
<path d="M579.854 288.745H662.558" stroke="#263238" stroke-miterlimit="10"/>
<path d="M524.52 288.745H575.101" stroke="#263238" stroke-miterlimit="10"/>
<path d="M483.469 288.745H519.767" stroke="#263238" stroke-miterlimit="10"/>
<path d="M661.364 302.448H722.053" stroke="#263238" stroke-miterlimit="10"/>
<path d="M523.929 302.448H655.417" stroke="#263238" stroke-miterlimit="10"/>
<path d="M480.502 302.448H518.573" stroke="#263238" stroke-miterlimit="10"/>
<path d="M648.879 316.164H719.086" stroke="#263238" stroke-miterlimit="10"/>
<path d="M543.568 316.164H644.114" stroke="#263238" stroke-miterlimit="10"/>
<path d="M477.522 316.164H538.803" stroke="#263238" stroke-miterlimit="10"/>
<path d="M672.076 329.867H716.106" stroke="#263238" stroke-miterlimit="10"/>
<path d="M604.848 329.867H666.129" stroke="#263238" stroke-miterlimit="10"/>
<path d="M539.997 329.867H598.901" stroke="#263238" stroke-miterlimit="10"/>
<path d="M491.202 329.867H534.641" stroke="#263238" stroke-miterlimit="10"/>
<path d="M474.543 329.867H485.846" stroke="#263238" stroke-miterlimit="10"/>
<path d="M703.018 343.582H713.127" stroke="#263238" stroke-miterlimit="10"/>
<path d="M602.46 343.582H695.285" stroke="#263238" stroke-miterlimit="10"/>
<path d="M531.661 343.582H596.513" stroke="#263238" stroke-miterlimit="10"/>
<path d="M471.575 343.582H525.123" stroke="#263238" stroke-miterlimit="10"/>
<path d="M689.929 357.285H710.159" stroke="#263238" stroke-miterlimit="10"/>
<path d="M631.025 357.285H684.573" stroke="#263238" stroke-miterlimit="10"/>
<path d="M613.172 357.285H625.078" stroke="#263238" stroke-miterlimit="10"/>
<path d="M527.5 357.285H610.204" stroke="#263238" stroke-miterlimit="10"/>
<path d="M468.596 357.285H522.735" stroke="#263238" stroke-miterlimit="10"/>
<path d="M465.616 370.988H707.18" stroke="#263238" stroke-miterlimit="10"/>
<path d="M691.715 384.704H704.212" stroke="#263238" stroke-miterlimit="10"/>
<path d="M636.972 384.704H683.982" stroke="#263238" stroke-miterlimit="10"/>
<path d="M558.442 384.704H628.649" stroke="#263238" stroke-miterlimit="10"/>
<path d="M541.179 384.704H553.086" stroke="#263238" stroke-miterlimit="10"/>
<path d="M486.449 384.704H534.641" stroke="#263238" stroke-miterlimit="10"/>
<path d="M462.649 384.704H479.308" stroke="#263238" stroke-miterlimit="10"/>
<path d="M640.543 398.407H701.233" stroke="#263238" stroke-miterlimit="10"/>
<path d="M576.283 398.407H632.811" stroke="#263238" stroke-miterlimit="10"/>
<path d="M526.909 398.407H570.336" stroke="#263238" stroke-miterlimit="10"/>
<path d="M459.669 398.407H520.949" stroke="#263238" stroke-miterlimit="10"/>
<path d="M679.217 412.123H698.253" stroke="#263238" stroke-miterlimit="10"/>
<path d="M616.151 412.123H672.667" stroke="#263238" stroke-miterlimit="10"/>
<path d="M575.692 412.123H611.99" stroke="#263238" stroke-miterlimit="10"/>
<path d="M542.965 412.123H569.745" stroke="#263238" stroke-miterlimit="10"/>
<path d="M512.035 412.123H538.212" stroke="#263238" stroke-miterlimit="10"/>
<path d="M472.757 412.123H505.485" stroke="#263238" stroke-miterlimit="10"/>
<path d="M456.702 412.123H467.401" stroke="#263238" stroke-miterlimit="10"/>
<path d="M663.149 425.826H695.285" stroke="#263238" stroke-miterlimit="10"/>
<path d="M606.634 425.826H656.008" stroke="#263238" stroke-miterlimit="10"/>
<path d="M553.677 425.826H599.492" stroke="#263238" stroke-miterlimit="10"/>
<path d="M491.805 425.826H546.535" stroke="#263238" stroke-miterlimit="10"/>
<path d="M453.722 425.826H485.846" stroke="#263238" stroke-miterlimit="10"/>
<path d="M661.364 439.529H692.306" stroke="#263238" stroke-miterlimit="10"/>
<path d="M607.816 439.529H655.417" stroke="#263238" stroke-miterlimit="10"/>
<path d="M552.482 439.529H599.492" stroke="#263238" stroke-miterlimit="10"/>
<path d="M514.411 439.529H547.139" stroke="#263238" stroke-miterlimit="10"/>
<path d="M475.146 439.529H508.464" stroke="#263238" stroke-miterlimit="10"/>
<path d="M450.742 439.529H471.575" stroke="#263238" stroke-miterlimit="10"/>
<path d="M671.485 453.245H689.326" stroke="#263238" stroke-miterlimit="10"/>
<path d="M610.796 453.245H665.538" stroke="#263238" stroke-miterlimit="10"/>
<path d="M562.603 453.245H603.654" stroke="#263238" stroke-miterlimit="10"/>
<path d="M531.07 453.245H556.053" stroke="#263238" stroke-miterlimit="10"/>
<path d="M480.502 453.245H522.144" stroke="#263238" stroke-miterlimit="10"/>
<path d="M447.775 453.245H476.328" stroke="#263238" stroke-miterlimit="10"/>
<path d="M634.054 463.396V463.482C627.919 463.995 622.102 466.433 617.431 470.45C612.759 474.468 609.472 479.859 608.037 485.856L585.394 579.903H311.547L334.177 485.856C335.696 479.545 339.261 473.917 344.314 469.853C349.368 465.788 355.624 463.518 362.103 463.396H634.054Z" fill="white" stroke="#263238" stroke-linecap="round" stroke-linejoin="round"/>
<path d="M676.127 493.577H606.178L608.037 485.856C609.484 479.864 612.775 474.48 617.444 470.465C622.112 466.45 627.923 464.007 634.054 463.481C634.855 463.42 635.655 463.383 636.455 463.383C647.537 463.383 658.926 469.464 663.223 480.737C666.252 488.705 671.017 492.615 676.127 493.577Z" fill="#263238" stroke="#263238" stroke-linecap="round" stroke-linejoin="round"/>
<path d="M590.479 485.535C590.479 486.447 588.251 487.126 588.091 488.002C587.931 488.877 589.741 490.333 589.421 491.159C589.1 491.985 586.773 491.838 586.318 492.615C585.862 493.392 587.093 495.34 586.515 496.031C585.936 496.722 583.794 495.858 583.116 496.463C582.439 497.067 583.116 499.287 582.378 499.805C581.639 500.323 579.767 498.942 578.979 499.361C578.191 499.781 578.314 502.112 577.477 502.445C576.64 502.778 575.113 501.039 574.251 501.285C573.389 501.532 573.02 503.839 572.158 503.999C571.296 504.159 570.114 502.149 569.215 502.235C568.316 502.321 567.553 504.505 566.654 504.505C565.755 504.505 564.955 502.309 564.081 502.235C563.207 502.161 562.012 504.159 561.15 503.999C560.289 503.839 559.919 501.532 559.045 501.285C558.171 501.039 556.644 502.778 555.831 502.445C555.019 502.112 555.093 499.781 554.329 499.361C553.566 498.942 551.645 500.311 550.931 499.805C550.217 499.3 550.832 497.042 550.18 496.463C549.527 495.883 547.348 496.697 546.781 496.031C546.215 495.365 547.434 493.367 546.991 492.602C546.548 491.837 544.208 491.985 543.888 491.159C543.568 490.333 545.378 488.877 545.205 488.002C545.033 487.126 542.829 486.46 542.829 485.535C542.829 484.61 545.045 483.956 545.205 483.068C545.366 482.18 543.568 480.749 543.888 479.91C544.208 479.072 546.523 479.244 546.991 478.467C547.459 477.69 546.203 475.742 546.781 475.051C547.36 474.36 549.515 475.223 550.18 474.619C550.845 474.015 550.18 471.795 550.931 471.277C551.682 470.759 553.529 472.14 554.329 471.708C555.13 471.277 554.994 468.97 555.831 468.625C556.669 468.279 558.183 470.043 559.045 469.797C559.907 469.55 560.276 467.243 561.15 467.083C562.025 466.923 563.182 468.933 564.081 468.847C564.98 468.76 565.743 466.565 566.654 466.565C567.565 466.565 568.341 468.76 569.215 468.847C570.09 468.933 571.296 466.91 572.158 467.083C573.02 467.256 573.389 469.55 574.251 469.797C575.113 470.043 576.714 468.304 577.477 468.625C578.241 468.945 578.204 471.301 578.979 471.708C579.755 472.115 581.651 470.771 582.378 471.277C583.104 471.782 582.476 474.027 583.116 474.619C583.757 475.211 585.961 474.372 586.515 475.051C587.069 475.729 585.862 477.715 586.318 478.467C586.773 479.22 589.1 479.096 589.421 479.923C589.741 480.749 587.918 482.192 588.091 483.068C588.263 483.944 590.479 484.634 590.479 485.535Z" fill="#21D0B3"/>
<path d="M566.654 499.744C576.644 499.744 584.742 493.382 584.742 485.535C584.742 477.688 576.644 471.326 566.654 471.326C556.665 471.326 548.567 477.688 548.567 485.535C548.567 493.382 556.665 499.744 566.654 499.744Z" fill="white"/>
<path d="M566.654 497.043C574.74 497.043 581.294 491.891 581.294 485.535C581.294 479.179 574.74 474.027 566.654 474.027C558.569 474.027 552.014 479.179 552.014 485.535C552.014 491.891 558.569 497.043 566.654 497.043Z" fill="#21D0B3"/>
<path d="M576.96 554.778H458.044" stroke="#263238" stroke-linecap="round" stroke-linejoin="round"/>
<path d="M420.219 554.778H335.015" stroke="#263238" stroke-linecap="round" stroke-linejoin="round"/>
<path d="M483.839 552.263C483.839 552.263 506.285 527.36 512.688 502.926C519.09 478.493 503.342 491.739 497.05 518.837C490.759 545.935 490.759 552.879 497.05 547.835C502.098 543.495 506.454 538.408 509.966 532.75C510.853 531.344 511.592 530.037 512.158 528.927C514.621 523.882 506.494 527.039 504.598 537.116C502.702 547.193 514.042 532.713 517.182 527.668C520.321 522.624 526.626 520.108 521.59 533.342C516.554 546.577 509.006 544.048 515.926 535.229C522.846 526.41 530.406 508.094 531.034 518.208C531.662 528.322 529.137 539.62 524.089 542.802C519.041 545.985 533.521 528.31 537.929 529.568C542.337 530.826 544.22 535.871 539.813 539.657C535.405 543.444 535.405 530.826 568.76 532.084" stroke="#263238" stroke-linecap="round" stroke-linejoin="round"/>
<path d="M563.317 517.481L581.787 532.282C581.988 532.447 582.127 532.677 582.181 532.932C582.234 533.188 582.199 533.454 582.082 533.687C581.964 533.919 581.771 534.105 581.533 534.213C581.296 534.321 581.029 534.345 580.777 534.28L557.383 528.199L563.317 517.481Z" fill="white" stroke="#263238" stroke-linecap="round" stroke-linejoin="round"/>
<path d="M560.325 511.721L452.417 447.719L440.362 468.268L552.088 528.89C552.364 529.084 552.662 529.245 552.975 529.371C556.669 530.925 561.335 528.236 563.367 523.352C565.398 518.468 564.032 513.263 560.325 511.721Z" fill="#8C8C8C" stroke="#263238" stroke-linecap="round" stroke-linejoin="round"/>
<path d="M455.261 460.831C452.109 468.391 444.893 472.573 439.143 470.167C438.591 469.931 438.064 469.642 437.567 469.304L326.962 407.56L317.949 402.515L316.841 401.911L317.124 401.232L329.806 370.816L330.348 369.583L331.813 370.471L344.446 378.18L450.557 442.835C456.369 445.191 458.413 453.282 455.261 460.831Z" fill="white" stroke="#263238" stroke-linecap="round" stroke-linejoin="round"/>
<path d="M449.498 442.182L344.446 378.168L331.813 370.459L330.348 369.571L329.806 370.804L317.124 401.22L316.841 401.898L317.949 402.503L326.962 407.547L435.031 467.873C440.793 469.588 447.639 465.407 450.717 458.006C453.18 452.049 452.527 445.882 449.498 442.182Z" fill="#8C8C8C" stroke="#263238" stroke-linecap="round" stroke-linejoin="round"/>
<path d="M326.962 407.559C333.525 407.831 340.506 402.724 343.929 394.584C346.266 389.379 346.452 383.459 344.446 378.118L331.813 370.409C331.135 370.496 330.465 370.632 329.806 370.816C324.598 372.284 319.624 376.835 316.939 383.286C314.255 389.737 314.477 396.496 317.124 401.232C317.369 401.662 317.645 402.075 317.949 402.465" fill="white"/>
<path d="M326.962 407.559C333.525 407.831 340.506 402.724 343.929 394.584C346.266 389.379 346.452 383.459 344.446 378.118L331.813 370.409C331.135 370.496 330.465 370.632 329.806 370.816C324.598 372.284 319.624 376.835 316.939 383.286C314.255 389.737 314.477 396.496 317.124 401.232C317.369 401.662 317.645 402.075 317.949 402.465" stroke="#263238" stroke-linecap="round" stroke-linejoin="round"/>
<path d="M336.812 388.923L418.864 442.416C419.362 442.751 419.721 443.257 419.873 443.838C420.024 444.42 419.959 445.037 419.689 445.573C419.533 445.862 419.32 446.116 419.064 446.321C418.808 446.526 418.514 446.678 418.198 446.767C417.883 446.857 417.553 446.883 417.227 446.843C416.902 446.803 416.588 446.698 416.303 446.535L331.899 396.545L336.812 388.923Z" fill="white" stroke="#263238" stroke-linecap="round" stroke-linejoin="round"/>
<path d="M335.913 390.872C332.22 399.814 323.601 404.76 316.841 401.911C310.081 399.061 307.557 389.503 311.276 380.511C314.994 371.519 323.588 366.623 330.348 369.472C337.108 372.321 339.644 381.929 335.913 390.872Z" fill="#8C8C8C" stroke="#263238" stroke-linecap="round" stroke-linejoin="round"/>
<path d="M333.242 389.762C330.323 396.767 323.625 400.653 318.294 398.395C312.962 396.138 294.629 378.574 297.535 371.569C300.44 364.563 323.539 370.779 328.87 373.012C334.202 375.244 336.184 382.743 333.242 389.762Z" fill="white" stroke="#263238" stroke-linecap="round" stroke-linejoin="round"/>
<path d="M506.026 506.047L512.687 502.939C514.204 502.871 515.696 503.343 516.898 504.271C518.893 505.825 522.661 508.267 522.661 508.267C522.661 508.267 530.196 508.711 530.418 509.821C530.639 510.932 525.985 512.288 525.32 512.288H520.395C520.395 512.288 527.266 515.853 527.931 516.297C528.595 516.741 538.138 519.627 536.808 520.515C535.478 521.403 526.601 521.181 524.606 521.625C522.626 521.93 520.625 522.079 518.622 522.069L511.087 515.187L505.755 509.402C505.755 509.402 504.032 507.379 506.026 506.047Z" fill="white" stroke="#263238" stroke-linecap="round" stroke-linejoin="round"/>
<path d="M338.831 426.307C338.831 426.307 338.388 420.301 338.388 417.415C338.388 414.528 336.837 408.978 336.172 408.534C335.507 408.09 328.637 405.426 326.642 403.6C324.647 401.775 322.197 404.266 323.083 405.821C323.97 407.375 329.08 410.261 329.08 410.261L327.75 412.259L322.825 408.041C322.825 408.041 317.727 400.048 316.398 400.714C315.068 401.38 315.511 402.49 316.398 404.044C317.284 405.599 316.841 415.589 319.279 417.612C321.717 419.635 329.043 422.065 329.043 422.065L329.708 427.615C329.708 427.615 336.578 428.059 337.465 428.281C338.351 428.503 338.831 426.307 338.831 426.307Z" fill="white" stroke="#263238" stroke-linecap="round" stroke-linejoin="round"/>
<path d="M324.192 434.781L325.078 428.787C325.078 428.787 324.857 426.789 330.003 425.9C332.952 425.351 335.989 425.503 338.868 426.344C339.183 426.468 339.456 426.681 339.653 426.957C339.849 427.233 339.962 427.56 339.977 427.899C339.937 430.06 339.715 432.214 339.312 434.337C339.312 434.337 331.296 431.192 324.192 434.781Z" fill="white" stroke="#263238" stroke-linecap="round" stroke-linejoin="round"/>
<path d="M413.139 729.566V745.6C413.139 745.6 416.833 747.462 427.606 747.462C437.252 747.249 446.788 745.363 455.79 741.887C460.974 739.667 462.833 734.832 460.974 734.092C459.115 733.352 449.892 732.97 447.996 731.49C446.1 730.01 438.355 725.175 438.355 725.175C438.355 725.175 419.812 730.688 413.139 729.566Z" fill="#21D0B3" stroke="#263238" stroke-linecap="round" stroke-linejoin="round"/>
<path d="M461.651 735.498C453.863 739.158 445.556 741.587 437.026 742.701C424.22 744.354 416.328 742.936 413.114 742.097V745.6C413.114 745.6 416.808 747.462 427.582 747.462C437.227 747.248 446.763 745.362 455.766 741.887C459.509 740.234 461.503 737.299 461.651 735.498Z" fill="white" stroke="#263238" stroke-linecap="round" stroke-linejoin="round"/>
<path d="M418.704 576.167L420.563 581.372C420.563 581.372 428.345 596.172 433.91 607.002C439.476 617.831 445.398 640.797 447.257 643.03C449.117 645.262 448.735 648.222 447.627 651.565C446.519 654.907 437.617 713.235 437.617 714.715C437.617 716.195 436.878 716.195 437.986 718.058C439.094 719.92 439.476 725.853 439.476 725.853C437.034 728.219 433.927 729.777 430.574 730.318C424.639 731.428 413.139 731.428 413.139 731.428C413.139 731.428 411.661 724.373 412.031 723.263C412.4 722.153 413.521 715.085 413.521 715.085C413.521 715.085 417.214 696.88 416.476 687.605C415.737 678.33 417.596 657.51 418.335 655.29C418.848 652.857 419.096 650.376 419.074 647.889L416.857 643.807V640.76C416.857 640.76 399.053 622.555 392.01 615.5C384.967 608.445 377.924 599.897 377.924 599.897C377.924 599.897 369.761 636.308 367.532 644.103C365.304 651.898 364.196 655.203 362.718 657.473C361.241 659.742 346.034 679.76 340.469 687.938C334.904 696.115 326.383 710.596 326.383 710.596C326.361 712.707 326.484 714.817 326.753 716.911C327.122 718.391 323.059 723.966 323.059 723.966L321.569 725.446C321.569 725.446 312.667 716.528 309.33 715.788C305.993 715.048 298.951 716.158 298.951 716.158C298.951 716.158 303.408 703.911 304.516 701.357C305.624 698.804 316.004 672.385 318.971 667.18C321.938 661.975 324.167 651.577 329.363 647.445C334.559 643.313 340.444 638.528 340.444 638.528L339.706 596.937L338.967 585.417C338.239 582.5 337.863 579.506 337.846 576.5V569.099C337.846 569.099 371.596 576.894 388.329 576.154C405.062 575.414 415.023 570.962 415.023 570.962L418.704 576.167Z" fill="#263238" stroke="#263238" stroke-linecap="round" stroke-linejoin="round"/>
<path d="M427.976 460.066C427.976 460.066 408.682 451.629 398.487 451.629C388.292 451.629 382.739 451.851 371.867 452.295C360.994 452.739 354.629 456.07 354.629 456.07L338.622 461.398L339.94 432.314C336.694 431.418 333.301 431.192 329.966 431.648C327.147 432.173 324.563 433.571 322.579 435.644C322.579 435.644 316.595 475.187 316.816 478.74C317.038 482.292 321.741 482.958 321.741 482.958L357.892 482.292L355.232 522.723L328.144 569.815C328.144 569.815 328.366 577.141 350.541 584.48C372.716 591.819 399.989 589.413 408.411 587.144C416.833 584.874 430.315 574.933 431.423 573.379C432.531 571.825 431.423 563.82 431.423 560.49C431.423 557.16 425.883 525.609 426.769 524.055C427.656 522.501 432.531 501.619 432.531 501.619C432.531 501.619 477.547 530.938 480.206 530.493C482.866 530.049 509.917 516.729 510.594 516.285C511.271 515.841 513.057 513.398 510.373 509.39C509.384 508.008 508.094 506.869 506.601 506.062C505.107 505.254 503.45 504.798 501.754 504.728C500.424 504.728 482.238 506.282 482.238 506.282C482.238 506.282 459.459 486.054 458.831 484.944C458.204 483.834 454.621 474.509 453.069 472.067C451.518 469.625 427.976 460.066 427.976 460.066Z" fill="#21D0B3" stroke="#263238" stroke-linecap="round" stroke-linejoin="round"/>
<path d="M482.3 506.318C482.3 506.318 489.589 510.475 491.042 513.028L482.3 506.318Z" fill="#21D0B3"/>
<path d="M482.3 506.318C482.3 506.318 489.589 510.475 491.042 513.028" stroke="#263238" stroke-linecap="round" stroke-linejoin="round"/>
<path d="M453.032 472.067C453.032 472.067 446.371 472.597 439.488 479.874L453.032 472.067Z" fill="#21D0B3"/>
<path d="M453.032 472.067C453.032 472.067 446.371 472.597 439.488 479.874" stroke="#263238" stroke-linecap="round" stroke-linejoin="round"/>
<path d="M438.023 475.15C436.013 476.276 434.283 477.843 432.964 479.733C431.644 481.624 430.768 483.789 430.401 486.066" fill="#21D0B3"/>
<path d="M438.023 475.15C436.013 476.276 434.283 477.843 432.964 479.733C431.644 481.624 430.768 483.789 430.401 486.066" stroke="#263238" stroke-linecap="round" stroke-linejoin="round"/>
<path d="M357.904 482.28L357.239 465.616L357.904 482.28Z" stroke="#263238" stroke-linecap="round" stroke-linejoin="round"/>
<path d="M422.127 508.748L432.63 501.607L415.552 506.935" stroke="#263238" stroke-linecap="round" stroke-linejoin="round"/>
<path d="M414.666 513.83L418.298 511.363" stroke="#263238" stroke-linecap="round" stroke-linejoin="round"/>
<path d="M413.631 462.594C409.531 464.064 405.746 466.299 402.476 469.181C393.857 476.951 389.166 476.285 389.166 476.285" stroke="#263238" stroke-linecap="round" stroke-linejoin="round"/>
<path d="M422.213 460.51C420.894 460.647 419.586 460.874 418.298 461.188" stroke="#263238" stroke-linecap="round" stroke-linejoin="round"/>
<path d="M401.146 466.06C401.146 466.06 394.042 472.733 386.506 475.841" stroke="#263238" stroke-linecap="round" stroke-linejoin="round"/>
<path d="M323.047 465.419C322.32 466.295 321.889 467.378 321.815 468.515" stroke="#263238" stroke-linecap="round" stroke-linejoin="round"/>
<path d="M338.61 461.398L335.507 461.62C335.507 461.62 331.518 459.844 329.523 460.066C328.122 460.522 326.854 461.313 325.829 462.373" stroke="#263238" stroke-linecap="round" stroke-linejoin="round"/>
<path d="M325.078 460.51C325.078 460.51 321.089 462.064 320.424 465.616" stroke="#263238" stroke-linecap="round" stroke-linejoin="round"/>
<path d="M426.818 524.042C426.818 524.042 423.679 545.38 422.275 551.967C420.871 558.553 418.987 574.773 418.987 574.773C421.336 573.878 423.776 573.249 426.264 572.898C429.958 572.429 431.423 573.366 431.423 573.366C431.423 573.366 434.243 566.546 431.423 554.779C428.604 543.012 426.818 524.042 426.818 524.042Z" fill="#21D0B3" stroke="#263238" stroke-linecap="round" stroke-linejoin="round"/>
<path d="M321.557 725.483C321.557 725.483 323.047 732.538 324.524 733.29C326.002 734.043 333.057 735.511 333.796 737.373C334.534 739.235 327.122 742.566 322.295 743.318C317.469 744.07 308.948 742.196 307.84 741.456C306.732 740.716 304.146 737.003 300.797 735.881C297.448 734.758 293.41 733.29 294.124 728.826C294.838 724.361 298.938 716.195 298.938 716.195C303.914 714.67 309.249 714.8 314.144 716.565C322.295 719.538 321.557 725.483 321.557 725.483Z" fill="#21D0B3" stroke="#263238" stroke-linecap="round" stroke-linejoin="round"/>
<path d="M322.295 743.318C327.122 742.566 334.534 739.223 333.796 737.373C333.717 737.203 333.609 737.048 333.475 736.917C329.868 738.15 325.435 738.828 321.36 736.571C316.361 733.784 314.686 727.654 308.013 725.471C304.134 724.176 298.938 724.398 295.269 724.792C294.773 726.119 294.39 727.484 294.124 728.875C293.373 733.34 297.461 734.82 300.797 735.93C304.134 737.04 306.732 740.765 307.84 741.505C308.948 742.245 317.481 744.058 322.295 743.318Z" fill="white" stroke="#263238" stroke-linecap="round" stroke-linejoin="round"/>
<path d="M320.079 740.666C315.991 738.804 312.285 733.981 306.35 730.269C300.933 726.864 295.269 730.602 294.272 731.268C295.121 733.858 298.175 734.968 300.797 735.831C304.134 736.954 306.732 740.666 307.84 741.406C308.948 742.146 317.481 744.009 322.295 743.269C323.277 743.106 324.247 742.884 325.201 742.603C323.459 742.055 321.749 741.408 320.079 740.666Z" fill="#263238" stroke="#263238" stroke-linecap="round" stroke-linejoin="round"/>
<path d="M431.743 454.072L425.095 458.734C425.095 458.734 416.476 452.961 410.455 451.851C404.434 450.741 401.368 450.519 401.368 450.519L406.022 442.292C409.426 439.836 412.044 436.443 413.558 432.524C415.552 426.53 417.547 424.087 421.992 426.357C426.437 428.626 428.148 437.458 428.148 443.008C428.148 448.558 431.743 454.072 431.743 454.072Z" fill="white" stroke="#263238" stroke-linecap="round" stroke-linejoin="round"/>
<path d="M435.511 413.196C435.511 413.196 439.279 418.747 439.722 420.757C440.165 422.768 438.171 426.752 438.171 426.752C438.171 426.752 442.616 433.19 442.837 434.744C443.059 436.298 440.165 439.184 440.165 439.184C440.165 439.184 440.83 445.635 441.729 447.189C442.628 448.743 443.502 450.963 442.394 452.962C441.286 454.96 439.722 456.292 435.006 456.958C430.291 457.624 426.584 455.404 425.698 450.791C424.811 446.178 424.811 436.126 424.147 434.756C423.482 433.387 420.379 430.316 418.827 432.758C417.276 435.201 418.384 437.692 419.492 439.863C420.171 441.202 421.258 442.291 422.595 442.971L417.67 445.438C414.724 446.713 411.415 446.871 408.362 445.882C407.273 445.468 406.277 444.841 405.431 444.039C404.586 443.236 403.908 442.274 403.436 441.207C403.215 440.541 400.974 435.04 400.334 433.881C399.693 432.721 395.002 426.11 394.781 418.327C394.559 410.545 403.88 401.676 415.848 399.234C427.816 396.792 433.369 402.12 436.028 402.343C438.688 402.565 436.028 400.122 438.245 401.676C440.461 403.231 441.052 411.864 435.511 413.196Z" fill="white" stroke="#263238" stroke-linecap="round" stroke-linejoin="round"/>
<path d="M440.165 439.184C440.165 439.184 440.412 438.937 440.756 438.555C439.858 438.678 437.161 439.049 435.511 439.406C433.516 439.85 432.63 445.857 430.857 444.34C429.084 442.823 428.197 429.675 427.754 429.009C427.311 428.343 429.281 426.147 429.281 426.147C429.281 426.147 432.384 421.929 432.384 420.14C432.384 418.352 429.281 416.366 430.389 415.922C431.497 415.478 435.486 413.258 435.486 413.258C441.027 411.926 440.584 403.267 438.368 401.713C436.151 400.159 438.811 402.601 436.151 402.379C433.492 402.157 427.951 396.817 415.971 399.271C403.991 401.726 394.682 410.594 394.904 418.364C395.125 426.135 399.829 432.807 400.457 433.918C401.085 435.028 403.338 440.578 403.56 441.244C404.031 442.311 404.709 443.273 405.555 444.076C406.4 444.878 407.396 445.504 408.485 445.919C411.538 446.908 414.847 446.75 417.793 445.475L422.718 443.008C421.381 442.328 420.294 441.239 419.615 439.9C418.507 437.679 417.387 435.237 418.95 432.795C420.514 430.353 423.605 433.461 424.27 434.793C424.934 436.125 424.934 446.128 425.821 450.828C426.708 455.527 430.475 457.71 435.129 456.995C439.784 456.279 441.286 454.996 442.517 452.998C443.748 451 442.739 448.78 441.852 447.226C440.966 445.672 440.165 439.184 440.165 439.184Z" fill="#263238" stroke="#263238" stroke-linecap="round" stroke-linejoin="round"/>
<path d="M439.057 422.755C438.459 422.751 437.872 422.915 437.362 423.229C436.853 423.543 436.442 423.994 436.176 424.531" stroke="#263238" stroke-linecap="round" stroke-linejoin="round"/>
<path d="M437.284 430.304C437.774 430.304 438.171 429.21 438.171 427.862C438.171 426.513 437.774 425.419 437.284 425.419C436.795 425.419 436.398 426.513 436.398 427.862C436.398 429.21 436.795 430.304 437.284 430.304Z" fill="#263238"/>
<path d="M440.609 444.747C440.609 444.747 436.841 446.079 435.289 443.402" stroke="white" stroke-linecap="round" stroke-linejoin="round"/>
<path d="M398.499 451.629C408.694 451.629 427.988 460.066 427.988 460.066L428.727 460.374C428.53 459.376 428.109 458.435 427.496 457.624C426.831 457.18 423.285 452.073 416.623 449.409C412.261 447.601 407.602 446.623 402.882 446.523C401.319 446.523 396.849 450.643 395.79 451.629H398.499Z" fill="#21D0B3" stroke="#263238" stroke-linecap="round" stroke-linejoin="round"/>
<defs>
<filter id="filter0_f_2014_11409" x="59.5318" y="58.9877" width="879.52" height="814.36" filterUnits="userSpaceOnUse" color-interpolation-filters="sRGB">
<feFlood flood-opacity="0" result="BackgroundImageFix"/>
<feBlend mode="normal" in="SourceGraphic" in2="BackgroundImageFix" result="shape"/>
<feGaussianBlur stdDeviation="71.95" result="effect1_foregroundBlur_2014_11409"/>
</filter>
<filter id="filter1_f_2014_11409" x="0.931763" y="0.387695" width="996.72" height="931.56" filterUnits="userSpaceOnUse" color-interpolation-filters="sRGB">
<feFlood flood-opacity="0" result="BackgroundImageFix"/>
<feBlend mode="normal" in="SourceGraphic" in2="BackgroundImageFix" result="shape"/>
<feGaussianBlur stdDeviation="101.25" result="effect1_foregroundBlur_2014_11409"/>
</filter>
</defs>
</svg>
