<svg width="578" height="614" viewBox="0 0 578 614" fill="none" xmlns="http://www.w3.org/2000/svg">
<path d="M0 50.12V384.727C0 412.407 20.8281 434.847 46.5209 434.847H531.479C557.172 434.847 578 412.407 578 384.727V50.12C578 22.4395 557.172 0 531.479 0H46.5209C20.8281 0 0 22.4395 0 50.12Z" fill="#292A2E"/>
<path d="M562.387 50.2744V384.571C562.386 393.698 559.02 402.451 553.029 408.905C547.039 415.359 538.914 418.985 530.442 418.985H46.4691C37.9976 418.984 29.8735 415.358 23.8832 408.904C17.893 402.45 14.5269 393.698 14.5252 384.571V299.986H24.3791C28.9276 299.987 33.2901 298.041 36.507 294.576C39.7238 291.112 41.5316 286.412 41.5326 281.512V153.335C41.5316 148.434 39.7238 143.735 36.5069 140.271C33.2901 136.806 28.9276 134.86 24.3791 134.861H14.5252V50.2744C14.5267 41.1474 17.8927 32.3947 23.883 25.9409C29.8733 19.4872 37.9975 15.8608 46.4691 15.8591H530.442C538.914 15.8595 547.039 19.4855 553.03 25.9395C559.02 32.3935 562.386 41.1469 562.387 50.2744Z" fill="white"/>
<path d="M8.52067 299.986V134.861H24.3811C28.9295 134.861 33.2916 136.808 36.5078 140.273C39.724 143.738 41.5308 148.437 41.5308 153.338V281.509C41.5308 286.409 39.724 291.109 36.5078 294.574C33.2916 298.039 28.9295 299.986 24.3811 299.986H8.52067Z" fill="#292A2E"/>
<path d="M540.452 433.517H37.5467C27.9879 433.517 18.8206 429.773 12.0615 423.109C5.30243 416.445 1.50513 407.406 1.50513 397.981V37.0065C1.50513 27.5861 5.3006 18.5515 12.0565 11.8903C18.8124 5.22906 27.9756 1.48685 37.5299 1.48685H540.469C550.023 1.48685 559.186 5.22906 565.942 11.8903C572.698 18.5515 576.493 27.5861 576.493 37.0065V397.981C576.493 407.406 572.696 416.445 565.937 423.109C559.178 429.773 550.011 433.517 540.452 433.517Z" fill="#F3F3F3"/>
<path d="M0 397.979V37.0044C0 27.1903 3.95413 17.778 10.9925 10.8384C18.0308 3.89867 27.5768 0 37.5305 0H540.469C550.423 0 559.969 3.89867 567.008 10.8384C574.046 17.778 578 27.1903 578 37.0044V397.979C578 402.841 577.029 407.655 575.142 412.146C573.255 416.638 570.489 420.719 567.003 424.157C563.516 427.595 559.377 430.321 554.821 432.182C550.266 434.042 545.383 435 540.453 435H37.5475C32.6167 435 27.7341 434.042 23.1787 432.182C18.6232 430.321 14.484 427.595 10.9974 424.157C7.5108 420.719 4.74511 416.638 2.85817 412.146C0.971236 407.655 0 402.841 0 397.979ZM37.5305 2.96948C28.3772 2.972 19.5998 6.55892 13.1283 12.9414C6.65685 19.324 3.02133 27.9795 3.02133 37.0044V397.979C3.02133 407.01 6.65991 415.671 13.1366 422.057C19.6133 428.443 28.3976 432.031 37.5571 432.031H540.453C549.612 432.031 558.396 428.443 564.873 422.057C571.35 415.671 574.988 407.01 574.988 397.979V37.0044C574.988 27.9778 571.352 19.3209 564.878 12.9381C558.404 6.5553 549.624 2.96948 540.469 2.96948H37.5305Z" fill="#292A2E"/>
<path d="M1.50854 36.9997V67.0769H576.49V36.9997C576.49 27.5793 572.694 18.5447 565.938 11.8835C559.182 5.22222 550.019 1.47998 540.465 1.47998H37.5308C32.8001 1.47998 28.1158 2.39874 23.7452 4.1838C19.3746 5.96886 15.4034 8.58526 12.0584 11.8836C8.71336 15.1819 6.06002 19.0976 4.24987 23.4071C2.43973 27.7165 1.50822 32.3353 1.50854 36.9997Z" fill="white"/>
<path d="M551.742 97.3991C557.065 97.3991 561.38 93.1447 561.38 87.8967C561.38 82.6487 557.065 78.3944 551.742 78.3944C546.42 78.3944 542.105 82.6487 542.105 87.8967C542.105 93.1447 546.42 97.3991 551.742 97.3991Z" fill="#FF6D6D"/>
<path d="M503.555 97.3991C508.878 97.3991 513.192 93.1447 513.192 87.8967C513.192 82.6487 508.878 78.3944 503.555 78.3944C498.232 78.3944 493.917 82.6487 493.917 87.8967C493.917 93.1447 498.232 97.3991 503.555 97.3991Z" fill="#1DCB5D"/>
<path d="M455.369 97.3991C460.691 97.3991 465.006 93.1447 465.006 87.8967C465.006 82.6487 460.691 78.3944 455.369 78.3944C450.046 78.3944 445.731 82.6487 445.731 87.8967C445.731 93.1447 450.046 97.3991 455.369 97.3991Z" fill="#367CFF"/>
<path d="M407.182 97.3991C412.505 97.3991 416.82 93.1447 416.82 87.8967C416.82 82.6487 412.505 78.3944 407.182 78.3944C401.86 78.3944 397.545 82.6487 397.545 87.8967C397.545 93.1447 401.86 97.3991 407.182 97.3991Z" fill="black"/>
<path d="M420.778 213.433L225.394 306.614C226.957 298.545 228.553 290.039 229.919 281.484C248.173 276.099 265.097 257.169 280.298 225.105C289.051 232.622 307.265 244.822 325.895 236.236L326.287 236.049C336.029 231.403 343.694 221.902 349.579 207.114C357.672 210.924 375.289 212.68 411.854 195.242C413.041 194.676 414.022 193.813 414.582 192.845C415.142 191.876 415.235 190.88 414.841 190.076C414.446 189.272 413.597 188.725 412.479 188.557C411.361 188.388 410.066 188.612 408.879 189.178C360.917 212.051 352.51 198.065 352.227 197.489C351.906 196.837 351.282 196.351 350.448 196.103C349.615 195.855 348.616 195.859 347.602 196.114C346.587 196.369 345.61 196.861 344.816 197.517C344.022 198.174 343.454 198.96 343.195 199.758C336.671 219.967 328.815 227.361 323.29 229.996L323.088 230.092C308.455 236.837 289.414 221.347 283.324 214.814C282.873 214.342 282.215 214.025 281.428 213.898C280.64 213.77 279.754 213.839 278.872 214.095C277.989 214.351 277.145 214.784 276.436 215.345C275.728 215.906 275.184 216.572 274.866 217.267C261.212 248.35 245.883 268.081 231.131 273.854C238.703 221.232 234.748 190.999 219.294 183.975C214.851 181.923 206.948 180.725 194.879 186.481C179.421 193.853 171.861 210.937 174.637 232.182C176.426 245.589 181.705 257.821 190.19 268.219C198.828 278.401 209.261 283.489 220.515 283.079C218.962 292.799 217.178 302.442 215.327 311.443L188.136 324.411C186.949 324.976 185.968 325.839 185.408 326.807C184.848 327.776 184.755 328.772 185.149 329.576C185.544 330.38 186.393 330.927 187.511 331.095C188.629 331.264 189.924 331.04 191.111 330.474L213.593 319.752C208.185 344.938 202.952 363.811 202.869 364.094C202.734 364.58 202.719 365.054 202.826 365.489C202.932 365.924 203.158 366.312 203.489 366.631C203.821 366.95 204.253 367.193 204.76 367.346C205.267 367.499 205.839 367.56 206.443 367.524C207.277 367.469 208.144 367.231 208.948 366.835C209.72 366.467 210.413 365.969 210.959 365.391C211.505 364.813 211.886 364.173 212.063 363.535C212.142 363.245 217.974 342.243 223.705 314.902L423.753 219.497C424.94 218.931 425.921 218.069 426.481 217.1C427.041 216.131 427.134 215.135 426.74 214.331C426.345 213.527 425.495 212.981 424.377 212.812C423.259 212.644 421.965 212.867 420.778 213.433ZM198.487 262.962C190.613 253.255 185.715 241.849 184.056 229.354C182.241 215.61 184.913 198.716 197.854 192.545C206.265 188.533 210.509 189.559 212.96 190.672C229.773 198.273 226.131 244.531 221.641 275.667C213.506 275.516 205.402 271.094 198.487 262.962Z" fill="black"/>
<path d="M42.2625 47.5115H37.7244V33.6899H42.4063C43.7798 33.6899 44.9594 33.9666 45.945 34.52C46.9307 35.0689 47.6859 35.8585 48.2106 36.8888C48.74 37.9146 49.0046 39.1452 49.0046 40.5804C49.0046 42.0202 48.7377 43.2575 48.2038 44.2923C47.6745 45.3271 46.9078 46.1235 45.9039 46.6814C44.9 47.2348 43.6862 47.5115 42.2625 47.5115ZM39.8395 45.6893H42.1462C43.214 45.6893 44.1015 45.4913 44.8088 45.0954C45.5161 44.695 46.0454 44.1168 46.3968 43.3609C46.7481 42.6006 46.9238 41.6737 46.9238 40.5804C46.9238 39.4961 46.7481 38.576 46.3968 37.8202C46.05 37.0643 45.532 36.4906 44.843 36.0992C44.154 35.7078 43.2984 35.5121 42.2762 35.5121H39.8395V45.6893Z" fill="black"/>
<path d="M51.4704 47.5115V37.1453H53.4486V38.792H53.5581C53.7498 38.2341 54.0874 37.7954 54.5711 37.476C55.0594 37.152 55.6115 36.9901 56.2276 36.9901C56.3553 36.9901 56.5059 36.9946 56.6793 37.0036C56.8573 37.0126 56.9965 37.0238 57.0968 37.0373V38.9675C57.0147 38.945 56.8687 38.9202 56.6588 38.8932C56.4489 38.8617 56.239 38.846 56.0291 38.846C55.5454 38.846 55.1141 38.9472 54.7354 39.1497C54.3612 39.3476 54.0646 39.6243 53.8456 39.9798C53.6265 40.3307 53.517 40.7311 53.517 41.1811V47.5115H51.4704Z" fill="black"/>
<path d="M61.8334 47.7409C61.1672 47.7409 60.5649 47.6194 60.0264 47.3765C59.488 47.129 59.0613 46.7713 58.7464 46.3034C58.4361 45.8355 58.281 45.2618 58.281 44.5825C58.281 43.9976 58.3951 43.5162 58.6232 43.1382C58.8514 42.7603 59.1594 42.4611 59.5473 42.2406C59.9351 42.0202 60.3686 41.8537 60.8478 41.7412C61.3269 41.6287 61.8152 41.5433 62.3126 41.4848C62.9423 41.4128 63.4534 41.3543 63.8458 41.3093C64.2382 41.2598 64.5234 41.1811 64.7014 41.0731C64.8793 40.9651 64.9683 40.7896 64.9683 40.5467V40.4994C64.9683 39.91 64.7995 39.4534 64.4618 39.1294C64.1287 38.8055 63.6313 38.6435 62.9697 38.6435C62.2806 38.6435 61.7376 38.7942 61.3406 39.0957C60.9482 39.3926 60.6767 39.7233 60.5261 40.0878L58.6027 39.6558C58.8308 39.0259 59.164 38.5175 59.602 38.1306C60.0447 37.7392 60.5535 37.4557 61.1284 37.2803C61.7034 37.1003 62.308 37.0103 62.9423 37.0103C63.3621 37.0103 63.807 37.0598 64.277 37.1588C64.7516 37.2533 65.1942 37.4287 65.6049 37.6852C66.0201 37.9416 66.3601 38.3083 66.6248 38.7852C66.8894 39.2577 67.0218 39.8718 67.0218 40.6277V47.5115H65.0231V46.0942H64.9409C64.8086 46.3552 64.6101 46.6116 64.3455 46.8636C64.0808 47.1155 63.7408 47.3247 63.3256 47.4912C62.9103 47.6577 62.4129 47.7409 61.8334 47.7409ZM62.2783 46.1212C62.8442 46.1212 63.3279 46.011 63.7294 45.7905C64.1355 45.57 64.4436 45.2821 64.6535 44.9267C64.8679 44.5667 64.9752 44.182 64.9752 43.7726V42.4363C64.9022 42.5083 64.7607 42.5758 64.5508 42.6388C64.3454 42.6973 64.1105 42.749 63.8458 42.794C63.5811 42.8345 63.3233 42.8728 63.0723 42.9088C62.8214 42.9403 62.6114 42.9673 62.4426 42.9897C62.0456 43.0392 61.6828 43.1225 61.3543 43.2395C61.0303 43.3564 60.7702 43.5252 60.574 43.7456C60.3823 43.9616 60.2865 44.2495 60.2865 44.6095C60.2865 45.1089 60.4736 45.4868 60.8478 45.7433C61.222 45.9952 61.6988 46.1212 62.2783 46.1212Z" fill="black"/>
<path d="M72.027 47.5115L68.9332 37.1453H71.0482L73.1085 44.7579H73.2111L75.2783 37.1453H77.3933L79.4467 44.7242H79.5494L81.596 37.1453H83.711L80.624 47.5115H78.5364L76.4008 40.027H76.2434L74.1078 47.5115H72.027Z" fill="black"/>
<path d="M114.236 35.4851V33.6899H125.085V35.4851H120.711V47.5115H118.603V35.4851H114.236Z" fill="black"/>
<path d="M127.407 51.3988C127.101 51.3988 126.823 51.374 126.572 51.3245C126.321 51.2795 126.134 51.23 126.011 51.1761L126.504 49.5226C126.878 49.6216 127.211 49.6643 127.503 49.6508C127.795 49.6373 128.053 49.5294 128.276 49.3269C128.505 49.1244 128.705 48.7937 128.879 48.3348L129.132 47.6464L125.285 37.1453H127.476L130.138 45.1899H130.248L132.91 37.1453H135.107L130.775 48.895C130.574 49.4349 130.318 49.8915 130.008 50.265C129.698 50.6429 129.328 50.9264 128.899 51.1153C128.47 51.3043 127.973 51.3988 127.407 51.3988Z" fill="black"/>
<path d="M137.031 51.3988V37.1453H139.03V38.8257H139.201C139.319 38.6098 139.49 38.3601 139.714 38.0766C139.938 37.7932 140.248 37.5457 140.645 37.3342C141.042 37.1183 141.567 37.0103 142.219 37.0103C143.068 37.0103 143.825 37.2218 144.492 37.6447C145.158 38.0676 145.68 38.6773 146.059 39.4736C146.442 40.27 146.634 41.2283 146.634 42.3486C146.634 43.4689 146.445 44.4295 146.066 45.2304C145.687 46.0267 145.167 46.6409 144.505 47.0728C143.844 47.5002 143.088 47.7139 142.24 47.7139C141.601 47.7139 141.078 47.6082 140.672 47.3967C140.271 47.1853 139.956 46.9378 139.728 46.6544C139.5 46.3709 139.324 46.1189 139.201 45.8985H139.077V51.3988H137.031ZM139.036 42.3284C139.036 43.0572 139.144 43.6961 139.358 44.245C139.573 44.7939 139.883 45.2236 140.289 45.534C140.695 45.84 141.192 45.993 141.781 45.993C142.393 45.993 142.904 45.8333 143.314 45.5138C143.725 45.1899 144.035 44.7512 144.245 44.1978C144.46 43.6444 144.567 43.0212 144.567 42.3284C144.567 41.6445 144.462 41.0303 144.252 40.4859C144.047 39.9415 143.736 39.5119 143.321 39.1969C142.911 38.882 142.397 38.7245 141.781 38.7245C141.188 38.7245 140.686 38.8752 140.275 39.1767C139.869 39.4781 139.561 39.8988 139.351 40.4387C139.141 40.9786 139.036 41.6085 139.036 42.3284Z" fill="black"/>
<path d="M153.458 47.7207C152.422 47.7207 151.53 47.5025 150.782 47.066C150.038 46.6251 149.463 46.0065 149.057 45.2101C148.656 44.4092 148.455 43.4712 148.455 42.3959C148.455 41.334 148.656 40.3982 149.057 39.5883C149.463 38.7785 150.029 38.1464 150.755 37.6919C151.485 37.2375 152.338 37.0103 153.315 37.0103C153.908 37.0103 154.483 37.107 155.039 37.3005C155.596 37.494 156.096 37.7977 156.538 38.2116C156.981 38.6255 157.33 39.1632 157.586 39.8246C157.841 40.4814 157.969 41.28 157.969 42.2204V42.9358H149.612V41.424H155.963C155.963 40.8931 155.854 40.4229 155.635 40.0135C155.416 39.5996 155.108 39.2734 154.711 39.0349C154.318 38.7965 153.858 38.6773 153.328 38.6773C152.753 38.6773 152.251 38.8167 151.822 39.0957C151.398 39.3701 151.069 39.7301 150.837 40.1755C150.609 40.6164 150.495 41.0956 150.495 41.613V42.794C150.495 43.4869 150.618 44.0763 150.864 44.5622C151.115 45.0481 151.464 45.4193 151.911 45.6758C152.359 45.9277 152.881 46.0537 153.479 46.0537C153.867 46.0537 154.22 45.9997 154.54 45.8917C154.859 45.7793 155.135 45.6128 155.368 45.3923C155.601 45.1719 155.779 44.8997 155.902 44.5757L157.839 44.9199C157.684 45.4823 157.405 45.975 157.004 46.3979C156.607 46.8163 156.107 47.1425 155.505 47.3765C154.907 47.6059 154.225 47.7207 153.458 47.7207Z" fill="black"/>
<path d="M199.432 33.6899H201.554V42.7805C201.554 43.7479 201.323 44.605 200.863 45.3518C200.402 46.0942 199.754 46.6791 198.919 47.1065C198.084 47.5294 197.105 47.7409 195.982 47.7409C194.864 47.7409 193.888 47.5294 193.053 47.1065C192.218 46.6791 191.57 46.0942 191.109 45.3518C190.648 44.605 190.417 43.7479 190.417 42.7805V33.6899H192.532V42.6118C192.532 43.2372 192.672 43.7929 192.95 44.2788C193.233 44.7647 193.632 45.1471 194.148 45.4261C194.663 45.7005 195.275 45.8377 195.982 45.8377C196.694 45.8377 197.308 45.7005 197.823 45.4261C198.344 45.1471 198.741 44.7647 199.014 44.2788C199.293 43.7929 199.432 43.2372 199.432 42.6118V33.6899Z" fill="black"/>
<path d="M204.465 51.3988V37.1453H206.463V38.8257H206.634C206.753 38.6098 206.924 38.3601 207.148 38.0766C207.371 37.7932 207.682 37.5457 208.079 37.3342C208.476 37.1183 209 37.0103 209.653 37.0103C210.502 37.0103 211.259 37.2218 211.925 37.6447C212.592 38.0676 213.114 38.6773 213.493 39.4736C213.876 40.27 214.068 41.2283 214.068 42.3486C214.068 43.4689 213.878 44.4295 213.5 45.2304C213.121 46.0267 212.601 46.6409 211.939 47.0728C211.277 47.5002 210.522 47.7139 209.673 47.7139C209.035 47.7139 208.512 47.6082 208.106 47.3967C207.704 47.1853 207.39 46.9378 207.161 46.6544C206.933 46.3709 206.758 46.1189 206.634 45.8985H206.511V51.3988H204.465ZM206.47 42.3284C206.47 43.0572 206.577 43.6961 206.792 44.245C207.006 44.7939 207.317 45.2236 207.723 45.534C208.129 45.84 208.626 45.993 209.215 45.993C209.826 45.993 210.337 45.8333 210.748 45.5138C211.159 45.1899 211.469 44.7512 211.679 44.1978C211.893 43.6444 212.001 43.0212 212.001 42.3284C212.001 41.6445 211.896 41.0303 211.686 40.4859C211.481 39.9415 211.17 39.5119 210.755 39.1969C210.344 38.882 209.831 38.7245 209.215 38.7245C208.622 38.7245 208.12 38.8752 207.709 39.1767C207.303 39.4781 206.995 39.8988 206.785 40.4387C206.575 40.9786 206.47 41.6085 206.47 42.3284Z" fill="black"/>
<path d="M218.407 33.6899V47.5115H216.361V33.6899H218.407Z" fill="black"/>
<path d="M225.589 47.7207C224.604 47.7207 223.743 47.498 223.009 47.0525C222.274 46.6071 221.704 45.984 221.298 45.1831C220.891 44.3823 220.688 43.4464 220.688 42.3756C220.688 41.3003 220.891 40.36 221.298 39.5546C221.704 38.7492 222.274 38.1239 223.009 37.6784C223.743 37.233 224.604 37.0103 225.589 37.0103C226.575 37.0103 227.435 37.233 228.17 37.6784C228.904 38.1239 229.475 38.7492 229.881 39.5546C230.287 40.36 230.49 41.3003 230.49 42.3756C230.49 43.4464 230.287 44.3823 229.881 45.1831C229.475 45.984 228.904 46.6071 228.17 47.0525C227.435 47.498 226.575 47.7207 225.589 47.7207ZM225.596 46.0267C226.235 46.0267 226.764 45.8602 227.184 45.5273C227.604 45.1944 227.914 44.7512 228.115 44.1978C228.32 43.6444 228.423 43.0347 228.423 42.3689C228.423 41.7075 228.32 41.1001 228.115 40.5467C227.914 39.9888 227.604 39.5411 227.184 39.2037C226.764 38.8662 226.235 38.6975 225.596 38.6975C224.953 38.6975 224.419 38.8662 223.994 39.2037C223.575 39.5411 223.262 39.9888 223.057 40.5467C222.856 41.1001 222.756 41.7075 222.756 42.3689C222.756 43.0347 222.856 43.6444 223.057 44.1978C223.262 44.7512 223.575 45.1944 223.994 45.5273C224.419 45.8602 224.953 46.0267 225.596 46.0267Z" fill="black"/>
<path d="M235.834 47.7409C235.168 47.7409 234.566 47.6194 234.027 47.3765C233.489 47.129 233.062 46.7713 232.747 46.3034C232.437 45.8355 232.282 45.2618 232.282 44.5825C232.282 43.9976 232.396 43.5162 232.624 43.1382C232.852 42.7603 233.16 42.4611 233.548 42.2406C233.936 42.0202 234.369 41.8537 234.849 41.7412C235.328 41.6287 235.816 41.5433 236.313 41.4848C236.943 41.4128 237.454 41.3543 237.847 41.3093C238.239 41.2598 238.524 41.1811 238.702 41.0731C238.88 40.9651 238.969 40.7896 238.969 40.5467V40.4994C238.969 39.91 238.8 39.4534 238.463 39.1294C238.129 38.8055 237.632 38.6435 236.97 38.6435C236.281 38.6435 235.738 38.7942 235.341 39.0957C234.949 39.3926 234.677 39.7233 234.527 40.0878L232.603 39.6558C232.832 39.0259 233.165 38.5175 233.603 38.1306C234.045 37.7392 234.554 37.4557 235.129 37.2803C235.704 37.1003 236.309 37.0103 236.943 37.0103C237.363 37.0103 237.808 37.0598 238.278 37.1588C238.752 37.2533 239.195 37.4287 239.606 37.6852C240.021 37.9416 240.361 38.3083 240.626 38.7852C240.89 39.2577 241.023 39.8718 241.023 40.6277V47.5115H239.024V46.0942H238.942C238.809 46.3552 238.611 46.6116 238.346 46.8636C238.082 47.1155 237.742 47.3247 237.326 47.4912C236.911 47.6577 236.414 47.7409 235.834 47.7409ZM236.279 46.1212C236.845 46.1212 237.329 46.011 237.73 45.7905C238.136 45.57 238.444 45.2821 238.654 44.9267C238.869 44.5667 238.976 44.182 238.976 43.7726V42.4363C238.903 42.5083 238.761 42.5758 238.552 42.6388C238.346 42.6973 238.111 42.749 237.847 42.794C237.582 42.8345 237.324 42.8728 237.073 42.9088C236.822 42.9403 236.612 42.9673 236.443 42.9897C236.046 43.0392 235.684 43.1225 235.355 43.2395C235.031 43.3564 234.771 43.5252 234.575 43.7456C234.383 43.9616 234.287 44.2495 234.287 44.6095C234.287 45.1089 234.474 45.4868 234.849 45.7433C235.223 45.9952 235.7 46.1212 236.279 46.1212Z" fill="black"/>
<path d="M247.684 47.7139C246.835 47.7139 246.078 47.5002 245.412 47.0728C244.75 46.6409 244.23 46.0267 243.851 45.2304C243.477 44.4295 243.29 43.4689 243.29 42.3486C243.29 41.2283 243.479 40.27 243.858 39.4736C244.241 38.6773 244.766 38.0676 245.432 37.6447C246.098 37.2218 246.854 37.0103 247.698 37.0103C248.35 37.0103 248.875 37.1183 249.272 37.3342C249.674 37.5457 249.984 37.7932 250.203 38.0766C250.427 38.3601 250.6 38.6098 250.723 38.8257H250.846V33.6899H252.893V47.5115H250.894V45.8985H250.723C250.6 46.1189 250.422 46.3709 250.189 46.6544C249.961 46.9378 249.646 47.1853 249.245 47.3967C248.843 47.6082 248.323 47.7139 247.684 47.7139ZM248.136 45.993C248.725 45.993 249.222 45.84 249.628 45.534C250.039 45.2236 250.349 44.7939 250.559 44.245C250.773 43.6961 250.881 43.0572 250.881 42.3284C250.881 41.6085 250.776 40.9786 250.566 40.4387C250.356 39.8988 250.048 39.4781 249.642 39.1767C249.236 38.8752 248.734 38.7245 248.136 38.7245C247.52 38.7245 247.007 38.882 246.596 39.1969C246.185 39.5119 245.875 39.9415 245.665 40.4859C245.46 41.0303 245.357 41.6445 245.357 42.3284C245.357 43.0212 245.462 43.6444 245.672 44.1978C245.882 44.7512 246.192 45.1899 246.603 45.5138C247.018 45.8333 247.529 45.993 248.136 45.993Z" fill="black"/>
<path d="M293.929 37.3207C293.856 36.6819 293.555 36.1869 293.026 35.836C292.496 35.4806 291.83 35.3028 291.027 35.3028C290.452 35.3028 289.955 35.3928 289.535 35.5728C289.115 35.7483 288.789 35.9912 288.556 36.3017C288.328 36.6076 288.214 36.9563 288.214 37.3477C288.214 37.6762 288.291 37.9596 288.446 38.1981C288.606 38.4365 288.814 38.6368 289.069 38.7987C289.329 38.9562 289.608 39.0889 289.904 39.1969C290.201 39.3004 290.486 39.3859 290.76 39.4534L292.129 39.8043C292.576 39.9123 293.035 40.0585 293.505 40.243C293.975 40.4274 294.411 40.6704 294.812 40.9719C295.214 41.2733 295.538 41.6467 295.784 42.0922C296.035 42.5376 296.161 43.0707 296.161 43.6916C296.161 44.4745 295.955 45.1696 295.544 45.777C295.138 46.3844 294.547 46.8636 293.772 47.2145C293.001 47.5654 292.067 47.7409 290.972 47.7409C289.923 47.7409 289.015 47.5767 288.248 47.2482C287.481 46.9198 286.881 46.4541 286.448 45.8512C286.014 45.2439 285.775 44.524 285.729 43.6916H287.851C287.892 44.191 288.056 44.6072 288.344 44.9402C288.636 45.2686 289.008 45.5138 289.46 45.6758C289.916 45.8332 290.415 45.912 290.958 45.912C291.556 45.912 292.088 45.8198 292.553 45.6353C293.023 45.4463 293.393 45.1854 293.662 44.8524C293.931 44.515 294.066 44.1213 294.066 43.6714C294.066 43.262 293.947 42.9268 293.71 42.6658C293.477 42.4049 293.16 42.1889 292.759 42.0179C292.362 41.8469 291.912 41.6962 291.41 41.5658L289.754 41.1203C288.631 40.8189 287.741 40.3757 287.084 39.7908C286.432 39.2059 286.106 38.432 286.106 37.4692C286.106 36.6729 286.325 35.9777 286.763 35.3838C287.201 34.7899 287.794 34.3288 288.542 34.0003C289.291 33.6674 290.135 33.5009 291.075 33.5009C292.024 33.5009 292.861 33.6651 293.587 33.9936C294.317 34.322 294.892 34.7742 295.312 35.3501C295.732 35.9215 295.951 36.5784 295.969 37.3207H293.929Z" fill="black"/>
<path d="M301.583 47.7409C300.917 47.7409 300.315 47.6194 299.776 47.3765C299.238 47.129 298.811 46.7713 298.496 46.3034C298.186 45.8355 298.031 45.2618 298.031 44.5825C298.031 43.9976 298.145 43.5162 298.373 43.1382C298.601 42.7603 298.909 42.4611 299.297 42.2406C299.685 42.0202 300.118 41.8537 300.598 41.7412C301.077 41.6287 301.565 41.5433 302.062 41.4848C302.692 41.4128 303.203 41.3543 303.596 41.3093C303.988 41.2598 304.273 41.1811 304.451 41.0731C304.629 40.9651 304.718 40.7896 304.718 40.5467V40.4994C304.718 39.91 304.549 39.4534 304.212 39.1294C303.879 38.8055 303.381 38.6435 302.72 38.6435C302.03 38.6435 301.487 38.7942 301.09 39.0957C300.698 39.3926 300.427 39.7233 300.276 40.0878L298.353 39.6558C298.581 39.0259 298.914 38.5175 299.352 38.1306C299.794 37.7392 300.303 37.4557 300.878 37.2803C301.453 37.1003 302.058 37.0103 302.692 37.0103C303.112 37.0103 303.557 37.0598 304.027 37.1588C304.501 37.2533 304.944 37.4287 305.355 37.6852C305.77 37.9416 306.11 38.3083 306.375 38.7852C306.639 39.2577 306.772 39.8718 306.772 40.6277V47.5115H304.773V46.0942H304.691C304.558 46.3552 304.36 46.6116 304.095 46.8636C303.831 47.1155 303.491 47.3247 303.075 47.4912C302.66 47.6577 302.163 47.7409 301.583 47.7409ZM302.028 46.1212C302.594 46.1212 303.078 46.011 303.479 45.7905C303.885 45.57 304.193 45.2821 304.403 44.9267C304.618 44.5667 304.725 44.182 304.725 43.7726V42.4363C304.652 42.5083 304.511 42.5758 304.301 42.6388C304.095 42.6973 303.86 42.749 303.596 42.794C303.331 42.8345 303.073 42.8728 302.822 42.9088C302.571 42.9403 302.361 42.9673 302.192 42.9897C301.795 43.0392 301.433 43.1225 301.104 43.2395C300.78 43.3564 300.52 43.5252 300.324 43.7456C300.132 43.9616 300.036 44.2495 300.036 44.6095C300.036 45.1089 300.223 45.4868 300.598 45.7433C300.972 45.9952 301.449 46.1212 302.028 46.1212Z" fill="black"/>
<path d="M318.115 37.1453L314.303 47.5115H312.112L308.293 37.1453H310.49L313.153 45.1224H313.262L315.918 37.1453H318.115Z" fill="black"/>
<path d="M324.212 47.7207C323.176 47.7207 322.284 47.5025 321.536 47.066C320.792 46.6251 320.217 46.0065 319.811 45.2101C319.409 44.4092 319.209 43.4712 319.209 42.3959C319.209 41.334 319.409 40.3982 319.811 39.5883C320.217 38.7785 320.783 38.1464 321.508 37.6919C322.238 37.2375 323.092 37.0103 324.068 37.0103C324.662 37.0103 325.237 37.107 325.793 37.3005C326.35 37.494 326.85 37.7977 327.292 38.2116C327.735 38.6255 328.084 39.1632 328.339 39.8246C328.595 40.4814 328.723 41.28 328.723 42.2204V42.9358H320.365V41.424H326.717C326.717 40.8931 326.608 40.4229 326.389 40.0135C326.17 39.5996 325.862 39.2734 325.465 39.0349C325.072 38.7965 324.611 38.6773 324.082 38.6773C323.507 38.6773 323.005 38.8167 322.576 39.0957C322.152 39.3701 321.823 39.7301 321.591 40.1755C321.362 40.6164 321.248 41.0956 321.248 41.613V42.794C321.248 43.4869 321.371 44.0763 321.618 44.5622C321.869 45.0481 322.218 45.4193 322.665 45.6758C323.112 45.9277 323.635 46.0537 324.233 46.0537C324.62 46.0537 324.974 45.9997 325.294 45.8917C325.613 45.7793 325.889 45.6128 326.122 45.3923C326.354 45.1719 326.532 44.8997 326.656 44.5757L328.593 44.9199C328.438 45.4823 328.159 45.975 327.758 46.3979C327.361 46.8163 326.861 47.1425 326.259 47.3765C325.661 47.6059 324.979 47.7207 324.212 47.7207Z" fill="black"/>
<path d="M334.929 47.7139C334.081 47.7139 333.323 47.5002 332.657 47.0728C331.995 46.6409 331.475 46.0267 331.096 45.2304C330.722 44.4295 330.535 43.4689 330.535 42.3486C330.535 41.2283 330.724 40.27 331.103 39.4736C331.486 38.6773 332.011 38.0676 332.677 37.6447C333.344 37.2218 334.099 37.0103 334.943 37.0103C335.595 37.0103 336.12 37.1183 336.517 37.3342C336.919 37.5457 337.229 37.7932 337.448 38.0766C337.672 38.3601 337.845 38.6098 337.968 38.8257H338.092V33.6899H340.138V47.5115H338.139V45.8985H337.968C337.845 46.1189 337.667 46.3709 337.434 46.6544C337.206 46.9378 336.891 47.1853 336.49 47.3967C336.088 47.6082 335.568 47.7139 334.929 47.7139ZM335.381 45.993C335.97 45.993 336.467 45.84 336.873 45.534C337.284 45.2236 337.594 44.7939 337.804 44.245C338.019 43.6961 338.126 43.0572 338.126 42.3284C338.126 41.6085 338.021 40.9786 337.811 40.4387C337.601 39.8988 337.293 39.4781 336.887 39.1767C336.481 38.8752 335.979 38.7245 335.381 38.7245C334.765 38.7245 334.252 38.882 333.841 39.1969C333.43 39.5119 333.12 39.9415 332.91 40.4859C332.705 41.0303 332.602 41.6445 332.602 42.3284C332.602 43.0212 332.707 43.6444 332.917 44.1978C333.127 44.7512 333.437 45.1899 333.848 45.5138C334.263 45.8333 334.774 45.993 335.381 45.993Z" fill="black"/>
<path d="M351.157 268.919L359.825 276.404L359.11 274.957C358.888 274.484 358.841 273.939 358.977 273.43C359.114 272.922 359.425 272.488 359.847 272.217C360.07 272.086 360.315 272.004 360.568 271.978C360.82 271.952 361.075 271.981 361.317 272.065C361.559 272.148 361.782 272.284 361.973 272.464C362.165 272.643 362.32 272.863 362.43 273.109L368.016 285.499C368.722 287.064 368.832 288.863 368.323 290.513C367.814 292.163 366.727 293.534 365.293 294.333C363.629 295.26 361.746 295.631 359.885 295.398C358.023 295.164 356.269 294.338 354.847 293.023L348.414 287.057C348.073 286.755 347.841 286.334 347.756 285.868C347.67 285.401 347.737 284.917 347.946 284.498C348.141 284.124 348.442 283.827 348.804 283.65C349.167 283.473 349.573 283.426 349.963 283.515C349.964 283.491 349.97 283.468 349.98 283.447C349.99 283.426 350.003 283.407 350.02 283.392C350.037 283.377 350.056 283.365 350.078 283.358C350.099 283.352 350.121 283.349 350.143 283.352L348.952 282.254C348.59 281.935 348.348 281.485 348.27 280.987C348.193 280.49 348.284 279.98 348.529 279.55C348.784 279.133 349.173 278.833 349.621 278.708C350.07 278.583 350.545 278.642 350.955 278.873C350.954 278.852 350.957 278.83 350.962 278.81L350.474 278.358C350.152 278.047 349.932 277.631 349.845 277.174C349.759 276.717 349.812 276.242 349.995 275.819C350.23 275.357 350.623 275.012 351.091 274.858C351.558 274.704 352.063 274.754 352.497 274.996L352.518 274.964L348.876 271.819C348.689 271.658 348.535 271.457 348.423 271.23C348.31 271.002 348.242 270.753 348.222 270.496C348.202 270.239 348.231 269.98 348.307 269.736C348.383 269.492 348.504 269.266 348.664 269.074C348.983 268.713 349.419 268.496 349.882 268.467C350.344 268.438 350.8 268.6 351.157 268.919Z" fill="#E98862"/>
<path d="M352.462 275.218C352.473 275.237 352.486 275.253 352.502 275.267L356.073 278.277C356.11 278.308 356.156 278.322 356.203 278.315C356.249 278.309 356.291 278.284 356.319 278.244C356.348 278.205 356.361 278.155 356.355 278.105C356.35 278.055 356.326 278.01 356.289 277.979L352.719 274.969C352.686 274.944 352.646 274.931 352.606 274.933C352.566 274.936 352.528 274.953 352.498 274.982C352.468 275.011 352.448 275.051 352.442 275.094C352.436 275.137 352.444 275.181 352.464 275.218H352.462Z" fill="#0C0C0C"/>
<path d="M350.975 278.952C350.986 278.97 350.999 278.987 351.015 279L353.805 281.39C353.841 281.421 353.888 281.435 353.934 281.43C353.98 281.424 354.022 281.399 354.051 281.359C354.08 281.32 354.094 281.27 354.088 281.22C354.083 281.171 354.06 281.125 354.023 281.094L351.234 278.704C351.202 278.677 351.161 278.663 351.12 278.664C351.079 278.665 351.039 278.682 351.009 278.712C350.978 278.741 350.958 278.781 350.952 278.825C350.946 278.869 350.954 278.914 350.975 278.952Z" fill="#0C0C0C"/>
<path d="M349.984 283.636C349.995 283.655 350.01 283.673 350.027 283.686L351.369 284.784C351.406 284.811 351.451 284.822 351.496 284.814C351.54 284.806 351.579 284.78 351.607 284.741C351.634 284.703 351.646 284.655 351.641 284.607C351.636 284.559 351.615 284.515 351.581 284.483L350.239 283.385C350.206 283.358 350.166 283.344 350.125 283.346C350.084 283.348 350.044 283.366 350.014 283.395C349.984 283.425 349.964 283.466 349.958 283.51C349.953 283.554 349.962 283.598 349.984 283.636Z" fill="#0C0C0C"/>
<path d="M451.536 322.784L405.951 341.531C403.781 342.439 401.417 342.665 399.132 342.185C396.848 341.705 394.736 340.537 393.043 338.817L352.568 297.711L369.468 278.398L404.284 313.757L442.619 298.042L451.536 322.784Z" fill="#21D0B3"/>
<path d="M497.806 592.632C497.806 592.632 495.747 604.135 485.75 604.779C475.752 605.423 477.921 614 477.921 614H516.123V593.435L497.806 592.632Z" fill="#21D0B3"/>
<path d="M509.59 382.801C509.59 382.801 509.47 379.343 509.495 387.187C509.59 416.445 510.061 449.864 511.214 469.42C513.065 500.858 517.81 599.973 517.81 599.973L492.708 599.746L468.376 381.612L509.59 382.801Z" fill="#262626"/>
<path d="M481.242 417.303C481.242 417.303 480.202 438.534 480.009 443.517C479.563 455.046 479.408 466.981 479.408 480.513L475.451 445.037C475.451 445.037 478.347 433.922 481.242 417.303Z" fill="#0A0A0A"/>
<path d="M453.117 592.632C453.117 592.632 451.057 604.135 441.061 604.779C431.064 605.423 433.232 614 433.232 614H471.433V593.435L453.117 592.632Z" fill="#21D0B3"/>
<path d="M440.963 385.072C440.963 385.072 438.739 485.069 439.064 489.956L448.4 599.216L473.088 599.708L470.682 486.005C470.682 486.005 472.379 454.64 479.413 425.516C483.012 410.568 485.177 395.262 485.876 379.838L440.963 385.072Z" fill="#262626"/>
<path d="M509.862 382.798L509.945 382.802C509.945 382.802 509.885 381.097 509.862 382.798Z" fill="#333333"/>
<path d="M437.429 329.569C437.947 336.121 440.465 377.001 440.963 385.072L509.564 385.073C509.952 377.794 511.692 345.963 513.162 331.728C514.563 318.144 517.317 311.346 515.299 307.328C512.002 300.764 502.995 296.971 496.852 296.073C493.102 295.524 487.461 295.134 487.461 295.134C487.461 295.134 486.983 305.544 475.593 306.123C460.09 306.912 461.125 295.134 461.048 295.134C458.537 295.134 443.914 296.407 440.678 299.089C435.021 303.782 436.33 315.682 437.429 329.569Z" fill="#21D0B3"/>
<path d="M437.491 328.529C437.433 328.528 437.377 328.504 437.335 328.461C437.292 328.418 437.267 328.359 437.264 328.297L436.71 317.892C436.708 317.859 436.713 317.827 436.723 317.797C436.732 317.766 436.748 317.738 436.768 317.714C436.788 317.69 436.812 317.67 436.839 317.656C436.866 317.642 436.895 317.634 436.925 317.632C436.955 317.63 436.985 317.635 437.013 317.646C437.041 317.656 437.067 317.673 437.09 317.694C437.112 317.716 437.13 317.742 437.143 317.771C437.156 317.8 437.164 317.831 437.166 317.864L437.719 328.268C437.721 328.301 437.717 328.333 437.707 328.363C437.697 328.394 437.682 328.422 437.662 328.446C437.642 328.47 437.618 328.49 437.591 328.504C437.564 328.518 437.534 328.526 437.504 328.528L437.491 328.529Z" fill="#0C0C0C"/>
<path d="M524.392 384.644C526.41 384.644 528.398 384.119 530.187 383.113C531.975 382.107 533.512 380.65 534.666 378.867C535.819 377.083 536.556 375.026 536.813 372.87C537.07 370.714 536.84 368.523 536.141 366.483C535.433 364.413 518.816 317.013 515.655 308.229L492.235 318.454C494.013 323.395 500.457 342.111 505.633 357.19L497.034 356.182L494.327 383.01L523.038 384.567C523.488 384.619 523.94 384.645 524.392 384.644Z" fill="#21D0B3"/>
<path d="M454.758 295.512C454.83 295.502 456.81 303.527 472.257 302.278C482.952 301.415 485.559 293.573 485.804 293.573C484.651 293.308 482.779 293.034 482.267 292.739C481.382 292.3 480.603 291.647 479.991 290.831C479.379 290.014 478.951 289.056 478.739 288.032C478.256 286.042 478.009 278.373 478.009 274.526L461.553 278.512C461.782 282.851 463.388 292.911 457.761 294.691C456.825 294.982 455.816 295.257 454.758 295.512Z" fill="#E98862"/>
<path d="M462.123 287.042C468.61 287.591 476.944 284.64 478.527 275.317L479.955 266.903C481.538 257.578 478.276 249.123 470.126 247.517C461.977 245.911 454.603 252.271 453.02 261.595L452.387 265.32C451.779 268.899 450.548 286.061 462.123 287.042Z" fill="#E98862"/>
<path d="M456.108 278.48C457.272 272.176 457.806 267.971 457.744 263.533C456.104 260.434 456.534 256.877 456.908 255.339C455.778 256.112 454.45 256.479 453.115 256.387C453.115 256.387 455.827 244.658 465.047 241.503C466.742 240.792 471.071 239.894 476.819 240.743C481.707 241.465 493.757 245.404 495.479 260.019V260.027C495.535 260.512 496.689 273.979 498.999 280.44C502.1 289.126 506.452 291.824 506.343 301.845C506.201 314.736 484.205 316.451 470.938 315.487C457.67 314.523 450.264 309.823 450.169 300.533C450.062 290.125 453.778 291.092 456.108 278.48Z" fill="#0A0A0A"/>
<path d="M511.029 332.004L509.344 385.067L509.8 385.084L511.485 332.021L511.029 332.004Z" fill="#0C0C0C"/>
</svg>
