<svg width="52" height="42" viewBox="0 0 52 42" fill="none" xmlns="http://www.w3.org/2000/svg">
<g clip-path="url(#clip0_1_5752)">
<path d="M50.2546 34.9605C50.366 34.983 50.4012 34.9984 50.4352 34.9961C51.8477 34.8882 52.0424 35.3539 51.9931 36.6063C51.9591 37.4618 51.9896 38.3197 51.9861 39.1764C51.9802 40.917 50.9057 42 49.1729 42C36.9525 42.0012 24.7332 42 12.5127 42C9.33592 42 6.1591 42 2.98227 42C1.00203 42 0.00135623 40.9786 0.000183105 38.9619C0.000183105 38.0507 0.000183105 37.1395 0.000183105 36.2272C0.00135623 35.2591 0.254752 35.0055 1.22023 34.9996C1.36453 34.9996 1.50765 34.9996 1.73289 34.9996C1.73289 34.752 1.73289 34.5233 1.73289 34.2946C1.73289 23.8675 1.73289 13.4415 1.73289 3.01439C1.73406 1.01191 2.74061 0 4.73609 0C18.9051 0 33.0753 0 47.2443 0C49.2691 0 50.2534 1.00243 50.2534 3.06297C50.2534 13.4711 50.2534 23.8805 50.2534 34.2887V34.9593L50.2546 34.9605ZM48.5219 35.0008V34.4534C48.5219 23.9575 48.5219 13.4605 48.5219 2.96462C48.5219 2.01078 48.2567 1.75128 47.2866 1.75128C33.1035 1.75128 18.9204 1.75128 4.73727 1.75128C3.70609 1.75128 3.46677 1.993 3.46677 3.03809C3.46677 13.4794 3.46677 23.922 3.46677 34.3633V35.002H4.15305C8.80802 35.002 13.4642 35.0375 18.1191 34.9759C19.2148 34.9617 19.9351 35.233 20.2519 36.3208C20.3551 36.6751 20.5792 36.7627 20.9405 36.7604C24.1337 36.745 27.3282 36.7236 30.5214 36.771C31.271 36.7829 31.7391 36.6277 31.9679 35.8681C32.1673 35.2058 32.653 34.9854 33.344 34.9889C38.162 35.0103 42.98 35.0008 47.798 35.0008H48.5207H48.5219ZM50.2522 36.7497H49.5472C44.6024 36.7497 39.6577 36.7758 34.7142 36.726C33.7897 36.7165 33.1774 36.8789 32.9099 37.8446C32.7809 38.315 32.3984 38.5045 31.9034 38.5034C27.9511 38.4963 24 38.4974 20.0477 38.5022C19.6008 38.5022 19.2911 38.3173 19.0999 37.9133C18.9908 37.6834 18.8488 37.4666 18.7667 37.2272C18.6341 36.8409 18.3948 36.739 17.9948 36.7402C12.7615 36.7544 7.52813 36.7497 2.29599 36.7509C2.1212 36.7509 1.9464 36.7663 1.78685 36.7746C1.76222 36.8457 1.7411 36.8789 1.7411 36.912C1.73641 37.5685 1.73289 38.2237 1.73289 38.8802C1.73289 40.0366 1.94405 40.2511 3.08316 40.2511C18.3491 40.2511 33.6161 40.2511 48.882 40.2511C49.0439 40.2511 49.207 40.2582 49.3689 40.2475C49.9073 40.2108 50.2358 39.8897 50.2475 39.3375C50.2651 38.501 50.2522 37.6645 50.2522 36.7509V36.7497Z" fill="black"/>
<path d="M25.9931 3.50024C32.5098 3.50024 39.0254 3.50024 45.5421 3.50024C46.5369 3.50024 46.7891 3.75381 46.7891 4.75742C46.7891 13.835 46.7891 22.9137 46.7891 31.9912C46.7891 32.9948 46.5369 33.2496 45.5433 33.2496C32.511 33.2496 19.4788 33.2496 6.44532 33.2496C5.45051 33.2496 5.19946 32.996 5.19946 31.9912C5.19946 22.9137 5.19946 13.835 5.19946 4.75742C5.19946 3.75144 5.44934 3.50024 6.44415 3.50024C12.9609 3.50024 19.4764 3.50024 25.9931 3.50024ZM6.95563 31.4615H45.0119V5.27997H6.95563V31.4615Z" fill="black"/>
<path d="M19.4048 18.4786C20.2542 19.3258 21.0707 20.141 21.8872 20.9574C22.0151 21.0854 22.1511 21.2074 22.2649 21.3472C22.5875 21.7454 22.5629 22.2478 22.2133 22.5748C21.886 22.8805 21.3956 22.8947 21.0367 22.5594C20.5604 22.1151 20.1122 21.6399 19.6536 21.1778C19.0036 20.5226 18.349 19.8709 17.705 19.2085C17.1959 18.6848 17.1888 18.257 17.6897 17.7451C18.7925 16.6207 19.9011 15.5009 21.0144 14.3871C21.4379 13.9641 21.947 13.9416 22.3083 14.303C22.6614 14.6561 22.6485 15.1929 22.2391 15.6123C21.3194 16.5567 20.3856 17.4868 19.4037 18.4786H19.4048Z" fill="black"/>
<path d="M32.6049 18.4739C31.6887 17.5604 30.8429 16.7167 29.997 15.8719C29.8821 15.7569 29.7612 15.6444 29.6639 15.514C29.3683 15.1206 29.3941 14.6384 29.7413 14.3327C30.1015 14.0151 30.5308 13.9737 30.8699 14.3042C32.0758 15.4809 33.2607 16.68 34.4303 17.8933C34.7822 18.2583 34.7506 18.7133 34.401 19.0735C33.2525 20.2572 32.0934 21.4314 30.9179 22.5879C30.539 22.9599 30.0416 22.9185 29.7073 22.5654C29.3647 22.204 29.3718 21.7063 29.7718 21.2999C30.6857 20.3709 31.616 19.4586 32.6061 18.4715L32.6049 18.4739Z" fill="black"/>
<path d="M24.6018 23.1826C23.8838 23.1909 23.5014 22.5819 23.7419 21.8958C24.2475 20.4574 24.7731 19.026 25.2904 17.5923C25.728 16.3801 26.1609 15.1668 26.6043 13.957C26.8425 13.3077 27.2777 13.0588 27.7962 13.252C28.2725 13.4285 28.4555 13.9262 28.2373 14.5329C27.2859 17.1799 26.3239 19.8234 25.3749 22.4705C25.2247 22.89 24.9678 23.1435 24.6018 23.1814V23.1826Z" fill="black"/>
</g>
<defs>
<clipPath id="clip0_1_5752">
<rect width="52" height="42" fill="white"/>
</clipPath>
</defs>
</svg>
