<svg width="48" height="47" viewBox="0 0 48 47" fill="none" xmlns="http://www.w3.org/2000/svg">
<g clip-path="url(#clip0_54_156)">
<path d="M39.6184 16.1177L39.6021 15.4249V2.32377L36.0221 5.94582C33.0924 2.31751 28.6352 0 23.6428 0C18.4472 0 13.8315 2.50891 10.9121 6.39274L16.7799 12.3917C17.3569 11.3172 18.1736 10.3953 19.1587 9.69344C20.1832 8.88458 21.6347 8.2233 23.6426 8.2233C23.8852 8.2233 24.0724 8.25176 24.21 8.30601C26.6977 8.50462 28.8544 9.89376 30.1237 11.9098L25.9684 16.1139L39.6161 16.1165" fill="#1C3AA9"/>
<path d="M23.5505 0.000488281L22.8655 0.0188888H9.91639L13.4963 3.64075C9.90983 6.60133 7.61914 11.1123 7.61914 16.1633C7.61914 21.4179 10.099 26.0893 13.9379 29.0414L19.8674 23.1048C18.806 22.5236 17.8929 21.7002 17.2006 20.7001C16.4013 19.6636 15.7475 18.1951 15.7475 16.1637C15.7475 15.9182 15.7756 15.7289 15.8292 15.5897C16.0255 13.0728 17.3986 10.8909 19.3913 9.60668L23.5448 13.8088L23.5475 0.00124706" fill="#4285F4"/>
<path d="M7.61914 16.1631L7.63545 16.8559V29.9566L11.2154 26.3348C14.1453 29.9631 18.6025 32.2806 23.5949 32.2806C28.7886 32.2806 33.406 29.7717 36.3239 25.8878L30.4561 19.8889C29.8815 20.9627 29.0677 21.8865 28.0791 22.5869C27.0546 23.3958 25.6032 24.0571 23.5953 24.0571C23.3526 24.0571 23.1655 24.0286 23.0279 23.9744C20.5401 23.7758 18.3835 22.3866 17.1141 20.3705L21.2676 16.1684C16.0064 16.1874 10.0634 16.2016 7.61989 16.1657" fill="#ABABAB"/>
<path d="M10.3149 38.5403C9.92587 38.5403 9.57694 38.615 9.26831 38.7641C8.96201 38.9081 8.69318 39.1226 8.48325 39.3903C8.27194 39.6615 8.10919 39.991 7.99519 40.3778C7.88269 40.7614 7.82906 41.1907 7.82906 41.6678V43.0374C7.82906 43.516 7.88437 43.947 7.99519 44.3305C8.10919 44.7141 8.27025 45.0415 8.47819 45.3131C8.68612 45.5848 8.93756 45.7934 9.23306 45.9391C9.52856 46.0848 9.86044 46.158 10.2294 46.158C10.6086 46.158 10.9406 46.1021 11.2258 45.99C11.5146 45.8762 11.7559 45.7168 11.9505 45.5062C12.1451 45.2925 12.2944 45.0345 12.4005 44.7323C12.5079 44.4303 12.5715 44.0873 12.5917 43.7041H11.6588C11.6353 43.9995 11.595 44.2543 11.538 44.4629C11.481 44.6716 11.3974 44.8414 11.2864 44.9751C11.1789 45.1075 11.0381 45.206 10.8637 45.2705C10.6927 45.3315 10.4812 45.3621 10.23 45.3621C9.96187 45.3621 9.7335 45.3027 9.54562 45.1838C9.35775 45.0616 9.20512 44.8954 9.08775 44.6849C8.97375 44.4762 8.88975 44.2285 8.83612 43.9451C8.78588 43.6634 8.76056 43.3597 8.76056 43.0338V41.6541C8.76056 41.3045 8.79056 40.9871 8.85113 40.7018C8.91488 40.4167 9.0105 40.1741 9.138 39.9738C9.2655 39.7735 9.42675 39.6191 9.621 39.5105C9.81563 39.3967 10.047 39.3425 10.3155 39.3425C10.5405 39.3425 10.7331 39.3766 10.8941 39.4443C11.0554 39.5088 11.1892 39.6107 11.2967 39.7479C11.4041 39.8837 11.4842 40.0567 11.5433 40.267C11.6023 40.4774 11.637 40.7286 11.6589 41.0205H12.5899C12.5711 40.6222 12.5111 40.2655 12.4037 39.9582C12.2963 39.6509 12.1468 39.3897 11.9537 39.1793C11.7606 38.969 11.5294 38.8094 11.2543 38.7007C10.9824 38.592 10.6689 38.5376 10.3131 38.5376L10.3149 38.5403ZM33.0399 38.5403C32.6509 38.5403 32.3019 38.615 31.9933 38.7641C31.687 38.9081 31.4182 39.1226 31.2083 39.3903C30.9969 39.6615 30.8342 39.991 30.7202 40.3778C30.6077 40.7614 30.5541 41.1907 30.5541 41.6678V43.0374C30.5541 43.516 30.6094 43.947 30.7202 44.3305C30.8342 44.7141 30.9953 45.0415 31.2032 45.3131C31.4111 45.5848 31.6626 45.7934 31.9581 45.9391C32.2536 46.0848 32.5854 46.158 32.9544 46.158C33.3336 46.158 33.6656 46.1021 33.9508 45.99C34.2396 45.8762 34.4809 45.7168 34.6755 45.5062C34.8701 45.2925 35.0194 45.0345 35.1255 44.7323C35.2329 44.4303 35.2965 44.0873 35.3167 43.7041H34.3858C34.3624 43.9995 34.3221 44.2543 34.2651 44.4629C34.2081 44.6716 34.1244 44.8414 34.0134 44.9751C33.906 45.1075 33.7652 45.206 33.5908 45.2705C33.4198 45.3315 33.2083 45.3621 32.9571 45.3621C32.6889 45.3621 32.4606 45.3027 32.2727 45.1838C32.0848 45.0616 31.9322 44.8954 31.8148 44.6849C31.7008 44.4762 31.6168 44.2285 31.5632 43.9451C31.5129 43.6634 31.4876 43.3597 31.4876 43.0338V41.6541C31.4876 41.3045 31.5176 40.9871 31.5782 40.7018C31.6419 40.4167 31.7376 40.1741 31.8651 39.9738C31.9926 39.7735 32.1538 39.6191 32.3481 39.5105C32.5427 39.3967 32.7741 39.3425 33.0426 39.3425C33.2676 39.3425 33.4601 39.3766 33.6212 39.4443C33.7824 39.5088 33.9163 39.6107 34.0238 39.7479C34.1312 39.8837 34.2113 40.0567 34.2703 40.267C34.3294 40.4774 34.3641 40.7286 34.386 41.0205H35.3169C35.2982 40.6222 35.2382 40.2655 35.1307 39.9582C35.0233 39.6509 34.8739 39.3897 34.6808 39.1793C34.4876 38.969 34.2564 38.8094 33.9814 38.7007C33.7095 38.592 33.396 38.5376 33.0401 38.5376L33.0399 38.5403ZM15.6212 38.6421L13.2591 46.0545H14.205L14.7737 44.12H17.2494L17.8281 46.0545H18.774L16.4089 38.6421H15.6212ZM19.7724 38.6421V46.0545H20.6912V43.1527H22.1049C22.4574 43.1527 22.7693 43.1034 23.0409 43.0051C23.3128 42.9032 23.5408 42.7574 23.7253 42.5673C23.9132 42.3772 24.054 42.1431 24.1479 41.8647C24.2454 41.583 24.2938 41.2639 24.2938 40.9077C24.2938 40.5783 24.2451 40.2763 24.1479 40.0015C24.0542 39.7232 23.9149 39.484 23.7304 39.2837C23.5459 39.0801 23.3179 38.9223 23.0409 38.8102C22.7691 38.6964 22.4572 38.6421 22.1049 38.6421H19.7724ZM25.0007 38.6421V39.4464H26.9229V46.0545H27.8417V39.4464H29.7692V38.6421H25.0007ZM36.5593 38.6421V46.0545H37.4781V42.6282H40.425V46.0545H41.3509V38.6421H40.425V41.829H37.4762V38.6421H36.5593ZM44.8468 38.6421L42.4867 46.0545H43.4327L44.0014 44.12H46.4771L47.0558 46.0545H48L45.6349 38.6421H44.8468ZM20.6931 39.4464H22.1068C22.3318 39.4464 22.5227 39.4872 22.6806 39.5686C22.8349 39.6445 22.9693 39.7562 23.073 39.8945C23.1771 40.0303 23.2524 40.1881 23.2995 40.368C23.3498 40.5444 23.3751 40.7278 23.3751 40.9181C23.3751 41.1268 23.3499 41.3221 23.2995 41.4986C23.2526 41.6716 23.1771 41.821 23.073 41.9538C22.9723 42.0794 22.8414 42.1777 22.6806 42.2492C22.5231 42.3205 22.3318 42.3562 22.1068 42.3562H20.6931V39.4464ZM16.0134 39.9453L17.0147 43.3155H15.015L16.0134 39.9453ZM45.2391 39.9453L46.2403 43.3155H44.2406L45.2391 39.9453ZM1.89375 40.4442C1.66219 40.4442 1.4625 40.5036 1.29488 40.6225C1.13044 40.7413 0.994875 40.9025 0.882375 41.1063L0.867375 40.5463H0V46.0547H0.890625V42.1141C0.974437 41.8798 1.0935 41.6968 1.24781 41.5593C1.40531 41.4234 1.605 41.3557 1.84669 41.3557L2.05294 41.366C2.11885 41.3701 2.18443 41.3786 2.24925 41.3914L2.24419 40.5157C2.23069 40.5089 2.20894 40.5021 2.17856 40.4954C2.14911 40.4845 2.11882 40.476 2.088 40.47C2.05425 40.4632 2.01919 40.4581 1.98225 40.4548C1.9485 40.448 1.9185 40.4446 1.89169 40.4446L1.89375 40.4442ZM4.88775 40.4442C4.63159 40.4439 4.37749 40.4905 4.13775 40.5818C3.894 40.6734 3.68156 40.8246 3.49369 41.037C3.30919 41.2457 3.15994 41.5156 3.04369 41.8516C2.92969 42.1841 2.87269 42.5914 2.87269 43.0785V43.6996C2.87269 44.1203 2.92144 44.4853 3.01856 44.7941C3.11569 45.103 3.25481 45.3594 3.43613 45.563C3.62063 45.7633 3.84375 45.9126 4.1055 46.011C4.36725 46.1095 4.6605 46.1586 4.98619 46.1586C5.22094 46.1586 5.43056 46.1349 5.61525 46.0873C5.80312 46.0399 5.96925 45.9786 6.11344 45.904C6.25781 45.8259 6.38156 45.7377 6.48581 45.6392C6.59006 45.5408 6.67894 45.4389 6.75244 45.3357L6.28931 44.7655C6.21544 44.8571 6.13669 44.9419 6.05306 45.0201C5.96925 45.0948 5.87681 45.161 5.77631 45.2187C5.67091 45.2739 5.55954 45.3165 5.44444 45.3458C5.32387 45.378 5.18756 45.3917 5.03681 45.3917C4.62431 45.3917 4.30556 45.2576 4.08581 44.9895C3.86775 44.7215 3.75881 44.292 3.75881 43.6996V43.5725H6.79631V43.0482C6.79631 42.6274 6.76106 42.2556 6.69056 41.9331C6.62006 41.6107 6.50775 41.3394 6.35344 41.1186C6.2033 40.9014 5.9982 40.7291 5.75962 40.6197C5.51813 40.5044 5.22619 40.4467 4.884 40.4467L4.88775 40.4442ZM4.88775 41.2182C5.08238 41.2182 5.24344 41.2538 5.37075 41.3252C5.49687 41.3951 5.60137 41.4991 5.67263 41.6255C5.74988 41.7545 5.80519 41.9089 5.83875 42.0887C5.87569 42.2651 5.89913 42.4605 5.90925 42.6741V42.7963H3.76388C3.77737 42.4874 3.81413 42.231 3.87637 42.0274C3.93862 41.8239 4.01569 41.6626 4.11263 41.5437C4.21331 41.4215 4.329 41.335 4.45988 41.2891C4.59075 41.2432 4.73325 41.2178 4.88737 41.2178L4.88775 41.2182Z" fill="#A6A6A6"/>
</g>
<defs>
<clipPath id="clip0_54_156">
<rect width="48" height="46.2857" fill="white"/>
</clipPath>
</defs>
</svg>
