<svg width="520" height="172" viewBox="0 0 520 172" fill="none" xmlns="http://www.w3.org/2000/svg">
<g filter="url(#filter0_b_738_440)">
<rect y="2" width="520" height="170" rx="6" fill="url(#paint0_linear_738_440)"/>
</g>
<g filter="url(#filter1_b_738_440)">
<rect width="520" height="30" rx="6" fill="url(#paint1_linear_738_440)"/>
</g>
<g opacity="0.8">
<path d="M21.8645 64.5319C21.1649 64.5319 20.6485 64.3653 20.3154 64.0322C19.9822 63.7102 19.8157 63.1105 19.8157 62.2332C19.8157 61.8334 19.8268 61.4781 19.849 61.1671C19.8823 60.8451 19.91 60.5286 19.9323 60.2177C19.9656 59.9067 19.9822 59.5736 19.9822 59.2182C19.9822 58.9073 19.8767 58.6241 19.6657 58.3687C19.4658 58.1022 19.0938 57.9634 18.5497 57.9523V56.7862C18.9162 56.7751 19.1993 56.7085 19.3992 56.5864C19.6102 56.4642 19.7601 56.3087 19.849 56.1199C19.9378 55.9312 19.9822 55.7368 19.9822 55.5369C19.9822 55.1705 19.9656 54.8318 19.9323 54.5208C19.91 54.2099 19.8823 53.8934 19.849 53.5714C19.8268 53.2493 19.8157 52.894 19.8157 52.5053C19.8157 51.628 19.9822 51.0283 20.3154 50.7063C20.6485 50.3732 21.1649 50.2066 21.8645 50.2066H22.764V51.256H22.3809C21.9811 51.256 21.709 51.3559 21.5647 51.5558C21.4314 51.7446 21.3648 52.0889 21.3648 52.5886C21.3648 53.0661 21.3759 53.5325 21.3981 53.9878C21.4314 54.432 21.4481 54.9206 21.4481 55.4537C21.4481 56.0422 21.3592 56.4809 21.1816 56.7696C21.0039 57.0472 20.7207 57.236 20.332 57.3359V57.4026C20.7207 57.5025 21.0039 57.6968 21.1816 57.9856C21.3592 58.2743 21.4481 58.7074 21.4481 59.2848C21.4481 59.8179 21.4314 60.3121 21.3981 60.7674C21.3759 61.2116 21.3648 61.6724 21.3648 62.1499C21.3648 62.6496 21.4314 62.9939 21.5647 63.1827C21.709 63.3826 21.9811 63.4825 22.3809 63.4825H22.764V64.5319H21.8645ZM22.8339 86.5319V72.2066H26.0987V73.256H24.2831V85.4825H26.0987V86.5319H22.8339ZM29.0341 84.1999C28.6787 84.1999 28.3789 84.0777 28.1346 83.8334C27.9014 83.578 27.7848 83.2726 27.7848 82.9173C27.7848 82.5286 27.9014 82.2121 28.1346 81.9678C28.3789 81.7235 28.6787 81.6013 29.0341 81.6013C29.3783 81.6013 29.6671 81.7235 29.9003 81.9678C30.1446 82.2121 30.2667 82.5286 30.2667 82.9173C30.2667 83.2726 30.1446 83.578 29.9003 83.8334C29.6671 84.0777 29.3783 84.1999 29.0341 84.1999ZM33.6214 84.1999C33.266 84.1999 32.9662 84.0777 32.7219 83.8334C32.4887 83.578 32.3721 83.2726 32.3721 82.9173C32.3721 82.5286 32.4887 82.2121 32.7219 81.9678C32.9662 81.7235 33.266 81.6013 33.6214 81.6013C33.9656 81.6013 34.2543 81.7235 34.4875 81.9678C34.7319 82.2121 34.854 82.5286 34.854 82.9173C34.854 83.2726 34.7319 83.578 34.4875 83.8334C34.2543 84.0777 33.9656 84.1999 33.6214 84.1999ZM38.2086 84.1999C37.8533 84.1999 37.5535 84.0777 37.3092 83.8334C37.0759 83.578 36.9593 83.2726 36.9593 82.9173C36.9593 82.5286 37.0759 82.2121 37.3092 81.9678C37.5535 81.7235 37.8533 81.6013 38.2086 81.6013C38.5529 81.6013 38.8416 81.7235 39.0748 81.9678C39.3191 82.2121 39.4413 82.5286 39.4413 82.9173C39.4413 83.2726 39.3191 83.578 39.0748 83.8334C38.8416 84.0777 38.5529 84.1999 38.2086 84.1999ZM41.1469 86.5319V85.4825H42.9459V73.256H41.1469V72.2066H44.395V86.5319H41.1469ZM100.088 100.503C99.7328 100.503 99.433 100.381 99.1887 100.137C98.9555 99.8812 98.8389 99.5758 98.8389 99.2204C98.8389 98.8318 98.9555 98.5153 99.1887 98.271C99.433 98.0267 99.7328 97.9045 100.088 97.9045C100.432 97.9045 100.721 98.0267 100.954 98.271C101.199 98.5153 101.321 98.8318 101.321 99.2204C101.321 99.5758 101.199 99.8812 100.954 100.137C100.721 100.381 100.432 100.503 100.088 100.503ZM100.088 106.2C99.7328 106.2 99.433 106.078 99.1887 105.833C98.9555 105.578 98.8389 105.273 98.8389 104.917C98.8389 104.529 98.9555 104.212 99.1887 103.968C99.433 103.723 99.7328 103.601 100.088 103.601C100.432 103.601 100.721 103.723 100.954 103.968C101.199 104.212 101.321 104.529 101.321 104.917C101.321 105.273 101.199 105.578 100.954 105.833C100.721 106.078 100.432 106.2 100.088 106.2ZM22.8339 130.532V116.207H26.0987V117.256H24.2831V129.483H26.0987V130.532H22.8339ZM29.0341 128.2C28.6787 128.2 28.3789 128.078 28.1346 127.833C27.9014 127.578 27.7848 127.273 27.7848 126.917C27.7848 126.529 27.9014 126.212 28.1346 125.968C28.3789 125.723 28.6787 125.601 29.0341 125.601C29.3783 125.601 29.6671 125.723 29.9003 125.968C30.1446 126.212 30.2667 126.529 30.2667 126.917C30.2667 127.273 30.1446 127.578 29.9003 127.833C29.6671 128.078 29.3783 128.2 29.0341 128.2ZM33.6214 128.2C33.266 128.2 32.9662 128.078 32.7219 127.833C32.4887 127.578 32.3721 127.273 32.3721 126.917C32.3721 126.529 32.4887 126.212 32.7219 125.968C32.9662 125.723 33.266 125.601 33.6214 125.601C33.9656 125.601 34.2543 125.723 34.4875 125.968C34.7319 126.212 34.854 126.529 34.854 126.917C34.854 127.273 34.7319 127.578 34.4875 127.833C34.2543 128.078 33.9656 128.2 33.6214 128.2ZM38.2086 128.2C37.8533 128.2 37.5535 128.078 37.3092 127.833C37.0759 127.578 36.9593 127.273 36.9593 126.917C36.9593 126.529 37.0759 126.212 37.3092 125.968C37.5535 125.723 37.8533 125.601 38.2086 125.601C38.5529 125.601 38.8416 125.723 39.0748 125.968C39.3191 126.212 39.4413 126.529 39.4413 126.917C39.4413 127.273 39.3191 127.578 39.0748 127.833C38.8416 128.078 38.5529 128.2 38.2086 128.2ZM41.1469 130.532V129.483H42.9459V117.256H41.1469V116.207H44.395V130.532H41.1469ZM18.6496 152.532V151.483H19.0161C19.4159 151.483 19.6824 151.383 19.8157 151.183C19.96 150.994 20.0322 150.65 20.0322 150.15C20.0322 149.672 20.0155 149.212 19.9822 148.767C19.96 148.312 19.9489 147.818 19.9489 147.285C19.9489 146.707 20.0378 146.274 20.2154 145.986C20.3931 145.697 20.6763 145.503 21.065 145.403V145.336C20.6763 145.236 20.3931 145.047 20.2154 144.77C20.0378 144.481 19.9489 144.042 19.9489 143.454C19.9489 142.921 19.96 142.432 19.9822 141.988C20.0155 141.533 20.0322 141.066 20.0322 140.589C20.0322 140.089 19.96 139.745 19.8157 139.556C19.6824 139.356 19.4159 139.256 19.0161 139.256H18.6496V138.207H19.5325C20.2432 138.207 20.7596 138.373 21.0816 138.706C21.4148 139.028 21.5813 139.628 21.5813 140.505C21.5813 140.894 21.5647 141.249 21.5314 141.571C21.5092 141.893 21.4814 142.21 21.4481 142.521C21.4259 142.832 21.4148 143.17 21.4148 143.537C21.4148 143.737 21.4592 143.931 21.548 144.12C21.6369 144.309 21.7868 144.464 21.9978 144.586C22.2088 144.709 22.4919 144.775 22.8473 144.786V145.952C22.3032 145.963 21.9256 146.102 21.7146 146.369C21.5147 146.624 21.4148 146.907 21.4148 147.218C21.4148 147.574 21.4259 147.907 21.4481 148.218C21.4814 148.529 21.5092 148.845 21.5314 149.167C21.5647 149.478 21.5813 149.833 21.5813 150.233C21.5813 151.11 21.4148 151.71 21.0816 152.032C20.7596 152.365 20.2432 152.532 19.5325 152.532H18.6496Z" fill="#FFC727"/>
<path d="M23.0838 99.4703L22.7006 96.422L22.634 94.5397H24.6162L24.5496 96.422L24.1665 99.4703H23.0838ZM26.5318 99.4703L26.1487 96.422L26.0821 94.5397H28.0643L27.9977 96.422L27.6146 99.4703H26.5318ZM32.5596 106.2C31.9932 106.2 31.4324 106.094 30.8772 105.883C30.3331 105.672 29.8611 105.378 29.4613 105.001L30.3108 103.901C30.6773 104.201 31.0493 104.418 31.4269 104.551C31.8045 104.684 32.1987 104.751 32.6096 104.751C33.0649 104.751 33.398 104.656 33.609 104.468C33.8311 104.279 33.9421 104.046 33.9421 103.768C33.9421 103.546 33.8589 103.357 33.6923 103.202C33.5368 103.046 33.3258 102.913 33.0593 102.802C32.8039 102.691 32.5207 102.58 32.2098 102.469C31.8211 102.324 31.4491 102.152 31.0937 101.952C30.7384 101.741 30.4552 101.486 30.2442 101.186C30.0332 100.875 29.9277 100.503 29.9277 100.07C29.9277 99.3482 30.1942 98.7596 30.7273 98.3043C31.2603 97.849 31.9877 97.6213 32.9094 97.6213C33.4535 97.6213 33.9588 97.7157 34.4252 97.9045C34.8916 98.0822 35.2914 98.3154 35.6245 98.6041L34.775 99.6869C34.4863 99.4759 34.192 99.3204 33.8922 99.2204C33.5923 99.1205 33.2759 99.0705 32.9427 99.0705C32.5318 99.0705 32.2264 99.1594 32.0266 99.337C31.8267 99.5036 31.7267 99.7146 31.7267 99.97C31.7267 100.17 31.7878 100.336 31.9099 100.47C32.0432 100.603 32.232 100.725 32.4763 100.836C32.7206 100.936 33.0149 101.047 33.3591 101.169C33.7811 101.303 34.1754 101.475 34.5418 101.686C34.9083 101.897 35.197 102.163 35.408 102.485C35.6301 102.796 35.7411 103.185 35.7411 103.651C35.7411 104.118 35.619 104.545 35.3747 104.934C35.1304 105.323 34.775 105.634 34.3086 105.867C33.8422 106.089 33.2592 106.2 32.5596 106.2ZM39.4335 106.2C38.956 106.2 38.534 106.1 38.1675 105.9C37.8011 105.689 37.5179 105.406 37.318 105.051C37.1181 104.684 37.0182 104.268 37.0182 103.801C37.0182 102.924 37.3957 102.247 38.1509 101.769C38.9171 101.28 40.1386 100.947 41.8155 100.77C41.8155 100.481 41.7655 100.214 41.6656 99.97C41.5767 99.7257 41.4268 99.5314 41.2158 99.387C41.0048 99.2427 40.7106 99.1705 40.333 99.1705C39.9332 99.1705 39.539 99.2482 39.1503 99.4037C38.7727 99.548 38.4007 99.7257 38.0343 99.9367L37.3347 98.6874C37.6345 98.4986 37.9621 98.3209 38.3174 98.1544C38.6728 97.9878 39.0504 97.8601 39.4501 97.7713C39.8499 97.6713 40.2664 97.6213 40.6994 97.6213C41.388 97.6213 41.9543 97.7602 42.3985 98.0378C42.8427 98.3043 43.1758 98.7041 43.3979 99.2371C43.6311 99.759 43.7477 100.398 43.7477 101.153V106H42.182L42.032 105.101H41.9654C41.6101 105.4 41.2214 105.661 40.7994 105.883C40.3774 106.094 39.9221 106.2 39.4335 106.2ZM40.0498 104.701C40.383 104.701 40.6828 104.623 40.9493 104.468C41.2269 104.301 41.5157 104.079 41.8155 103.801V101.969C41.0826 102.058 40.4996 102.185 40.0665 102.352C39.6445 102.508 39.3391 102.696 39.1503 102.918C38.9615 103.129 38.8671 103.374 38.8671 103.651C38.8671 104.007 38.9782 104.273 39.2003 104.451C39.4224 104.617 39.7056 104.701 40.0498 104.701ZM46.0402 106V97.8212H47.6227L47.7559 98.9206H47.8226C48.189 98.5542 48.5888 98.2488 49.0219 98.0045C49.455 97.749 49.9491 97.6213 50.5044 97.6213C51.3817 97.6213 52.0202 97.9045 52.42 98.4709C52.8198 99.0372 53.0197 99.8368 53.0197 100.87V106H51.1041V101.119C51.1041 100.442 50.9986 99.9645 50.7876 99.6869C50.5877 99.3981 50.2656 99.2538 49.8214 99.2538C49.4661 99.2538 49.1496 99.3426 48.872 99.5203C48.6055 99.698 48.3001 99.9534 47.9558 100.287V106H46.0402ZM58.2263 106.2C57.2046 106.2 56.3884 105.822 55.7776 105.067C55.1669 104.312 54.8615 103.263 54.8615 101.919C54.8615 101.031 55.0225 100.264 55.3445 99.6202C55.6777 98.9761 56.1108 98.482 56.6438 98.1377C57.1768 97.7935 57.7376 97.6213 58.3262 97.6213C58.7926 97.6213 59.1868 97.7046 59.5089 97.8712C59.842 98.0267 60.1641 98.2432 60.475 98.5208L60.3917 97.2049V94.2399H62.324V106H60.7582L60.6083 105.117H60.5416C60.2418 105.417 59.8864 105.672 59.4756 105.883C59.0758 106.094 58.6594 106.2 58.2263 106.2ZM58.6927 104.617C59.0147 104.617 59.3145 104.545 59.5922 104.401C59.8698 104.257 60.1363 104.018 60.3917 103.685V99.8867C60.1141 99.6313 59.8365 99.4537 59.5588 99.3537C59.2923 99.2538 59.0203 99.2038 58.7426 99.2038C58.3873 99.2038 58.0652 99.3093 57.7765 99.5203C57.4989 99.7313 57.2712 100.037 57.0936 100.436C56.9159 100.836 56.827 101.325 56.827 101.902C56.827 102.78 56.9881 103.451 57.3101 103.918C57.6433 104.384 58.1041 104.617 58.6927 104.617ZM68.728 106.2C68.3615 106.2 67.9839 106.111 67.5953 105.933C67.2066 105.745 66.8401 105.484 66.4959 105.15H66.4459L66.2793 106H64.7635V94.2399H66.6791V97.2715L66.6291 98.6374C66.9734 98.3376 67.3454 98.0933 67.7452 97.9045C68.156 97.7157 68.5725 97.6213 68.9945 97.6213C69.6719 97.6213 70.2493 97.7935 70.7268 98.1377C71.2155 98.482 71.5875 98.965 71.8429 99.5869C72.0983 100.198 72.226 100.925 72.226 101.769C72.226 102.702 72.0594 103.501 71.7263 104.168C71.3931 104.834 70.96 105.339 70.427 105.684C69.9051 106.028 69.3387 106.2 68.728 106.2ZM68.3282 104.617C68.6946 104.617 69.0222 104.512 69.311 104.301C69.5997 104.09 69.8273 103.773 69.9939 103.351C70.1605 102.929 70.2438 102.413 70.2438 101.802C70.2438 101.258 70.1827 100.792 70.0605 100.403C69.9384 100.014 69.7441 99.7202 69.4775 99.5203C69.2221 99.3093 68.8834 99.2038 68.4614 99.2038C68.1727 99.2038 67.884 99.2815 67.5953 99.437C67.3065 99.5814 67.0011 99.809 66.6791 100.12V103.934C66.9678 104.179 67.2566 104.356 67.5453 104.468C67.834 104.567 68.095 104.617 68.3282 104.617ZM77.4977 106.2C76.8203 106.2 76.1873 106.033 75.5987 105.7C75.0102 105.356 74.5327 104.867 74.1662 104.234C73.7997 103.59 73.6165 102.818 73.6165 101.919C73.6165 101.008 73.7997 100.237 74.1662 99.6036C74.5327 98.9595 75.0102 98.4709 75.5987 98.1377C76.1873 97.7935 76.8203 97.6213 77.4977 97.6213C78.1862 97.6213 78.8247 97.7935 79.4133 98.1377C80.0018 98.4709 80.4793 98.9595 80.8458 99.6036C81.2123 100.237 81.3955 101.008 81.3955 101.919C81.3955 102.818 81.2123 103.59 80.8458 104.234C80.4793 104.867 80.0018 105.356 79.4133 105.7C78.8247 106.033 78.1862 106.2 77.4977 106.2ZM77.4977 104.634C77.8974 104.634 78.2417 104.523 78.5304 104.301C78.8192 104.079 79.0357 103.762 79.1801 103.351C79.3355 102.941 79.4133 102.463 79.4133 101.919C79.4133 101.375 79.3355 100.897 79.1801 100.486C79.0357 100.064 78.8192 99.7424 78.5304 99.5203C78.2417 99.2982 77.8974 99.1871 77.4977 99.1871C77.109 99.1871 76.7703 99.2982 76.4816 99.5203C76.1928 99.7424 75.9707 100.064 75.8153 100.486C75.6598 100.897 75.5821 101.375 75.5821 101.919C75.5821 102.463 75.6598 102.941 75.8153 103.351C75.9707 103.762 76.1928 104.079 76.4816 104.301C76.7703 104.523 77.109 104.634 77.4977 104.634ZM81.9509 106L84.5495 101.736L82.1341 97.8212H84.183L85.0992 99.3704C85.2102 99.5925 85.3268 99.8257 85.449 100.07C85.5822 100.303 85.7155 100.531 85.8487 100.753H85.9154C86.0153 100.531 86.1208 100.303 86.2319 100.07C86.3429 99.8257 86.454 99.5925 86.565 99.3704L87.3312 97.8212H89.3301L86.8982 101.952L89.4967 106H87.4312L86.4317 104.384C86.2985 104.14 86.1597 103.896 86.0153 103.651C85.8821 103.407 85.7432 103.168 85.5989 102.935H85.5323C85.4101 103.168 85.2879 103.407 85.1658 103.651C85.0436 103.885 84.927 104.129 84.816 104.384L83.9498 106H81.9509ZM91.4864 99.4703L91.1032 96.422L91.0366 94.5397H93.0188L92.9522 96.422L92.5691 99.4703H91.4864ZM94.9344 99.4703L94.5513 96.422L94.4847 94.5397H96.4669L96.4003 96.422L96.0172 99.4703H94.9344ZM106.944 106V104.434H109.326V97.4714H107.361V96.2721C107.894 96.1721 108.349 96.0555 108.726 95.9223C109.115 95.7779 109.471 95.6002 109.793 95.3893H111.242V104.434H113.324V106H106.944ZM115.451 109.032L115.035 107.982C115.579 107.771 115.995 107.483 116.284 107.116C116.584 106.761 116.728 106.361 116.717 105.917L116.617 104.484L117.367 105.667C117.267 105.778 117.144 105.856 117 105.9C116.867 105.944 116.722 105.967 116.567 105.967C116.245 105.967 115.956 105.867 115.701 105.667C115.457 105.456 115.334 105.162 115.334 104.784C115.334 104.429 115.457 104.145 115.701 103.934C115.956 103.712 116.262 103.601 116.617 103.601C117.072 103.601 117.422 103.779 117.666 104.134C117.911 104.479 118.033 104.962 118.033 105.584C118.033 106.383 117.805 107.083 117.35 107.682C116.906 108.293 116.273 108.743 115.451 109.032Z" fill="white"/>
</g>
<path opacity="0.8" d="M163.878 20V9.10608H165.811V13.487H170.208V9.10608H172.157V20H170.208V15.1694H165.811V20H163.878ZM177.122 20V10.7218H173.991V9.10608H182.203V10.7218H179.055V20H177.122ZM186.216 20V10.7218H183.084V9.10608H191.296V10.7218H188.148V20H186.216ZM193.11 20V9.10608H196.542C197.352 9.10608 198.074 9.21157 198.707 9.42257C199.34 9.63356 199.84 9.98336 200.206 10.472C200.573 10.9606 200.756 11.6269 200.756 12.4709C200.756 13.2704 200.573 13.9312 200.206 14.4531C199.84 14.975 199.346 15.3637 198.724 15.6191C198.102 15.8745 197.397 16.0022 196.608 16.0022H195.042V20H193.11ZM195.042 14.4531H196.458C197.269 14.4531 197.869 14.2921 198.257 13.97C198.657 13.6369 198.857 13.1372 198.857 12.4709C198.857 11.7935 198.646 11.3215 198.224 11.055C197.813 10.7885 197.202 10.6552 196.392 10.6552H195.042V14.4531ZM206.124 20V9.10608H209.555C210.366 9.10608 211.088 9.21157 211.721 9.42257C212.354 9.63356 212.853 9.98336 213.22 10.472C213.586 10.9606 213.769 11.6269 213.769 12.4709C213.769 13.2704 213.586 13.9312 213.22 14.4531C212.853 14.975 212.359 15.3637 211.737 15.6191C211.115 15.8745 210.41 16.0022 209.622 16.0022H208.056V20H206.124ZM208.056 14.4531H209.472C210.282 14.4531 210.882 14.2921 211.271 13.97C211.671 13.6369 211.87 13.1372 211.87 12.4709C211.87 11.7935 211.659 11.3215 211.237 11.055C210.827 10.7885 210.216 10.6552 209.405 10.6552H208.056V14.4531ZM220.033 20.1999C219.09 20.1999 218.257 19.9722 217.535 19.5169C216.813 19.0505 216.247 18.3953 215.836 17.5514C215.436 16.6963 215.236 15.6802 215.236 14.5031C215.236 13.3259 215.436 12.3209 215.836 11.4881C216.247 10.6552 216.813 10.0167 217.535 9.57248C218.257 9.12829 219.09 8.90619 220.033 8.90619C220.989 8.90619 221.821 9.12829 222.532 9.57248C223.254 10.0167 223.82 10.6552 224.231 11.4881C224.642 12.3209 224.847 13.3259 224.847 14.5031C224.847 15.6802 224.642 16.6963 224.231 17.5514C223.82 18.3953 223.254 19.0505 222.532 19.5169C221.821 19.9722 220.989 20.1999 220.033 20.1999ZM220.033 18.5175C220.611 18.5175 221.111 18.3565 221.533 18.0344C221.955 17.7013 222.277 17.2349 222.499 16.6352C222.732 16.0355 222.849 15.3248 222.849 14.5031C222.849 13.6924 222.732 12.9928 222.499 12.4042C222.277 11.8157 221.955 11.3659 221.533 11.055C221.111 10.7441 220.611 10.5886 220.033 10.5886C219.467 10.5886 218.967 10.7441 218.534 11.055C218.112 11.3659 217.785 11.8157 217.552 12.4042C217.329 12.9928 217.218 13.6924 217.218 14.5031C217.218 15.3248 217.329 16.0355 217.552 16.6352C217.785 17.2349 218.112 17.7013 218.534 18.0344C218.967 18.3565 219.467 18.5175 220.033 18.5175ZM230.208 20.1999C229.453 20.1999 228.737 20.0666 228.059 19.8001C227.393 19.5225 226.799 19.1172 226.277 18.5841L227.327 17.3348C227.715 17.7124 228.165 18.0067 228.676 18.2177C229.198 18.4175 229.72 18.5175 230.242 18.5175C230.863 18.5175 231.335 18.3898 231.657 18.1344C231.98 17.879 232.141 17.5403 232.141 17.1183C232.141 16.8073 232.068 16.563 231.924 16.3853C231.78 16.2077 231.58 16.0522 231.324 15.9189C231.08 15.7857 230.791 15.6469 230.458 15.5025L228.976 14.8695C228.609 14.7141 228.254 14.5142 227.91 14.2699C227.576 14.0144 227.299 13.698 227.077 13.3204C226.866 12.9428 226.76 12.4931 226.76 11.9711C226.76 11.3937 226.916 10.8773 227.227 10.422C227.549 9.9556 227.982 9.58914 228.526 9.32262C229.081 9.045 229.714 8.90619 230.425 8.90619C231.08 8.90619 231.696 9.02834 232.274 9.27265C232.862 9.50585 233.368 9.8279 233.79 10.2388L232.757 11.5047C232.402 11.216 232.029 10.9939 231.641 10.8384C231.252 10.6719 230.847 10.5886 230.425 10.5886C229.903 10.5886 229.486 10.7052 229.176 10.9384C228.865 11.1605 228.709 11.4714 228.709 11.8712C228.709 12.1488 228.792 12.382 228.959 12.5708C229.126 12.7485 229.342 12.904 229.609 13.0372C229.875 13.1594 230.158 13.2815 230.458 13.4037L231.924 14.02C232.357 14.1977 232.735 14.4198 233.057 14.6863C233.39 14.9417 233.651 15.2526 233.84 15.6191C234.028 15.9856 234.123 16.4298 234.123 16.9517C234.123 17.5403 233.967 18.0844 233.656 18.5841C233.345 19.0727 232.896 19.467 232.307 19.7668C231.73 20.0555 231.03 20.1999 230.208 20.1999ZM237.977 20V10.7218H234.846V9.10608H243.058V10.7218H239.909V20H237.977ZM248.206 20V9.10608H251.871C252.637 9.10608 253.32 9.20602 253.92 9.40591C254.531 9.6058 255.008 9.9445 255.352 10.422C255.708 10.8884 255.885 11.5269 255.885 12.3376C255.885 13.115 255.708 13.759 255.352 14.2699C255.008 14.7696 254.531 15.1416 253.92 15.3859C253.32 15.6302 252.637 15.7524 251.871 15.7524H250.139V20H248.206ZM250.139 14.2032H251.671C252.426 14.2032 252.998 14.0478 253.387 13.7368C253.787 13.4259 253.986 12.9595 253.986 12.3376C253.986 11.7046 253.787 11.266 253.387 11.0217C252.998 10.7774 252.426 10.6552 251.671 10.6552H250.139V14.2032ZM254.153 20L251.521 15.236L252.92 14.07L256.318 20H254.153ZM258.048 20V9.10608H264.611V10.7218H259.98V13.5203H263.895V15.1527H259.98V18.3676H264.777V20H258.048ZM271.242 20.1999C270.298 20.1999 269.465 19.9722 268.743 19.5169C268.021 19.0505 267.455 18.3953 267.044 17.5514C266.644 16.6963 266.445 15.6802 266.445 14.5031C266.445 13.3259 266.644 12.3209 267.044 11.4881C267.455 10.6552 268.021 10.0167 268.743 9.57248C269.465 9.12829 270.298 8.90619 271.242 8.90619C272.197 8.90619 273.03 9.12829 273.741 9.57248C274.462 10.0167 275.029 10.6552 275.44 11.4881C275.85 12.3209 276.056 13.3259 276.056 14.5031C276.056 15.6802 275.85 16.6963 275.44 17.5514C275.029 18.3953 274.462 19.0505 273.741 19.5169C273.03 19.9722 272.197 20.1999 271.242 20.1999ZM271.242 18.6174C271.819 18.6174 272.319 18.4509 272.741 18.1177C273.163 17.7846 273.485 17.3126 273.707 16.7018C273.94 16.0911 274.057 15.3581 274.057 14.5031C274.057 13.6924 273.94 12.9928 273.707 12.4042C273.485 11.8157 273.163 11.3659 272.741 11.055C272.319 10.7441 271.819 10.5886 271.242 10.5886C270.676 10.5886 270.176 10.7441 269.743 11.055C269.321 11.3659 268.993 11.8157 268.76 12.4042C268.538 12.9928 268.427 13.6924 268.427 14.5031C268.427 15.3581 268.538 16.0911 268.76 16.7018C268.993 17.3126 269.321 17.7846 269.743 18.1177C270.176 18.4509 270.676 18.6174 271.242 18.6174ZM274.707 22.8817C273.596 22.8817 272.658 22.5986 271.892 22.0322C271.136 21.477 270.598 20.7829 270.276 19.95L272.241 19.7501C272.386 20.1166 272.591 20.4164 272.858 20.6496C273.135 20.8828 273.452 21.0494 273.807 21.1494C274.163 21.2604 274.535 21.3159 274.923 21.3159C275.167 21.3159 275.384 21.2993 275.573 21.266C275.773 21.2438 275.95 21.2104 276.106 21.166L276.456 22.5819C276.278 22.6707 276.034 22.7429 275.723 22.7984C275.423 22.854 275.084 22.8817 274.707 22.8817ZM282.333 20.1999C281.7 20.1999 281.128 20.111 280.617 19.9334C280.106 19.7557 279.668 19.4725 279.301 19.0838C278.946 18.6952 278.668 18.1955 278.468 17.5847C278.28 16.9628 278.185 16.2077 278.185 15.3193V9.10608H280.117V15.4692C280.117 16.2354 280.206 16.8407 280.384 17.2848C280.573 17.729 280.834 18.0455 281.167 18.2343C281.5 18.4231 281.889 18.5175 282.333 18.5175C282.777 18.5175 283.166 18.4231 283.499 18.2343C283.832 18.0455 284.093 17.729 284.282 17.2848C284.471 16.8407 284.565 16.2354 284.565 15.4692V9.10608H286.431V15.3193C286.431 16.2077 286.336 16.9628 286.147 17.5847C285.959 18.1955 285.687 18.6952 285.331 19.0838C284.976 19.4725 284.543 19.7557 284.032 19.9334C283.521 20.111 282.955 20.1999 282.333 20.1999ZM289.15 20V9.10608H295.713V10.7218H291.083V13.5203H294.997V15.1527H291.083V18.3676H295.88V20H289.15ZM301.295 20.1999C300.54 20.1999 299.824 20.0666 299.146 19.8001C298.48 19.5225 297.886 19.1172 297.364 18.5841L298.413 17.3348C298.802 17.7124 299.252 18.0067 299.762 18.2177C300.284 18.4175 300.806 18.5175 301.328 18.5175C301.95 18.5175 302.422 18.3898 302.744 18.1344C303.066 17.879 303.227 17.5403 303.227 17.1183C303.227 16.8073 303.155 16.563 303.011 16.3853C302.866 16.2077 302.666 16.0522 302.411 15.9189C302.167 15.7857 301.878 15.6469 301.545 15.5025L300.062 14.8695C299.696 14.7141 299.34 14.5142 298.996 14.2699C298.663 14.0144 298.385 13.698 298.163 13.3204C297.952 12.9428 297.847 12.4931 297.847 11.9711C297.847 11.3937 298.002 10.8773 298.313 10.422C298.635 9.9556 299.068 9.58914 299.613 9.32262C300.168 9.045 300.801 8.90619 301.511 8.90619C302.167 8.90619 302.783 9.02834 303.36 9.27265C303.949 9.50585 304.454 9.8279 304.876 10.2388L303.844 11.5047C303.488 11.216 303.116 10.9939 302.727 10.8384C302.339 10.6719 301.933 10.5886 301.511 10.5886C300.99 10.5886 300.573 10.7052 300.262 10.9384C299.951 11.1605 299.796 11.4714 299.796 11.8712C299.796 12.1488 299.879 12.382 300.046 12.5708C300.212 12.7485 300.429 12.904 300.695 13.0372C300.962 13.1594 301.245 13.2815 301.545 13.4037L303.011 14.02C303.444 14.1977 303.821 14.4198 304.143 14.6863C304.476 14.9417 304.737 15.2526 304.926 15.6191C305.115 15.9856 305.209 16.4298 305.209 16.9517C305.209 17.5403 305.054 18.0844 304.743 18.5841C304.432 19.0727 303.982 19.467 303.394 19.7668C302.816 20.0555 302.117 20.1999 301.295 20.1999ZM309.064 20V10.7218H305.932V9.10608H314.144V10.7218H310.996V20H309.064ZM319.293 20V9.10608H322.791C323.535 9.10608 324.196 9.19492 324.773 9.37259C325.362 9.53917 325.823 9.81679 326.156 10.2055C326.489 10.5941 326.656 11.1216 326.656 11.7879C326.656 12.3432 326.528 12.8373 326.272 13.2704C326.017 13.6924 325.645 13.9867 325.156 14.1533V14.2199C325.8 14.3531 326.306 14.6252 326.672 15.0361C327.05 15.447 327.239 16.0078 327.239 16.7185C327.239 17.4625 327.055 18.0788 326.689 18.5675C326.333 19.045 325.839 19.4059 325.206 19.6502C324.573 19.8834 323.857 20 323.058 20H319.293ZM321.225 13.6036H322.608C323.363 13.6036 323.913 13.4648 324.257 13.1871C324.601 12.9095 324.773 12.5319 324.773 12.0544C324.773 11.5325 324.596 11.1605 324.24 10.9384C323.885 10.7163 323.352 10.6052 322.641 10.6052H321.225V13.6036ZM321.225 18.5008H322.858C323.657 18.5008 324.274 18.3565 324.707 18.0677C325.14 17.7679 325.356 17.3126 325.356 16.7018C325.356 16.1244 325.14 15.7079 324.707 15.4525C324.285 15.186 323.668 15.0528 322.858 15.0528H321.225V18.5008ZM333.463 20.1999C332.519 20.1999 331.686 19.9722 330.964 19.5169C330.243 19.0505 329.676 18.3953 329.265 17.5514C328.866 16.6963 328.666 15.6802 328.666 14.5031C328.666 13.3259 328.866 12.3209 329.265 11.4881C329.676 10.6552 330.243 10.0167 330.964 9.57248C331.686 9.12829 332.519 8.90619 333.463 8.90619C334.418 8.90619 335.251 9.12829 335.962 9.57248C336.683 10.0167 337.25 10.6552 337.661 11.4881C338.072 12.3209 338.277 13.3259 338.277 14.5031C338.277 15.6802 338.072 16.6963 337.661 17.5514C337.25 18.3953 336.683 19.0505 335.962 19.5169C335.251 19.9722 334.418 20.1999 333.463 20.1999ZM333.463 18.5175C334.041 18.5175 334.54 18.3565 334.962 18.0344C335.384 17.7013 335.706 17.2349 335.928 16.6352C336.162 16.0355 336.278 15.3248 336.278 14.5031C336.278 13.6924 336.162 12.9928 335.928 12.4042C335.706 11.8157 335.384 11.3659 334.962 11.055C334.54 10.7441 334.041 10.5886 333.463 10.5886C332.897 10.5886 332.397 10.7441 331.964 11.055C331.542 11.3659 331.214 11.8157 330.981 12.4042C330.759 12.9928 330.648 13.6924 330.648 14.5031C330.648 15.3248 330.759 16.0355 330.981 16.6352C331.214 17.2349 331.542 17.7013 331.964 18.0344C332.397 18.3565 332.897 18.5175 333.463 18.5175ZM340.456 20V9.10608H343.371C344.482 9.10608 345.431 9.30596 346.22 9.70574C347.019 10.1055 347.625 10.7052 348.035 11.5047C348.457 12.3043 348.668 13.3037 348.668 14.5031C348.668 15.7135 348.457 16.7296 348.035 17.5514C347.625 18.362 347.03 18.9728 346.253 19.3837C345.476 19.7946 344.548 20 343.471 20H340.456ZM342.389 18.4342H343.238C343.971 18.4342 344.593 18.2954 345.104 18.0178C345.626 17.729 346.02 17.296 346.286 16.7185C346.553 16.141 346.686 15.4026 346.686 14.5031C346.686 13.6147 346.553 12.8929 346.286 12.3376C346.02 11.7713 345.626 11.3548 345.104 11.0883C344.593 10.8107 343.971 10.6719 343.238 10.6719H342.389V18.4342ZM352.357 20V15.9523L349.093 9.10608H351.158L352.341 11.8879C352.507 12.2987 352.668 12.6985 352.824 13.0872C352.979 13.4759 353.14 13.8756 353.307 14.2865H353.374C353.54 13.8756 353.707 13.4759 353.873 13.0872C354.051 12.6985 354.218 12.2987 354.373 11.8879L355.556 9.10608H357.571L354.306 15.9523V20H352.357Z" fill="#00412F"/>
<defs>
<filter id="filter0_b_738_440" x="-28.2" y="-26.2" width="576.4" height="226.4" filterUnits="userSpaceOnUse" color-interpolation-filters="sRGB">
<feFlood flood-opacity="0" result="BackgroundImageFix"/>
<feGaussianBlur in="BackgroundImageFix" stdDeviation="14.1"/>
<feComposite in2="SourceAlpha" operator="in" result="effect1_backgroundBlur_738_440"/>
<feBlend mode="normal" in="SourceGraphic" in2="effect1_backgroundBlur_738_440" result="shape"/>
</filter>
<filter id="filter1_b_738_440" x="-28.2" y="-28.2" width="576.4" height="86.4" filterUnits="userSpaceOnUse" color-interpolation-filters="sRGB">
<feFlood flood-opacity="0" result="BackgroundImageFix"/>
<feGaussianBlur in="BackgroundImageFix" stdDeviation="14.1"/>
<feComposite in2="SourceAlpha" operator="in" result="effect1_backgroundBlur_738_440"/>
<feBlend mode="normal" in="SourceGraphic" in2="effect1_backgroundBlur_738_440" result="shape"/>
</filter>
<linearGradient id="paint0_linear_738_440" x1="0" y1="87" x2="520" y2="87" gradientUnits="userSpaceOnUse">
<stop stop-color="white" stop-opacity="0.5"/>
<stop offset="1" stop-color="#7A9994"/>
</linearGradient>
<linearGradient id="paint1_linear_738_440" x1="0" y1="15" x2="520" y2="15" gradientUnits="userSpaceOnUse">
<stop stop-color="white" stop-opacity="0.5"/>
<stop offset="1" stop-color="#7A9994"/>
</linearGradient>
</defs>
</svg>
