<svg width="99" height="89" viewBox="0 0 99 89" fill="none" xmlns="http://www.w3.org/2000/svg">
<g clip-path="url(#clip0_1_5710)">
<path d="M99 88.1337C98.4356 88.8546 97.683 89.0001 96.798 89.0001C65.2799 88.9863 33.7619 88.9863 2.24382 88.9863C0.68987 88.9863 -0.0209058 88.5149 -5.83241e-07 87.5168C0.027873 86.5395 0.703807 86.1028 2.21595 86.1028C4.14619 86.1028 6.07644 86.1028 8.11818 86.1028C8.11818 85.68 8.11818 85.3403 8.11818 84.9938C8.11818 80.1833 8.11818 75.3798 8.11818 70.5694C8.11818 68.0325 9.4143 66.7293 11.9856 66.7224C15.1423 66.7085 18.299 66.7085 21.4627 66.7224C23.9504 66.7363 25.2604 68.0602 25.2674 70.5486C25.2744 75.2897 25.2674 80.0378 25.2674 84.7789C25.2674 85.1601 25.2674 85.5413 25.2674 86.0057H29.985C29.985 83.7461 29.985 81.5072 29.985 79.2684C29.985 78.8871 29.9711 78.499 29.985 78.1177C30.0338 77.1404 30.5982 76.5512 31.4553 76.5582C32.3194 76.5582 32.8699 77.1473 32.8769 78.1455C32.8908 80.516 32.8769 82.8866 32.8769 85.2641C32.8769 85.4859 32.8769 85.7008 32.8769 86.0057H44.1308V59.1602H32.9953C32.9535 59.5691 32.8839 59.9365 32.8839 60.3108C32.8769 64.0607 32.8839 67.8106 32.8839 71.5606C32.8839 71.8517 32.9048 72.1428 32.856 72.427C32.7306 73.1548 32.2288 73.6677 31.5459 73.5846C31.0372 73.5222 30.5216 73.0716 30.1313 72.6765C29.9362 72.4755 29.985 72.0111 29.985 71.6645C29.978 67.7829 29.978 63.9082 29.985 60.0266C29.985 57.5105 31.3229 56.1935 33.8734 56.1866C37.0022 56.1866 40.124 56.1866 43.2528 56.1866C45.7893 56.1866 47.1412 57.5105 47.1412 60.0335C47.1412 68.3028 47.1412 76.572 47.1412 84.8482C47.1412 85.2225 47.1412 85.6037 47.1412 86.0335H51.8518V84.7789C51.8518 73.1132 51.8518 61.4406 51.8518 49.775C51.8518 46.9192 53.1201 45.6577 55.9632 45.6508C58.9944 45.6508 62.0187 45.6508 65.05 45.6508C67.691 45.6508 69.008 46.9747 69.008 49.6294C69.008 61.3644 69.008 73.0924 69.008 84.8274V86.0265H73.7256V84.7927C73.7256 69.599 73.7256 54.4052 73.7256 39.2114C73.7256 38.1301 73.7605 37.0003 74.6524 36.2933C75.3144 35.7665 76.2064 35.2397 77.0147 35.212C80.5198 35.0941 84.0388 35.1149 87.5509 35.1773C89.516 35.212 90.8609 36.6329 90.8679 38.5807C90.8888 43.3911 90.8818 48.1946 90.8679 53.005C90.8679 54.0586 90.3104 54.6755 89.4185 54.6824C88.5265 54.6824 87.976 54.0725 87.969 53.0189C87.962 48.4649 87.969 43.9179 87.9621 39.3639C87.9621 38.9896 87.9272 38.6153 87.8993 38.1509H76.7499V86.0335H87.969C87.969 85.6661 87.969 85.2987 87.969 84.9244C87.969 76.5582 87.969 68.1919 87.969 59.8256C87.969 59.5345 87.9551 59.2434 87.983 58.9592C88.0666 58.1343 88.5683 57.656 89.3697 57.6214C90.178 57.5937 90.7006 58.0581 90.847 58.8621C90.9027 59.174 90.8748 59.4998 90.8748 59.8187C90.8748 68.1503 90.8748 76.4888 90.8748 84.8205V86.0889C92.9026 86.0889 94.8608 86.1166 96.8119 86.0751C97.6969 86.0543 98.4565 86.2276 99.007 86.9623V88.1198L99 88.1337ZM66.0046 86.0543V48.6659H54.8343V86.0543H66.0046ZM22.278 69.7168H11.1007V86.0335H22.278V69.7168Z" fill="black"/>
<path d="M15.3096 46.5863C16.8356 46.4476 18.3617 46.3437 19.8808 46.1635C28.2359 45.1931 36.3472 43.2661 44.1308 40.0499C56.0468 35.1216 66.0325 27.6842 73.8511 17.4325C74.0462 17.1761 74.2343 16.9196 74.4364 16.6701C75.196 15.7343 75.8161 15.6442 76.8475 16.3374C77.8579 17.0167 78.8544 17.7098 80.032 18.5139C79.5094 13.3222 79.0007 8.3246 78.485 3.22997C73.5096 4.51923 68.6317 5.78075 63.5309 7.09773C64.6458 7.87405 65.6074 8.53947 66.5621 9.21876C67.7189 10.0367 67.8652 10.612 67.1544 11.8042C65.036 15.36 62.3323 18.4515 59.4125 21.3558C58.7296 22.035 57.8446 22.035 57.2593 21.4389C56.667 20.8359 56.7297 20.0526 57.3708 19.2971C59.4892 16.8087 61.6006 14.3065 63.7051 11.8042C63.8653 11.6101 63.9838 11.3744 64.165 11.0903C62.625 10.0228 61.1128 8.94843 59.5728 7.90871C58.9666 7.49975 58.5345 7.03535 58.6809 6.25902C58.8202 5.48963 59.3568 5.19158 60.0815 5.00443C66.3112 3.41019 72.534 1.78823 78.7638 0.173197C80.485 -0.270416 81.0773 0.110814 81.2585 1.87834C81.9205 8.28301 82.5546 14.6946 83.2096 21.0993C83.2793 21.8063 83.1329 22.3677 82.4919 22.742C81.8438 23.1163 81.2724 22.9292 80.701 22.5272C79.1819 21.4597 77.6488 20.4131 76.1088 19.3456C74.9242 20.7527 73.8232 22.1321 72.6525 23.4491C61.7191 35.7039 47.9495 43.1205 32.0895 46.9744C26.8214 48.2568 21.4766 49.0192 16.0761 49.442C14.1737 49.5945 12.7173 48.6033 12.3619 46.9536C11.9717 45.1445 12.8497 43.6612 14.78 43.0582C22.5915 40.6044 30.1801 37.6239 37.3924 33.7492C42.765 30.8657 47.845 27.5525 52.5487 23.6709C52.6462 23.5877 52.7438 23.5045 52.8483 23.4283C53.7263 22.749 54.5974 22.7698 55.1479 23.4768C55.6914 24.1769 55.559 24.967 54.7089 25.6463C53.2804 26.79 51.8518 27.9476 50.3745 29.0289C40.8418 35.9881 30.2777 40.9371 19.1143 44.6871C18.0203 45.0544 16.9053 45.3871 15.8183 45.7753C15.5744 45.8654 15.3793 46.1011 15.1563 46.2674C15.212 46.3783 15.2608 46.4892 15.3165 46.6001L15.3096 46.5863Z" fill="#101010"/>
</g>
<defs>
<clipPath id="clip0_1_5710">
<rect width="99" height="89" fill="white"/>
</clipPath>
</defs>
</svg>
