<svg width="76" height="89" viewBox="0 0 76 89" fill="none" xmlns="http://www.w3.org/2000/svg">
<path d="M38.1523 0C49.1555 6.54535 60.784 11.6166 73.0831 15.1244C75.0216 15.6775 75.2825 16.0302 75.2782 18.0444C75.2674 24.7356 75.3795 31.4312 75.2135 38.1203C74.8663 52.1124 70.0062 64.3126 60.5253 74.5922C55.7816 79.7353 50.3264 83.9312 44.0366 86.9709C42.5187 87.7047 40.9037 88.2665 39.2908 88.7607C37.3459 89.3552 35.4829 88.739 33.6782 88.0356C28.473 86.0085 23.8824 82.947 19.6562 79.3368C13.0474 73.6907 7.9113 66.9059 4.47428 58.8581C2.08087 53.2512 0.463705 47.4113 0.252395 41.3211C-0.0257573 33.3364 0.0561792 25.3387 0.000117388 17.3454C-0.0085075 16.1761 0.457237 15.6339 1.69706 15.2768C7.21915 13.6873 12.6571 11.8539 17.9722 9.65472C24.0894 7.12237 29.9932 4.16107 35.7136 0.823068C36.1815 0.55089 36.6473 0.274356 37.1152 0C37.4602 0 37.8052 0 38.1502 0L38.1523 0ZM3.67648 18.5887C3.67648 19.4945 3.66785 20.2762 3.67648 21.0579C3.77566 27.9778 3.69588 34.9042 4.03441 41.8132C4.34059 48.0885 6.1971 54.0307 8.93982 59.6768C12.1353 66.2526 16.6052 71.829 22.1251 76.5454C25.9308 79.7963 30.088 82.5137 34.7196 84.4647C36.5567 85.2398 38.3485 85.4815 40.205 84.5975C41.0093 84.2143 41.8459 83.9007 42.6416 83.5066C48.4095 80.6563 53.4227 76.7849 57.7934 72.0598C66.2112 62.9582 70.8126 52.1581 71.4099 39.7599C71.742 32.8531 71.5479 25.9179 71.5889 18.9959C71.5889 18.8827 71.5651 18.7694 71.5414 18.58C59.6499 15.1331 48.3405 10.2513 37.624 4.0326C26.871 10.3319 15.6069 15.1832 3.67648 18.5865V18.5887Z" fill="black"/>
<path d="M31.6237 47.749C32.0118 47.2242 32.1735 46.939 32.3956 46.7147C38.2433 40.8095 44.1039 34.9174 49.9472 29.01C51.8426 27.0939 54.0376 26.3971 56.6229 27.2724C60.4071 28.5528 61.8345 33.4868 59.3484 36.6376C59.0982 36.9533 58.8417 37.269 58.557 37.5543C51.1224 45.0555 43.6834 52.5524 36.2466 60.0515C34.3772 61.9371 32.1778 62.6448 29.6486 61.7237C28.812 61.4189 27.9818 60.8919 27.3457 60.2649C23.7082 56.6786 20.0965 53.0685 16.5452 49.3973C13.492 46.2422 14.251 41.4344 18.0826 39.5444C20.2819 38.4601 22.5352 38.6169 24.3788 40.2499C26.6212 42.2336 28.6696 44.4393 30.7849 46.5666C31.0652 46.8475 31.2528 47.2221 31.6215 47.7512L31.6237 47.749ZM31.766 58.6318C32.4517 58.1615 33.1783 57.8109 33.7174 57.2687C41.0916 49.8763 48.44 42.4578 55.7928 35.0437C55.9954 34.839 56.2068 34.6387 56.3793 34.4101C57.4315 33.0339 56.7717 31.1287 55.0985 30.6997C54.0419 30.4297 53.2829 30.9414 52.5778 31.6513C46.2213 38.0638 39.8604 44.4698 33.4996 50.878C32.0743 52.3129 31.255 52.3063 29.8081 50.8518C27.3479 48.3761 24.9006 45.8873 22.4252 43.429C21.3816 42.3925 19.9714 42.3947 19.04 43.3593C18.1322 44.2999 18.13 45.6957 19.1262 46.7104C22.7271 50.3706 26.3409 54.0178 29.9871 57.6323C30.4076 58.0504 31.0501 58.2398 31.7638 58.6318H31.766Z" fill="black"/>
<path d="M11.0576 24.1088C11.0576 25.842 11.0598 27.5448 11.0554 29.2475C11.0554 29.5654 11.0554 29.8877 10.9994 30.1969C10.8204 31.1745 10.0593 31.8256 9.15581 31.8082C8.27392 31.7908 7.58393 31.1745 7.39418 30.2165C7.3489 29.9922 7.31871 29.7592 7.31655 29.5306C7.31009 27.3902 7.30146 25.2498 7.31655 23.1093C7.32518 21.8508 7.72839 21.2694 8.83453 20.8731C12.0451 19.7213 15.2579 18.5716 18.475 17.435C20.1094 16.8579 21.5153 17.8813 21.2328 19.4295C21.0711 20.3092 20.4285 20.7207 19.6695 20.9972C17.0821 21.9379 14.4925 22.8698 11.905 23.8061C11.6398 23.9019 11.3746 23.9977 11.0598 24.111L11.0576 24.1088Z" fill="#21D0B3"/>
<path d="M58.7615 60.1211C60.2709 60.1276 61.0946 61.6997 60.2192 63.0519C59.3588 64.3823 58.4166 65.6648 57.4355 66.9082C54.9946 70.0023 52.1527 72.6936 49.0844 75.1454C48.0343 75.9859 46.9627 75.9772 46.2576 75.1171C45.5504 74.2526 45.6798 73.1334 46.6996 72.2995C49.4898 70.011 52.1484 67.5875 54.393 64.7416C55.303 63.5876 56.1439 62.3791 57.0107 61.1902C57.5993 60.3824 58.022 60.1189 58.7637 60.1211H58.7615Z" fill="#21D0B3"/>
<path d="M41.2296 77.0351C41.2339 75.9855 42.1072 75.1211 43.1594 75.1211C44.134 75.1211 44.9836 75.9638 44.99 76.9371C44.9965 77.9844 44.0262 78.9425 42.9891 78.9076C41.9929 78.875 41.2231 78.0563 41.2296 77.0351Z" fill="#21D0B3"/>
<path d="M26.5718 16.9317C26.5265 17.9181 25.6145 18.7629 24.6183 18.739C23.6307 18.715 22.7855 17.7657 22.8588 16.7641C22.93 15.7864 23.7968 14.9808 24.7563 15.0004C25.746 15.0221 26.6171 15.9475 26.5718 16.9317Z" fill="#21D0B3"/>
</svg>
