<svg width="508" height="465" viewBox="0 0 508 465" fill="none" xmlns="http://www.w3.org/2000/svg">
<g opacity="0.3">
<path d="M70.245 116.289H19.6699V50.4976H62.6981L70.245 57.06V116.289Z" fill="white" stroke="black" stroke-linejoin="round"/>
<path d="M62.6982 50.4976V57.1709H70.2452L62.6982 50.4976Z" fill="white" stroke="black" stroke-linejoin="round"/>
<path d="M47.5938 56.0293H9.83789V70.4069H47.5938V56.0293Z" fill="#75F0DF"/>
<path d="M25.2617 74.5195H65.9833" stroke="black" stroke-miterlimit="10"/>
<path d="M25.2617 82.4009H65.9833" stroke="black" stroke-miterlimit="10"/>
<path d="M25.2617 90.2715H65.9833" stroke="black" stroke-miterlimit="10"/>
<path d="M25.2617 98.1533H65.9833" stroke="black" stroke-miterlimit="10"/>
<path d="M25.2617 106.023H65.9833" stroke="black" stroke-miterlimit="10"/>
<path d="M21.3605 68.356V59.0333H19.5322V57.9248H24.2836V59.0333H22.4553V68.356H21.3605Z" fill="black"/>
<path d="M27.515 63.8884L25.8462 68.3225H24.7832L26.7922 62.9794L24.9533 57.98H26.1119L27.6425 62.137L29.2051 57.98H30.268L28.4079 63.0127L30.3956 68.3558H29.2051L27.515 63.8884Z" fill="black"/>
<path d="M32.6602 68.356V59.0333H30.8213V57.9248H35.5833V59.0333H33.7444V68.356H32.6602Z" fill="black"/>
</g>
<g opacity="0.3">
<path d="M481.861 261.018H431.286V195.216H474.304L481.861 201.778V261.018Z" fill="white" stroke="black" stroke-linejoin="round"/>
<path d="M474.304 195.216V201.889H481.861L474.304 195.216Z" fill="white" stroke="black" stroke-linejoin="round"/>
<path d="M459.199 200.759H421.443V215.136H459.199V200.759Z" fill="#75F0DF"/>
<path d="M436.878 219.249H477.589" stroke="black" stroke-miterlimit="10"/>
<path d="M436.878 227.119H477.589" stroke="black" stroke-miterlimit="10"/>
<path d="M436.878 234.99H477.589" stroke="black" stroke-miterlimit="10"/>
<path d="M436.878 242.871H477.589" stroke="black" stroke-miterlimit="10"/>
<path d="M436.878 250.742H477.589" stroke="black" stroke-miterlimit="10"/>
<path d="M432.977 213.085V203.763H431.138V202.709H435.9V203.763H434.071V213.085H432.977Z" fill="black"/>
<path d="M439.13 208.607L437.461 213.041H436.398L438.407 207.687L436.526 202.665H437.674L439.215 206.811L440.767 202.665H441.83L439.97 207.687L441.958 213.041H440.778L439.13 208.607Z" fill="black"/>
<path d="M444.265 213.085V203.763H442.437V202.709H447.199V203.763H445.36V213.085H444.265Z" fill="black"/>
</g>
<g opacity="0.3">
<path d="M316.53 373.411H265.955V307.609H308.983L316.53 314.171V373.411Z" fill="white" stroke="black" stroke-linejoin="round"/>
<path d="M308.984 307.609V314.293H316.531L308.984 307.609Z" fill="white" stroke="black" stroke-linejoin="round"/>
<path d="M293.879 313.151H256.123V327.529H293.879V313.151Z" fill="#75F0DF"/>
<path d="M271.558 331.642H312.269" stroke="black" stroke-miterlimit="10"/>
<path d="M271.558 339.512H312.269" stroke="black" stroke-miterlimit="10"/>
<path d="M271.558 347.383H312.269" stroke="black" stroke-miterlimit="10"/>
<path d="M271.558 355.264H312.269" stroke="black" stroke-miterlimit="10"/>
<path d="M271.558 363.135H312.269" stroke="black" stroke-miterlimit="10"/>
<path d="M267.645 325.478V316.156H265.816V315.103H270.578V316.156H268.74V325.478H267.645Z" fill="black"/>
<path d="M273.8 321L272.131 325.434H271.068L273.067 320.08L271.196 315.058H272.344L273.875 319.204L275.426 315.058H276.489L274.619 320.08L276.617 325.434H275.448L273.8 321Z" fill="black"/>
<path d="M278.998 325.478V316.156H277.159V315.103H281.921V316.156H280.061V325.478H278.998Z" fill="black"/>
</g>
<g opacity="0.3">
<path d="M91.1958 275.927H23.082V187.312H81.034L91.1958 196.146V275.927Z" fill="white" stroke="black" stroke-linejoin="round"/>
<path d="M81.0342 187.312V196.302H91.196L81.0342 187.312Z" fill="white" stroke="black" stroke-linejoin="round"/>
<path d="M60.6893 194.772H9.83789V214.138H60.6893V194.772Z" fill="#75F0DF"/>
<path d="M30.6182 219.669H85.4557" stroke="black" stroke-miterlimit="10"/>
<path d="M30.6182 230.278H85.4557" stroke="black" stroke-miterlimit="10"/>
<path d="M30.6182 240.875H85.4557" stroke="black" stroke-miterlimit="10"/>
<path d="M30.6182 251.484H85.4557" stroke="black" stroke-miterlimit="10"/>
<path d="M30.6182 262.093H85.4557" stroke="black" stroke-miterlimit="10"/>
<path d="M26.3561 197.399C28.482 197.399 29.3642 198.696 29.3642 200.814V202.487C29.3642 204.704 28.365 205.813 26.2391 205.813H24.953V211.356H23.4648V197.388L26.3561 197.399ZM26.2391 204.483C27.3021 204.483 27.8867 203.94 27.8867 202.609V200.747C27.8867 199.472 27.4509 198.829 26.3561 198.829H24.953V204.483H26.2391Z" fill="black"/>
<path d="M33.723 197.399C35.8489 197.399 36.7631 198.707 36.7631 200.869V207.908C36.7631 210.048 35.8064 211.367 33.723 211.367H30.5342V197.399H33.723ZM33.723 209.948C34.786 209.948 35.3174 209.25 35.3174 207.975V200.792C35.3174 199.506 34.7966 198.807 33.7124 198.807H32.0755V209.948H33.723Z" fill="black"/>
<path d="M42.7357 203.906V205.314H39.6532V211.367H38.165V197.399H43.4798V198.807H39.6532V203.906H42.7357Z" fill="black"/>
</g>
<g opacity="0.3">
<path d="M63.2193 397.145H29.6514V353.48H58.2022L63.2193 357.836V397.145Z" fill="white" stroke="black" stroke-linejoin="round"/>
<path d="M58.2021 353.48V357.914H63.2193L58.2021 353.48Z" fill="white" stroke="black" stroke-linejoin="round"/>
<path d="M48.1787 357.149H23.125V366.693H48.1787V357.149Z" fill="#75F0DF"/>
<path d="M33.373 369.42H60.3932" stroke="black" stroke-miterlimit="10"/>
<path d="M33.373 374.653H60.3932" stroke="black" stroke-miterlimit="10"/>
<path d="M33.373 379.874H60.3932" stroke="black" stroke-miterlimit="10"/>
<path d="M33.373 385.106H60.3932" stroke="black" stroke-miterlimit="10"/>
<path d="M33.373 390.327H60.3932" stroke="black" stroke-miterlimit="10"/>
<path d="M31.2679 358.446C32.3308 358.446 32.7454 359.089 32.7454 360.131V360.952C32.7454 362.06 32.2564 362.614 31.2041 362.614H30.5557V365.33H29.8223V358.446H31.2679ZM31.2041 361.894C31.7568 361.894 32.0226 361.628 32.0226 360.974V360.054C32.0226 359.433 31.7993 359.111 31.2679 359.111H30.5557V361.894H31.2041Z" fill="black"/>
<path d="M34.8928 358.446C35.9558 358.446 36.3916 359.1 36.3916 360.164V363.634C36.3916 364.687 35.9239 365.33 34.8928 365.33H33.3516V358.446H34.8928ZM34.8928 364.632C35.4243 364.632 35.6794 364.288 35.6794 363.656V360.12C35.6794 359.488 35.4243 359.145 34.8822 359.145H34.0956V364.687L34.8928 364.632Z" fill="black"/>
<path d="M39.3355 361.65V362.348H37.8155V365.33H37.082V358.446H39.7075V359.145H37.8155V361.65H39.3355Z" fill="black"/>
</g>
<g opacity="0.3">
<path d="M489.96 73.0006H456.393V29.3247H484.943L489.96 33.6812V73.0006Z" fill="white" stroke="black" stroke-linejoin="round"/>
<path d="M484.943 29.3247V33.7588H489.96L484.943 29.3247Z" fill="white" stroke="black" stroke-linejoin="round"/>
<path d="M474.92 33.0049H449.866V42.5493H474.92V33.0049Z" fill="#75F0DF"/>
<path d="M460.103 45.2764H487.123" stroke="black" stroke-miterlimit="10"/>
<path d="M460.103 50.4976H487.123" stroke="black" stroke-miterlimit="10"/>
<path d="M460.103 55.7295H487.123" stroke="black" stroke-miterlimit="10"/>
<path d="M460.103 60.9512H487.123" stroke="black" stroke-miterlimit="10"/>
<path d="M460.103 66.1831H487.123" stroke="black" stroke-miterlimit="10"/>
<path d="M458.009 34.3018C459.072 34.3018 459.487 34.9336 459.487 35.9867V36.807C459.487 37.9155 458.998 38.4698 457.945 38.4698H457.297V41.1857H456.563V34.3018H458.009ZM457.945 37.7825C458.498 37.7825 458.764 37.5165 458.764 36.8514V35.9867C458.764 35.3549 458.541 35.0445 458.009 35.0445H457.297V37.8269L457.945 37.7825Z" fill="black"/>
<path d="M461.635 34.3018C462.698 34.3018 463.134 34.9447 463.134 36.0089V39.4786C463.134 40.5317 462.666 41.1857 461.635 41.1857H460.094V34.3018H461.635ZM461.635 40.4873C462.167 40.4873 462.422 40.1437 462.422 39.5118V35.9867C462.422 35.3549 462.167 35.0112 461.624 35.0112H460.838V40.5538L461.635 40.4873Z" fill="black"/>
<path d="M466.078 37.5054V38.2038H464.558V41.1857H463.824V34.3018H466.45V35.0001H464.558V37.5054H466.078Z" fill="black"/>
</g>
<path d="M430.447 12.2534H74.9336V302.033H430.447V12.2534Z" fill="#263238" stroke="#263238" stroke-miterlimit="10"/>
<path d="M443.054 0.913086H86.4668V291.38H443.054V0.913086Z" fill="#21D0B3"/>
<path d="M443.054 0.913086H86.4668V291.38H443.054V0.913086Z" fill="white" stroke="#263238" stroke-linecap="round" stroke-linejoin="round"/>
<path d="M171.64 42.0728H96.1709V91.9564H171.64V42.0728Z" fill="white" stroke="#263238" stroke-linecap="round" stroke-linejoin="round"/>
<path d="M116.899 63.7002H148.788" stroke="#263238" stroke-miterlimit="10"/>
<path d="M108.926 72.0137H161.542" stroke="#263238" stroke-miterlimit="10"/>
<path d="M171.64 101.379H96.1709V151.263H171.64V101.379Z" fill="white" stroke="#263238" stroke-linecap="round" stroke-linejoin="round"/>
<path d="M104.026 113.218H130.494" stroke="#263238" stroke-miterlimit="10"/>
<path d="M104.026 119.825H130.494" stroke="#263238" stroke-miterlimit="10"/>
<path d="M104.026 126.432H130.494" stroke="#263238" stroke-miterlimit="10"/>
<path d="M104.026 133.038H130.494" stroke="#263238" stroke-miterlimit="10"/>
<path d="M104.026 139.646H130.494" stroke="#263238" stroke-miterlimit="10"/>
<path d="M136.798 113.218H163.265" stroke="#263238" stroke-miterlimit="10"/>
<path d="M136.798 119.825H163.265" stroke="#263238" stroke-miterlimit="10"/>
<path d="M136.798 126.432H163.265" stroke="#263238" stroke-miterlimit="10"/>
<path d="M136.798 133.038H163.265" stroke="#263238" stroke-miterlimit="10"/>
<path d="M136.798 139.646H163.265" stroke="#263238" stroke-miterlimit="10"/>
<path d="M171.64 160.685H96.1709V210.569H171.64V160.685Z" fill="white" stroke="#263238" stroke-linecap="round" stroke-linejoin="round"/>
<path d="M104.026 172.524H130.494" stroke="#263238" stroke-miterlimit="10"/>
<path d="M104.026 179.131H130.494" stroke="#263238" stroke-miterlimit="10"/>
<path d="M104.026 185.738H130.494" stroke="#263238" stroke-miterlimit="10"/>
<path d="M104.026 192.345H130.494" stroke="#263238" stroke-miterlimit="10"/>
<path d="M104.026 198.951H130.494" stroke="#263238" stroke-miterlimit="10"/>
<path d="M136.798 172.524H163.265" stroke="#263238" stroke-miterlimit="10"/>
<path d="M136.798 179.131H163.265" stroke="#263238" stroke-miterlimit="10"/>
<path d="M136.798 185.738H163.265" stroke="#263238" stroke-miterlimit="10"/>
<path d="M136.798 192.345H163.265" stroke="#263238" stroke-miterlimit="10"/>
<path d="M136.798 198.951H163.265" stroke="#263238" stroke-miterlimit="10"/>
<path d="M171.64 219.991H96.1709V269.875H171.64V219.991Z" fill="white" stroke="#263238" stroke-linecap="round" stroke-linejoin="round"/>
<path d="M104.026 231.83H130.494" stroke="#263238" stroke-miterlimit="10"/>
<path d="M104.026 238.437H130.494" stroke="#263238" stroke-miterlimit="10"/>
<path d="M104.026 245.044H130.494" stroke="#263238" stroke-miterlimit="10"/>
<path d="M104.026 251.65H130.494" stroke="#263238" stroke-miterlimit="10"/>
<path d="M104.026 258.257H130.494" stroke="#263238" stroke-miterlimit="10"/>
<path d="M136.798 231.83H163.265" stroke="#263238" stroke-miterlimit="10"/>
<path d="M136.798 238.437H163.265" stroke="#263238" stroke-miterlimit="10"/>
<path d="M136.798 245.044H163.265" stroke="#263238" stroke-miterlimit="10"/>
<path d="M136.798 251.65H163.265" stroke="#263238" stroke-miterlimit="10"/>
<path d="M136.798 258.257H163.265" stroke="#263238" stroke-miterlimit="10"/>
<path d="M443.044 0.913086H182.271V291.38H443.044V0.913086Z" fill="#B8B8B8" stroke="#263238" stroke-linecap="round" stroke-linejoin="round"/>
<path d="M425.685 55.9404H189.711V223.328H425.685V55.9404Z" fill="white" stroke="#263238" stroke-linecap="round" stroke-linejoin="round"/>
<path d="M244.537 122.386H374.047" stroke="#263238" stroke-miterlimit="10"/>
<path d="M226.936 137.062H391.65" stroke="#263238" stroke-miterlimit="10"/>
<path d="M443.043 0.913086H433.827V291.38H443.043V0.913086Z" fill="#DBDBDB" stroke="#263238" stroke-miterlimit="10"/>
<path d="M443.043 90.9033H433.827V169.387H443.043V90.9033Z" fill="#878787"/>
<path d="M443.054 0.913086H86.4668V19.7802H443.054V0.913086Z" fill="#21D0B3" stroke="#263238" stroke-linecap="round" stroke-linejoin="round"/>
<path d="M339.172 4.12793H109.915V14.7698H339.172V4.12793Z" fill="white"/>
<path d="M425.675 26.4536H407.977" stroke="#263238" stroke-miterlimit="10"/>
<path d="M425.675 32.1406H407.977" stroke="#263238" stroke-miterlimit="10"/>
<path d="M425.675 37.8159H407.977" stroke="#263238" stroke-miterlimit="10"/>
<path d="M446.943 410.048L451.248 397.211" stroke="#263238" stroke-linecap="round" stroke-linejoin="round"/>
<path d="M447.253 375.384V423.206" stroke="#263238" stroke-linecap="round" stroke-linejoin="round"/>
<path d="M440.194 400.194C440.194 400.194 433.816 392.933 427.439 394.141C421.061 395.349 418.148 403.231 418.148 408.075C418.148 412.919 424.526 428.661 424.526 428.661C424.526 428.661 429.171 423.218 439.631 415.358C450.09 407.499 450.653 399.584 440.194 400.194Z" fill="#21D0B3" stroke="#263238" stroke-linecap="round" stroke-linejoin="round"/>
<path d="M440.194 400.193C434.719 403.427 430.282 408.274 427.438 414.128" stroke="#263238" stroke-linecap="round" stroke-linejoin="round"/>
<path d="M450.612 391.669C450.612 391.669 455.927 385.694 461.146 386.703C466.365 387.711 468.788 394.207 468.778 398.198C468.767 402.189 463.463 415.158 463.463 415.158C459.683 411.072 455.528 407.382 451.058 404.14C442.459 397.633 441.991 391.148 450.612 391.669Z" fill="#21D0B3" stroke="#263238" stroke-linecap="round" stroke-linejoin="round"/>
<path d="M450.611 391.668C455.123 394.338 458.774 398.342 461.103 403.175" stroke="#263238" stroke-linecap="round" stroke-linejoin="round"/>
<path d="M446.327 383.731L454.331 371.526" stroke="#263238" stroke-linecap="round" stroke-linejoin="round"/>
<path d="M444.988 380.195C444.988 380.195 444.86 372.081 440.279 369.188C435.698 366.294 429.798 369.487 427.258 372.513C424.718 375.539 420.37 388.82 420.37 388.82C420.37 388.82 426.089 388.099 436.665 389.208C447.241 390.316 451.748 385.782 444.988 380.195Z" fill="#21D0B3" stroke="#263238" stroke-linecap="round" stroke-linejoin="round"/>
<path d="M444.987 380.195C439.915 379.062 434.634 379.517 429.809 381.503" stroke="#263238" stroke-linecap="round" stroke-linejoin="round"/>
<path d="M451.865 369.31C451.865 369.31 451.961 363.335 455.331 361.206C458.7 359.078 463.058 361.428 464.897 363.623C466.736 365.818 469.946 375.65 469.946 375.65C465.95 375.339 461.934 375.435 457.956 375.939C450.197 376.748 446.944 373.422 451.865 369.31Z" fill="#21D0B3" stroke="#263238" stroke-linecap="round" stroke-linejoin="round"/>
<path d="M451.865 369.31C455.599 368.475 459.486 368.811 463.037 370.274" stroke="#263238" stroke-linecap="round" stroke-linejoin="round"/>
<path d="M466.811 419.105H425.558L429.735 463.889H462.633L466.811 419.105Z" fill="white" stroke="#263238" stroke-linecap="round" stroke-linejoin="round"/>
<path d="M455.873 438.615C455.873 438.996 455.982 439.369 456.185 439.687C456.388 440.004 456.677 440.251 457.015 440.397C457.353 440.543 457.725 440.581 458.083 440.507C458.442 440.432 458.772 440.249 459.03 439.979C459.289 439.709 459.465 439.365 459.537 438.991C459.608 438.617 459.571 438.229 459.431 437.877C459.291 437.524 459.054 437.223 458.75 437.011C458.446 436.799 458.088 436.686 457.723 436.686C457.479 436.685 457.238 436.733 457.013 436.83C456.788 436.926 456.584 437.068 456.412 437.248C456.24 437.427 456.103 437.64 456.011 437.875C455.919 438.11 455.872 438.361 455.873 438.615Z" fill="#263238" stroke="#263238" stroke-linecap="round" stroke-linejoin="round"/>
<path d="M449.069 438.615C449.069 438.996 449.178 439.369 449.381 439.687C449.584 440.004 449.873 440.251 450.211 440.397C450.549 440.543 450.921 440.581 451.28 440.507C451.639 440.432 451.968 440.249 452.227 439.979C452.485 439.709 452.662 439.365 452.733 438.991C452.804 438.617 452.768 438.229 452.628 437.877C452.488 437.524 452.251 437.223 451.946 437.011C451.642 436.799 451.285 436.686 450.919 436.686C450.676 436.685 450.434 436.733 450.209 436.83C449.984 436.926 449.78 437.068 449.608 437.248C449.436 437.427 449.3 437.64 449.207 437.875C449.115 438.11 449.068 438.361 449.069 438.615Z" fill="#263238" stroke="#263238" stroke-linecap="round" stroke-linejoin="round"/>
<path d="M426.928 433.793H465.438L465.619 431.875H426.747L426.928 433.793Z" fill="#263238" stroke="#263238" stroke-linecap="round" stroke-linejoin="round"/>
<path d="M463.791 451.452L464.567 443.104H427.8L428.576 451.452H463.791Z" fill="#263238" stroke="#263238" stroke-linecap="round" stroke-linejoin="round"/>
<path d="M462.644 438.614C462.644 438.867 462.691 439.117 462.785 439.351C462.878 439.584 463.014 439.796 463.186 439.974C463.358 440.153 463.562 440.294 463.786 440.389C464.01 440.485 464.251 440.534 464.493 440.532H464.812L465.152 436.852C464.942 436.767 464.719 436.722 464.493 436.719C464.008 436.719 463.542 436.917 463.196 437.272C462.85 437.626 462.652 438.109 462.644 438.614Z" fill="#263238" stroke="#263238" stroke-linecap="round" stroke-linejoin="round"/>
<path d="M442.331 438.615C442.331 438.996 442.44 439.369 442.643 439.687C442.846 440.004 443.135 440.251 443.473 440.397C443.811 440.543 444.183 440.581 444.541 440.507C444.9 440.432 445.23 440.249 445.488 439.979C445.747 439.709 445.923 439.365 445.995 438.991C446.066 438.617 446.029 438.229 445.889 437.877C445.749 437.524 445.512 437.223 445.208 437.011C444.904 436.799 444.546 436.686 444.181 436.686C443.937 436.685 443.696 436.733 443.471 436.83C443.246 436.926 443.042 437.068 442.87 437.248C442.698 437.427 442.561 437.64 442.469 437.875C442.377 438.11 442.33 438.361 442.331 438.615Z" fill="#263238" stroke="#263238" stroke-linecap="round" stroke-linejoin="round"/>
<path d="M428.789 438.615C428.789 438.996 428.898 439.369 429.101 439.687C429.304 440.004 429.593 440.251 429.931 440.397C430.269 440.543 430.641 440.581 430.999 440.507C431.358 440.432 431.688 440.249 431.946 439.979C432.205 439.709 432.381 439.365 432.453 438.991C432.524 438.617 432.487 438.229 432.347 437.877C432.207 437.524 431.97 437.223 431.666 437.011C431.362 436.799 431.004 436.686 430.639 436.686C430.395 436.685 430.154 436.733 429.929 436.83C429.704 436.926 429.5 437.068 429.328 437.248C429.156 437.427 429.019 437.64 428.927 437.875C428.835 438.11 428.788 438.361 428.789 438.615Z" fill="#263238" stroke="#263238" stroke-linecap="round" stroke-linejoin="round"/>
<path d="M435.559 438.615C435.559 438.996 435.667 439.369 435.87 439.687C436.074 440.004 436.362 440.251 436.7 440.397C437.038 440.543 437.41 440.581 437.769 440.507C438.128 440.432 438.457 440.249 438.716 439.979C438.975 439.709 439.151 439.365 439.222 438.991C439.294 438.617 439.257 438.229 439.117 437.877C438.977 437.524 438.74 437.223 438.436 437.011C438.132 436.799 437.774 436.686 437.408 436.686C437.165 436.685 436.924 436.733 436.699 436.83C436.474 436.926 436.269 437.068 436.097 437.248C435.925 437.427 435.789 437.64 435.697 437.875C435.604 438.11 435.557 438.361 435.559 438.615Z" fill="#263238" stroke="#263238" stroke-linecap="round" stroke-linejoin="round"/>
<path d="M165.55 464C170.652 457.438 179.762 445.865 182.898 442.827C185.913 439.815 188.753 436.617 191.401 433.249C191.401 433.249 186.012 444.146 195.196 452.737C204.38 461.328 231.634 454.722 237.65 450.099C243.666 445.477 244.304 433.582 238.926 416.067C233.547 398.553 225.926 366.184 226.245 354.943C226.563 343.703 219.59 311.988 216.423 303.397C213.255 294.806 200.266 288.531 186.958 285.561C173.65 282.59 137.85 298.109 137.85 298.109L130.569 301.08C130.569 301.08 100.806 318.262 92.8658 325.201C84.9256 332.141 88.7416 351.307 86.8495 369.809C84.9575 388.31 84.9469 409.793 84.9469 409.793C84.9469 409.793 66.5685 426.643 53.2604 445.798C46.8827 455.021 43.173 460.641 41.0684 464H165.55Z" fill="#21D0B3" stroke="#263238" stroke-miterlimit="10"/>
<path d="M230.889 428.206C230.889 428.206 220.259 425.601 209.12 433.394C197.98 441.187 201.02 452.859 210.98 455.453C220.94 458.047 234.003 458.047 240.849 447.018C247.694 435.988 235.874 427.552 230.889 428.206Z" fill="white" stroke="#263238" stroke-miterlimit="10"/>
<path d="M233.535 428.106C227.577 427.12 221.483 428.574 216.528 432.163C207.791 438.238 210.214 447.361 217.984 449.39C225.754 451.418 235.959 451.418 241.305 442.805C246.652 434.192 237.415 427.607 233.535 428.106Z" fill="white" stroke="#263238" stroke-miterlimit="10"/>
<path d="M208.939 354.212C209.29 348.182 209.513 344.069 209.513 343.703" stroke="#263238" stroke-miterlimit="10"/>
<path d="M191.454 433.25C191.454 433.25 202.86 421.688 204.752 408.463C205.931 400.315 207.462 378.112 208.461 361.96" stroke="#263238" stroke-miterlimit="10"/>
<path d="M222.417 376.604C219.547 386.226 214.232 400.67 206.026 410.447" stroke="#263238" stroke-miterlimit="10"/>
<path d="M225.032 366.505C225.032 366.505 224.586 368.722 223.64 372.27" stroke="#263238" stroke-miterlimit="10"/>
<path d="M224.033 404.184C218.43 410.877 211.812 416.566 204.442 421.023" stroke="#263238" stroke-miterlimit="10"/>
<path d="M229.464 396.901C228.303 398.726 227.043 400.481 225.69 402.156" stroke="#263238" stroke-miterlimit="10"/>
<path d="M240.563 424.991C229.991 421.65 218.678 421.879 208.238 425.645C190.498 431.93 192.401 446.131 193.984 448.447" stroke="#263238" stroke-miterlimit="10"/>
<path d="M192.473 194.739C192.473 194.739 192.473 190.848 187.339 182.546C182.205 174.243 156.067 177.679 147.202 186.924C138.337 196.169 150.933 207.853 145.331 214.637C139.73 221.422 121.064 218.041 114.995 230.212C108.925 242.384 124.328 248.215 127.601 252.593C130.875 256.972 122 258.435 122.935 262.814C123.87 267.193 138.327 267.68 138.327 267.68C138.327 267.68 128.994 270.607 133.66 274.498C140.091 279.569 148.012 282.152 156.067 281.803C165.4 281.315 163.061 262.326 162.137 248.215C161.212 234.103 173.329 218.528 187.339 219.981C201.349 221.433 216.273 237.994 213.913 245.299C211.553 252.604 217.644 243.836 230.25 235.555C242.857 227.275 237.255 210.248 234.502 206.845C231.749 203.441 222.374 202.466 220.503 196.136C218.632 189.806 214.434 183.488 206.504 183.488C198.575 183.488 200.403 194.252 192.473 194.739Z" fill="#263238" stroke="#263238" stroke-miterlimit="10"/>
<path d="M152.506 282.247C152.506 282.247 146.49 283.898 144.003 287.213C141.516 290.527 131.247 296.491 130.62 301.08C129.993 305.67 133.809 329.503 141.388 339.081C148.967 348.658 152.793 349.323 152.793 349.323C152.793 349.323 155.015 340.078 156.599 339.413C158.183 338.748 172.756 348.281 172.756 348.281C172.756 348.281 175.285 332.762 176.88 332.762C178.474 332.762 183.523 338.05 183.523 338.05C183.523 338.05 185.426 324.825 184.161 314.582C182.896 304.339 174.658 291.791 168.642 287.49C162.626 283.189 157.821 279.276 152.506 282.247Z" fill="white" stroke="#263238" stroke-miterlimit="10"/>
<path d="M155.601 269.698L143.908 298.897C143.908 298.897 146.916 312.498 150.871 321.245C156.26 333.139 169.578 338.804 169.578 338.804C169.493 331.905 170.929 325.078 173.777 318.85C176.437 313.225 179.56 307.851 183.11 302.788C183.11 302.788 162.138 281.382 155.601 269.698Z" fill="white" stroke="#263238" stroke-miterlimit="10"/>
<path d="M158.618 280.772C158.618 280.772 163.986 312.775 171.661 322.774L178.942 308.363L159.809 277.158L158.618 280.772Z" fill="#263238" stroke="#263238" stroke-miterlimit="10"/>
<path d="M154.06 375.762C154.06 375.762 172.757 324.869 175.319 321.899C177.88 318.928 183.556 313.64 186.097 310.004C188.637 306.368 195.6 297.123 198.14 297.123C200.68 297.123 206.644 299.429 209.545 300.094C212.447 300.759 214.297 301.746 214.605 306.745C214.913 311.744 210.81 312.033 210.81 312.033L209.227 310.048C209.227 310.048 197.821 327.896 194.345 330.201C192.269 331.595 190.034 332.712 187.691 333.527L172.48 392.678L154.06 375.762Z" fill="white" stroke="#263238" stroke-miterlimit="10"/>
<path d="M220.005 228.195C220.005 228.195 224.437 232.053 221.482 245.133C218.527 258.214 217.794 264.765 217.794 272.469C217.794 280.174 215.583 290.949 209.29 297.877C202.997 304.805 195.27 314.815 186.043 314.427C171.428 313.817 164.264 292.866 159.47 283.244C154.676 273.622 153.57 260.531 153.57 255.143C153.57 249.756 154.304 237.052 160.947 227.43C167.591 217.808 185.682 213.961 193.431 215.114C201.18 216.267 210.778 217.42 220.005 228.195Z" fill="white" stroke="#263238" stroke-miterlimit="10"/>
<path d="M156.887 262.847C156.887 262.847 158.365 257.459 165.008 254.378C171.651 251.296 175.712 245.909 173.512 240.898C171.311 235.887 172.449 230.921 182.015 228.194C191.582 225.467 194.197 235.511 203.423 233.97C212.649 232.429 215.232 228.582 220.026 230.888C224.82 233.194 222.609 239.756 222.609 239.756C222.609 239.756 228.519 228.593 217.082 215.89C205.644 203.186 177.955 198.563 158.758 213.196C139.561 227.828 150.637 262.082 150.637 262.082C150.637 262.082 151.721 263.612 156.887 262.847Z" fill="#263238" stroke="#263238" stroke-miterlimit="10"/>
<path d="M203.029 269.388L201.924 291.713L194.164 288.632" stroke="#263238" stroke-miterlimit="10"/>
<path d="M197.151 299.817C197.151 299.817 189.774 300.925 186.447 295.582" stroke="#263238" stroke-miterlimit="10"/>
<path d="M188.977 269.155C188.637 271.372 187.457 272.99 186.351 272.802C185.246 272.613 184.629 270.674 184.969 268.468C185.31 266.262 186.49 264.632 187.595 264.82C188.7 265.009 189.317 266.949 188.977 269.155Z" fill="#263238"/>
<path d="M212.628 269.775C212.288 271.992 211.108 273.611 210.003 273.422C208.897 273.234 208.27 271.294 208.621 269.099C208.972 266.904 210.141 265.252 211.246 265.441C212.352 265.629 212.968 267.569 212.628 269.775Z" fill="#263238"/>
<path d="M179.549 259.1C179.549 259.1 187.489 251.884 193.888 257.493" stroke="#263238" stroke-width="2" stroke-miterlimit="10" stroke-linecap="round"/>
<path d="M207.463 257.493C207.463 257.493 212.841 252.693 217.455 257.227" stroke="#263238" stroke-width="2" stroke-miterlimit="10" stroke-linecap="round"/>
<path d="M199.011 263.911C199.011 263.911 187.744 262.038 170.311 265.019C170.311 265.019 168.781 277.302 176.976 282.645C185.171 287.988 193.112 282.911 195.153 279.974C199.277 274.121 199.011 263.911 199.011 263.911Z" stroke="#263238" stroke-width="2" stroke-miterlimit="10"/>
<path d="M224.872 262.227C224.872 262.227 216.815 260.442 204.357 263.247C204.357 263.247 203.294 274.997 209.119 280.096C214.944 285.195 220.663 280.351 222.13 277.547C225.021 271.993 224.872 262.227 224.872 262.227Z" stroke="#263238" stroke-width="2" stroke-miterlimit="10"/>
<path d="M199.012 263.911C199.012 263.911 200.223 260.453 204.326 263.246" stroke="#263238" stroke-width="2" stroke-miterlimit="10"/>
<path d="M153.167 257.759L170.323 264.975" stroke="#263238" stroke-width="2" stroke-miterlimit="10"/>
<path d="M158.365 264.765C158.365 264.765 155.782 248.991 148.798 256.684C141.815 264.377 148.065 272.081 151.381 275.529C154.698 278.976 158.822 275.529 158.822 275.529" fill="white"/>
<path d="M158.365 264.765C158.365 264.765 155.782 248.991 148.798 256.684C141.815 264.377 148.065 272.081 151.381 275.529C154.698 278.976 158.822 275.529 158.822 275.529" stroke="#263238" stroke-miterlimit="10"/>
<path d="M130.706 342.539C135.254 351.339 138.331 360.884 139.804 370.762C142.026 386.625 141.707 389.607 141.707 389.607L152.794 375.739C152.794 375.739 170.864 388.953 173.702 393.243C176.54 397.533 176.891 398.863 176.891 398.863C176.891 398.863 176.891 424.636 166.431 440.167C155.972 455.697 150.902 455.686 140.772 455.686C130.642 455.686 117.642 445.765 110.669 429.248C103.696 412.731 97.988 388.643 96.7231 386.281C95.4582 383.92 91.334 370.762 91.334 370.762" fill="#21D0B3"/>
<path d="M130.706 342.539C135.254 351.339 138.331 360.884 139.804 370.762C142.026 386.625 141.707 389.607 141.707 389.607L152.794 375.739C152.794 375.739 170.864 388.953 173.702 393.243C176.54 397.533 176.891 398.863 176.891 398.863C176.891 398.863 176.891 424.636 166.431 440.167C155.972 455.697 150.902 455.686 140.772 455.686C130.642 455.686 117.642 445.765 110.669 429.248C103.696 412.731 97.988 388.643 96.7231 386.281C95.4582 383.92 91.334 370.762 91.334 370.762" stroke="#263238" stroke-miterlimit="10"/>
<path d="M126.549 408.995C125.391 410.414 124.423 411.6 123.647 412.432" stroke="#263238" stroke-miterlimit="10"/>
<path d="M141.708 389.607C141.708 389.607 135.787 397.367 130.473 404.073" stroke="#263238" stroke-miterlimit="10"/>
<path d="M143.291 387.978C150.182 390.052 156.785 393.052 162.934 396.901C173.702 403.552 174.627 410.78 177.815 408.142C181.004 405.503 183.513 397.234 180.345 392.622C177.178 388.011 167.356 377.103 160.394 373.777C153.431 370.452 150.572 372.447 148.351 377.413C146.129 382.38 141.069 385.007 143.291 387.978Z" fill="white" stroke="#263238" stroke-miterlimit="10"/>
<path d="M142.941 415.026C143.025 418.173 143.482 421.297 144.302 424.326" stroke="#263238" stroke-miterlimit="10"/>
<path d="M143.291 387.978C143.291 387.978 142.537 399.063 142.696 409.383" stroke="#263238" stroke-miterlimit="10"/>
<path d="M154.06 393.598C154.06 393.598 156.281 406.49 158.822 412.099" stroke="#263238" stroke-miterlimit="10"/>
<path d="M229.157 425.645C229.157 425.645 218.379 445.477 219.963 447.816C221.546 450.155 256.719 447.816 256.719 447.816L258.611 439.89C258.611 439.89 265.903 442.861 271.611 442.861C277.319 442.861 272.876 441.209 270.973 439.225C269.071 437.24 257.984 429.979 257.028 429.314C256.071 428.649 237.703 423.661 229.157 425.645Z" fill="white" stroke="#263238" stroke-miterlimit="10"/>
<path d="M252.104 423.362C252.104 423.362 257.196 421.765 258.556 425.135C259.917 428.505 259.236 442.872 258.726 446.552C258.216 450.232 255.846 450.088 254.825 446.552C253.805 443.016 251.424 423.894 251.424 423.894L252.104 423.362Z" fill="white" stroke="#263238" stroke-miterlimit="10"/>
<path d="M241.413 424.958C241.413 424.958 249.056 419.471 251.267 422.297C253.478 425.124 255.518 447.439 256.188 449.035C256.858 450.631 253.297 451.862 251.936 450.266C250.576 448.669 246.675 440.533 245.495 437.529C244.315 434.525 241.413 424.958 241.413 424.958Z" fill="white" stroke="#263238" stroke-miterlimit="10"/>
<path d="M226.307 430.977C226.307 430.977 230.558 422.829 234.119 420.535C237.68 418.24 241.56 422.475 243.452 425.667C245.344 428.86 246.843 437.174 247.704 441.242C248.565 445.31 250.893 449.911 249.575 450.443C248.257 450.975 242.952 446.375 241.422 443.902C239.891 441.43 236.16 431.864 236.16 431.864" fill="white"/>
<path d="M226.307 430.977C226.307 430.977 230.558 422.829 234.119 420.535C237.68 418.24 241.56 422.475 243.452 425.667C245.344 428.86 246.843 437.174 247.704 441.242C248.565 445.31 250.893 449.911 249.575 450.443C248.257 450.975 242.952 446.375 241.422 443.902C239.891 441.43 236.16 431.864 236.16 431.864" stroke="#263238" stroke-miterlimit="10"/>
<path d="M233.292 446.374C233.292 446.374 227.18 440.178 225.139 438.227C223.098 436.276 220.218 435.4 218.187 437.706C216.157 440.012 215.126 442.838 218.187 445.842C221.249 448.846 228.519 452.793 233.292 452.793C238.064 452.793 237.193 450.31 236.002 448.902C235.198 447.951 234.288 447.103 233.292 446.374Z" fill="white" stroke="#263238" stroke-miterlimit="10"/>
<path d="M172.799 463.89L395.54 463.89V457.25H172.799V463.89Z" fill="#B8B8B8" stroke="#263238" stroke-linecap="round" stroke-linejoin="round"/>
<path d="M172.8 463.89H250.99V457.25H172.8V463.89Z" fill="#263238" stroke="#263238" stroke-linecap="round" stroke-linejoin="round"/>
<path d="M244.687 457.227H389.311L397.666 356.917C397.781 355.814 397.669 354.699 397.339 353.645C397.009 352.591 396.467 351.623 395.75 350.804C395.034 349.985 394.158 349.334 393.181 348.896C392.205 348.457 391.15 348.24 390.087 348.259H262.055C259.798 348.304 257.634 349.209 255.973 350.805C254.313 352.4 253.27 354.574 253.041 356.917L244.687 457.227Z" fill="#263238" stroke="#263238" stroke-linecap="round" stroke-linejoin="round"/>
<path d="M247.461 457.227H392.086L400.44 356.917C400.555 355.814 400.444 354.699 400.113 353.645C399.783 352.591 399.242 351.623 398.525 350.804C397.808 349.985 396.932 349.334 395.956 348.896C394.979 348.457 393.925 348.24 392.862 348.259H264.83C262.572 348.304 260.409 349.209 258.748 350.805C257.087 352.4 256.044 354.574 255.816 356.917L247.461 457.227Z" fill="#B8B8B8" stroke="#263238" stroke-linecap="round" stroke-linejoin="round"/>
<path d="M320.74 399.584C320.989 397.024 322.13 394.648 323.946 392.905C325.761 391.163 328.127 390.175 330.594 390.128C331.755 390.107 332.907 390.344 333.974 390.823C335.041 391.302 335.998 392.012 336.781 392.907C337.564 393.801 338.156 394.859 338.517 396.01C338.878 397.162 338.999 398.38 338.874 399.584C338.625 402.144 337.485 404.52 335.669 406.263C333.853 408.005 331.488 408.993 329.021 409.04C327.859 409.061 326.707 408.824 325.64 408.345C324.573 407.866 323.617 407.156 322.833 406.261C322.05 405.367 321.458 404.309 321.098 403.158C320.737 402.006 320.615 400.788 320.74 399.584Z" fill="#263238" stroke="#263238" stroke-linecap="round" stroke-linejoin="round"/>
<path d="M505.437 463.889H7.3291" stroke="#263238" stroke-miterlimit="10"/>
</svg>
