<svg width="82" height="89" viewBox="0 0 82 89" fill="none" xmlns="http://www.w3.org/2000/svg">
<g clip-path="url(#clip0_1_5717)">
<path d="M49.863 0C52.9604 1.29792 54.0092 2.84383 53.6519 6.05617C53.5057 7.3819 53.1368 8.76094 52.5358 9.9476C51.0765 12.8331 49.4222 15.6237 47.8421 18.4466C47.6727 18.7479 47.4686 19.0284 47.211 19.4224C48.5707 19.8581 49.8723 20.2753 51.1762 20.6902C53.5173 21.4342 55.8537 22.1851 58.1971 22.9175C59.7841 23.4135 60.9117 24.4147 61.6124 25.9097C62.6797 28.188 63.747 30.4663 64.805 32.7492C65.2574 33.7273 65.0648 34.4666 64.2945 34.8097C63.5614 35.1365 62.9071 34.8097 62.4593 33.864C61.4338 31.6947 60.3897 29.5322 59.4152 27.3397C58.9303 26.2457 58.1693 25.606 57.0324 25.263C54.4314 24.4796 51.8514 23.6337 49.2621 22.8155C49.0231 22.739 48.7771 22.6857 48.3943 22.5861C48.5451 22.9523 48.6379 23.2095 48.7516 23.4552C50.8978 28.1022 53.0231 32.7585 55.2087 37.387C56.0556 39.1809 56.0927 40.889 55.3224 42.7339C51.1321 52.7649 46.9976 62.8192 42.8212 72.8572C42.5776 73.4435 42.573 73.9048 42.8514 74.4842C44.3618 77.6409 45.8236 80.8208 47.3085 83.9891C48.1948 85.878 49.5915 86.3787 51.4964 85.4864C60.16 81.4304 68.8236 77.3721 77.4871 73.3114C79.3734 72.4284 79.8491 71.0424 78.9419 69.1048C74.4941 59.5952 70.0463 50.088 65.5962 40.5808C65.4732 40.3189 65.3386 40.0616 65.2296 39.7951C64.9024 38.9815 65.1484 38.2445 65.8305 37.9525C66.5266 37.6535 67.218 37.9362 67.5985 38.7405C69.0695 41.8509 70.5219 44.9705 71.9813 48.0878C75.0718 54.6863 78.1646 61.2848 81.2505 67.888C82.8584 71.3275 81.8398 74.1435 78.4013 75.7566C69.7934 79.7941 61.1809 83.8246 52.5683 87.855C49.3595 89.3569 46.4546 88.2954 44.9465 85.0807C43.7075 82.4409 42.4709 79.801 41.1669 77.0174C41.0138 77.3211 40.9094 77.4995 40.8328 77.6896C39.8908 79.9586 38.8816 82.2045 38.037 84.5106C37.218 86.7449 35.9187 88.3928 33.5335 89.0046H31.624C26.1298 86.7333 20.6333 84.4619 15.1391 82.1929C13.8537 81.6621 13.4245 81.0248 13.7934 80.1811C14.1414 79.3861 14.8537 79.2564 16.1205 79.7802C21.0881 81.836 26.0533 83.8941 31.0184 85.9545C33.1948 86.8561 34.4268 86.3439 35.3363 84.149C41.1901 70.018 47.0393 55.8823 52.9117 41.7581C53.3804 40.6317 53.3827 39.6351 52.8584 38.5203C50.3734 33.2336 47.9396 27.9237 45.4941 22.6185C44.9303 21.3924 44.1136 20.4399 42.7238 19.8883C42.5892 20.9961 42.4361 22.0229 42.3642 23.0542C42.3502 23.2628 42.6101 23.534 42.8073 23.7078C44.2806 25.0058 44.7841 26.992 44.0625 28.7581C43.3247 30.5636 41.5475 31.6344 39.5544 31.4698C37.7238 31.3192 36.16 29.9471 35.7052 28.0883C35.1321 25.7521 36.6356 23.3208 39.037 22.8178C39.6008 22.6996 39.805 22.5073 39.8352 21.9464C39.8746 21.2047 40.0115 20.4677 40.1252 19.5846C39.689 19.7191 39.3642 19.8025 39.0556 19.9207C33.6031 22.002 28.153 24.0972 22.6959 26.1646C21.7377 26.5285 21.1043 27.1427 20.7145 28.086C14.8143 42.3561 8.90244 56.6193 2.99525 70.8871C2.1623 72.9012 2.71451 74.2177 4.72147 75.052C6.21567 75.6755 7.71683 76.2804 9.20871 76.9062C10.1925 77.3187 10.5521 78.021 10.2041 78.7928C9.88156 79.5113 9.16694 79.699 8.19247 79.3027C6.5869 78.6468 4.97901 77.9978 3.38504 77.3164C0.475529 76.0718 -0.747209 73.1446 0.463928 70.2127C6.4152 55.8081 12.3897 41.4128 18.3456 27.0083C18.9906 25.4461 20.0718 24.38 21.6519 23.7797C27.1623 21.6845 32.6635 19.5661 38.1716 17.4639C38.5753 17.3086 38.9976 17.1001 39.4129 17.0977C40.3456 17.0931 40.5475 16.6064 40.6913 15.779C41.2041 12.8471 41.8027 9.92906 42.4106 7.01339C42.5521 6.34125 42.8282 5.68997 43.1066 5.05492C44.1275 2.72794 45.573 0.811198 48.1252 0.00695312H49.863V0ZM44.9999 18.0434C47.1646 14.6966 49.2829 11.3591 50.6635 7.62758C50.9767 6.78161 51.0532 5.82672 51.1043 4.91354C51.1577 3.94706 50.7215 3.17758 49.7818 2.77893C48.8282 2.37565 47.9465 2.63755 47.3433 3.35836C46.6124 4.23214 45.8839 5.18471 45.4616 6.22768C44.037 9.73206 43.7215 13.4914 43.0857 17.1649C43.7377 17.4662 44.3131 17.7305 44.9999 18.0457V18.0434ZM39.972 28.8647C40.9883 28.874 41.7771 28.0814 41.7632 27.0616C41.7493 26.0835 40.979 25.3163 40.0022 25.3117C39.0138 25.3071 38.2412 26.051 38.211 27.0291C38.1809 28.0466 38.9558 28.8555 39.9697 28.8624L39.972 28.8647Z" fill="black"/>
<path d="M14.413 54.5357C14.413 47.0193 20.1624 40.6874 27.6056 40.0036C35.1067 39.3153 41.8817 44.4073 43.2738 51.7985C43.4223 52.5911 43.5058 53.4023 43.5545 54.2089C43.6125 55.1754 43.1485 55.7617 42.3666 55.8174C41.5267 55.8776 41.0186 55.3538 40.9698 54.3294C40.768 50.1089 38.9907 46.7598 35.4292 44.4467C31.3364 41.7883 26.0394 41.9459 22.0348 44.7851C18.0905 47.5802 16.2088 52.5842 17.3364 57.2682C18.4965 62.0868 22.3434 65.6468 27.1717 66.3745C32.174 67.1278 37.1531 64.6293 39.5476 60.1631C39.6427 59.9846 39.7262 59.7992 39.8329 59.6277C40.2506 58.9625 40.9072 58.7423 41.5383 59.0483C42.1972 59.3658 42.5383 60.1306 42.1183 60.8097C41.2854 62.1563 40.4756 63.5631 39.3968 64.6988C35.3179 69.0005 28.9838 70.2752 23.4942 68.041C17.993 65.8021 14.4176 60.4806 14.4176 54.5357H14.413Z" fill="black"/>
<path d="M29.4176 48.8294C30.0835 46.8779 30.5685 46.3727 31.4524 46.6508C32.3527 46.9336 32.471 47.5362 31.9954 49.5526C32.2367 49.6545 32.4919 49.7612 32.7448 49.8724C33.8631 50.3661 34.4385 51.4322 34.2274 52.6189C34.1067 53.2957 33.7216 53.7221 33.0163 53.7685C32.3132 53.8148 31.7935 53.4579 31.6891 52.7858C31.6102 52.2759 31.362 52.1206 30.9466 52.0093C30.362 51.8494 29.7912 51.6385 29.2042 51.4902C28.6404 51.3465 28.1415 51.46 27.9582 52.0928C27.7819 52.7046 28.0859 53.0987 28.652 53.2957C29.0882 53.4486 29.536 53.5668 29.9745 53.7059C31.891 54.3131 32.9095 55.8336 32.6589 57.7109C32.4246 59.4677 30.9397 60.6706 28.9768 60.6938C28.8631 60.6938 28.7494 60.6938 28.594 60.6938C28.1067 61.6209 28.1995 63.3452 26.5081 62.8168C24.9327 62.3255 25.8353 61.0206 26 59.966C25.7007 59.8432 25.4084 59.7389 25.1299 59.6068C24.0534 59.0899 23.5128 57.9334 23.7912 56.7884C23.9466 56.1464 24.3434 55.7802 25.0046 55.7547C25.6659 55.7293 26.181 56.0445 26.2738 56.6911C26.3596 57.2844 26.703 57.4235 27.1647 57.5463C27.6937 57.69 28.2088 57.8824 28.7378 58.0238C29.297 58.1721 29.8167 58.091 30.0186 57.4768C30.2297 56.8371 29.9142 56.4176 29.2947 56.2206C28.8283 56.07 28.3527 55.9425 27.8886 55.7895C26.0557 55.1892 25.0603 53.6201 25.3411 51.7845C25.6102 50.0323 27.0371 48.8642 28.9559 48.8318C29.0975 48.8294 29.2367 48.8318 29.413 48.8318L29.4176 48.8294Z" fill="black"/>
<path d="M73.1206 69.091C72.8213 69.4224 72.5499 69.9902 72.1624 70.0853C71.7285 70.1919 71.167 69.9184 70.7053 69.7121C70.5174 69.6287 70.4408 69.2833 70.3318 69.0469C67.6984 63.4566 65.0673 57.864 62.4362 52.2713C62.3248 52.0373 62.2111 51.7985 62.1438 51.5505C61.9582 50.8668 62.2158 50.3546 62.8329 50.044C63.4362 49.7381 63.9629 49.9189 64.3805 50.4102C64.5452 50.6049 64.652 50.8529 64.7633 51.087C67.406 56.7051 70.0464 62.3256 72.6821 67.946C72.826 68.2543 72.9281 68.5834 73.1206 69.0933V69.091Z" fill="black"/>
<path d="M65.5777 73.3439C65.3805 73.1631 64.8747 72.9035 64.6798 72.4956C61.9095 66.6805 59.1786 60.8491 56.4501 55.0154C56.065 54.1927 56.2923 53.5136 56.9884 53.1659C57.6682 52.8252 58.3898 53.0778 58.768 53.8774C61.5336 59.725 64.2923 65.5772 67.0278 71.4387C67.4733 72.3936 66.8422 73.3647 65.58 73.3439H65.5777Z" fill="black"/>
</g>
<defs>
<clipPath id="clip0_1_5717">
<rect width="82" height="89" fill="white"/>
</clipPath>
</defs>
</svg>
