<svg width="233" height="312" viewBox="0 0 233 312" fill="none" xmlns="http://www.w3.org/2000/svg">
<rect x="0.5" y="0.5" width="64" height="115" rx="11.5" fill="white"/>
<rect x="0.5" y="0.5" width="64" height="115" rx="11.5" stroke="black"/>
<path d="M25.8602 106.574C25.8602 103.1 28.6765 100.284 32.1505 100.284C35.6246 100.284 38.4409 103.1 38.4409 106.574V107.465C38.4409 110.939 35.6246 113.755 32.1505 113.755C28.6765 113.755 25.8602 110.939 25.8602 107.465V106.574Z" fill="#D9D9D9"/>
<path d="M14 56H30V40H14V56ZM18 44H26V52H18V44ZM14 76H30V60H14V76ZM18 64H26V72H18V64ZM34 40V56H50V40H34ZM46 52H38V44H46V52ZM34.02 60H38.02V64H34.02V60ZM38.02 64H42.02V68H38.02V64ZM34.02 68H38.02V72H34.02V68ZM42.02 68H46.02V72H42.02V68ZM46.02 72H50.02V76H46.02V72ZM38.02 72H42.02V76H38.02V72ZM42.02 60H46.02V64H42.02V60ZM46.02 64H50.02V68H46.02V64Z" fill="black"/>
<path d="M18.8708 7.10971C18.8708 5.66308 20.0436 4.49036 21.4902 4.49036H42.8106C44.2573 4.49036 45.43 5.66308 45.43 7.10971C45.43 8.55634 44.2573 9.72907 42.8106 9.72907H21.4902C20.0436 9.72907 18.8708 8.55634 18.8708 7.10971Z" fill="#D9D9D9"/>
<rect x="166.5" y="196.5" width="64" height="115" rx="11.5" fill="white"/>
<rect x="166.5" y="196.5" width="64" height="115" rx="11.5" stroke="black"/>
<path d="M184.871 203.11C184.871 201.663 186.044 200.49 187.49 200.49H208.811C210.257 200.49 211.43 201.663 211.43 203.11C211.43 204.556 210.257 205.729 208.811 205.729H187.49C186.044 205.729 184.871 204.556 184.871 203.11Z" fill="#D9D9D9"/>
<path d="M191.86 302.574C191.86 299.1 194.676 296.284 198.151 296.284C201.625 296.284 204.441 299.1 204.441 302.574V303.465C204.441 306.939 201.625 309.755 198.151 309.755C194.676 309.755 191.86 306.939 191.86 303.465V302.574Z" fill="#D9D9D9"/>
<path d="M182.584 283H215.416C221.816 283 225 279.866 225 273.657V246.553C225 242.701 224.567 241.03 222.094 238.582L205.028 221.836C202.68 219.507 200.762 219 197.269 219H182.584C176.216 219 173 222.164 173 228.374V273.657C173 279.895 176.216 283 182.584 283ZM182.831 278.195C179.647 278.195 177.977 276.552 177.977 273.568V228.463C177.977 225.508 179.647 223.805 182.863 223.805H196.589V241.15C196.589 244.911 198.567 246.761 202.401 246.761H220.023V273.568C220.023 276.552 218.384 278.195 215.169 278.195H182.831ZM202.957 242.253C201.752 242.253 201.256 241.776 201.256 240.582V224.731L219.063 242.254L202.957 242.253Z" fill="black"/>
<path d="M206.318 255.267C206.689 254.922 207.269 254.906 207.658 255.247C208.048 255.588 208.11 256.165 207.816 256.578L207.753 256.658L201.363 263.959L201.364 263.96C201.032 264.34 200.568 264.58 200.066 264.633C199.627 264.679 199.187 264.578 198.813 264.349L198.658 264.244L195.4 261.8L195.321 261.734C194.949 261.391 194.89 260.814 195.2 260.4C195.511 259.986 196.081 259.881 196.516 260.142L196.6 260.2L199.857 262.643L206.247 255.342L206.318 255.267Z" fill="#32FBDF"/>
<path d="M195.479 253.641C197.312 252.951 199.304 252.816 201.209 253.247L201.589 253.341L201.687 253.372C202.16 253.552 202.43 254.065 202.296 254.565C202.162 255.066 201.671 255.375 201.171 255.294L201.071 255.272L200.768 255.197C199.244 254.852 197.649 254.961 196.183 255.513C194.618 256.101 193.277 257.165 192.349 258.555C191.42 259.945 190.949 261.591 191.004 263.262C191.059 264.932 191.636 266.544 192.653 267.87C193.671 269.196 195.078 270.17 196.678 270.655C198.277 271.141 199.988 271.112 201.571 270.575C203.154 270.038 204.529 269.019 205.503 267.66C206.477 266.301 207 264.672 207 263C207 262.448 207.448 262 208 262C208.552 262 209 262.448 209 263C209 265.089 208.346 267.127 207.129 268.825C205.912 270.524 204.192 271.798 202.214 272.47C200.235 273.141 198.096 273.176 196.097 272.569C194.097 271.963 192.338 270.745 191.066 269.087C189.795 267.429 189.073 265.415 189.005 263.327C188.937 261.239 189.525 259.182 190.686 257.444C191.846 255.707 193.523 254.377 195.479 253.641Z" fill="#32FBDF"/>
<path d="M73.778 63.7663C108.803 85.9295 190.989 114.556 158.417 150.358C136.179 174.803 107.389 145.071 132.918 119.234C158.446 93.3971 221.442 117.992 198.964 183.392M198.964 183.392L189.716 171.653M198.964 183.392L215.341 172.653" stroke="url(#paint0_linear_15_3697)" stroke-opacity="0.3" stroke-width="2" stroke-linecap="round"/>
<defs>
<linearGradient id="paint0_linear_15_3697" x1="197.366" y1="184.508" x2="141.758" y2="45.7267" gradientUnits="userSpaceOnUse">
<stop offset="0.375" stop-color="#424242"/>
<stop offset="1" stop-color="#FBFBFB"/>
</linearGradient>
</defs>
</svg>
