<svg width="248" height="341" viewBox="0 0 248 341" fill="none" xmlns="http://www.w3.org/2000/svg">
<rect x="58" y="41" width="151" height="255" rx="12" fill="white"/>
<rect x="58.5" y="41.5" width="150" height="254" rx="11.5" stroke="black" stroke-opacity="0.5"/>
<path d="M101.839 56.629C101.839 53.4489 104.417 50.871 107.597 50.871H157.78C160.96 50.871 163.538 53.4489 163.538 56.629C163.538 59.8091 160.96 62.3871 157.78 62.3871H107.597C104.417 62.3871 101.839 59.8091 101.839 56.629Z" fill="#D9D9D9"/>
<path d="M118.075 273.452C118.075 266.824 123.448 261.452 130.075 261.452H135.301C141.928 261.452 147.301 266.824 147.301 273.452V279.065C147.301 285.692 141.928 291.065 135.301 291.065H130.075C123.448 291.065 118.075 285.692 118.075 279.065V273.452Z" fill="#D9D9D9"/>
<path d="M113.697 144.645C109.443 144.645 104.995 147.43 101.05 152.618C97.1057 157.805 94.0542 165.623 94.2131 175.968C94.2131 180.907 95.7688 186.386 98.7093 190.963C99.141 191.637 99.8874 192.041 100.394 192.673C98.3317 195.197 94.7736 199.98 94.7736 199.98C94.4544 200.256 94.1958 200.596 94.0145 200.98C93.8333 201.363 93.7335 201.78 93.7214 202.205C93.7094 202.63 93.7855 203.052 93.9448 203.446C94.1041 203.839 94.343 204.194 94.6462 204.487C94.9493 204.781 95.3099 205.007 95.7046 205.151C96.0993 205.294 96.5194 205.352 96.9376 205.321C97.3559 205.29 97.7631 205.17 98.1328 204.97C98.5025 204.769 98.8266 204.492 99.084 204.156C99.084 204.156 102.69 199.267 104.608 196.943C106.821 198.368 109.351 199.315 112.198 199.315C117.318 199.315 122.126 196.834 126.248 193.429C126.832 192.949 127.186 192.241 127.746 191.722C129.068 192.661 130.624 193.241 132.336 193.241C135.21 193.241 137.65 191.853 139.739 190.203C141.826 188.554 143.615 186.568 145.264 184.603C146.37 183.285 147.179 182.191 148.075 181.092C147.965 182.522 147.875 183.932 147.887 185.268C147.893 185.967 147.923 186.595 148.168 187.452C148.288 187.877 148.396 188.466 148.918 189.064C149.439 189.663 150.5 190.203 151.445 190.203C153.894 190.203 155.716 188.812 157.065 187.452C158.414 186.088 159.496 184.521 160.722 183.084C163.162 180.214 165.512 178.055 168.869 178.055C169.664 178.055 170.427 177.735 170.989 177.165C171.551 176.595 171.867 175.823 171.867 175.017C171.867 174.212 171.551 173.439 170.989 172.87C170.427 172.3 169.664 171.98 168.869 171.98C162.934 171.98 158.947 175.898 156.223 179.099C155.377 180.093 154.742 180.77 154.071 181.566C154.077 181.456 154.062 181.392 154.071 181.28C154.184 179.737 154.37 178.234 154.256 176.724C154.225 175.873 154.034 175.036 153.693 174.258C153.273 173.329 151.87 171.98 150.321 171.98C148.699 171.98 147.785 172.703 147.044 173.31C146.304 173.918 145.656 174.623 144.982 175.397C143.633 176.946 142.209 178.787 140.675 180.618C139.137 182.449 137.509 184.26 135.989 185.459C134.473 186.656 133.211 187.166 132.336 187.166C132.138 187.166 132.036 186.823 131.868 186.787C133.448 184.864 135.39 183.212 136.646 181.186C139.383 176.764 141.286 172.387 141.892 168.563C142.194 166.65 142.302 164.791 141.424 162.963C140.543 161.137 138.247 159.831 136.178 159.831C132.147 159.831 128.756 162.474 126.436 166C124.113 169.529 122.689 174.158 122.689 179.288C122.689 181.951 123.514 184.19 124.374 186.407C123.661 187.105 123.145 188.077 122.408 188.685C118.943 191.546 115.319 193.241 112.198 193.241C110.84 193.241 109.629 192.639 108.451 192.008C109.851 190.118 109.959 190.367 111.449 188.114C117.588 178.823 123.906 166.947 123.906 155.564C123.906 154.212 123.817 151.767 122.408 149.298C120.999 146.829 117.857 144.645 113.697 144.645ZM113.697 150.72C116.131 150.72 116.623 151.388 117.162 152.332C117.702 153.277 117.911 154.786 117.911 155.561C117.911 164.527 112.24 175.938 106.389 184.794C105.193 186.604 105.193 186.355 104.048 187.926C103.967 187.804 103.847 187.765 103.766 187.64C101.536 184.168 100.208 179.531 100.208 175.965V175.874C100.067 166.777 102.726 160.49 105.828 156.414C108.928 152.338 112.852 150.72 113.697 150.72ZM135.989 166C136.031 166.225 136.145 166.626 135.989 167.613C135.603 170.055 134.02 174.03 131.586 177.96C130.918 179.039 129.839 179.843 129.059 180.903C128.987 180.272 128.685 179.98 128.685 179.288C128.685 175.309 129.824 171.716 131.4 169.323C132.905 167.032 134.647 166.088 135.989 166ZM93.9313 211.464V217.538H171.867V211.464H93.9313Z" fill="black"/>
<path d="M97.096 53.2854C95.6475 79.8714 73.3247 100.271 47.2367 98.8501C21.1486 97.4287 1.17422 74.7243 2.62269 48.1383C4.07115 21.5522 26.3939 1.15222 52.482 2.57355C78.5701 3.99489 98.5445 26.6993 97.096 53.2854Z" fill="white"/>
<path d="M47.291 97.8512L47.2366 98.8497L46.6264 98.8126C46.5002 98.804 46.3743 98.7936 46.2485 98.7841L46.3233 97.7887C46.6448 97.813 46.9675 97.8336 47.291 97.8512ZM48.2598 97.8942L48.225 98.8918C47.8962 98.8808 47.5667 98.8677 47.2366 98.8497L47.291 97.8512C47.6145 97.8688 47.9376 97.8834 48.2598 97.8942ZM42.4897 97.3363C43.1222 97.4381 43.7593 97.5272 44.4008 97.6028L44.2842 98.595C43.6284 98.5177 42.9771 98.4263 42.3303 98.3223L42.4897 97.3363ZM52.1541 98.525L52.1702 98.8584C51.516 98.8915 50.8586 98.9116 50.1983 98.9172L50.1911 97.9182C50.8372 97.9128 51.4808 97.8935 52.1209 97.861L52.1541 98.525ZM38.7039 96.5618C39.3267 96.7173 39.9548 96.8595 40.5878 96.9892L40.4868 97.4785L40.4877 97.4796L40.4398 97.7117L40.3877 97.968C39.7404 97.8355 39.0983 97.6895 38.4614 97.5305L38.7039 96.5618ZM56.1022 98.4916C55.4519 98.5805 54.7976 98.6558 54.1398 98.7172L54.1168 98.4568L54.0945 98.2209L54.0483 97.7225C54.6918 97.6624 55.3322 97.5893 55.9683 97.5024L56.1022 98.4916ZM34.9992 95.4671C35.6068 95.6751 36.2211 95.8705 36.8401 96.0534L36.5562 97.0111C35.9235 96.8241 35.2968 96.6235 34.6759 96.4108L34.9992 95.4671ZM59.987 97.7898C59.3466 97.9338 58.7019 98.0652 58.0526 98.1822L57.8763 97.1995C58.5114 97.085 59.1427 96.9574 59.7691 96.8166L59.987 97.7898ZM31.4034 94.0613C31.9913 94.3205 32.5862 94.5682 33.1869 94.803L32.8235 95.7299C32.2093 95.4899 31.6007 95.2393 30.9996 94.9743L31.4034 94.0613ZM63.7976 96.7612C63.1713 96.9593 62.5391 97.1423 61.9024 97.3142L61.6438 96.3534C62.2663 96.1853 62.8839 96.0036 63.4964 95.8098L63.7976 96.7612ZM27.9374 92.3546C28.5018 92.6631 29.0736 92.9601 29.6522 93.2451L29.4302 93.6927L29.4312 93.6937L29.2103 94.1394C28.6192 93.8482 28.0361 93.5435 27.4594 93.2284L27.9374 92.3546ZM67.1273 94.4898L67.5065 95.4102C66.899 95.6608 66.2862 95.9004 65.667 96.1257L65.4968 95.6587L65.3258 95.1887C65.932 94.9683 66.5326 94.7351 67.1273 94.4898ZM24.6288 90.3602C25.1655 90.7151 25.7097 91.0593 26.2617 91.3919L26.0026 91.8199L26.0036 91.8209L25.8036 92.1523L25.7467 92.246C25.1826 91.9061 24.6252 91.5564 24.0768 91.1937L24.6288 90.3602ZM71.0901 93.7551C70.5056 94.056 69.9135 94.3432 69.3158 94.6198L69.2704 94.5205L69.1076 94.1693L68.8976 93.7148C69.4826 93.4441 70.0618 93.1612 70.6339 92.8666L71.0901 93.7551ZM21.4974 88.0956C22.003 88.4945 22.5176 88.8836 23.0398 89.2614L22.455 90.0686C21.9215 89.6827 21.3971 89.2852 20.8807 88.8777L21.4974 88.0956ZM74.2572 91.3799L74.5189 91.8C73.9615 92.1488 73.3976 92.4874 72.8256 92.8129L72.3319 91.9469C72.892 91.6281 73.4459 91.2972 73.9918 90.9557L74.2572 91.3799ZM18.5656 85.5779C19.0365 86.0175 19.5167 86.4474 20.0054 86.8671L19.3549 87.6239C18.8556 87.1952 18.3652 86.7565 17.8843 86.3076L18.5656 85.5779ZM77.7769 89.5706C77.2502 89.9645 76.7156 90.3477 76.1729 90.7195L75.6085 89.8965C76.1399 89.5324 76.6639 89.1572 77.1798 88.7714L77.7769 89.5706ZM15.8509 82.8266C16.2842 83.3036 16.7275 83.7715 17.1798 84.23L16.4708 84.9298C16.0087 84.4613 15.5558 83.9838 15.1132 83.4964L15.4815 83.1624L15.8509 82.8266ZM80.837 87.0772C80.3442 87.5134 79.8427 87.9393 79.3326 88.3547L79.0787 88.0425L79.0191 87.9698L78.7038 87.582C79.2033 87.1753 79.6948 86.7584 80.1774 86.3312L80.837 87.0772ZM13.3718 79.8611C13.7647 80.3723 14.1686 80.8745 14.5816 81.3686L13.8142 82.0095C13.3922 81.5047 12.9822 80.9897 12.5808 80.4674L13.3718 79.8611ZM83.6834 84.3413C83.2276 84.8168 82.7641 85.2842 82.2898 85.7402L81.5975 85.0198C82.0618 84.5735 82.5178 84.1181 82.9639 83.6527L83.6834 84.3413ZM11.1429 76.702C11.493 77.2439 11.8541 77.7781 12.2253 78.3043L11.4107 78.878C11.0315 78.3405 10.6622 77.7956 10.3047 77.2422L11.1429 76.702ZM86.2965 81.3824C85.8809 81.8937 85.4546 82.3953 85.0193 82.8883L84.2728 82.2296C84.699 81.7468 85.116 81.255 85.5228 80.7544L86.2965 81.3824ZM9.17959 73.3715C9.48431 73.9402 9.80054 74.502 10.1274 75.0564L9.69699 75.3098L9.26558 75.563C8.93196 74.9971 8.61214 74.4224 8.30113 73.842L9.17959 73.3715ZM88.2484 77.9395L88.6585 78.22C88.2862 78.7634 87.9051 79.2996 87.5118 79.826L86.7111 79.2289C87.0963 78.7132 87.4717 78.1891 87.8364 77.6569L88.2484 77.9395ZM7.49432 69.8919C7.75182 70.4838 8.02074 71.0702 8.30128 71.6493L7.40426 72.0836C7.11766 71.4919 6.8408 70.8946 6.57776 70.2899L7.49432 69.8919ZM90.7576 74.8771C90.4304 75.4496 90.0893 76.0125 89.7402 76.5694L88.8966 76.0403C89.2384 75.4951 89.5694 74.9414 89.8897 74.3809L90.7576 74.8771ZM6.09754 66.2871C6.30607 66.8984 6.52707 67.5042 6.75944 68.1041L5.82929 68.4642C5.59199 67.8515 5.36779 67.2326 5.15484 66.6084L6.09754 66.2871ZM92.1219 71.1607L92.5711 71.371C92.2916 71.9684 92.0015 72.5593 91.699 73.1426L90.8145 72.6836C91.1106 72.1125 91.3961 71.5343 91.6698 70.9493L92.1219 71.1607ZM4.99977 62.5793C5.15787 63.2057 5.32881 63.8274 5.5114 64.4439L5.03128 64.5859L4.55219 64.7271C4.36576 64.0976 4.19338 63.4625 4.03196 62.8229L4.99977 62.5793ZM94.0986 67.7299C93.8686 68.3482 93.6283 68.9608 93.3746 69.5663L92.9146 69.374L92.4537 69.1807C92.7022 68.5878 92.9387 67.9882 93.1639 67.3827L94.0986 67.7299ZM4.20733 58.7962C4.31411 59.4337 4.43364 60.0675 4.56543 60.6964L4.07573 60.7989L3.58907 60.8995C3.45454 60.2574 3.33034 59.6114 3.22135 58.9606L4.20733 58.7962ZM95.324 63.9785C95.145 64.6137 94.9513 65.2424 94.7478 65.866L94.2759 65.7132L93.8012 65.5582C94.0006 64.9473 94.1873 64.3302 94.3627 63.7081L95.324 63.9785ZM3.72296 54.9595C3.77796 55.6043 3.8458 56.246 3.9262 56.8836L2.93654 57.0076C2.85442 56.3564 2.78285 55.7017 2.7267 55.0431L3.2248 55.0018L3.72296 54.9595ZM95.7516 60.0429L96.2413 60.138C96.114 60.7866 95.9717 61.4296 95.8193 62.0681L94.85 61.8373C94.9991 61.2122 95.1363 60.5817 95.261 59.9467L95.7516 60.0429ZM3.54911 51.0957C3.55233 51.7426 3.5686 52.387 3.59738 53.0279L2.5974 53.0722C2.56801 52.4179 2.55263 51.7603 2.54935 51.0999L3.54911 51.0957ZM96.3493 56.181L96.846 56.2374C96.771 56.8935 96.6843 57.5455 96.584 58.1928L95.5957 58.0402C95.694 57.4062 95.7801 56.7673 95.8536 56.1246L96.3493 56.181ZM2.62267 48.1386C2.64068 47.808 2.66288 47.4781 2.68732 47.1494L3.18507 47.1863L3.68375 47.2242C3.65982 47.5461 3.63883 47.8692 3.62119 48.193C3.60355 48.5168 3.58931 48.8402 3.57813 49.1628L2.57958 49.1269C2.58381 49.005 2.58755 48.883 2.59268 48.7609L2.62267 48.1386ZM97.058 53.9076C97.0499 54.0295 97.0394 54.1512 97.0303 54.2728L96.0348 54.2C96.0587 53.8781 96.0797 53.5551 96.0973 53.2313C96.115 52.9075 96.1292 52.584 96.1404 52.2615L96.6402 52.2779L97.1381 52.2953C97.1266 52.6247 97.1139 52.9551 97.0958 53.2857L97.058 53.9076ZM3.13458 43.2304L4.1228 43.384C4.02459 44.0178 3.93841 44.6561 3.86494 45.2986L2.87156 45.1858C2.94661 44.5294 3.03329 43.877 3.13366 43.2294L3.13458 43.2304ZM97.1202 48.35C97.1497 49.0047 97.165 49.6626 97.1682 50.3233L96.1695 50.3276C96.1662 49.6809 96.1499 49.037 96.1211 48.3963L97.1202 48.35ZM4.38199 39.4705L4.86856 39.587C4.71937 40.212 4.5822 40.8425 4.45748 41.4775L3.47631 41.2842C3.60364 40.636 3.74597 39.9932 3.89829 39.3551L4.38199 39.4705ZM96.782 44.4156C96.8641 45.0665 96.9348 45.7209 96.9909 46.3791L95.9956 46.4647C95.9406 45.8199 95.8727 45.1782 95.7923 44.5407L96.782 44.4156ZM5.44262 35.7101L5.91824 35.8661C5.71896 36.4768 5.53124 37.0932 5.35587 37.7152L4.39363 37.4437C4.5727 36.8086 4.76633 36.1798 4.96982 35.5562L5.44262 35.7101ZM96.1286 40.5227C96.2631 41.1648 96.3873 41.8108 96.4963 42.4616L95.5112 42.627C95.4045 41.9898 95.2858 41.3565 95.1541 40.7278L96.1286 40.5227ZM6.80395 32.0492L7.26579 32.2426C7.01734 32.8355 6.77982 33.4351 6.55462 34.0406L5.61906 33.6923C5.84892 33.0743 6.08943 32.4621 6.34303 31.8569L6.80395 32.0492ZM95.1654 36.6961C95.3518 37.3253 95.5243 37.96 95.6857 38.5993L94.7188 38.844C94.5607 38.2176 94.3907 37.5958 94.2081 36.9794L94.6873 36.8373L95.1654 36.6961ZM8.9041 28.7396C8.60791 29.3108 8.32238 29.8899 8.04866 30.475L7.14552 30.0522C7.42521 29.4543 7.71597 28.8633 8.01863 28.2797L8.9041 28.7396ZM93.8883 32.958C94.1258 33.5711 94.3506 34.1902 94.5637 34.8149L93.621 35.1371C93.4124 34.5258 93.1915 33.9191 92.9591 33.3191L93.8883 32.958ZM10.8219 25.3839C10.4802 25.929 10.1491 26.482 9.82886 27.0423L8.96101 26.5461C9.28806 25.9738 9.62841 25.4105 9.97743 24.8538L10.8219 25.3839ZM92.3133 29.3396C92.5998 29.9309 92.878 30.5271 93.1409 31.1315L92.2242 31.5314C91.9668 30.9396 91.6977 30.3539 91.4172 29.7749L92.3133 29.3396ZM13.0074 22.1954C12.6223 22.711 12.2468 23.2352 11.8821 23.7673L11.0591 23.2032C11.4315 22.6596 11.8124 22.1228 12.2058 21.5962L13.0074 22.1954ZM90.4521 25.8592C90.7859 26.4255 91.1062 27.0005 91.4174 27.5813L90.5389 28.0527C90.2342 27.4841 89.9179 26.9222 89.5911 26.3678L90.4521 25.8592ZM15.4457 19.1947C15.0196 19.6774 14.6025 20.1692 14.1957 20.6699L13.4212 20.0399C13.8367 19.5286 14.263 19.027 14.6984 18.5339L15.4457 19.1947ZM88.3079 22.5453C88.6868 23.0824 89.0557 23.627 89.413 24.1801L88.5756 24.7222C88.2256 24.1804 87.8644 23.6462 87.4932 23.12L88.3079 22.5453ZM18.1211 16.4035C17.6567 16.8498 17.2008 17.306 16.7546 17.7716L16.0343 17.081C16.49 16.6055 16.9535 16.138 17.4279 15.6821L18.1211 16.4035ZM85.9034 19.4128C86.3254 19.9175 86.7354 20.4326 87.1368 20.9548L86.3467 21.5631C85.9537 21.0518 85.5501 20.5488 85.1369 20.0546L85.9034 19.4128ZM21.0148 13.8413C20.5153 14.248 20.0238 14.6649 19.5412 15.0921L18.8806 14.346C19.3738 13.9095 19.8755 13.4833 20.386 13.0676L21.0148 13.8413ZM83.2478 16.4935C83.7097 16.9618 84.1619 17.4396 84.6044 17.9268L83.8677 18.5967C83.4343 18.1196 82.9911 17.6518 82.5387 17.1932L82.9542 16.7836L83.2478 16.4935ZM24.1101 11.5267C23.5786 11.8909 23.0547 12.2661 22.5387 12.6519L21.9398 11.8515C22.4669 11.4574 23.0026 11.0749 23.5457 10.7028L24.1101 11.5267ZM80.3638 13.7984C80.863 14.2271 81.3534 14.6658 81.8344 15.1147L81.153 15.8453C80.682 15.4057 80.202 14.9759 79.7132 14.5561L80.3638 13.7984ZM26.9956 8.79099L27.3866 9.47734C26.8265 9.79611 26.2726 10.126 25.7267 10.4676L25.1977 9.62215C25.7556 9.27308 26.3206 8.93514 26.893 8.60936L26.9956 8.79099ZM77.2636 11.3546C77.7969 11.7404 78.3216 12.1373 78.8379 12.5446L78.5552 12.9047L78.2212 13.3276C77.7156 12.9288 77.2009 12.5406 76.6787 12.1629L77.2636 11.3546ZM30.8209 7.70843C30.2361 7.97909 29.6577 8.26217 29.0857 8.55669L28.6275 7.66717C29.2119 7.36628 29.8042 7.07997 30.4018 6.80342L30.8209 7.70843ZM73.9709 9.17717C74.5349 9.51698 75.0926 9.86596 75.6408 10.2286L75.0907 11.0631C74.554 10.7081 74.009 10.364 73.4569 10.0313L73.9709 9.17717ZM34.3927 6.23551C33.7866 6.45595 33.1858 6.6892 32.5912 6.93445L32.2112 6.01201C32.8186 5.76145 33.4314 5.5218 34.0507 5.29657L34.3927 6.23551ZM70.5073 7.28281C71.0984 7.57397 71.6816 7.87879 72.2582 8.19386L72.0212 8.63083L72.0203 8.62981L71.7812 9.0696C71.2167 8.76118 70.6449 8.46408 70.0663 8.17909L70.5073 7.28281ZM38.0757 5.07087C37.4531 5.23902 36.8348 5.41966 36.2222 5.61342L35.92 4.66198C36.5464 4.46382 37.1785 4.27997 37.8152 4.10801L38.0757 5.07087ZM66.8942 5.69229C67.5085 5.9324 68.1168 6.18385 68.718 6.44888L68.3152 7.36192C67.7275 7.10282 67.1331 6.856 66.5326 6.62126L66.8942 5.69229ZM41.8432 4.22379C41.2081 4.33832 40.5768 4.46595 39.9504 4.60674L39.8401 4.11857L39.7306 3.63338C40.371 3.48942 41.0157 3.35708 41.665 3.23999L41.8432 4.22379ZM63.1615 4.41116C63.7942 4.59809 64.4207 4.79971 65.0417 5.01238L64.9031 5.42049L64.7194 5.95621C64.1119 5.74818 63.4983 5.55275 62.8794 5.36989L63.1615 4.41116ZM45.6703 3.70075C45.0269 3.76084 44.3872 3.835 43.7511 3.92187L43.6154 2.93059C44.2657 2.84177 44.92 2.7674 45.5778 2.70596L45.6703 3.70075ZM59.3299 3.4552C59.9771 3.58772 60.6194 3.73277 61.2562 3.8917L61.0156 4.86247C60.3926 4.70698 59.764 4.56377 59.1308 4.43411L59.3299 3.4552ZM49.5275 3.50502C48.8816 3.51048 48.2385 3.52985 47.5987 3.56229L47.5474 2.56388C48.2017 2.53071 48.8591 2.51063 49.5194 2.50505L49.5275 3.50502ZM55.4335 2.82727C56.0893 2.90453 56.7406 2.99594 57.3873 3.09998L57.2299 4.08702C56.5971 3.98522 55.9594 3.89611 55.3177 3.82049L55.4335 2.82727ZM53.0922 2.61071C53.218 2.61919 53.3436 2.62862 53.4692 2.63809L53.4365 3.09402L53.3953 3.63457C53.0738 3.6103 52.7511 3.58969 52.4275 3.57207C52.1041 3.55445 51.781 3.53986 51.4587 3.52907L51.4926 2.53041C51.8217 2.54144 52.1515 2.55555 52.4819 2.57355L53.0922 2.61071Z" fill="black" fill-opacity="0.5"/>
<path fill-rule="evenodd" clip-rule="evenodd" d="M53.7893 23.4724C49.3929 23.2329 45.2368 24.3891 41.6843 26.5774C41.1044 26.9308 40.4181 27.0265 39.7755 26.8437C39.1329 26.6609 38.5861 26.2145 38.2548 25.6019C37.9234 24.9894 37.8343 24.2605 38.0071 23.5747C38.1799 22.8889 38.6004 22.3019 39.1767 21.942C43.3816 19.3546 48.1577 18.0185 53.0006 18.0749C57.8435 18.1312 62.5733 19.5779 66.6906 22.2621C70.8078 24.9464 74.1596 28.7685 76.3919 33.3248C78.6242 37.8812 79.6541 43.0025 79.3729 48.148C78.8934 57.082 77.0172 65.8784 73.8214 74.1754C73.7022 74.5121 73.5209 74.8203 73.2882 75.0819C73.0554 75.3434 72.776 75.553 72.4665 75.6981C72.1569 75.8433 71.8236 75.921 71.4862 75.9268C71.1487 75.9326 70.8141 75.8662 70.5021 75.7317C70.1901 75.5972 69.9071 75.3973 69.6698 75.1438C69.4326 74.8903 69.2459 74.5883 69.1209 74.2558C68.9958 73.9234 68.935 73.5671 68.9419 73.2082C68.9488 72.8493 69.0234 72.495 69.1613 72.1664C72.1427 64.4222 73.8926 56.212 74.3388 47.8737C74.5049 44.8254 74.1051 41.7761 73.1623 38.9001C72.2195 36.0241 70.7521 33.3776 68.8439 31.1117C66.9357 28.8458 64.624 27.005 62.041 25.6942C59.4579 24.3835 56.654 23.6285 53.7893 23.4724ZM34.3978 29.2787C34.9356 29.6975 35.2935 30.3275 35.3929 31.0301C35.4922 31.7328 35.3248 32.4505 34.9275 33.0255C32.4137 36.6657 30.9481 40.9999 30.7103 45.4968C30.4156 51.028 28.6128 56.359 25.5223 60.8379C25.1254 61.4134 24.5309 61.799 23.8696 61.9101C23.2083 62.0212 22.5344 61.8486 21.9961 61.4302C21.4578 61.0119 21.0993 60.3821 20.9993 59.6794C20.8993 58.9767 21.0662 58.2587 21.4631 57.6833C23.9737 54.0455 25.4378 49.7153 25.6763 45.2225C25.9895 39.4729 27.8789 34.2031 30.8716 29.871C31.0681 29.586 31.3152 29.3446 31.5988 29.1606C31.8824 28.9766 32.1969 28.8536 32.5243 28.7986C32.8518 28.7436 33.1858 28.7577 33.5072 28.8401C33.8287 28.9224 34.1313 29.0715 34.3978 29.2787ZM53.0849 36.4002C51.7509 36.3269 50.4146 36.5365 49.1538 37.0167C47.893 37.497 46.7329 38.2384 45.7407 39.1978C44.7486 40.1572 43.9443 41.3155 43.3745 42.6054C42.8047 43.8953 42.4809 45.291 42.4218 46.7115C41.792 56.1788 38.0951 65.1427 31.9619 72.0739C31.4993 72.578 30.8704 72.8704 30.2105 72.8883C29.5505 72.9061 28.912 72.6479 28.4322 72.1692C27.9523 71.6906 27.6694 71.0295 27.6441 70.3281C27.6188 69.6266 27.8532 68.9408 28.2969 68.4178C33.7429 62.2655 36.9761 54.2741 37.4224 45.8625C37.4279 45.7625 37.4377 45.6651 37.4518 45.5704C37.8275 41.398 39.717 37.535 42.7188 34.8022C45.7205 32.0694 49.5978 30.6823 53.5268 30.9355C57.4558 31.1887 61.1268 33.0624 63.7596 36.1584C66.3925 39.2543 67.7796 43.3285 67.6264 47.5152L67.5976 48.0437L67.523 49.1035C67.4692 49.813 67.1527 50.4726 66.6432 50.9372C66.1338 51.4019 65.473 51.6334 64.8063 51.5809C64.1396 51.5284 63.5216 51.1963 63.0883 50.6574C62.6549 50.1186 62.4417 49.4173 62.4956 48.7078C62.5282 48.3156 62.555 47.9254 62.5762 47.5373C62.6989 44.7159 61.7712 41.9644 59.9944 39.8794C58.2176 37.7945 55.735 36.5444 53.0849 36.4002ZM52.6705 44.0069C53.3381 44.0432 53.9629 44.3603 54.4076 44.8883C54.8522 45.4163 55.0803 46.112 55.0416 46.8224C54.3587 59.3573 49.7455 70.6967 42.5521 79.5351C42.3366 79.8092 42.0723 80.0352 41.7745 80.2001C41.4767 80.3649 41.1514 80.4653 40.8176 80.4952C40.4839 80.5252 40.1483 80.4842 39.8304 80.3746C39.5126 80.265 39.2189 80.089 38.9664 79.8569C38.714 79.6249 38.5079 79.3413 38.3601 79.0228C38.2124 78.7043 38.1259 78.3573 38.1058 78.002C38.0857 77.6467 38.1323 77.2902 38.243 76.9533C38.3537 76.6164 38.5262 76.3059 38.7505 76.0399C45.4688 67.7894 49.4293 57.4135 50.0076 46.5481C50.0463 45.8378 50.3486 45.171 50.848 44.6944C51.3474 44.2178 52.003 43.9705 52.6705 44.0069ZM63.7945 57.8584C64.4403 58.0368 64.9915 58.4811 65.3267 59.0938C65.6619 59.7065 65.7538 60.4373 65.5822 61.1257C63.764 68.4002 60.82 75.3093 56.8714 81.5689C56.6916 81.8743 56.4562 82.1386 56.1792 82.3461C55.9021 82.5536 55.5891 82.7 55.2587 82.7767C54.9283 82.8534 54.5872 82.8588 54.2556 82.7926C53.9241 82.7264 53.6089 82.59 53.3288 82.3913C53.0486 82.1927 52.8092 81.9359 52.6248 81.6363C52.4404 81.3367 52.3147 81.0003 52.2552 80.6471C52.1956 80.2939 52.2035 79.9311 52.2784 79.5802C52.3532 79.2293 52.4934 78.8976 52.6907 78.6046C56.3263 72.8414 59.0368 66.4799 60.7107 59.7822C60.8828 59.0939 61.3043 58.5047 61.8825 58.1439C62.4608 57.7832 63.1485 57.6805 63.7945 57.8584Z" fill="#66EFDC"/>
<path d="M178.875 341C176.159 341 173.835 340.059 171.903 338.177C169.971 336.295 169.003 334.029 169 331.381V283.286C169 280.64 169.968 278.377 171.903 276.495C173.839 274.613 176.163 273.67 178.875 273.667H183.812V264.048C183.812 257.394 186.22 251.724 191.036 247.036C195.852 242.349 201.673 240.003 208.5 240C215.327 239.997 221.15 242.342 225.969 247.036C230.788 251.73 233.194 257.401 233.187 264.048V273.667H238.125C240.841 273.667 243.166 274.609 245.102 276.495C247.037 278.38 248.003 280.644 248 283.286V331.381C248 334.026 247.034 336.291 245.102 338.177C243.169 340.062 240.844 341.003 238.125 341H178.875ZM178.875 331.381H238.125V283.286H178.875V331.381ZM208.5 316.952C211.216 316.952 213.541 316.011 215.477 314.129C217.412 312.247 218.378 309.982 218.375 307.333C218.372 304.685 217.406 302.421 215.477 300.542C213.548 298.663 211.222 297.721 208.5 297.714C205.778 297.708 203.454 298.651 201.528 300.542C199.603 302.434 198.635 304.698 198.625 307.333C198.615 309.969 199.583 312.234 201.528 314.129C203.474 316.024 205.798 316.965 208.5 316.952ZM193.687 273.667H223.312V264.048C223.312 260.04 221.872 256.633 218.992 253.827C216.112 251.022 212.615 249.619 208.5 249.619C204.385 249.619 200.888 251.022 198.008 253.827C195.128 256.633 193.687 260.04 193.687 264.048V273.667Z" fill="#66EFDC"/>
</svg>
