<svg width="270" height="352" viewBox="0 0 270 352" fill="none" xmlns="http://www.w3.org/2000/svg">
<path d="M204.56 221.226C168.697 221.226 139.62 250.503 139.62 286.613C139.62 322.723 168.697 352 204.56 352C240.423 352 269.5 322.723 269.5 286.613C269.457 250.519 240.407 221.27 204.566 221.226H204.56ZM201.881 306.714C202.249 307.82 199.04 311.046 198.77 311.231C198.499 311.416 192.546 308.098 191.534 307.635C190.131 305.219 189.042 302.631 188.293 299.936L188.239 299.707L186.042 297.587C186.042 297.587 181.009 293.806 180.549 293.626C180.089 293.446 179.174 286.346 178.882 285.698C178.082 284.573 177.144 283.555 176.09 282.668L176.062 282.646C175.535 280.479 175.259 278.257 175.24 276.026V276.009C175.473 273.661 176.225 271.53 177.378 269.678L177.34 269.738C178.067 268.504 178.545 267.138 178.747 265.717C178.948 264.297 178.869 262.85 178.514 261.461L178.53 261.537C177.978 260.616 174.39 261.973 174.39 261.973C173.462 261.46 172.475 261.063 171.452 260.791L171.36 260.769L169.504 257.281C169.504 257.281 158.442 256.486 158.626 256.214C169.163 241.327 186.242 231.737 205.551 231.737C208.112 231.737 210.63 231.902 213.105 232.233L212.813 232.2H213.408C215.389 232.347 217.218 232.347 218.257 234.2C218.463 234.56 222.175 237.845 222.083 237.845H211.942L209.837 239.687L219.09 245.256C217.824 245.604 215.248 246.411 213.516 246.967C212.345 247.34 211.245 247.911 210.264 248.656L210.291 248.634L206.633 251.397L203.229 256.295L208.186 259.984C208.186 259.984 213.955 264.409 214.247 264.594C214.539 264.779 215.708 260.905 215.708 260.905C215.575 257.919 215.448 254.929 215.329 251.936L218.073 252.857L222.099 252.486L226.586 255.974C227.36 257.194 228.128 258.611 228.788 260.093L228.875 260.311C228.821 260.932 228.388 264.316 229.167 264.441H229.199C229.342 264.44 229.482 264.4 229.605 264.327C230.996 263.646 232.311 262.856 233.637 262.066C234.265 261.69 235.607 260.491 236.37 260.491C236.04 261.853 235.569 263.052 234.957 264.163L234.995 264.087C234.855 264.305 231.424 270.054 229.963 272.495C229.508 273.254 228.99 273.924 228.409 274.506L223.647 279.388L225.298 282.243L221.315 286.989C220.982 287.385 220.623 287.756 220.238 288.101L220.227 288.111L215.957 291.92C215.957 291.92 211.292 293.026 211.011 293.026C210.73 293.026 207.255 293.855 207.255 293.855C207.255 293.855 200.664 293.212 199.749 296.71C199.545 300.215 200.289 303.71 201.903 306.823L201.854 306.714H201.881ZM250.511 289.615C251.344 289.43 248.292 293.539 248.102 294.182C247.097 295.576 245.984 296.887 244.774 298.105L239.579 298.759C239.995 296.393 241.173 294.23 242.93 292.605C244.688 290.979 246.927 289.98 249.304 289.763L249.347 289.757C249.915 289.703 250.348 289.654 250.511 289.615ZM221.044 305.989L218.614 302.371C218.419 302.077 219.583 300.807 219.583 300.807C219.583 300.807 228.81 299.44 229.681 299.532C230.552 299.625 232.008 302.371 232.008 302.371C232.008 302.371 228.804 306.572 227.733 306.572C226.661 306.572 221.033 305.989 221.033 305.989H221.044ZM223.501 318.674C223.501 318.674 222.392 319.143 221.282 319.699C220.173 320.255 218.782 320.723 218.598 320.353C217.871 319.579 217.049 318.901 216.152 318.337L216.098 318.304C214.752 317.325 213.319 316.473 211.817 315.759L211.655 315.688C210.226 314.945 208.97 313.905 207.97 312.637L207.953 312.615C207.715 312.076 208.879 310.474 209.063 309.635C209.247 308.796 208.971 306.295 209.528 306.583C210.086 306.872 211.287 306.147 212.488 306.583C213.841 307.014 214.994 307.749 215.908 308.714L215.914 308.719C216.477 309.943 217.243 310.964 218.214 311.782L218.225 311.792C219.242 312.446 221.093 313.187 221.001 314.408C220.909 315.628 222.392 317.203 222.392 317.203L223.501 318.674ZM225.308 336.111C220.27 333.861 219.009 331.316 219.394 330.831C221.017 329.382 222.505 327.916 223.918 326.374L223.956 326.33C224.924 324.962 229.979 319.192 229.979 319.192L228.426 316.064L232.755 313.482C234.037 312.708 235.547 312.185 237.171 312.021L237.214 312.016L241.435 311.602C241.688 311.576 241.938 311.56 242.187 311.553L248.995 311.367C248.995 311.367 255.181 309.755 254.239 311.466C240.071 337.239 225.308 336.1 225.308 336.1V336.111Z" fill="#66EFDC"/>
<path d="M32.7984 222.372C29.963 222.372 26.9978 224.156 24.3682 227.478C21.7387 230.801 19.7046 235.808 19.8105 242.434C19.8105 245.597 20.8475 249.107 22.8077 252.038C23.0954 252.47 23.593 252.729 23.9306 253.133C22.5559 254.75 20.1841 257.814 20.1841 257.814C19.9713 257.991 19.7989 258.209 19.6781 258.454C19.5573 258.699 19.4908 258.967 19.4827 259.239C19.4747 259.511 19.5255 259.782 19.6316 260.034C19.7378 260.285 19.8971 260.513 20.0992 260.701C20.3012 260.889 20.5416 261.034 20.8047 261.126C21.0678 261.218 21.3478 261.255 21.6267 261.235C21.9055 261.215 22.1769 261.138 22.4234 261.01C22.6698 260.881 22.8858 260.704 23.0575 260.489C23.0575 260.489 25.4612 257.357 26.74 255.869C28.2147 256.781 29.9011 257.388 31.7993 257.388C35.2122 257.388 38.4172 255.799 41.1647 253.618C41.5543 253.311 41.7901 252.857 42.1637 252.525C43.0449 253.126 44.0819 253.497 45.2229 253.497C47.1391 253.497 48.7656 252.608 50.1583 251.552C51.549 250.496 52.7419 249.223 53.8409 247.965C54.5782 247.12 55.1177 246.42 55.7152 245.716C55.6412 246.632 55.5813 247.535 55.5893 248.391C55.5933 248.838 55.6132 249.241 55.7771 249.789C55.857 250.062 55.929 250.439 56.2766 250.822C56.6243 251.206 57.3316 251.552 57.9611 251.552C59.5936 251.552 60.8084 250.661 61.7076 249.789C62.6068 248.916 63.3281 247.912 64.1453 246.992C65.7718 245.154 67.3384 243.771 69.5763 243.771C70.1062 243.771 70.6145 243.566 70.9892 243.201C71.3639 242.836 71.5744 242.341 71.5744 241.825C71.5744 241.309 71.3639 240.815 70.9892 240.45C70.6145 240.085 70.1062 239.88 69.5763 239.88C65.62 239.88 62.9624 242.389 61.1461 244.44C60.5826 245.076 60.159 245.51 59.7114 246.019C59.7154 245.949 59.7055 245.909 59.7114 245.837C59.7874 244.848 59.9113 243.885 59.8353 242.919C59.8146 242.374 59.6871 241.837 59.4597 241.339C59.1799 240.744 58.2448 239.88 57.2118 239.88C56.1308 239.88 55.5213 240.343 55.0278 240.732C54.5343 241.121 54.1026 241.572 53.6531 242.068C52.7539 243.061 51.8048 244.239 50.7817 245.412C49.7567 246.585 48.6717 247.745 47.6586 248.513C46.6476 249.28 45.8063 249.607 45.2229 249.607C45.091 249.607 45.0231 249.387 44.9112 249.363C45.9642 248.132 47.259 247.074 48.0962 245.776C49.9205 242.944 51.1894 240.141 51.593 237.691C51.7948 236.466 51.8667 235.275 51.2813 234.104C50.6938 232.935 49.1632 232.099 47.7845 232.099C45.097 232.099 42.8371 233.791 41.2905 236.05C39.742 238.31 38.7929 241.275 38.7929 244.56C38.7929 246.266 39.3423 247.7 39.9158 249.12C39.4403 249.568 39.0966 250.19 38.605 250.579C36.2952 252.412 33.8794 253.497 31.7993 253.497C30.8942 253.497 30.0869 253.112 29.3017 252.707C30.2348 251.497 30.3067 251.657 31.2998 250.214C35.392 244.263 39.6041 236.656 39.6041 229.365C39.6041 228.5 39.5442 226.934 38.605 225.352C37.6659 223.771 35.5718 222.372 32.7984 222.372ZM32.7984 226.263C34.4209 226.263 34.7486 226.691 35.1083 227.296C35.4679 227.901 35.6078 228.867 35.6078 229.363C35.6078 235.106 31.8273 242.415 27.9269 248.087C27.1297 249.247 27.1297 249.087 26.3664 250.093C26.3124 250.015 26.2325 249.99 26.1786 249.91C24.6919 247.687 23.8068 244.716 23.8068 242.432V242.374C23.7128 236.548 25.4852 232.521 27.5533 229.91C29.6194 227.299 32.2349 226.263 32.7984 226.263ZM47.6586 236.05C47.6866 236.193 47.7625 236.45 47.6586 237.083C47.4009 238.647 46.3458 241.193 44.7234 243.71C44.2778 244.401 43.5584 244.916 43.0389 245.595C42.991 245.191 42.7892 245.004 42.7892 244.56C42.7892 242.012 43.5484 239.711 44.5995 238.178C45.6025 236.711 46.7635 236.106 47.6586 236.05ZM19.6226 265.169V269.06H71.5744V265.169H19.6226Z" fill="black"/>
<path d="M37.0698 21.7957C39.3662 21.7957 41.5685 22.6838 43.1924 24.2647C44.8162 25.8456 45.7284 27.9897 45.7284 30.2255C45.7284 32.4612 44.8162 34.6053 43.1924 36.1862C41.5685 37.7671 39.3662 38.6553 37.0698 38.6553C34.7734 38.6553 32.571 37.7671 30.9472 36.1862C29.3234 34.6053 28.4111 32.4612 28.4111 30.2255C28.4111 27.9897 29.3234 25.8456 30.9472 24.2647C32.571 22.6838 34.7734 21.7957 37.0698 21.7957ZM37.0698 42.8702C46.6376 42.8702 54.387 46.6425 54.387 51.2999V55.5148H19.7525V51.2999C19.7525 46.6425 27.502 42.8702 37.0698 42.8702Z" fill="#32FBDF"/>
<path d="M67.6456 33.3066C67.6456 31.5607 69.0512 30.1454 70.7851 30.1454H114.293C116.027 30.1454 117.433 31.5607 117.433 33.3066C117.433 35.0525 116.027 36.4678 114.293 36.4678H70.7851C69.0512 36.4678 67.6456 35.0525 67.6456 33.3066Z" fill="#D9D9D9"/>
<path d="M67.6456 43.8437C67.6456 42.0978 69.0512 40.6825 70.7851 40.6825H114.293C116.027 40.6825 117.433 42.0978 117.433 43.8437C117.433 45.5895 116.027 47.0048 114.293 47.0048H70.7851C69.0512 47.0048 67.6456 45.5895 67.6456 43.8437Z" fill="#D9D9D9"/>
<path d="M19.4819 80.1191C19.4819 78.3732 20.8876 76.9579 22.6215 76.9579H181.939C183.673 76.9579 185.078 78.3732 185.078 80.1191C185.078 81.865 183.673 83.2803 181.939 83.2803H22.6215C20.8876 83.2803 19.4819 81.865 19.4819 80.1191Z" fill="#D9D9D9"/>
<path d="M19.4819 90.6563C19.4819 88.9105 20.8876 87.4952 22.6215 87.4952H181.939C183.673 87.4952 185.078 88.9105 185.078 90.6563C185.078 92.4022 183.673 93.8175 181.939 93.8175H22.6215C20.8876 93.8175 19.4819 92.4022 19.4819 90.6563Z" fill="#D9D9D9"/>
<path d="M19.4819 101.194C19.4819 99.4477 20.8876 98.0324 22.6215 98.0324H181.939C183.673 98.0324 185.078 99.4477 185.078 101.194C185.078 102.939 183.673 104.355 181.939 104.355H22.6215C20.8876 104.355 19.4819 102.939 19.4819 101.194Z" fill="#D9D9D9"/>
<path d="M19.4819 111.731C19.4819 109.985 20.8876 108.57 22.6215 108.57H181.939C183.673 108.57 185.078 109.985 185.078 111.731C185.078 113.477 183.673 114.892 181.939 114.892H22.6215C20.8876 114.892 19.4819 113.477 19.4819 111.731Z" fill="#D9D9D9"/>
<path d="M19.4819 122.268C19.4819 120.522 20.8876 119.107 22.6215 119.107H181.939C183.673 119.107 185.078 120.522 185.078 122.268C185.078 124.014 183.673 125.429 181.939 125.429H22.6215C20.8876 125.429 19.4819 124.014 19.4819 122.268Z" fill="#D9D9D9"/>
<path d="M19.4819 132.805C19.4819 131.059 20.8876 129.644 22.6215 129.644H181.939C183.673 129.644 185.078 131.059 185.078 132.805C185.078 134.551 183.673 135.966 181.939 135.966H22.6215C20.8876 135.966 19.4819 134.551 19.4819 132.805Z" fill="#D9D9D9"/>
<path d="M19.4819 143.343C19.4819 141.597 20.8876 140.181 22.6215 140.181H181.939C183.673 140.181 185.078 141.597 185.078 143.343C185.078 145.088 183.673 146.504 181.939 146.504H22.6215C20.8876 146.504 19.4819 145.088 19.4819 143.343Z" fill="#D9D9D9"/>
<path d="M19.4819 153.88C19.4819 152.134 20.8876 150.719 22.6215 150.719H181.939C183.673 150.719 185.078 152.134 185.078 153.88C185.078 155.626 183.673 157.041 181.939 157.041H22.6215C20.8876 157.041 19.4819 155.626 19.4819 153.88Z" fill="#D9D9D9"/>
<path d="M19.4819 164.417C19.4819 162.671 20.8876 161.256 22.6215 161.256H181.939C183.673 161.256 185.078 162.671 185.078 164.417C185.078 166.163 183.673 167.578 181.939 167.578H22.6215C20.8876 167.578 19.4819 166.163 19.4819 164.417Z" fill="#D9D9D9"/>
<path d="M19.4819 174.954C19.4819 173.208 20.8876 171.793 22.6215 171.793H111.587C113.321 171.793 114.727 173.208 114.727 174.954C114.727 176.7 113.321 178.115 111.587 178.115H22.6215C20.8875 178.115 19.4819 176.7 19.4819 174.954Z" fill="#D9D9D9"/>
<path d="M135.291 193.921C135.291 192.175 136.697 190.76 138.431 190.76H181.939C183.673 190.76 185.078 192.175 185.078 193.921C185.078 195.667 183.673 197.082 181.939 197.082H138.431C136.697 197.082 135.291 195.667 135.291 193.921Z" fill="#D9D9D9"/>
<path d="M135.291 204.459C135.291 202.713 136.697 201.297 138.431 201.297H181.939C183.673 201.297 185.078 202.713 185.078 204.459C185.078 206.204 183.673 207.62 181.939 207.62H138.431C136.697 207.62 135.291 206.204 135.291 204.459Z" fill="#D9D9D9"/>
<path d="M0 275.715V14.1672C2.23142e-06 6.34287 6.29948 0 14.0703 0V1.08978C6.89723 1.08978 1.08233 6.94474 1.08233 14.1672V275.715C1.08233 282.825 6.71703 288.609 13.7352 288.788L14.0703 288.793H191.572C198.745 288.793 204.56 282.938 204.56 275.715V14.1672C204.56 6.94474 198.745 1.08978 191.572 1.08978V0C199.343 0 205.643 6.34286 205.643 14.1672V275.715C205.643 283.539 199.343 289.882 191.572 289.882H14.0703C6.29948 289.882 0 283.539 0 275.715ZM191.572 0V1.08978H14.0703V0H191.572Z" fill="black"/>
</svg>
