<svg width="216" height="291" viewBox="0 0 216 291" fill="none" xmlns="http://www.w3.org/2000/svg">
<g opacity="0.5">
<rect width="118" height="162" rx="8" fill="white"/>
<rect x="0.5" y="0.5" width="117" height="161" rx="7.5" stroke="black" stroke-opacity="0.5"/>
<path d="M20.8236 11.9117C22.1624 11.9117 23.4464 12.4137 24.3931 13.3073C25.3398 14.2008 25.8717 15.4128 25.8717 16.6764C25.8717 17.9401 25.3398 19.1521 24.3931 20.0456C23.4464 20.9392 22.1624 21.4412 20.8236 21.4412C19.4847 21.4412 18.2007 20.9392 17.254 20.0456C16.3073 19.1521 15.7754 17.9401 15.7754 16.6764C15.7754 15.4128 16.3073 14.2008 17.254 13.3073C18.2007 12.4137 19.4847 11.9117 20.8236 11.9117ZM20.8236 23.8235C26.4017 23.8235 30.9198 25.9557 30.9198 28.5882V30.9706H10.7273V28.5882C10.7273 25.9557 15.2454 23.8235 20.8236 23.8235Z" fill="#32FBDF"/>
<path d="M18.491 125.074C16.838 125.074 15.1092 126.082 13.5761 127.96C12.043 129.838 10.8571 132.668 10.9188 136.413C10.9188 138.201 11.5234 140.185 12.6663 141.842C12.834 142.086 13.1241 142.232 13.321 142.461C12.5195 143.374 11.1367 145.106 11.1367 145.106C11.0126 145.206 10.9121 145.329 10.8417 145.468C10.7712 145.607 10.7324 145.758 10.7278 145.912C10.7231 146.065 10.7527 146.218 10.8146 146.361C10.8765 146.503 10.9693 146.631 11.0872 146.738C11.205 146.844 11.3451 146.926 11.4985 146.978C11.6519 147.03 11.8152 147.051 11.9777 147.04C12.1403 147.028 12.2985 146.985 12.4422 146.912C12.5859 146.84 12.7118 146.739 12.8119 146.618C12.8119 146.618 14.2133 144.848 14.9589 144.007C15.8186 144.522 16.8018 144.865 17.9086 144.865C19.8983 144.865 21.7669 143.967 23.3687 142.734C23.5959 142.561 23.7333 142.305 23.9512 142.116C24.4649 142.456 25.0695 142.666 25.7347 142.666C26.8519 142.666 27.8002 142.164 28.6121 141.567C29.4229 140.97 30.1184 140.251 30.7591 139.539C31.189 139.062 31.5035 138.666 31.8519 138.268C31.8088 138.786 31.7738 139.296 31.7785 139.78C31.7808 140.033 31.7925 140.26 31.888 140.571C31.9346 140.724 31.9765 140.938 32.1792 141.154C32.3819 141.371 32.7943 141.567 33.1613 141.567C34.113 141.567 34.8213 141.063 35.3456 140.571C35.8698 140.077 36.2903 139.509 36.7668 138.989C37.7151 137.95 38.6284 137.169 39.9331 137.169C40.2421 137.169 40.5384 137.053 40.7569 136.846C40.9754 136.64 41.0981 136.361 41.0981 136.069C41.0981 135.777 40.9754 135.498 40.7569 135.291C40.5384 135.085 40.2421 134.969 39.9331 134.969C37.6265 134.969 36.0772 136.388 35.0182 137.547C34.6897 137.906 34.4427 138.152 34.1818 138.44C34.1841 138.4 34.1783 138.377 34.1818 138.336C34.226 137.778 34.2983 137.233 34.254 136.687C34.2419 136.379 34.1676 136.076 34.035 135.794C33.8719 135.458 33.3267 134.969 32.7244 134.969C32.0942 134.969 31.7389 135.231 31.4511 135.451C31.1634 135.671 30.9118 135.926 30.6496 136.206C30.1254 136.767 29.5721 137.434 28.9756 138.097C28.378 138.76 27.7454 139.415 27.1548 139.849C26.5653 140.282 26.0749 140.467 25.7347 140.467C25.6578 140.467 25.6182 140.343 25.553 140.33C26.1669 139.634 26.9218 139.036 27.4099 138.302C28.4735 136.701 29.2133 135.117 29.4486 133.732C29.5662 133.04 29.6082 132.367 29.2668 131.705C28.9243 131.044 28.032 130.571 27.2282 130.571C25.6613 130.571 24.3438 131.528 23.4421 132.804C22.5392 134.082 21.9859 135.758 21.9859 137.615C21.9859 138.579 22.3062 139.39 22.6406 140.192C22.3633 140.445 22.163 140.797 21.8764 141.017C20.5297 142.053 19.1213 142.666 17.9086 142.666C17.3808 142.666 16.9102 142.449 16.4524 142.22C16.9964 141.536 17.0383 141.626 17.6173 140.81C20.0031 137.447 22.4589 133.147 22.4589 129.026C22.4589 128.537 22.4239 127.652 21.8764 126.758C21.3289 125.864 20.108 125.074 18.491 125.074ZM18.491 127.273C19.437 127.273 19.628 127.515 19.8377 127.856C20.0474 128.198 20.129 128.745 20.129 129.025C20.129 132.271 17.9249 136.402 15.6509 139.608C15.1861 140.264 15.1861 140.174 14.741 140.742C14.7096 140.698 14.663 140.684 14.6315 140.639C13.7648 139.382 13.2487 137.703 13.2487 136.412V136.379C13.194 133.086 14.2273 130.81 15.433 129.334C16.6376 127.859 18.1625 127.273 18.491 127.273ZM27.1548 132.804C27.1711 132.886 27.2154 133.031 27.1548 133.388C27.0045 134.272 26.3894 135.712 25.4435 137.134C25.1837 137.525 24.7643 137.816 24.4614 138.2C24.4335 137.971 24.3158 137.866 24.3158 137.615C24.3158 136.175 24.7585 134.874 25.3712 134.007C25.956 133.178 26.6329 132.836 27.1548 132.804ZM10.8093 149.264V151.463H41.0981V149.264H10.8093Z" fill="black" fill-opacity="0.5"/>
<path d="M10.7273 44.6691C10.7273 43.6823 11.5273 42.8823 12.5141 42.8823H105.486C106.473 42.8823 107.273 43.6823 107.273 44.6691C107.273 45.6559 106.473 46.4559 105.486 46.4559H12.5141C11.5273 46.4559 10.7273 45.6559 10.7273 44.6691Z" fill="#D9D9D9"/>
<path d="M10.7273 50.625C10.7273 49.6382 11.5273 48.8382 12.5141 48.8382H105.486C106.473 48.8382 107.273 49.6382 107.273 50.625C107.273 51.6118 106.473 52.4117 105.486 52.4117H12.5141C11.5273 52.4117 10.7273 51.6118 10.7273 50.625Z" fill="#D9D9D9"/>
<path d="M10.7273 56.5809C10.7273 55.5941 11.5273 54.7941 12.5141 54.7941H105.486C106.473 54.7941 107.273 55.5941 107.273 56.5809C107.273 57.5677 106.473 58.3676 105.486 58.3676H12.5141C11.5273 58.3676 10.7273 57.5677 10.7273 56.5809Z" fill="#D9D9D9"/>
<path d="M10.7273 62.5367C10.7273 61.5499 11.5273 60.75 12.5141 60.75H105.486C106.473 60.75 107.273 61.5499 107.273 62.5367C107.273 63.5235 106.473 64.3235 105.486 64.3235H12.5141C11.5273 64.3235 10.7273 63.5235 10.7273 62.5367Z" fill="#D9D9D9"/>
<path d="M10.7273 68.4926C10.7273 67.5058 11.5273 66.7059 12.5141 66.7059H105.486C106.473 66.7059 107.273 67.5058 107.273 68.4926C107.273 69.4794 106.473 70.2794 105.486 70.2794H12.5141C11.5273 70.2794 10.7273 69.4794 10.7273 68.4926Z" fill="#D9D9D9"/>
<path d="M10.7273 74.4485C10.7273 73.4617 11.5273 72.6617 12.5141 72.6617H105.486C106.473 72.6617 107.273 73.4617 107.273 74.4485C107.273 75.4353 106.473 76.2353 105.486 76.2353H12.5141C11.5273 76.2353 10.7273 75.4353 10.7273 74.4485Z" fill="#D9D9D9"/>
<path d="M10.7273 80.4044C10.7273 79.4176 11.5273 78.6176 12.5141 78.6176H105.486C106.473 78.6176 107.273 79.4176 107.273 80.4044C107.273 81.3912 106.473 82.1912 105.486 82.1912H12.5141C11.5273 82.1912 10.7273 81.3912 10.7273 80.4044Z" fill="#D9D9D9"/>
<path d="M10.7273 86.3603C10.7273 85.3735 11.5273 84.5735 12.5141 84.5735H105.486C106.473 84.5735 107.273 85.3735 107.273 86.3603C107.273 87.3471 106.473 88.147 105.486 88.147H12.5141C11.5273 88.147 10.7273 87.3471 10.7273 86.3603Z" fill="#D9D9D9"/>
<path d="M10.7273 92.3161C10.7273 91.3293 11.5273 90.5294 12.5141 90.5294H105.486C106.473 90.5294 107.273 91.3293 107.273 92.3161C107.273 93.3029 106.473 94.1029 105.486 94.1029H12.5141C11.5273 94.1029 10.7273 93.3029 10.7273 92.3161Z" fill="#D9D9D9"/>
<path d="M10.7273 98.272C10.7273 97.2852 11.5273 96.4853 12.5141 96.4853H64.4699C65.4567 96.4853 66.2567 97.2852 66.2567 98.272C66.2567 99.2588 65.4567 100.059 64.4699 100.059H12.5141C11.5273 100.059 10.7273 99.2588 10.7273 98.272Z" fill="#D9D9D9"/>
<path d="M78.246 108.993C78.246 108.006 79.046 107.206 80.0328 107.206H105.486C106.473 107.206 107.273 108.006 107.273 108.993C107.273 109.979 106.473 110.779 105.486 110.779H80.0328C79.046 110.779 78.246 109.979 78.246 108.993Z" fill="#D9D9D9"/>
<path d="M38.492 19.0588C38.492 18.072 39.292 17.272 40.2788 17.272H65.732C66.7188 17.272 67.5187 18.072 67.5187 19.0588C67.5187 20.0456 66.7188 20.8456 65.732 20.8456H40.2788C39.292 20.8456 38.492 20.0456 38.492 19.0588Z" fill="#D9D9D9"/>
<path d="M38.492 25.0147C38.492 24.0279 39.292 23.2279 40.2788 23.2279H65.732C66.7188 23.2279 67.5187 24.0279 67.5187 25.0147C67.5187 26.0015 66.7188 26.8014 65.732 26.8014H40.2788C39.292 26.8014 38.492 26.0015 38.492 25.0147Z" fill="#D9D9D9"/>
<path d="M78.246 114.949C78.246 113.962 79.046 113.162 80.0328 113.162H105.486C106.473 113.162 107.273 113.962 107.273 114.949C107.273 115.935 106.473 116.735 105.486 116.735H80.0328C79.046 116.735 78.246 115.935 78.246 114.949Z" fill="#D9D9D9"/>
</g>
<path d="M84.462 199.003C67.0786 191.961 28.273 186.168 39.6517 166.818C47.4202 153.606 62.6858 164.682 53.5791 178.827C44.4723 192.972 14.5026 187.314 18.9017 155.278M18.9017 155.278L23.9914 159.84M18.9017 155.278L12.5643 161.673" stroke="url(#paint0_linear_18_3819)" stroke-opacity="0.3" stroke-width="2" stroke-linecap="round"/>
<path d="M115.33 161C109.724 161 103.861 164.515 98.6615 171.062C93.4622 177.61 89.4402 187.477 89.6496 200.533C89.6496 206.766 91.7001 213.681 95.5759 219.458C96.1448 220.309 97.1285 220.819 97.7962 221.616C95.078 224.802 90.3884 230.84 90.3884 230.84C89.9677 231.187 89.6268 231.617 89.3879 232.101C89.1491 232.584 89.0175 233.111 89.0016 233.647C88.9858 234.184 89.0861 234.717 89.296 235.213C89.506 235.709 89.8209 236.157 90.2204 236.528C90.62 236.898 91.0952 237.184 91.6155 237.365C92.1357 237.546 92.6894 237.62 93.2407 237.58C93.792 237.541 94.3286 237.39 94.8159 237.137C95.3033 236.883 95.7304 236.534 96.0697 236.11C96.0697 236.11 100.823 229.939 103.351 227.006C106.267 228.804 109.601 230 113.355 230C120.103 230 126.44 226.868 131.872 222.571C132.643 221.965 133.109 221.072 133.848 220.417C135.59 221.601 137.64 222.333 139.896 222.333C143.685 222.333 146.901 220.582 149.655 218.5C152.405 216.418 154.763 213.911 156.936 211.431C158.394 209.768 159.461 208.388 160.642 207C160.496 208.806 160.377 210.584 160.393 212.271C160.401 213.153 160.441 213.946 160.765 215.027C160.923 215.564 161.065 216.307 161.752 217.062C162.44 217.818 163.838 218.5 165.083 218.5C168.311 218.5 170.713 216.744 172.491 215.027C174.269 213.306 175.695 211.328 177.311 209.515C180.527 205.892 183.624 203.167 188.049 203.167C189.097 203.167 190.102 202.763 190.843 202.044C191.584 201.325 192 200.35 192 199.333C192 198.317 191.584 197.342 190.843 196.623C190.102 195.904 189.097 195.5 188.049 195.5C180.227 195.5 174.972 200.445 171.381 204.485C170.266 205.739 169.429 206.594 168.544 207.598C168.552 207.46 168.532 207.38 168.544 207.238C168.694 205.29 168.939 203.393 168.789 201.488C168.748 200.414 168.496 199.357 168.046 198.375C167.493 197.202 165.644 195.5 163.601 195.5C161.464 195.5 160.259 196.412 159.283 197.179C158.307 197.946 157.454 198.835 156.565 199.812C154.787 201.768 152.91 204.09 150.888 206.402C148.861 208.714 146.715 210.998 144.712 212.512C142.713 214.023 141.05 214.667 139.896 214.667C139.636 214.667 139.501 214.234 139.28 214.188C141.362 211.761 143.922 209.676 145.578 207.119C149.185 201.537 151.694 196.014 152.492 191.188C152.891 188.772 153.033 186.427 151.875 184.119C150.714 181.815 147.687 180.167 144.961 180.167C139.647 180.167 135.179 183.502 132.121 187.952C129.059 192.406 127.183 198.249 127.183 204.723C127.183 208.085 128.269 210.91 129.403 213.708C128.463 214.59 127.783 215.817 126.811 216.583C122.244 220.194 117.467 222.333 113.355 222.333C111.565 222.333 109.969 221.574 108.416 220.777C110.261 218.393 110.403 218.707 112.367 215.863C120.458 204.137 128.787 189.148 128.787 174.781C128.787 173.075 128.668 169.989 126.811 166.873C124.954 163.756 120.814 161 115.33 161ZM115.33 168.667C118.538 168.667 119.186 169.51 119.897 170.702C120.608 171.894 120.885 173.799 120.885 174.777C120.885 186.093 113.41 200.495 105.698 211.673C104.122 213.958 104.122 213.643 102.612 215.625C102.506 215.472 102.348 215.422 102.241 215.265C99.3015 210.883 97.5513 205.03 97.5513 200.529V200.414C97.3656 188.933 100.87 180.998 104.959 175.854C109.044 170.71 114.216 168.667 115.33 168.667ZM144.712 187.952C144.768 188.236 144.918 188.742 144.712 189.988C144.203 193.07 142.117 198.087 138.909 203.048C138.028 204.409 136.605 205.424 135.578 206.762C135.483 205.965 135.084 205.597 135.084 204.723C135.084 199.701 136.586 195.167 138.664 192.146C140.647 189.255 142.942 188.063 144.712 187.952ZM89.2782 245.333V253H192V245.333H89.2782Z" fill="black"/>
<path d="M178.5 291V274.1H201V248.75H216V278.325C216 281.705 214.5 284.24 212.25 286.775C210 289.31 207 291 204.75 291H178.5ZM103.5 291H77.25C74.25 291 72 289.31 69.75 286.775C67.5 284.24 66 280.86 66 278.325V248.75H81V274.1H103.5V291ZM178.5 122H204.75C207.75 122 210 123.69 212.25 126.225C214.5 128.76 216 131.295 216 134.675V164.25H201V138.9H178.5V122ZM103.5 122V138.9H81V164.25H66V134.675C66 131.295 67.5 128.76 69.75 126.225C72 123.69 74.25 122 77.25 122H103.5ZM193.5 198.05H88.5V214.95H193.5V198.05Z" fill="#32FBDF"/>
<defs>
<linearGradient id="paint0_linear_18_3819" x1="19.5144" y1="154.623" x2="57.9167" y2="212.019" gradientUnits="userSpaceOnUse">
<stop offset="0.375" stop-color="#424242"/>
<stop offset="1" stop-color="#FBFBFB"/>
</linearGradient>
</defs>
</svg>
